<?xml version="1.0" encoding="utf-8"?>
<!-- Generator: Adobe Illustrator 24.1.2, SVG Export Plug-In . SVG Version: 6.00 Build 0)  -->
<svg version="1.1" id="Layer_1" xmlns="http://www.w3.org/2000/svg" xmlns:xlink="http://www.w3.org/1999/xlink" x="0px" y="0px"
	 viewBox="0 0 86 98" style="enable-background:new 0 0 86 98;" xml:space="preserve">
<style type="text/css">
	.st0{fill:none;stroke:#FFFFFF;stroke-width:1.8;stroke-linecap:round;stroke-linejoin:round;stroke-miterlimit:10;}
</style>
<path class="st0" d="M72.5,61.7L72.5,61.7c-2.1,0-3-0.6-4.2-1.3c-1.3-0.8-2.8-1.7-5.7-1.7c-2.9,0-4.4,0.9-5.7,1.7
	c-1.2,0.7-2.1,1.3-4.2,1.3s-3-0.6-4.2-1.3c-1.3-0.8-2.8-1.7-5.7-1.7s-4.4,0.9-5.7,1.7C36,61.2,35,61.7,33,61.7s-3-0.6-4.2-1.3
	c-1.3-0.8-2.8-1.7-5.7-1.7s-4.4,0.9-5.7,1.7c-1.2,0.7-2.1,1.2-4.2,1.3"/>
<path class="st0" d="M72.5,68.6L72.5,68.6c-2.1,0-3-0.6-4.2-1.3c-1.3-0.8-2.8-1.7-5.7-1.7c-2.9,0-4.4,0.9-5.7,1.7
	c-1.2,0.7-2.1,1.3-4.2,1.3s-3-0.6-4.2-1.3c-1.3-0.8-2.8-1.7-5.7-1.7s-4.4,0.9-5.7,1.7C36,68,35,68.6,33,68.6s-3-0.6-4.2-1.3
	c-1.3-0.8-2.8-1.7-5.7-1.7s-4.4,0.9-5.7,1.7c-1.2,0.7-2.1,1.2-4.2,1.3"/>
<path class="st0" d="M72.5,75.9L72.5,75.9c-2.1,0-3-0.6-4.2-1.3c-1.3-0.8-2.8-1.7-5.7-1.7c-2.9,0-4.4,0.9-5.7,1.7
	c-1.2,0.7-2.1,1.3-4.2,1.3s-3-0.6-4.2-1.3c-1.3-0.8-2.8-1.7-5.7-1.7s-4.4,0.9-5.7,1.7C36,75.3,35,75.9,33,75.9s-3-0.6-4.2-1.3
	c-1.3-0.8-2.8-1.7-5.7-1.7s-4.4,0.9-5.7,1.7c-1.2,0.7-2.1,1.4-4.2,1.3"/>
<path class="st0" d="M53.2,60.9V39v-7.5c0-2.5,2-4.5,4.5-4.5c2.5,0,4.5,2,4.5,4.5V39"/>
<path class="st0" d="M33.4,60.9V39v-7.5c0-2.5,2-4.5,4.5-4.5c2.5,0,4.5,2,4.5,4.5V39"/>
<line class="st0" x1="55.3" y1="40.2" x2="8.9" y2="40.2"/>
<line class="st0" x1="74.6" y1="40.2" x2="54" y2="40.2"/>
<line class="st0" x1="53.2" y1="47.1" x2="33.4" y2="47.1"/>
<line class="st0" x1="53.2" y1="54" x2="33.4" y2="54"/>
</svg>
