<?xml version="1.0" encoding="utf-8"?>
<!-- Generator: Adobe Illustrator 24.1.2, SVG Export Plug-In . SVG Version: 6.00 Build 0)  -->
<svg version="1.1" id="Layer_1" xmlns="http://www.w3.org/2000/svg" xmlns:xlink="http://www.w3.org/1999/xlink" x="0px" y="0px"
	 viewBox="0 0 86 98" style="enable-background:new 0 0 86 98;" xml:space="preserve">
<style type="text/css">
	.st0{fill:none;stroke:#FFFFFF;stroke-width:1.8;stroke-linecap:round;stroke-linejoin:round;stroke-miterlimit:10;}
</style>
<path class="st0" d="M29.8,40.4c-1.2-3.8-2.6-6.5-2.7-8.2c-0.2-2.7,1.5-5.5,5.4-7.8c0.4,1.4,8.8,14.1,12,18.6
	c3.2,4.5,6.4,10.6,11.2,10.4c3.6-0.2,4-1.5,4.5-1.1s10,4.3,9.8,5.8c-0.3,1.5-0.1,1.3-2.1,2.3c-2,1-15.9,1.8-18.2,1.1
	c-1.2-0.3-3,0.6-6.1-6.4c-3.1-7-6.8-12.5-7.9-13.6s-2-2.2-2,0.9c0,2,0,8.9-0.1,13.8c0,0.1,0.1,2.1,0.1,2.1l-2.9,0
	c0,0,0.1-2.5,0.1-2.7C30.7,50,30.2,41.8,29.8,40.4z"/>
<path class="st0" d="M30.9,58.4c0,0.2-0.2,3.3-0.2,3.3l3.3,0c0,0-0.2-3.3-0.2-3.4"/>
<g>
	<path class="st0" d="M46.2,73.8c-3.7,1.6-8,2.5-12.7,2.7c-5.3,0.2-10.2-0.7-14.2-2.3"/>
	<path class="st0" d="M43.2,70c-2.9,1.1-6.3,1.8-9.8,1.9c-4.2,0.1-8.1-0.5-11.4-1.7"/>
	<path class="st0" d="M40.3,66.2c-2.1,0.7-4.4,1.1-6.9,1.2c-3.1,0.1-6-0.3-8.5-1.1"/>
</g>
</svg>
