<?xml version="1.0" encoding="utf-8"?>
<!-- Generator: Adobe Illustrator 24.2.1, SVG Export Plug-In . SVG Version: 6.00 Build 0)  -->
<svg version="1.1" id="Layer_1" xmlns="http://www.w3.org/2000/svg" xmlns:xlink="http://www.w3.org/1999/xlink" x="0px" y="0px"
	 viewBox="0 0 98 87" style="enable-background:new 0 0 98 87;" xml:space="preserve">
<style type="text/css">
	.st0{fill:#FFFFFF;}
	.st1{fill:none;stroke:#FFFFFF;stroke-width:2;stroke-miterlimit:10;}
</style>
<g>
	<path class="st0" d="M26.8,25.7c1.1,0,1.9,0.9,1.9,1.9v53.2c0,1.1-0.9,1.9-1.9,1.9H11.6c-1.1,0-1.9-0.9-1.9-1.9V27.6
		c0-1.1,0.9-1.9,1.9-1.9H26.8 M26.8,23.7H11.6c-2.2,0-3.9,1.8-3.9,3.9v53.2c0,2.2,1.8,3.9,3.9,3.9h15.2c2.2,0,3.9-1.8,3.9-3.9V27.6
		C30.8,25.4,29,23.7,26.8,23.7L26.8,23.7z"/>
</g>
<line class="st1" x1="12.9" y1="31" x2="25.5" y2="31"/>
<line class="st1" x1="12.9" y1="35.2" x2="25.5" y2="35.2"/>
<line class="st1" x1="12.9" y1="39.4" x2="25.5" y2="39.4"/>
<line class="st1" x1="12.9" y1="47.8" x2="25.5" y2="47.8"/>
<line class="st1" x1="12.9" y1="52" x2="25.5" y2="52"/>
<line class="st1" x1="12.9" y1="56.2" x2="25.5" y2="56.2"/>
<line class="st1" x1="42.5" y1="31" x2="55.1" y2="31"/>
<line class="st1" x1="42.5" y1="35.2" x2="55.1" y2="35.2"/>
<line class="st1" x1="42.5" y1="39.4" x2="55.1" y2="39.4"/>
<line class="st1" x1="42.5" y1="47.8" x2="55.1" y2="47.8"/>
<line class="st1" x1="42.5" y1="52" x2="55.1" y2="52"/>
<line class="st1" x1="42.5" y1="56.2" x2="55.1" y2="56.2"/>
<line class="st1" x1="42.5" y1="65.9" x2="55.1" y2="65.9"/>
<line class="st1" x1="42.5" y1="70" x2="55.1" y2="70"/>
<line class="st1" x1="42.5" y1="74.2" x2="55.1" y2="74.2"/>
<line class="st1" x1="72.5" y1="65.9" x2="85.1" y2="65.9"/>
<line class="st1" x1="72.5" y1="70" x2="85.1" y2="70"/>
<line class="st1" x1="72.5" y1="74.2" x2="85.1" y2="74.2"/>
<line class="st1" x1="12.9" y1="65.9" x2="25.5" y2="65.9"/>
<line class="st1" x1="12.9" y1="70" x2="25.5" y2="70"/>
<line class="st1" x1="12.9" y1="74.2" x2="25.5" y2="74.2"/>
<g>
	<path class="st0" d="M56.4,25.7c1.1,0,1.9,0.9,1.9,1.9v53.2c0,1.1-0.9,1.9-1.9,1.9H41.2c-1.1,0-1.9-0.9-1.9-1.9V27.6
		c0-1.1,0.9-1.9,1.9-1.9H56.4 M56.4,23.7H41.2c-2.2,0-3.9,1.8-3.9,3.9v53.2c0,2.2,1.8,3.9,3.9,3.9h15.2c2.2,0,3.9-1.8,3.9-3.9V27.6
		C60.3,25.4,58.6,23.7,56.4,23.7L56.4,23.7z"/>
</g>
<line class="st1" x1="72.5" y1="31" x2="85.1" y2="31"/>
<line class="st1" x1="72.5" y1="35.2" x2="85.1" y2="35.2"/>
<line class="st1" x1="72.5" y1="39.4" x2="85.1" y2="39.4"/>
<line class="st1" x1="72.5" y1="47.8" x2="85.1" y2="47.8"/>
<line class="st1" x1="72.5" y1="52" x2="85.1" y2="52"/>
<line class="st1" x1="72.5" y1="56.2" x2="85.1" y2="56.2"/>
<g>
	<path class="st0" d="M86.4,25.7c1.1,0,1.9,0.9,1.9,1.9v53.2c0,1.1-0.9,1.9-1.9,1.9H71.2c-1.1,0-1.9-0.9-1.9-1.9V27.6
		c0-1.1,0.9-1.9,1.9-1.9H86.4 M86.4,23.7H71.2c-2.2,0-3.9,1.8-3.9,3.9v53.2c0,2.2,1.8,3.9,3.9,3.9h15.2c2.2,0,3.9-1.8,3.9-3.9V27.6
		C90.3,25.4,88.6,23.7,86.4,23.7L86.4,23.7z"/>
</g>
<path class="st1" d="M19.2,23.7v-7.3c0-0.6,0.5-1.1,1.1-1.1h28.5v8.4"/>
<circle class="st1" cx="48.8" cy="3.7" r="2.1"/>
<line class="st1" x1="48.8" y1="17.3" x2="48.8" y2="5.8"/>
<path class="st1" d="M49.6,15.3h28c0.6,0,1.1,0.5,1.1,1.1v8.3"/>
</svg>
