<svg enable-background="new 0 0 86 98" viewBox="0 0 86 98" xmlns="http://www.w3.org/2000/svg"><g fill="none" stroke="#fff" stroke-miterlimit="10"><path d="m60.3 71.3h-33.4c-1.2 0-2.2-1-2.2-2.2v-42.3c0-2.4 1.9-4.3 4.3-4.3h29.1c2.4 0 4.3 1.9 4.3 4.3v42.3c.1 1.2-.9 2.2-2.1 2.2z" stroke-width="2.1609"/><path d="m24.1 41.6h-2.5c-1.2 0-2.2-1-2.2-2.2v-5c0-1.2 1-2.2 2.2-2.2h2.5z" stroke-width="2.1884"/><path d="m65.5 41.6h-2.5v-9.3h2.5c1.2 0 2.2 1 2.2 2.2v5c0 1.1-1 2.1-2.2 2.1z" stroke-width="2.1884"/><g stroke-width="2.2797"><path d="m24.3 55.2h39.1"/><path d="m24.3 28.9h39.1"/><path d="m39.5 63.1h7.6"/></g><path d="m33.2 76.1h-2c-1.2 0-2.2-.8-2.2-1.7v-2.9h6.3v2.9c0 1-.9 1.7-2.1 1.7z" stroke-width="2.0105"/><path d="m57 76.1h-2c-1.2 0-2.2-.8-2.2-1.7v-2.9h6.3v2.9c.1 1-.9 1.7-2.1 1.7z" stroke-width="2.0105"/><circle cx="32.8" cy="62.8" r="3.4" stroke-width="2.1703"/><circle cx="54.5" cy="62.8" r="3.4" stroke-width="2.1703"/></g></svg>