<svg enable-background="new 0 0 86 98" height="98" viewBox="0 0 86 98" width="86" xmlns="http://www.w3.org/2000/svg"><g fill="none" stroke="#fff" stroke-miterlimit="10" stroke-width="2"><path d="m23.969 47.078v15.644c0 .564.207 1.054.619 1.466.413.413.902.62 1.467.62h12.513v-12.515h8.344v12.515h12.514c.565 0 1.055-.207 1.467-.62.414-.411.62-.901.62-1.466v-15.644"/><path d="m68.649 43.363-11.115-9.351.034-9.877c0-.305-.099-.555-.295-.75-.194-.196-.444-.293-.748-.293h-2.313c-.304 0-.553.097-.748.293-.196.195-.294.446-.294.75v6.354l-7.951-6.648c-.694-.565-1.521-.847-2.477-.847s-1.783.282-2.477.847l-23.433 19.522c-.217.173-.336.407-.358.7s.054.549.228.767l2.02 2.412c.175.195.403.314.685.358.261.021.522-.055.783-.229l22.552-18.805 22.553 18.805c.174.151.402.228.685.228h.098c.281-.043.51-.163.684-.358l2.021-2.412c.174-.218.25-.474.228-.767-.025-.291-.144-.525-.362-.699z"/></g></svg>