<svg enable-background="new 0 0 86 98" height="98" viewBox="0 0 86 98" width="86" xmlns="http://www.w3.org/2000/svg"><g style="fill:none;stroke:#fff;stroke-width:2;stroke-linecap:round;stroke-linejoin:round;stroke-miterlimit:10"><path d="m12.316 68.994h8.24v8.241h-8.24z"/><path d="m23.539 68.994h8.24v8.241h-8.24z"/><path d="m18.41 57.864h8.24v8.239h-8.24z"/><path d="m20.557 55.463 4.817-6.836 4.817 6.836z"/><circle cx="52.906" cy="28.102" r="8.229"/><path d="m44.717 30.06c.173.63-.201 1.28-.833 1.453-.628.168-1.278-.204-1.45-.835l-.687-2.534c-.17-.632.201-1.282.833-1.453.63-.17 1.279.204 1.45.833z"/><path d="m41.748 28.143-7.321.957 3.521 7.964 5.283-5.371"/><path d="m61.065 30.06c-.173.63.202 1.28.833 1.453.627.168 1.278-.204 1.448-.835l.688-2.534c.169-.632-.204-1.282-.832-1.453-.631-.17-1.282.204-1.451.833z"/><path d="m64.034 28.143 7.081-.472-2.423 8.045-5.605-4.257z"/><path d="m68.637 69.366h-31.459l11.04-29.04s.352-1.443 4.689-1.443 4.691 1.443 4.691 1.443z"/><path d="m59.749 45.713 8.309 4.9c1.509.892 3.217.707 3.818-.41.602-1.115-.138-2.744-1.642-3.635l-10.616-6.258c-1.012-.625-1.801-.483-2.374-.513"/><path d="m46.066 45.713-8.31 4.9c-1.509.892-3.218.707-3.82-.41-.601-1.115.14-2.744 1.644-3.635l10.615-6.258c1.011-.625 1.801-.483 2.374-.513"/><path d="m51.354 69.535v5.077c0 1.449-1.036 2.623-2.313 2.623-1.278 0-2.314-1.174-2.314-2.623v-5.077"/><path d="m59.088 69.535v5.077c0 1.449-1.037 2.623-2.313 2.623-1.279 0-2.314-1.174-2.314-2.623v-5.077"/></g></svg>