<svg enable-background="new 0 0 86 98" viewBox="0 0 86 98" xmlns="http://www.w3.org/2000/svg"><g fill="none" stroke="#fff" stroke-miterlimit="10" stroke-width="2"><path d="m17.7 29.7h48.1v41.6h-48.1z"/><path d="m18.7 55.9c8.4-6 10.6-26.3 10.6-26.3h-11.6v41.6h5.9c.1.1-4.5-13.9-4.9-15.3z"/><path d="m64.7 55.9c-8.4-6-10.6-26.3-10.6-26.3h11.5v41.6h-6.3c0 .1 5-13.9 5.4-15.3z"/><path d="m32.3 35.5v-5.8"/><path d="m36.1 35.5v-5.8"/><path d="m40 35.5v-5.8"/><path d="m43.8 35.5v-5.8"/><path d="m47.6 35.5v-5.8"/><path d="m51.3 35.5v-5.8"/><path d="m28.5 35.5h26.6"/><path d="m58.6 29.7s.7 18.4 7 25.2"/><path d="m25.1 29.7s-.7 18.4-7 25.2"/><path d="m17.8 71.3h48.1v4.1h-48.1z"/><circle cx="35.6" cy="61.7" r="2.6"/><circle cx="44.5" cy="56.9" r="2.6"/><path d="m38.2 61.1v-15.8c0-.1 0-.1.1-.2l8.5-4.5c.1-.1.3 0 .3.2v15.5"/></g></svg>