<svg enable-background="new 0 0 24 22" height="22" viewBox="0 0 24 22" width="24" xmlns="http://www.w3.org/2000/svg"><path d="m0 0h24v22h-24z" fill="#edb056"/><path d="m11.996 16.093c-.169 0-.333-.069-.459-.197l-4.709-4.716c-.082-.082-.138-.18-.168-.295l-.021-.26c.031-.133.091-.252.191-.353.175-.178.352-.354.528-.529.123-.12.264-.181.432-.188h.002c.203 0 .353.068.499.215l2.615 2.652-.001-5.844c0-.38.269-.66.639-.666h.916c.363.005.639.286.639.653l-.005 5.856 1.023-1.058 1.615-1.613c.128-.127.29-.197.459-.197.17 0 .333.07.46.197.176.177.351.355.523.535.084.083.138.178.168.295l.03.122-.01.138c-.032.124-.087.229-.18.321l-4.725 4.733c-.126.128-.291.199-.461.199z" fill="#fff"/></svg>