<svg enable-background="new 0 0 22 22" height="22" viewBox="0 0 22 22" width="22" xmlns="http://www.w3.org/2000/svg"><path clip-rule="evenodd" d="m22 11.66c0 .236-.098.457-.279.639l-9.455 9.439c-.117.117-.248.191-.408.234l-.112.028h-.176l-.027-.008c-.225-.037-.391-.121-.537-.264-.35-.348-.701-.693-1.047-1.049-.174-.178-.26-.369-.268-.602 0-.002 0-.004 0-.006 0-.205.037-.432.311-.703 1.029-1.025 5.906-5.91 5.906-5.91l-2.406-.01-10.18.002c-.541 0-.924-.365-.932-.887-.004-.311-.006-.619-.006-.928 0-.299.002-.6.006-.898.008-.514.389-.885.91-.885h10.848l1.822.043s-4.645-4.639-6.008-6.004c-.178-.18-.275-.404-.275-.637 0-.234.1-.461.279-.641.277-.277 1.07-1.057 1.07-1.057.117-.114.246-.188.408-.229l.107-.026h.188l.041.01c.178.033.326.108.453.234l9.48 9.467c.185.183.287.414.287.648z" fill="#fff" fill-rule="evenodd"/></svg>