<svg height="16" viewBox="0 0 511.97 512" width="16" xmlns="http://www.w3.org/2000/svg"><path d="m255.98 0v31.99c123.5 0 223.99 100.5 223.99 224h32c0-141.37-114.62-255.99-255.99-255.99m160 255.99c0-88.38-71.63-160-160-160v32c70.59 0 128 57.44 128 128zm-128 0h32c0-35.35-28.66-64-64-64v32c17.64 0 32 14.37 32 32m174.49 212.21-33.93 33.94c-6.07 6.03-23.82 9.84-24.35 9.84-107.43.91-210.87-41.28-286.88-117.31-76.23-76.22-118.45-180.06-117.29-287.8 0-.07 3.89-17.31 9.94-23.31l33.93-33.97c12.46-12.44 36.3-18.06 53-12.5l7.16 2.4c16.7 5.57 34.15 24 38.78 40.97l17.09 62.72c4.64 17-1.59 41.18-14.03 53.62l-22.69 22.69c22.25 82.46 86.92 147.12 169.34 169.4l22.69-22.69c12.44-12.44 36.68-18.66 53.68-14.03l62.72 17.12c16.94 4.6 35.38 22.03 40.97 38.75l2.38 7.16c5.55 16.72-.07 40.56-12.51 53" fill="#fff"/></svg>