<svg enable-background="new 0 0 467.77 303.871" height="303.871" viewBox="0 0 467.77 303.871" width="467.77" xmlns="http://www.w3.org/2000/svg"><path d="m438.32 58.7c-.95.36-1.438.46-1.818.7-29.23 18.58-58.462 37.12-87.58 55.86-1.382.89-2.33 3.49-2.342 5.29-.158 20.49 0 40.991-.198 61.479-.03 3.75.988 5.932 4.26 7.979 26.09 16.382 52.03 32.972 78.02 49.49 3.04 1.931 6.092 3.84 9.66 6.09zm-261.03 216.07v-.021c44.979 0 89.96.021 134.948-.011 10.83 0 13.87-3.079 13.87-14.038.021-72.48.01-144.951 0-217.421 0-11.19-2.97-14.12-14.29-14.12-67.64 0-135.29 0-202.93 0-22.82 0-45.648-.03-68.47.05-7.49.02-11.03 3.63-11.21 10.98-.05 2-.03 4-.03 6 0 71.64.01 143.28.01 214.92 0 10.57 3.03 13.648 13.65 13.66 44.812.001 89.632.001 134.452.001m169.19-63.03c0 16.82.04 32.6-.03 48.381-.02 3.648.062 7.398-.698 10.93-3.132 14.58-15.33 24.24-30.682 24.27-40.818.091-81.648.041-122.47.041-50.148 0-100.3-.01-150.45-.021-20.88 0-33.63-12.709-33.64-33.629-.02-73.482-.02-146.952 0-220.432.01-19.71 13.23-32.78 33.04-32.78 90.47-.01 180.95 0 271.42.01 20.91.01 33.51 12.69 33.51 33.66-.01 15.99 0 31.99.021 47.98 0 .33.118.65.35 1.76 1.83-1.09 3.479-2.01 5.06-3.02 29.65-18.85 59.312-37.67 88.9-56.6 4.17-2.67 8.27-4.45 13.02-1.89 4.802 2.58 5.44 7.06 5.44 11.98-.05 73.14-.05 146.29 0 219.431 0 4.76-.71 9.061-5.24 11.59-4.688 2.629-8.85 1-13.04-1.68-29.738-19.011-59.54-37.931-89.318-56.861-1.393-.88-2.813-1.691-5.193-3.12m91.84-153.04c-.95.36-1.438.46-1.818.7-29.23 18.58-58.462 37.12-87.58 55.86-1.382.89-2.33 3.49-2.342 5.29-.158 20.49 0 40.991-.198 61.479-.03 3.75.988 5.932 4.26 7.979 26.09 16.382 52.03 32.972 78.02 49.49 3.04 1.931 6.092 3.84 9.66 6.09zm-261.03 216.07v-.021c44.979 0 89.96.021 134.948-.011 10.83 0 13.87-3.079 13.87-14.038.021-72.48.01-144.951 0-217.421 0-11.19-2.97-14.12-14.29-14.12-67.64 0-135.29 0-202.93 0-22.82 0-45.648-.03-68.47.05-7.49.02-11.03 3.63-11.21 10.98-.05 2-.03 4-.03 6 0 71.64.01 143.28.01 214.92 0 10.57 3.03 13.648 13.65 13.66 44.812.001 89.632.001 134.452.001zm169.19-63.03c0 16.82.04 32.6-.03 48.381-.02 3.648.062 7.398-.698 10.93-3.132 14.58-15.33 24.24-30.682 24.27-40.818.091-81.648.041-122.47.041-50.148 0-100.3-.01-150.45-.021-20.88 0-33.63-12.709-33.64-33.629-.02-73.482-.02-146.952 0-220.432.01-19.71 13.23-32.78 33.04-32.78 90.47-.01 180.95 0 271.42.01 20.91.01 33.51 12.69 33.51 33.66-.01 15.99 0 31.99.021 47.98 0 .33.118.65.35 1.76 1.83-1.09 3.479-2.01 5.06-3.02 29.65-18.85 59.312-37.67 88.9-56.6 4.17-2.67 8.27-4.45 13.02-1.89 4.802 2.58 5.44 7.06 5.44 11.98-.05 73.14-.05 146.29 0 219.431 0 4.76-.71 9.061-5.24 11.59-4.688 2.629-8.85 1-13.04-1.68-29.738-19.011-59.54-37.931-89.318-56.861-1.393-.88-2.813-1.691-5.193-3.12z" fill="#fff"/></svg>