<svg enable-background="new 0 0 58 58" height="58" viewBox="0 0 58 58" width="58" xmlns="http://www.w3.org/2000/svg"><g fill="#fff"><path d="m22.883 20.319c-.94.917-1.667 1.626-2.495 2.432-2.529-2.589-5.078-5.199-7.628-7.81-.081.044-.161.089-.241.133 0 1.364.024 2.728-.008 4.092-.026 1.122-.848 1.777-1.932 1.61-.803-.124-1.337-.666-1.346-1.532-.028-2.815-.029-5.63-.002-8.444.007-.892.689-1.563 1.599-1.571 2.787-.027 5.574-.026 8.361-.001.999.009 1.595.66 1.609 1.624.013.98-.618 1.64-1.662 1.661-1.343.027-2.688.006-4.199.006 2.712 2.661 5.311 5.212 7.944 7.8z" opacity=".66"/><path d="m45.646 43.063c0-1.289-.008-2.58.002-3.869.011-1.174.621-1.832 1.662-1.827 1.037.006 1.637.659 1.642 1.851.011 2.646.011 5.297-.004 7.942-.007 1.146-.651 1.78-1.808 1.784-2.677.015-5.353.017-8.025.004-1.104-.004-1.749-.645-1.741-1.66.008-1.012.653-1.627 1.767-1.641 1.313-.015 2.625-.002 4.09-.002-2.703-2.674-5.293-5.236-7.912-7.828.899-.838 1.658-1.545 2.47-2.301 2.478 2.517 5.037 5.118 7.599 7.721.085-.057.175-.117.258-.174z" opacity=".66"/><path d="m45.652 14.832c-2.729 2.762-5.287 5.355-7.821 7.922-.835-.849-1.562-1.585-2.372-2.408 2.535-2.505 5.129-5.068 7.723-7.631-.029-.066-.061-.132-.089-.199-1.362 0-2.727.027-4.089-.008-1.202-.032-1.898-1.034-1.556-2.168.218-.72.733-1.108 1.466-1.114 2.813-.02 5.625-.024 8.438-.004.885.007 1.582.693 1.59 1.582.024 2.812.027 5.624-.002 8.436-.01.987-.692 1.566-1.666 1.554-.955-.014-1.592-.619-1.613-1.616-.029-1.365-.009-2.732-.009-4.346z" opacity=".66"/><path d="m15.101 45.643c1.26 0 2.519-.006 3.779.002 1.254.008 1.921.594 1.917 1.651-.006 1.07-.665 1.649-1.917 1.653-2.59.008-5.183.009-7.774-.004-1.251-.006-1.883-.641-1.887-1.883-.01-2.617-.012-5.237-.002-7.856.006-1.181.608-1.833 1.65-1.839 1.041-.006 1.64.648 1.653 1.835.013 1.288.004 2.575.004 3.978 2.635-2.683 5.185-5.279 7.724-7.861.892.926 1.61 1.67 2.351 2.439-2.496 2.463-5.093 5.026-7.692 7.59.066.097.13.197.194.295z" opacity=".66"/></g></svg>