<svg enable-background="new 0 0 24 24" height="24" viewBox="0 0 24 24" width="24" xmlns="http://www.w3.org/2000/svg"><path d="m9.137 17.197c-.593.605-1.193 1.199-1.793 1.797-1.275 1.275-2.557 2.552-3.83 3.83-.211.212-.455.332-.756.335-.758.009-1.522-.604-1.712-1.38-.106-.426-.04-.809.284-1.133 1.834-1.828 3.66-3.66 5.49-5.49.199-.2.633-.584.608-.621-.617-.905-1.05-1.875-1.289-2.933-.249-1.105-.274-2.216-.083-3.333.194-1.113.594-2.144 1.199-3.096.608-.956 1.378-1.762 2.308-2.412 3.419-2.393 8.065-1.942 10.98 1.063 2.876 2.965 3.193 7.642.734 10.941-1.248 1.674-2.889 2.777-4.926 3.24-2.437.553-4.689.092-6.736-1.271-.023-.013-.33.314-.478.463zm5.299-2.047c2.984-.006 5.41-2.434 5.414-5.418.004-3.001-2.438-5.428-5.453-5.42-2.972.007-5.397 2.445-5.391 5.422.007 2.991 2.444 5.423 5.43 5.416z" fill="#fff"/></svg>