<svg enable-background="new 0 0 330 288" viewBox="0 0 330 288" xmlns="http://www.w3.org/2000/svg"><path d="m47 72c-7.5 9.4-58 74-40 108s84 94 89 96 25 15 76 2 118-36 134-51 31-32 12-53-25-46-18-70 24-50-35-80c-53-27-85-20-141-8-42 9-45 16-77 56z" fill="#f5ecde"/><g fill="#dcb368"><path d="m92.3 225.6c-1.4 0-2.6-1.2-2.6-2.6s1.2-2.6 2.6-2.6h7.3v-27.4c0-4.2 3.4-7.6 7.6-7.6h14.8c4.2 0 7.6 3.4 7.6 7.6v27.4h17.5v-52.6c0-4.2 3.4-7.6 7.6-7.6h14.7c4.2 0 7.6 3.4 7.6 7.6v52.6h17.5v-95.8c0-4.2 3.4-7.6 7.6-7.6h14.7c4.2 0 7.6 3.4 7.6 7.6v95.8h7c1.4 0 2.6 1.2 2.6 2.6s-1.2 2.6-2.6 2.6zm109.9-103.4c-1.4 0-2.5 1.1-2.5 2.5v95.8h19.6v-95.8c0-1.4-1.1-2.5-2.5-2.5zm-47.5 43.2c-1.4 0-2.5 1.1-2.5 2.5v52.6h19.6v-52.6c0-1.4-1.1-2.5-2.5-2.5zm-47.4 25.1c-1.4 0-2.5 1.1-2.5 2.5v27.4h19.6v-27.4c0-1.4-1.1-2.5-2.5-2.5z"/><path d="m118 155.6c-.7 0-1.3-.3-1.8-.8s-.8-1.1-.8-1.8.3-1.3.8-1.8l53.8-53.8c.5-.5 1.1-.8 1.8-.8s1.3.3 1.8.8l11.5 11.5 30.6-30.6h-12.2c-1.4 0-2.6-1.2-2.6-2.6s1.2-2.6 2.6-2.6h18.1.1.2c.7 0 1.3.3 1.8.8s.8 1.2.7 2v.1 17.1c0 1.4-1.2 2.6-2.6 2.6s-2.6-1.2-2.6-2.6v-11.2l-32.4 32.4c-.5.5-1.1.8-1.8.8s-1.3-.3-1.8-.8l-11.5-11.5-52 52c-.4.6-1 .8-1.7.8z"/><circle cx="107.9" cy="163.5" r="2.6"/></g></svg>