<svg enable-background="new 0 0 342 298" viewBox="0 0 342 298" xmlns="http://www.w3.org/2000/svg"><g fill="#ede1c9"><path d="m189.8 49.5c11.2 0 20.4-9.1 20.4-20.4s-9.1-20.4-20.4-20.4-20.4 9.1-20.4 20.4c0 4.6 1.5 8.8 4.1 12.2l-33.5 46.9c-2-.7-4.1-1-6.3-1-5.4 0-10.2 2.1-13.9 5.5l-22.3-12.7c.3-1.4.5-2.8.5-4.3 0-11.2-9.1-20.4-20.4-20.4s-20.4 9.1-20.4 20.4c0 1.5.2 2.9.5 4.3l-22.4 12.6c-3.6-3.4-8.5-5.5-13.9-5.5-11.3.1-20.4 9.2-20.4 20.5s9.1 20.4 20.4 20.4 20.4-9.1 20.4-20.4c0-1.5-.2-2.9-.5-4.3l22.3-12.7c3.6 3.4 8.5 5.5 13.9 5.5s10.2-2.1 13.9-5.5l22.3 12.7c-.3 1.4-.5 2.8-.5 4.3 0 11.2 9.1 20.4 20.4 20.4 11.2 0 20.4-9.1 20.4-20.4 0-4.6-1.5-8.8-4.1-12.2l33.5-46.8c2.1.6 4.2.9 6.4.9zm0-28.5c4.5 0 8.2 3.7 8.2 8.2s-3.7 8.2-8.2 8.2-8.2-3.7-8.2-8.2c.1-4.6 3.7-8.2 8.2-8.2zm-168.4 94.7c-4.5 0-8.2-3.7-8.2-8.2s3.7-8.2 8.2-8.2 8.2 3.7 8.2 8.2c-.1 4.6-3.7 8.2-8.2 8.2zm56.1-31.9c-4.5 0-8.2-3.7-8.2-8.2s3.7-8.2 8.2-8.2 8.2 3.7 8.2 8.2c0 4.6-3.7 8.2-8.2 8.2zm56.2 31.9c-4.5 0-8.2-3.7-8.2-8.2s3.7-8.2 8.2-8.2 8.2 3.7 8.2 8.2c-.1 4.6-3.7 8.2-8.2 8.2z"/><path d="m9 159.2c-3.4 0-6.1 2.7-6.1 6.1v54.1c0 3.4 2.7 6.1 6.1 6.1h24.8c3.4 0 6.1-2.7 6.1-6.1v-54.1c0-3.4-2.7-6.1-6.1-6.1zm18.7 54.1h-12.6v-41.8h12.6z"/><path d="m65.1 128c-3.4 0-6.1 2.7-6.1 6.1v85.3c0 3.4 2.7 6.1 6.1 6.1h24.8c3.4 0 6.1-2.7 6.1-6.1v-85.3c0-3.4-2.7-6.1-6.1-6.1zm18.7 85.3h-12.6v-73.1h12.6z"/><path d="m121.3 159.2c-3.4 0-6.1 2.7-6.1 6.1v54.1c0 3.4 2.7 6.1 6.1 6.1h24.8c3.4 0 6.1-2.7 6.1-6.1v-54.1c0-3.4-2.7-6.1-6.1-6.1zm18.7 54.1h-12.6v-41.8h12.6z"/><path d="m177.4 195.3c-3.4 0-6.1 2.7-6.1 6.1v18c0 3.4 2.7 6.1 6.1 6.1h24.8c3.4 0 6.1-2.7 6.1-6.1s-2.7-6.1-6.1-6.1h-18.7v-11.8c0-3.4-2.7-6.2-6.1-6.2z"/><path d="m337.9 254.2-35.1-60.8c8.9-9.5 15.4-21.1 18.8-34 5.5-20.6 2.7-42.2-8-60.7-22-38.2-71-51.3-109.2-29.3s-51.3 71-29.3 109.2c10.7 18.5 27.9 31.7 48.5 37.3 6.9 1.8 13.9 2.8 20.8 2.8 6.1 0 12.1-.7 18-2.1l35.1 60.8c4.3 7.5 12.1 11.6 20.2 11.6 3.9 0 7.9-1 11.6-3.1 7.2-4.1 11.6-11.9 11.6-20.1.1-4.1-1-8.1-3-11.6zm-111-50c-17.5-4.7-32.1-15.9-41.1-31.6-18.7-32.3-7.5-73.8 24.8-92.5 10.6-6.1 22.3-9.1 33.7-9.1 23.4 0 46.2 12.1 58.8 33.8 9 15.7 11.4 33.9 6.8 51.4-4.7 17.5-15.9 32.1-31.6 41.1-15.7 9.1-34 11.5-51.4 6.9zm96.4 71.2c-5.3 3-12 1.2-15.1-4l-33.8-58.5c3.4-1.4 6.7-3 9.9-4.9s6.3-3.9 9.2-6.2l33.8 58.5c1 1.7 1.5 3.6 1.5 5.5 0 3.9-2.1 7.6-5.5 9.6z"/><path d="m245.6 96.6c23.4 0 42.4 19 42.4 42.4s-19 42.4-42.4 42.4-42.4-19-42.4-42.4 19-42.4 42.4-42.4m0-12c-30 0-54.4 24.4-54.4 54.4s24.4 54.4 54.4 54.4 54.4-24.4 54.4-54.4-24.4-54.4-54.4-54.4z"/></g></svg>