<svg enable-background="new 0 0 330 288" viewBox="0 0 330 288" xmlns="http://www.w3.org/2000/svg"><path d="m47.4 71.2c-7.5 9.4-58 74-40 108s84 94 89 96 25 15 76 2 118-36 134-51 31-32 12-53-25-46-18-70 24-50-35-80c-53-27-85-20-141-8-42 9-45 16-77 56z" fill="#f7f1e7"/><path d="m247.3 88.3h-35.2v-11.3c0-7.8-6.1-14.1-13.6-14.1h-48.8c-7.5 0-13.5 6.3-13.6 14.1v11.3h-35.1c-4.6.1-8.2 3.9-8.1 8.5v62.8c0 3.5 2.1 6.7 5.4 8v39.3c-.1 4.6 3.6 8.3 8.2 8.4h135.4c4.6-.1 8.2-3.9 8.1-8.5v-39.3c3.3-1.3 5.5-4.5 5.4-8v-62.8c.1-4.6-3.5-8.3-8.1-8.4zm-105.7-11.3c-.1-4.6 3.5-8.4 8.1-8.5h48.8c4.6.1 8.2 3.9 8.1 8.5v11.3h-5.4v-11.3c0-1.5-1.2-2.8-2.7-2.8h-48.8c-1.5 0-2.7 1.3-2.7 2.8v11.3h-5.4zm54.2 11.3h-43.4v-8.5h43.4zm48.8 118.4c0 1.5-1.2 2.8-2.7 2.8h-135.5c-1.5 0-2.7-1.3-2.7-2.8v-38.3l51.3 8.6v4.3c-.1 4.6 3.5 8.4 8.1 8.5h21.9c4.6-.1 8.2-3.9 8.1-8.5v-4.3l51.4-8.6zm-56.8-25.4c0 1.5-1.2 2.8-2.7 2.8h-21.9c-1.5 0-2.7-1.3-2.7-2.8v-11.2c0-1.5 1.2-2.8 2.7-2.8h21.9c1.5 0 2.7 1.3 2.7 2.8zm62.2-21.8c0 1.4-1 2.6-2.3 2.8l-.8.1-53.7 8.9v-1.2c.1-4.6-3.5-8.4-8.1-8.5h-21.9c-4.6.1-8.2 3.9-8.1 8.5v1.2l-54.4-9c-1.4-.2-2.4-1.4-2.3-2.8v-62.8c0-1.5 1.2-2.8 2.7-2.8h146.3c1.5 0 2.7 1.3 2.7 2.8v62.8z" fill="#dcb368"/></svg>