<svg enable-background="new 0 0 330 288" viewBox="0 0 330 288" xmlns="http://www.w3.org/2000/svg"><path d="m47 74c-7.5 9.4-58 74-40 108s84 94 89 96 25 15 76 2 118-36 134-51 31-32 12-53-25-46-18-70 24-50-35-80c-53-27-85-20-141-8-42 9-45 16-77 56z" fill="#f5efe2"/><g fill="#dcb368"><path d="m136.4 201.9c-12.6 0-23-10.2-23.2-22.7-.1-6.2 2.2-12.1 6.5-16.5 4.2-4.3 9.7-6.8 15.6-7.1l1.9 3.3-2.5 1.8c-.2.2-.5.4-.7.6-5.7.8-10.6 4.5-13.2 9.8-4.2 8.7-.5 19.1 8.3 23.2 2.4 1.1 4.9 1.7 7.4 1.7 3.5 0 6.9-1.1 9.8-3l.2.2c1.2 1.6 2.8 2.8 4.5 3.3-3.9 3.2-9 5-14.1 5.1z"/><path d="m139.5 231-16.3-1.6c-1.3-.1-2.4-1.2-2.5-2.5l-1.7-15.4-13.5 7.5c-.5.2-1 .4-1.4.4-.8 0-1.7-.4-2.3-1.1l-11-13.4c-.8-1.1-.8-2.6 0-3.7l9.9-11.8-14.7-4.7c-1.3-.4-2.2-1.7-2-3l1.6-16.3c.1-1.3 1.2-2.4 2.5-2.6l15.3-1.7-7.4-13.5c-.7-1.2-.4-2.8.7-3.6l13.4-11c.5-.5 1.2-.6 1.8-.6.7 0 1.3.2 1.9.7l10.3 8.7-.1.6c-.2 1.9 0 3.8.8 5.5-1.6 0-3.1-.6-4.3-1.6l-8.6-7.3-9.7 7.9 5.5 9.9c.5.8.7 1.7.8 2.6.5 3.8-2.4 7.3-6.1 7.7l-11.2 1.2-1.2 11.7 10.8 3.5c.8.2 1.7.7 2.4 1.3 1.4 1.2 2.3 2.9 2.4 4.8.1 1.8-.5 3.7-1.7 5l-7.3 8.6 7.9 9.7 9.8-5.4c.8-.5 1.7-.7 2.6-.8h.7c3.6 0 6.5 2.6 6.9 6.2l1.2 11.2 11.6 1.2 3.5-10.9c.2-.8.7-1.7 1.3-2.4 1.3-1.6 3.2-2.5 5.3-2.5 1.7 0 3.2.6 4.4 1.7l8.6 7.3 9.9-8.1 8 1.3-15.7 12.4c-.5.5-1.2.7-1.8.7-.7 0-1.3-.2-1.9-.7l-11.8-9.9-4.7 14.7c-.4 1.2-1.4 2-2.8 2 .2.1 0 .1-.1.1z"/><path d="m200.7 204.1c-.1 0-.2 0-.4 0l-22.4-3.2c-.7-.1-1.3-.5-1.7-1-.4-.6-.6-1.2-.5-1.9l2.2-14.7c.2-1.3-.1-2.6-1-3.7-1-1.2-2.4-2-3.9-2-1.1 0-2.2.4-3 1l-11.8 8.9c-.5.4-1 .5-1.6.5-.8 0-1.6-.4-2-1.1l-13.6-18.4c-.8-1.2-.6-2.8.5-3.6l11.8-8.9c1.1-.8 1.8-1.9 1.9-3.2.4-2.8-1.6-5.3-4.2-5.6l-14.8-2.2h-.1c-1.2-.2-2.3-1.6-2-2.9l3.2-22.5c.2-1.3 1.3-2.3 2.5-2.3h.4l14.7 2.2h.7c1.8 0 3.3-1 4.3-2.4 1.1-1.7 1-3.9-.4-5.5l-8.9-11.8c-.4-.5-.6-1.2-.5-1.8l7.9-6.9 11.2-8.5c.5-.4 1-.5 1.6-.5.8 0 1.6.4 2 1.1l8.9 11.8c.8 1.1 1.9 1.8 3.2 1.9h.7c2.5 0 4.5-1.8 4.9-4.3l2.2-14.7c.2-1.3 1.3-2.3 2.5-2.3h.4l22.4 3.2c1.4.2 2.4 1.6 2.2 2.9l-2.2 14.8c-.2 1.3.1 2.6 1 3.7 1 1.2 2.4 1.9 3.9 1.9 1.1 0 2.2-.4 3-1l11.8-8.9c.5-.4 1-.5 1.6-.5.8 0 1.6.4 2 1.1l13.6 18.2c.4.6.6 1.2.5 1.9s-.5 1.3-1 1.7l-11.8 8.9c-1.1.8-1.8 1.9-1.9 3.2-.4 2.8 1.6 5.3 4.2 5.6l14.4 2h.4c.7.1 1.3.5 1.7 1 .4.6.6 1.2.5 1.9l-3.2 22.5c-.2 1.3-1.3 2.3-2.5 2.3-.1 0-.2 0-.4 0l-14.7-2.2c-.2 0-.5 0-.7 0-1.8 0-3.3 1-4.2 2.5-1.1 1.7-1 3.9.4 5.5l8.9 11.8c.8 1.2.6 2.8-.5 3.6l-18.4 13.8c-.5.4-1 .5-1.6.5-.8 0-1.6-.4-2-1.1l-8.9-11.8c-.8-1.1-1.9-1.8-3.2-1.9-.2 0-.5 0-.7 0-2.5 0-4.5 1.8-4.9 4.3l-2.2 14.7c0 1.4-1.1 2.4-2.4 2.4zm-27.8-31.7c.5 0 1 0 1.4.1 2.6.4 5 1.8 6.7 3.9 1.7 2.2 2.3 4.8 1.9 7.5l-1.7 12.1 17.3 2.5 1.7-12.2c.4-2.6 1.8-5 3.9-6.7 1.8-1.3 3.8-2 6.1-2 3.2 0 6.2 1.4 8.1 4.1l7.4 9.8 14-10.5-7.3-9.8c-1.7-2.2-2.3-4.8-1.9-7.5.7-4.9 5-8.7 10-8.7.5 0 1 0 1.4.1l12.1 1.7 2.5-17.3-12.1-1.7c-2.6-.4-5-1.8-6.7-3.9-3.3-4.4-2.4-10.9 2-14.2l9.8-7.4-10.5-14-9.8 7.3c-1.8 1.3-3.9 2-6.1 2-.5 0-1 0-1.4-.1-2.6-.4-5-1.8-6.7-3.9-1.7-2.2-2.3-4.8-1.9-7.5l1.7-12.1-17.3-2.5-1.5 11.8c-.4 2.6-1.8 5-3.9 6.7-1.8 1.3-3.8 2-6.1 2-3.2 0-6.2-1.4-8.1-4.1l-7.4-9.8-14 10.5 7.4 9.8c1.7 2.2 2.3 4.8 1.9 7.5-.7 4.9-5 8.7-10 8.7-.5 0-1 0-1.4-.1l-12.1-1.7-2.5 17.3 12.1 1.7c2.6.4 5 1.8 6.7 3.9 3.3 4.4 2.4 10.9-2 14.2l-9.8 7.4 10.5 14 9.8-7.3c1.5-.9 3.6-1.6 5.8-1.6z"/><path d="m198 169c-16 0-29.1-13-29.1-29.1s13-29.1 29.1-29.1 29 13 29.1 29.1c-.1 16.1-13 29.1-29.1 29.1zm0-52.9c-13.2 0-23.8 10.6-23.8 23.8s10.6 23.8 23.8 23.8 23.8-10.8 23.8-23.8-10.6-23.8-23.8-23.8z"/></g></svg>