<svg enable-background="new 0 0 42 42" viewBox="0 0 42 42" xmlns="http://www.w3.org/2000/svg"><g fill="#dcb368"><path d="m28.8.7c.2.1.5.1.7.2 1.1.5 1.6 1.6 1.4 2.8-.2 1.1-1.2 2-2.3 2-.9 0-1.8 0-2.8 0-2.7 0-5.4 0-8.2 0-2.3 0-4.6 0-6.9 0-1.6 0-3.2 0-4.9 0-.1 0-.1 0-.2 0v30.2h30.2c0-.1 0-.1 0-.2 0-3.7 0-7.3 0-11 0-1.3 0-2.6 0-3.9s1-2.4 2.3-2.5 2.5.7 2.7 2v.1 16c0 .1 0 .1-.1.2-.3 2-1.8 3.6-3.8 4.2-.2.1-.5.1-.7.2-10.4 0-20.8 0-31.3 0-.1 0-.1 0-.2 0-2.1-.4-3.5-1.6-4.2-3.7-.1-.2-.1-.5-.2-.8 0-10.4 0-20.8 0-31.3 0-.1 0-.1 0-.2.7-2 2.2-3.6 4.2-4.1.2-.1.5-.1.7-.2z"/><path d="m41 6.1c-.1.7-.5 1.2-.9 1.7-3.7 4.8-7.4 9.5-11.1 14.3-2 2.6-4.1 5.2-6.1 7.8-.9 1.1-2.3 1.4-3.4.6-.4-.3-.8-.7-1.2-1.1-2-2-4-4-6-6-.6-.6-1.2-1.2-1.8-1.8-.9-1-.9-2.6 0-3.5 1-1 2.6-1 3.6 0 1.9 1.9 3.8 3.8 5.6 5.7.3.3.6.6.9.8.1-.1.1-.2.2-.2 2.8-3.6 5.6-7.2 8.4-10.8 2.4-3.1 4.8-6.2 7.2-9.3.7-.8 1.5-1.2 2.5-1 1.1.2 1.7.9 2 2v.1c.1.2.1.4.1.7z"/></g></svg>