<svg enable-background="new 0 0 42 42" viewBox="0 0 42 42" xmlns="http://www.w3.org/2000/svg"><g fill="#edb057"><path d="m4.8 40c-2.7 0-3.5-.8-3.5-3.6v-31.2c0-2.6 1.2-3.5 2.5-3.5h24.9c.1 0 .2.1.3.1h.1c.6.3 1 .9.8 1.7-.1.6-.7 1.2-1.3 1.2h-24v32.2h32.2v-16.1c0-.8.6-1.4 1.4-1.5h.1c.6 0 1.3.3 1.5 1.1v16.6c0 2.4-.4 3-3.8 3-1 0-31.2 0-31.2 0z"/><path d="m20.9 30c-.3 0-.5-.1-.8-.3s-8.9-8.8-8.9-8.8c-.5-.6-.5-1.6 0-2.1.3-.3.7-.5 1.1-.5s.8.2 1.1.5c1.9 1.9 7.4 7.3 7.4 7.3l16.4-21.2c.5-.6 1.8-.8 2.4-.1s.1 1.9-.3 2.3c-1.9 2.5-16.2 20.9-17.2 22.2-.3.4-.8.7-1.2.7z"/></g></svg>