<svg enable-background="new 0 0 380 242" viewBox="0 0 380 242" xmlns="http://www.w3.org/2000/svg"><path d="m0 0h380v242h-380z" fill="#f7f7f7"/><g style="fill:none;stroke:#ecb056;stroke-width:1.3697;stroke-linecap:round;stroke-linejoin:round;stroke-miterlimit:10"><path d="m220.9 34.5c3.1 0 5.7-2.6 5.7-5.7s-2.6-5.7-5.7-5.7-5.7 2.6-5.7 5.7c0 1.3.4 2.5 1.1 3.4l-9.4 13.1c-.6-.2-1.2-.3-1.8-.3-1.5 0-2.9.6-3.9 1.5l-6.2-3.5c.1-.4.1-.8.1-1.2 0-3.1-2.6-5.7-5.7-5.7s-5.7 2.6-5.7 5.7c0 .4 0 .8.1 1.2l-6.2 3.5c-1-.9-2.4-1.5-3.9-1.5-3.1 0-5.7 2.6-5.7 5.7s2.6 5.7 5.7 5.7 5.7-2.6 5.7-5.7c0-.4 0-.8-.1-1.2l6.2-3.5c1 .9 2.4 1.5 3.9 1.5s2.9-.6 3.9-1.5l6.2 3.5c-.1.4-.1.8-.1 1.2 0 3.1 2.6 5.7 5.7 5.7s5.7-2.6 5.7-5.7c0-1.3-.4-2.5-1.1-3.4l9.4-13.1c.6.2 1.2.3 1.8.3zm0-8c1.3 0 2.3 1 2.3 2.3s-1 2.3-2.3 2.3-2.3-1-2.3-2.3c0-1.2 1-2.3 2.3-2.3zm-47.2 26.6c-1.3 0-2.3-1-2.3-2.3s1-2.3 2.3-2.3 2.3 1 2.3 2.3-1 2.3-2.3 2.3zm15.7-9c-1.3 0-2.3-1-2.3-2.3s1-2.3 2.3-2.3 2.3 1 2.3 2.3-1 2.3-2.3 2.3zm15.8 9c-1.3 0-2.3-1-2.3-2.3s1-2.3 2.3-2.3 2.3 1 2.3 2.3-1.1 2.3-2.3 2.3z"/><path d="m170.3 65.2c-.9 0-1.7.8-1.7 1.7v15.1c0 .9.8 1.7 1.7 1.7h6.9c.9 0 1.7-.8 1.7-1.7v-15.1c0-.9-.8-1.7-1.7-1.7z"/><path d="m186 56.5c-.9 0-1.7.8-1.7 1.7v23.9c0 .9.8 1.7 1.7 1.7h6.9c.9 0 1.7-.8 1.7-1.7v-23.9c0-.9-.8-1.7-1.7-1.7z"/><path d="m203.3 65.2c-.9 0-1.7.8-1.7 1.7v15.1c0 .9.8 1.7 1.7 1.7h6.9c.9 0 1.7-.8 1.7-1.7v-15.1c0-.9-.8-1.7-1.7-1.7z"/><path d="m219 46c-.9 0-1.7.8-1.7 1.7v34.4c0 .9.8 1.7 1.7 1.7h6.9c.9 0 1.7-.8 1.7-1.7v-34.4c0-.9-.8-1.7-1.7-1.7z"/><path d="m215.9 188.4v3.3h-68.7v-94.6h68.7v42.1"/><path d="m157.1 106.3h46.1v6.7h-46.1z"/><path d="m157.1 121.5h46.1"/><path d="m157.1 131.1h46.1"/><path d="m157.1 140.8h46.1"/><path d="m157.1 150.5h40.7"/><path d="m162.6 95.1v-4.8c0-3.1-2.5-5.6-5.7-5.6h-24.6v-7.4c0-5.1-4.2-9.3-9.5-9.3h-34c-5.2 0-9.5 4.1-9.5 9.3v7.4h-24.6c-3.1 0-5.7 2.5-5.7 5.6v41.2c0 2.4 1.5 4.4 3.8 5.2v25.8c0 3.1 2.5 5.6 5.7 5.6h86.8m-62.2-83.3v-7.4c0-3.1 2.5-5.6 5.7-5.6h34.1c3.1 0 5.7 2.5 5.7 5.6v7.4m-.1 0h-45.4m32.3 61.1c0 1-.8 1.9-1.9 1.9h-15.4c-1 0-1.9-.8-1.9-1.9v-7.4c0-1 .8-1.9 1.9-1.9h15.3c1 0 1.9.8 1.9 1.9v7.4z"/><path d="m92.5 141.5-42.2-5.9"/><path d="m143.9 138.6-24.7 2.9"/><path d="m232.3 180.2 14.9 25.8c1.4 2.5.6 5.7-1.9 7.1l-1 .5c-2.5 1.4-5.7.6-7.1-1.9l-14.9-25.8"/><circle cx="216.5" cy="163.6" r="22.7"/><circle cx="216.5" cy="163.6" r="18.6"/><path d="m234.3 138.6h-3.9c-2.1 0-3.9-1.7-3.9-3.9v-33.4h11.6v33.4c.1 2.1-1.7 3.9-3.8 3.9z"/><path d="m232.1 89.6c.1-.2.5-.2.6 0l2.5 4.4 2.8 4.9h-5.7-5.7l2.8-4.9z"/><path d="m229.5 94h5.7"/><path d="m229.9 101.3v32.9"/><path d="m234.9 101.3v32.9"/><path d="m226.6 134.7h11.6"/><circle cx="288.1" cy="162.5" r="16.6"/><path d="m282.2 136.1h-26.8c-1.5 0-2.7-1.2-2.7-2.7v-1.8c0-1.5 1.2-2.7 2.7-2.7h26.8c1.5 0 2.7 1.2 2.7 2.7v1.8c-.1 1.5-1.3 2.7-2.7 2.7z"/><path d="m257.6 128.9v7.2"/><path d="m262 128.9v7.2"/><path d="m266.4 128.9v7.2"/><path d="m270.8 128.9v7.2"/><path d="m275.2 128.9v7.2"/><path d="m279.6 128.9v7.2"/><path d="m287.1 143.7h-26.8c-1.5 0-2.7-1.2-2.7-2.7v-1.8c0-1.5 1.2-2.7 2.7-2.7h26.8c1.5 0 2.7 1.2 2.7 2.7v1.8c0 1.5-1.2 2.7-2.7 2.7z"/><path d="m262.6 136.5v7.2"/><path d="m267 136.5v7.2"/><path d="m271.4 136.5v7.2"/><path d="m275.7 136.5v7.2"/><path d="m280.1 136.5v7.2"/><path d="m284.5 136.5v7.2"/><path d="m279.1 146.5v-2.6h2.6c.7 0 1.3.3 1.8.7"/><path d="m274.7 143.9h4.4v2.9"/><path d="m273.2 151-18.3.2c-1.5 0-2.7-1.2-2.7-2.7v-1.8c0-1.5 1.2-2.7 2.7-2.7h19.8v5.7"/><path d="m257.1 143.9v7.3"/><path d="m261.5 143.9v7.3"/><path d="m265.9 143.9v7.3"/><path d="m270.3 143.9v7.3"/><path d="m268.8 159.1h-.4v-7.2h4.4"/><path d="m268.4 151.9v7.2h-15.4c-1.5 0-2.7-1.2-2.7-2.7v-1.8c0-1.5 1.2-2.7 2.7-2.7z"/><path d="m255.2 151.9v7.2"/><path d="m259.6 151.9v7.2"/><path d="m264 151.9v7.2"/><path d="m270.3 167h-4.4v-7.2h4.4"/><path d="m265.9 159.8v7.2h-11c-1.5 0-2.7-1.2-2.7-2.7v-1.8c0-1.5 1.2-2.7 2.7-2.7z"/><path d="m257.1 159.8v7.2"/><path d="m261.5 159.8v7.2"/><path d="m273.1 174.9h-4.4v-7.2"/><path d="m268.7 167.7v7.2h-15.4c-1.5 0-2.7-1.2-2.7-2.7v-1.8c0-1.5 1.2-2.7 2.7-2.7z"/><path d="m274.6 174.9h-1.5v-2.3"/><path d="m255.5 167.7v7.2"/><path d="m259.9 167.7v7.2"/><path d="m264.3 167.7v7.2"/><path d="m287.6 149.3c2.4 0 4.6.6 6.5 1.7"/><path d="m279 172.4c-1-.8-1.8-1.8-2.5-2.9-1.3-2-2-4.4-2-7 0-3.4 1.3-6.4 3.3-8.8"/><path d="m287.6 175.6c-1.8 0-3.5-.4-5.1-1"/><path d="m299.3 156.3c1 1.8 1.5 3.9 1.5 6.1 0 4-1.7 7.5-4.5 9.9"/><path d="m290.9 160.1s.2-3.7-3.2-3.7c-4 0-3.4 3.1-3.4 3.1s0 2.8 3.4 3c5.2.2 4 5.9.2 5.8-4.3-.1-3.5-3.2-3.5-3.2"/><path d="m287.6 154.1v2.2"/><path d="m287.6 171.2.2-2.9"/><path d="m304.3 162.5c0 9.2-7.4 16.6-16.6 16.6s-16.6-7.4-16.6-16.6c0-4.3 1.6-8.1 4.2-11.1.1-.1.2-.3.4-.4 1.3-1.3 2.8-2.4 4.4-3.3 1.6-.8 3.3-1.4 5.2-1.7.8-.1 1.6-.2 2.5-.2 9 0 16.5 7.5 16.5 16.7z"/><path d="m209.4 156.1h-10"/><path d="m221.2 147.4v31.9"/><circle cx="257.1" cy="80.9" r="12"/><path d="m263.3 78.9h-4.1v-4.1h-4.1v4.1h-4.1v4.1h4.1v4.1h4.1v-4.1h4.1z"/><circle cx="278" cy="106.3" r="11.7"/><circle cx="274.7" cy="102.6" r="2.4"/><path d="m282.1 99.9-9.1 13.1"/><circle cx="280.9" cy="109.3" r="2.4"/><path d="m300.4 111.9 1.6 3.1 3.6.5-2.6 2.4.6 3.4-3.2-1.6-3.3 1.6.7-3.4-2.7-2.4 3.7-.5z"/><path d="m310.6 117.9 1.7 3.1 3.6.5-2.6 2.4.6 3.4-3.3-1.6-3.2 1.6.6-3.4-2.6-2.4 3.6-.5z"/><path d="m300 122.9 1.7 3.1 3.6.5-2.6 2.4.6 3.4-3.3-1.6-3.2 1.6.6-3.4-2.6-2.4 3.6-.5z"/></g></svg>