<svg enable-background="new 0 0 512 512" viewBox="0 0 512 512" xmlns="http://www.w3.org/2000/svg"><g transform="translate(0 -1)"><g fill="#ecaf55"><path d="m500 503.4c1.5 0 2.8-.9 3.3-2.3s.1-3-1.1-3.9l-194.7-161.9c-.7-.6-1.5-.9-2.3-.9-.4 0-.8.1-1.2.2-1.2.4-2.1 1.5-2.3 2.7-.2 1.3.3 2.5 1.3 3.3l194.8 161.8c.6.7 1.4 1 2.2 1z"/><path d="m15.6 503.4c-1.5 0-2.8-.9-3.3-2.3s-.1-3 1.1-3.9l194.7-161.8c.7-.6 1.5-.9 2.3-.9.4 0 .8.1 1.2.2 1.2.4 2.1 1.5 2.3 2.7.2 1.3-.3 2.5-1.3 3.3l-194.7 161.9c-.6.5-1.4.8-2.3.8z"/><path d="m8.5 175.2c-1.5 0-2.9-1-3.4-2.5s.1-3.1 1.3-4l76.8-54.4c.6-.4 1.2-.6 2-.6 1.2 0 2.2.5 2.9 1.5 1.1 1.6.8 3.8-.8 4.9l-76.8 54.4c-.5.5-1.2.7-2 .7z"/><path d="m503.5 175.2c-.7 0-1.4-.2-2-.6l-76.8-54.4c-1.5-1.1-1.9-3.3-.8-4.9.7-.9 1.7-1.5 2.9-1.5.7 0 1.4.2 2 .6l76.8 54.4c1.3.9 1.8 2.5 1.3 4-.5 1.4-1.9 2.4-3.4 2.4z"/><path d="m177.2 55.7c-.5 0-1-.1-1.5-.3-1.1-.5-1.9-1.6-2-2.9s.4-2.5 1.5-3.2l40.9-29 .1-.1c11.2-9.2 25.3-14.2 39.8-14.2 14.7 0 29 5.2 40.3 14.6l.2.1 40.4 28.6c1.3.9 1.8 2.5 1.3 4s-1.8 2.5-3.4 2.5c-.8 0-1.5-.2-2-.6l-40.6-28.8c-10.1-8.5-23-13.2-36.2-13.2-13 0-25.6 4.5-35.7 12.7l-41.2 29.2c-.5.4-1.2.6-1.9.6z"/></g><path d="m237.8 236.5c-6.6 0-13.1-2.3-18.4-6.5-12.5-10.3-12.7-28.5-9.1-41.1 1.3-4.3 2.9-8.5 5-12.4l.1-.1c5.2-10.8 13.4-19.5 23.6-25.2 4.3-2.3 9.2-3.5 14-3.5 8.2 0 18.1 2.7 23.9 8.7 4.9 5.6 6.8 9.6 9.1 16.8.5 1.7-.5 6.7-2 7.3-.3.1-.7.2-1 .2-1.2 0 .1 3.8-.4 2.7-.7-8-3.2-15.7-10.1-22.5-4.6-4.8-12.8-6.7-19.4-6.7-4.1 0-8.1 1.1-11.7 3.1-9.1 5.3-16.3 13.1-20.8 22.7-1.8 3.5-3.4 7.2-4.5 11.1-3.3 11.5-2.4 26.5 7.1 34.4 4 3.3 9.2 5.1 15.1 5.1 7.9 0 16.1-3.1 22-8.3l.1-.1c6.5-6 12-12.9 16.5-20.6.6-.9 1.6-1.5 2.6-1.5 1.2 0 2.2.7 2.7 1.7s.5 2.2-.1 3.2l-.1.1c-4.8 8.2-10.7 15.6-17.7 22-7.3 6.3-16.6 9.8-26.1 9.9 0-.5-.2-.5-.4-.5z" fill="#d2d2d2"/><path d="m264.8 276c-16.4-.1-32.7-2.7-48.4-7.7-24.1-8.1-42.1-28.9-46.9-54.2-5.4-26.1 4.5-53.8 27.1-76 2.4-2.4 5-4.7 7.6-6.9 16.5-13.9 37.3-21.6 58.7-21.6 8.3 0 16.5 1.1 24.5 3.4 27.6 8.9 46.7 34.6 47.7 63.9v.1c1 16.9-4.3 33.4-15.2 46.4l-.1.1c-6.4 8.2-16 12.9-26.3 12.9-2.2 0-4.4-.2-6.6-.7-4.5-.9-8.4-3.7-10.9-7.6-2.1-3.8-2.7-8.3-1.5-12.5 6.6-25.4 13.4-63.9 13.4-64.2.2-1.1 1-2 2-2.4.3-.1.7-.2 1.1-.2.7 0 1.4.3 2 .7.8.7 1.3 1.9 1.1 3-.7 4.1-7.1 40-13.5 64.5-.8 2.5-.6 5.3.7 7.7l.1.3.2.3c1.7 2.4 4.3 4 7.2 4.5 1.5.3 3 .4 4.5.4 8.6 0 16.8-4.1 22.1-11 9.6-11.7 14.4-26.5 13.4-41.7-.8-26.7-18.2-50.1-43.3-58.3l-.2-.1c-7.3-2-14.9-3.1-22.5-3.1-20 0-39.4 7.2-54.7 20.2-2.5 2.1-5 4.4-7.3 6.6-12.3 12.1-32 37.4-25.3 70.2 4.5 22.8 20.8 41.8 42.6 49.5h.1c15.2 4.9 31.3 7.5 46.6 7.5 21.5 0 51.3-5.2 70.8-29.8.6-.7 1.4-1.1 2.4-1.1.5 0 1.2.1 1.9.7 1.3 1.1 1.5 3 .5 4.4-20.8 26.2-52.6 31.8-75.6 31.8z" fill="#d2d2d2"/><path d="m426.7 239c-1.9 0-3.5-1.6-3.5-3.5v-174.7s.1-4-5.9-5.1h-322.5c-5.6-.1-5.9 3.2-5.9 3.2l.1 176.6c0 1.9-1.6 3.5-3.5 3.5s-3.5-1.6-3.5-3.5v-174.7c0-6.8 5.5-12.1 12.4-12.1h.4 322.5.3c6.8 0 12.3 5.3 12.6 12.1v174.7c0 1.9-1.6 3.5-3.5 3.5z" fill="#d2d2d2"/><path d="m25.6 508c-11.3 0-20.6-9.3-20.6-20.6v-315.7c0-1.4.8-2.6 2-3.2.5-.2 1-.3 1.5-.3.8 0 1.6.3 2.3.8l209.4 174c10.1 8.3 22.8 12.9 35.8 12.9s25.8-4.6 35.8-12.9l209.4-174c.6-.5 1.4-.8 2.3-.8.5 0 1 .1 1.5.3 1.2.6 2 1.8 2 3.2v315.7c0 11.3-9.3 20.6-20.6 20.6zm-13.5-20.6c0 7.5 6.1 13.5 13.5 13.5h460.8c7.5 0 13.5-6.1 13.5-13.5v-308.2l-203.6 169.2c-11.3 9.4-25.6 14.5-40.3 14.5s-29-5.2-40.3-14.5l-203.6-169.2z" fill="#ecaf55"/></g></svg>