<?xml version="1.0" encoding="utf-8"?>
<!-- Generator: Adobe Illustrator 24.3.0, SVG Export Plug-In . SVG Version: 6.00 Build 0)  -->
<svg version="1.1" id="Layer_1" xmlns="http://www.w3.org/2000/svg" xmlns:xlink="http://www.w3.org/1999/xlink" x="0px" y="0px"
	 viewBox="0 0 192 140" style="enable-background:new 0 0 192 140;" xml:space="preserve">
<style type="text/css">
	.st0{fill:#EDE9E7;}
	.st1{fill:#AFAFAF;}
	.st2{fill:#EA9E39;}
	.st3{fill:none;stroke:#C9C9C9;stroke-width:1.4818;stroke-miterlimit:10;}
	.st4{fill:#E2E2E2;}
	.st5{fill:#B2B2B2;}
	.st6{fill:#C9C9C9;}
	.st7{fill:#FFFFFF;}
	.st8{fill:#D8D8D8;}
	.st9{fill:#5B5B5B;}
</style>
<path class="st0" d="M191.3,101.4c0,2.5-2.2,4.6-5,4.6H5.8c-2.8,0-5-2.1-5-4.6V5.7c0-2.5,2.2-4.6,5-4.6h180.7c2.8,0,5,2.1,5,4.6
	L191.3,101.4L191.3,101.4z"/>
<g>
	<g>
		<g>
			<path class="st1" d="M87.1,69.2c-3.2-0.3-6.6-0.5-10-0.5C48.8,68.7,25,79.5,25,92.3h-1.6c0-14.5,23.6-25.8,53.7-25.8
				c4.4,0,8.6,0.2,12.7,0.7C89.8,67.3,88,69.3,87.1,69.2z"/>
		</g>
		<g>
			<polygon class="st2" points="96.3,126.2 96.3,124 14.2,122.5 13.4,124.6 			"/>
			<polygon class="st2" points="0.8,122.3 0.8,124.4 7.7,124.5 8.6,122.4 			"/>
		</g>
		<g>
			<g>
				<path class="st1" d="M71.1,121.3c-4.1-0.3-8.1-0.8-12-1.6l0.2-2.1c3.8,0.8,7.8,1.3,11.8,1.6V121.3z M83.1,121.3l-0.1-2.1
					c4-0.3,8-0.8,11.8-1.6l0.2,2.1C91.2,120.4,87.2,121,83.1,121.3z M47.3,116.2c-4.2-1.6-8-3.5-11.3-5.7l0.7-1.9
					c3.2,2.1,7,4,11.1,5.6L47.3,116.2z"/>
			</g>
			<g>
				<path class="st1" d="M26,100.8c-1.7-2.8-2.6-5.6-2.6-8.5H25c0,2.3,0.8,4.7,2.2,7.1L26,100.8z"/>
			</g>
		</g>
		<path class="st1" d="M89.7,61.7c-5.6-0.6-10.4-0.9-16.2-0.9c-23.5,0-46.2,5-63.9,14.1c-3.1,1.6-6.1,3.3-8.8,5.2v2.4
			c2.9-2,6-3.8,9.3-5.5c17.5-9,40-14,63.3-14c5.8,0,10.7,0.3,16.3,0.9L89.7,61.7z"/>
		<polygon class="st1" points="82,89.4 23.3,88.8 7.2,131 9,131 24.3,91 82,91.5 		"/>
	</g>
	<polygon class="st2" points="0.8,53.2 74.2,51.7 74.1,49.6 0.8,51.1 	"/>
</g>
<g>
	<polyline class="st3" points="96.1,52 106.9,52 106.9,62.8 91.3,71.1 91.3,91.1 	"/>
	<rect x="79.3" y="47.8" class="st4" width="24" height="8.2"/>
	<polygon class="st5" points="96.5,86.4 86.2,86.4 86.2,89.6 89.1,90.7 89.1,112.5 93.6,112.5 93.6,90.7 96.5,89.6 	"/>
	<rect x="79.3" y="53.2" class="st5" width="24" height="2.8"/>
	<rect x="79.3" y="50.3" class="st6" width="24" height="3"/>
	<rect x="86.2" y="85.8" class="st7" width="10.3" height="1.2"/>
	<rect x="78.2" y="47.8" class="st2" width="1.2" height="8.2"/>
	<rect x="103.2" y="47.8" class="st2" width="1.2" height="8.2"/>
	<polygon class="st7" points="90.6,110 90.9,106 91.9,106 92.2,110 	"/>
</g>
<path class="st7" d="M145.5,29.3c14.4,0,26.4-0.8,29.3-1.8c-3.1-1.1-15.2-2.1-29.5-2.1c-14.4,0-26.2,1-29.1,2.2
	C119.2,28.5,131.2,29.3,145.5,29.3z"/>
<path class="st5" d="M180.5,109.9c0,5.9-11.8,10.9-32.6,10.7c-24.3-0.2-33.5-4.6-33.5-10.5s15.6-10.9,33.5-10.9
	C165.9,99.2,180.5,104,180.5,109.9z"/>
<path class="st6" d="M177.5,32.5c0,0-8.3,2.5-32.9,2.2c-24.7-0.4-31.4-2.2-31.4-2.2l1.2,77.5c0,0.1,0,0.2,0,0.4
	c0,4.5,13.8,8.2,30.9,8.2s30.9-3.6,30.9-8.2h0.1L177.5,32.5z"/>
<path class="st1" d="M145.3,35.6c-17,0-30.9-1.6-32.1-3.4v2.3c1.3,1.9,15.1,3.4,32,3.4s30.7-1.5,32-3.4v-2.3
	C176.2,34.2,162.3,35.6,145.3,35.6z"/>
<path class="st7" d="M145.4,33.9c-17.5,0-31.8-1.6-32.9-3.4v2.3c1.4,1.9,15.6,3.4,32.8,3.4c17.4,0,31.6-1.5,32.8-3.4v-2.3
	C177.2,32.3,162.9,33.9,145.4,33.9z"/>
<path class="st7" d="M145.8,49.3c-11.3,0-21.4-0.7-27.5-1.8l0.9,51.6c5.4,2.4,15.3,4,26.7,4c10.6,0,19.9-1.4,25.4-3.5l0,0l0.9-51.9
	C165.9,48.7,156.5,49.3,145.8,49.3z"/>
<g>
	<g>
		<path class="st1" d="M145.3,24.1c-16.6,0-29.7,1.3-29.7,2.6c0,0,0.9,0.4,1.7,0.7c3.9-1.1,13.8-1.8,28.2-1.8
			c14.3,0,24.8,0.8,27.9,1.8c0.4-0.1,2.2-0.6,2.2-0.8C175.5,25.5,161.8,24.1,145.3,24.1z"/>
		<path class="st1" d="M149.8,28.8c0.2,0,0.3,0,0.4,0C150.1,28.8,150,28.8,149.8,28.8z"/>
		<path class="st1" d="M148.4,28.8c0.2,0,0.4,0,0.6,0C148.7,28.8,148.6,28.8,148.4,28.8z"/>
	</g>
</g>
<g>
	<path class="st8" d="M176.7,26.7c-1.1,1.6-15,3.2-31.3,3.2c-17,0-31.2-1.5-31.2-3.1l0.3,4.3c0,0,13.7,2.4,30.5,2.4
		c17,0,30.9-1.6,31-2.4C176.1,31.1,176.7,26.7,176.7,26.7z"/>
	<path class="st4" d="M145.4,23.5c-19.5,0-31.2,1.4-31.2,3.1c0,1.8,13.9,3.1,31.2,3.1c17.2,0,31.2-1.4,31.2-3.1
		S164.3,23.5,145.4,23.5z M145.4,28.6c-16.3,0-29.6-0.9-29.6-2.1s13-2.4,29.3-2.4s29.7,1.2,29.7,2.4S161.7,28.6,145.4,28.6z"/>
</g>
<path class="st7" d="M171.2,101.2L171.2,101.2c-5.6,2.2-14.9,3.5-25.4,3.5c-11.3,0-21.2-1.6-26.7-4v2.7c5.4,2.4,15.3,4,26.7,4
	c10.6,0,19.9-1.4,25.4-3.5l0,0V101.2z"/>
<path class="st1" d="M114.3,28.9c-1.1,0.4-1.7,0.8-1.7,1.2c0,2.1,14.7,3.7,32.8,3.7s32.8-1.7,32.8-3.7c0-0.4-0.7-0.9-1.8-1.3v0.3
	c0.7,0.3,1,0.5,1,0.8c0,1.8-14.3,3.1-31.9,3.1s-31.9-1.4-31.9-3.1c0-0.3,0.3-0.5,0.9-0.7L114.3,28.9z"/>
<path class="st7" d="M145.8,49.3c-11.3,0-21.4-0.7-27.5-1.8l0.9,51.6c5.4,2.4,15.3,4,26.7,4c10.6,0,19.9-1.4,25.4-3.5l0,0l0.9-51.9
	C165.9,48.7,156.5,49.3,145.8,49.3z"/>
<g>
	<path class="st2" d="M126.1,48.5c-0.2,0-0.3,0-0.5,0c-2.8-0.3-5.2-0.6-7.3-0.9l0.9,51.6c1.6,0.7,3.6,1.4,5.8,1.9
		c0.3,0.1,0.7,0.2,0.9,0.2L126.1,48.5L126.1,48.5z"/>
	<path class="st2" d="M164.7,48.6v52.9c2.6-0.5,4.8-1.1,6.6-1.9l0,0l0.9-51.9C170,48,167.5,48.3,164.7,48.6z"/>
</g>
<path class="st4" d="M171.2,99.1L171.2,99.1c-5.6,2.2-14.9,3.5-25.4,3.5c-11.3,0-21.2-1.6-26.7-4v2.7c5.4,2.4,15.3,4,26.7,4
	c10.6,0,19.9-1.4,25.4-3.5l0,0V99.1z"/>
<g>
	<path class="st9" d="M129.3,76.4c0.3,0,0.7-0.1,1.3-0.1s1.1,0.1,1.4,0.4c0.3,0.2,0.4,0.6,0.4,1s-0.1,0.8-0.4,1
		c-0.3,0.3-0.9,0.5-1.5,0.5c-0.2,0-0.4,0-0.5,0v1.9h-0.7V76.4z M129.9,78.7c0.1,0,0.3,0,0.5,0c0.8,0,1.3-0.4,1.3-1s-0.5-0.9-1.2-0.9
		c-0.3,0-0.5,0-0.6,0V78.7z"/>
	<path class="st9" d="M133.5,79.6l-0.5,1.5h-0.7l1.7-4.7h0.8l1.7,4.6h-0.7l-0.5-1.5L133.5,79.6L133.5,79.6z M135.1,79.1l-0.5-1.4
		c-0.1-0.3-0.2-0.6-0.3-0.9l0,0c-0.1,0.3-0.2,0.6-0.3,0.9l-0.5,1.4H135.1z"/>
	<path class="st9" d="M137.1,76.6c0.3-0.2,0.8-0.4,1.3-0.4c0.9,0,1.5,0.4,1.5,1.2c0,0.6-0.4,1-1,1.1l0,0c0.7,0.1,1.2,0.5,1.2,1.2
		c0,1-0.9,1.4-1.8,1.4c-0.5,0-0.9-0.1-1.3-0.3l0.2-0.5c0.3,0.1,0.7,0.3,1.1,0.3c0.7,0,1.2-0.4,1.2-0.9c0-0.7-0.7-0.9-1.4-0.9h-0.3
		v-0.5h0.3c0.7,0,1.2-0.4,1.2-0.9s-0.4-0.7-0.9-0.7c-0.4,0-0.8,0.1-1,0.3L137.1,76.6z"/>
	<path class="st9" d="M144.9,79c0-0.7-0.1-1.4-0.1-2l0,0c-0.2,0.6-0.4,1.1-0.6,1.8l-0.9,2.3h-0.5l-0.8-2.2c-0.2-0.7-0.4-1.3-0.6-1.8
		l0,0c0,0.6-0.1,1.4-0.1,2.1l-0.1,2h-0.6l0.2-4.8h0.8l0.9,2.3c0.2,0.6,0.4,1.1,0.5,1.6l0,0c0.1-0.5,0.3-1,0.5-1.6l0.9-2.3h0.8
		l0.3,4.6h-0.6L144.9,79z"/>
	<path class="st9" d="M149,78.8h-2v1.7h2.2V81h-2.8v-4.6h2.7v0.5h-2v1.5h2L149,78.8L149,78.8z"/>
	<path class="st9" d="M151.2,76.9h-1.5v-0.6h3.6v0.5h-1.5v4.1h-0.7L151.2,76.9L151.2,76.9z"/>
	<path class="st9" d="M154.4,76.3v2.1h0.2l1.7-2.1h0.8l-1.9,2.2c0.8,0.1,1.2,0.6,1.4,1.2c0.2,0.5,0.3,0.9,0.6,1.3h-0.7
		c-0.2-0.3-0.3-0.7-0.5-1.1c-0.2-0.6-0.6-1.1-1.4-1.1h-0.2V81h-0.6v-4.6L154.4,76.3L154.4,76.3z"/>
	<path class="st9" d="M158.8,79.6l-0.5,1.5h-0.7l1.7-4.6h0.8l1.7,4.6h-0.7l-0.5-1.5H158.8z M160.4,79.1l-0.5-1.4
		c-0.1-0.3-0.2-0.6-0.3-0.9l0,0c-0.1,0.3-0.2,0.6-0.3,0.9l-0.5,1.4H160.4z"/>
</g>
</svg>
