<?xml version="1.0" encoding="utf-8"?>
<!-- Generator: Adobe Illustrator 16.0.0, SVG Export Plug-In . SVG Version: 6.00 Build 0)  -->
<!DOCTYPE svg PUBLIC "-//W3C//DTD SVG 1.1//EN" "http://www.w3.org/Graphics/SVG/1.1/DTD/svg11.dtd">
<svg version="1.1" id="Layer_1" xmlns="http://www.w3.org/2000/svg" xmlns:xlink="http://www.w3.org/1999/xlink" x="0px" y="0px"
	 width="192px" height="140px" viewBox="0 0 192 140" enable-background="new 0 0 192 140" xml:space="preserve">
<path fill="#E8E8E8" d="M192,108.666c0,2.762-2.238,5-5,5H6.333c-2.762,0-5-2.238-5-5V6c0-2.762,2.238-5,5-5H187
	c2.762,0,5,2.238,5,5V108.666z"/>
<g>
	<path fill="#BCBCBC" d="M106.174,140H48.677c-5.64,0-7.834-3.039-7.818-5.885c0.009-1.536,3.515-3.659,4.625-3.659h69.643
		c3.924,0.404,10.849-0.809,6.25,4.574C117.313,139.784,114.442,140,106.174,140z"/>
	<g>
		<path fill="#B2732F" d="M130.647,85.933c-1.284,1.653,2.094,4.778,0.517,13.678c-3.991,22.513-1.419,31.065-1.419,31.065
			c0,0.822,1.166,1.49,2.122,1.49h3.712v-3.759h-0.839c-0.959,0-1.733-0.664-1.733-1.488l-0.391-3.088
			c0-0.824,0.779-1.49,1.737-1.49h1.226V83.729c-0.07-0.002-0.14-0.004-0.212-0.004C132.149,83.725,130.647,85.933,130.647,85.933z"
			/>
		<path fill="#D88E36" d="M139.994,99.61c-1.574-8.899,1.803-12.027,0.517-13.678c0,0-1.844-2.11-4.932-2.204v38.612h1.222
			c0.956,0,1.733,0.666,1.733,1.49l-0.385,3.088c0,0.824-0.777,1.488-1.739,1.488h-0.831v3.759h3.706
			c0.959,0,2.126-0.666,2.126-1.49C141.411,130.676,143.984,122.123,139.994,99.61z"/>
		<path fill="#D88E36" d="M135.579,128.407h-0.839c-0.959,0-1.733-0.664-1.733-1.488l-0.391-3.088c0-0.824,0.779-1.49,1.737-1.49
			h1.226V85.726c-0.07-0.004-0.14-0.008-0.212-0.008c-1.828,0-2.837,0.979-3.121,1.305c0.034,0.298,0.182,0.87,0.305,1.346
			c0.559,2.174,1.498,5.814,0.471,11.608c-1.894,10.682-2.276,18.154-2.179,22.982l0.138,3.008c0.207,2.797,0.559,4.079,0.565,4.105
			l0.007,0.02c0.096,0.043,0.218,0.079,0.314,0.079h1.574h2.138V128.407z"/>
		<g>
			<path fill="#EDB056" d="M134.114,83.962c-0.359-4.337,1.969-5.557,3.088-6.143c0.122-0.063,0.239-0.123,0.344-0.188
				c0.635-0.374,7.01-3.687,15.277-7.978c3.829-1.987,7.137-3.702,7.5-3.901c0.193-0.105,0.702-0.385,0.778-0.506l0,0
				c0,0,0.023-0.059,0.023-0.237V54.318c0-0.235,0-0.857-1.192-0.857h-6.519v-2.99h6.519c2.371,0,4.026,1.582,4.026,3.847V65.01
				c0,2.126-1.348,2.861-2.332,3.399c-0.389,0.213-3.55,1.853-7.553,3.93c-5.783,3.001-14.522,7.537-15.144,7.904
				c-0.156,0.091-0.316,0.174-0.47,0.256c-0.958,0.502-1.714,1.098-1.523,3.4L134.114,83.962z"/>
			<g>
				<rect x="153.414" y="50.471" fill="#D88E36" width="3.856" height="2.99"/>
			</g>
			<g>
				<rect x="153.414" y="50.471" fill="#D88E36" width="3.856" height="2.99"/>
			</g>
		</g>
		<g>
			<path fill="#F7F7F7" d="M119.511,56.794c0,0.595,0.537,1.076,1.201,1.076h31.791c0.661,0,1.201-0.481,1.201-1.076V45.556
				c0-0.595-0.54-1.079-1.201-1.079h-31.791c-0.664,0-1.201,0.483-1.201,1.079V56.794z"/>
			<path fill="#EFEFEF" d="M119.511,56.794c0,0.595,0.851,1.076,1.901,1.076h3.71V44.478h-3.71c-1.051,0-1.901,0.483-1.901,1.079
				V56.794z"/>
		</g>
		<path fill="#EA9E39" d="M138.138,99.977c-1.025-5.793-0.088-9.433,0.472-11.608c0.115-0.446,0.253-0.979,0.297-1.289
			c-0.472-0.42-1.646-1.285-3.327-1.354v36.615h1.222c0.956,0,1.733,0.666,1.733,1.49l-0.385,3.088c0,0.824-0.777,1.488-1.739,1.488
			h-0.831v1.764h2.132h1.574c0.099,0,0.222-0.036,0.319-0.079l0.003-0.008c0.009-0.031,0.364-1.331,0.572-4.17l0.135-2.937
			C140.414,118.147,140.032,110.672,138.138,99.977z"/>
		<path fill="#E5B27A" d="M136.28,100.341c-1.08-6.097-0.142-9.975,0.466-12.336c-0.326-0.143-0.719-0.257-1.167-0.286v32.629h1.221
			c0.588,0,1.142,0.135,1.634,0.373C138.382,116.277,137.915,109.564,136.28,100.341z"/>
		<path fill="#CE9E6F" d="M135.579,87.719c-0.069-0.004-0.14-0.007-0.212-0.007c-0.4,0-0.727,0.073-0.984,0.171
			c0.604,2.345,1.597,6.252,0.495,12.461c-1.635,9.221-2.102,15.932-2.154,20.376c0.49-0.239,1.044-0.372,1.63-0.372h1.226V87.719z"
			/>
	</g>
	<path fill="#C9C9C9" d="M121.73,129.375c0,3.444-4.175,7.586-12.852,7.586H56.348c-7.964,0-14.42-6.336-14.42-14.151l-0.361-71.423
		c0-7.815,5.563-13.924,13.527-13.924h54.614c7.964,0,12.023,5.925,12.023,13.741V129.375z"/>
	<path fill="#C9C9C9" d="M118.295,123.126c0,7.642-6.236,13.835-13.931,13.835h-49.23c-7.693,0-13.93-6.193-13.93-13.835V53.295
		c0-7.641,6.771-13.613,14.465-13.613h51.011c7.693,0,11.615,5.792,11.615,13.434V123.126z"/>
	<path fill="#E2E2E2" d="M118.561,130.001c0,7.004-4.86,6.96-13.087,6.96H52.16c-7.862,0-12.374-0.909-12.374-7.915V57.015
		c0-7.004,1.945-14.388,9.807-14.388h59.395c7.861,0,9.573,7.218,9.573,14.223V130.001z"/>
	<rect x="39.786" y="59.891" fill="#AFAFAF" width="78.774" height="56.289"/>
	<rect x="44.722" y="75.295" fill="#D3D3D3" width="68.903" height="37.645"/>
	<rect x="39.721" y="59.891" fill="#F7F7F7" width="78.84" height="15.404"/>
	<rect x="39.721" y="116.18" fill="#F7F7F7" width="78.84" height="2.702"/>
	<g>
		<g>
			<g>
				<g>
					<path fill="#5B5B5B" d="M63.022,70.845c0.04,0.528,0.533,0.781,1.099,0.781c0.414,0,0.748-0.06,1.074-0.178l0.159,0.866
						c-0.398,0.177-0.884,0.261-1.409,0.261c-1.321,0-2.077-0.807-2.077-2.092c0-1.042,0.621-2.193,1.966-2.193
						c1.257,0,1.735,1.035,1.735,2.05c0,0.219-0.023,0.412-0.04,0.505H63.022L63.022,70.845z M64.447,69.971
						c0-0.311-0.127-0.832-0.677-0.832c-0.518,0-0.724,0.495-0.756,0.832H64.447z M68.755,69.265c0-0.487,0.374-0.882,0.835-0.882
						l0,0h0.375v2.789c0,0.538,0.016,0.975,0.031,1.318h-1.051l-0.055-0.58h-0.024c-0.151,0.254-0.518,0.672-1.218,0.672
						c-0.796,0-1.369-0.521-1.369-1.789v-2.41h1.21v2.211c0,0.595,0.183,0.956,0.613,0.956c0.334,0,0.533-0.243,0.605-0.445
						c0.032-0.076,0.048-0.169,0.048-0.278V69.265L68.755,69.265z M70.938,69.735c0-0.604-0.007-1-0.031-1.352h1.035l0.047,0.765
						h0.032c0.199-0.604,0.668-0.857,1.051-0.857c0.111,0,0.167,0.01,0.254,0.027v1.201C73.231,69.5,73.135,69.483,73,69.483
						c-0.446,0-0.749,0.243-0.827,0.647c-0.017,0.094-0.026,0.19-0.024,0.286v2.159h-0.382c-0.462,0-0.835-0.396-0.835-0.882l0,0
						L70.938,69.735z M75.756,72.582c-1.138,0-2.014-0.789-2.014-2.117c0-1.326,0.828-2.175,2.085-2.175
						c1.186,0,1.982,0.867,1.982,2.109c0,1.494-1.011,2.183-2.046,2.183H75.756z M75.788,71.667c0.477,0,0.771-0.495,0.771-1.234
						c0-0.604-0.223-1.227-0.771-1.227c-0.573,0-0.796,0.623-0.796,1.235c0,0.698,0.278,1.226,0.789,1.226H75.788z M81.481,72.381
						c-0.216,0.109-0.621,0.194-1.083,0.194c-1.258,0-2.062-0.815-2.062-2.102c0-1.191,0.78-2.175,2.228-2.175
						c0.318,0,0.669,0.06,0.924,0.161l-0.191,0.949c-0.144-0.067-0.358-0.126-0.677-0.126c-0.636,0-1.05,0.479-1.043,1.142
						c0,0.755,0.478,1.151,1.067,1.151c0.287,0,0.509-0.05,0.693-0.135L81.481,72.381z M83.942,72.582
						c-1.139,0-2.014-0.789-2.014-2.117c0-1.326,0.828-2.175,2.085-2.175c1.186,0,1.982,0.867,1.982,2.109
						c0,1.494-1.011,2.183-2.046,2.183H83.942z M83.974,71.667c0.478,0,0.772-0.495,0.772-1.234c0-0.604-0.223-1.227-0.772-1.227
						c-0.573,0-0.796,0.623-0.796,1.235c0,0.698,0.279,1.226,0.788,1.226H83.974L83.974,71.667z M87.582,72.49
						c-0.461,0-0.835-0.395-0.835-0.882l0,0v-5.09h1.21v5.972H87.582L87.582,72.49z"/>
				</g>
			</g>
		</g>
	</g>
	<polygon fill="#C9C9C9" points="51.564,39.107 54.341,38.155 110.579,37.488 110.789,38.679 	"/>
	<g>
		<path fill="#FFFFFF" d="M55.767,93.336h-3.471v6.776h-0.954v-7.596h4.424V93.336z"/>
		<path fill="#FFFFFF" d="M57.882,97.139v2.974h-0.949v-7.596h2.655c0.788,0,1.405,0.212,1.851,0.636
			c0.447,0.423,0.67,0.985,0.67,1.684c0,0.739-0.218,1.307-0.655,1.705c-0.437,0.397-1.063,0.598-1.876,0.598H57.882z
			 M57.882,96.319h1.706c0.507,0,0.896-0.126,1.167-0.38c0.271-0.252,0.405-0.616,0.405-1.095c0-0.452-0.135-0.814-0.405-1.087
			c-0.271-0.271-0.641-0.413-1.112-0.422h-1.76V96.319z"/>
		<path fill="#FFFFFF" d="M65.792,96.924l1.656-4.407h1.102l-2.545,6.327c-0.171,0.403-0.331,0.689-0.479,0.858
			c-0.148,0.168-0.322,0.297-0.522,0.386c-0.199,0.09-0.448,0.134-0.749,0.134c-0.26,0-0.427-0.018-0.5-0.048l0.03-0.793l0.45,0.021
			c0.346,0,0.604-0.175,0.771-0.527l0.124-0.271l0.188-0.464l-2.452-5.623h1.063L65.792,96.924z"/>
		<path fill="#FFFFFF" d="M75.214,100.112H74.26v-3.512h-3.628v3.512h-0.949v-7.596h0.949v3.265h3.628v-3.265h0.954V100.112z"/>
		<path fill="#FFFFFF" d="M81.729,93.336h-2.313v6.776h-0.945v-6.776h-2.308v-0.819h5.566V93.336z"/>
		<path fill="#FFFFFF" d="M88.195,96.56c0,0.743-0.119,1.393-0.356,1.948c-0.237,0.555-0.573,0.977-1.008,1.27
			c-0.436,0.292-0.942,0.438-1.522,0.438c-0.567,0-1.07-0.146-1.508-0.44c-0.438-0.294-0.779-0.713-1.021-1.258
			c-0.243-0.544-0.367-1.174-0.373-1.891v-0.548c0-0.729,0.12-1.374,0.361-1.936c0.24-0.561,0.581-0.988,1.021-1.285
			c0.439-0.299,0.943-0.447,1.51-0.447c0.577,0,1.085,0.146,1.525,0.441c0.439,0.293,0.779,0.719,1.016,1.277
			c0.237,0.558,0.356,1.208,0.356,1.949V96.56z M87.251,96.068c0-0.9-0.171-1.593-0.514-2.074c-0.342-0.481-0.822-0.722-1.438-0.722
			c-0.6,0-1.072,0.24-1.417,0.722c-0.344,0.481-0.521,1.151-0.531,2.006v0.56c0,0.871,0.174,1.558,0.522,2.058
			c0.348,0.499,0.826,0.749,1.436,0.749c0.613,0,1.087-0.237,1.423-0.707c0.336-0.471,0.509-1.147,0.519-2.027V96.068z"/>
		<path fill="#FFFFFF" d="M89.619,100.112v-7.596h2.353c0.781,0,1.368,0.171,1.762,0.51c0.394,0.341,0.591,0.846,0.591,1.513
			c0,0.355-0.096,0.669-0.286,0.942c-0.192,0.273-0.452,0.484-0.781,0.635c0.388,0.114,0.695,0.333,0.921,0.655
			c0.226,0.321,0.338,0.705,0.338,1.148c0,0.682-0.21,1.218-0.628,1.608c-0.419,0.389-1.01,0.584-1.774,0.584H89.619z
			 M90.568,95.755h1.434c0.415,0,0.747-0.108,0.996-0.328c0.25-0.22,0.374-0.519,0.374-0.894c0-0.42-0.116-0.723-0.347-0.912
			c-0.231-0.191-0.581-0.285-1.052-0.285h-1.404V95.755z M90.568,96.56v2.733h1.566c0.443,0,0.791-0.121,1.046-0.362
			c0.255-0.242,0.383-0.575,0.383-1c0-0.915-0.472-1.371-1.413-1.371H90.568z"/>
		<path fill="#FFFFFF" d="M97.791,96.698h-0.875v3.414h-0.95v-7.596h0.95v3.348h0.74l2.517-3.348h1.182l-2.749,3.683l2.952,3.913
			h-1.161L97.791,96.698z"/>
		<path fill="#FFFFFF" d="M106.401,98.125h-3.015l-0.678,1.987h-0.979l2.749-7.596h0.83l2.753,7.596h-0.973L106.401,98.125z
			 M103.673,97.306h2.447l-1.226-3.553L103.673,97.306z"/>
	</g>
	<rect x="55.858" y="81.026" fill="#F7F7F7" width="46.63" height="4.268"/>
	<rect x="56.942" y="106.439" fill="#EA9E39" width="44.462" height="2.135"/>
	<path fill="#E2E2E2" d="M105.243,39.922c-0.886-4.208-1.734-3.688-2.074-4.126l-16.212-0.034c-2.154,0.07-2.012,2.262-3.054,4.113
		l-4.5-0.01c1.246-4.076,3.01-8.263,6.98-8.394l17.708,0.04c1.711-0.055,4.913,4.409,5.586,8.422L105.243,39.922z"/>
	<g>
		<ellipse fill="#EA9E39" cx="66.292" cy="38.155" rx="9.301" ry="1.527"/>
		<path fill="#EA9E39" d="M75.735,37.469c0,0.668-0.544,1.21-1.215,1.21H58.064c-0.671,0-1.214-0.542-1.214-1.21v-0.758
			c0-0.668,0.543-1.208,1.214-1.208h16.457c0.671,0,1.215,0.541,1.215,1.208V37.469z"/>
		<ellipse fill="#C48131" cx="66.293" cy="35.594" rx="8.594" ry="1.408"/>
		<g>
			<g>
				<g>
					<path fill="#C48131" d="M66.292,36.627c0.809,0,1.589-0.018,2.327-0.049h-4.653C64.703,36.609,65.484,36.627,66.292,36.627z"/>
				</g>
				<g>
					<path fill="#C48131" d="M58.188,35.452c0,0.07,0.045,0.14,0.128,0.207v-0.416C58.233,35.311,58.188,35.379,58.188,35.452z"/>
				</g>
				<g>
					<path fill="#C48131" d="M74.398,35.452c0-0.072-0.045-0.141-0.129-0.208v0.416C74.353,35.591,74.398,35.521,74.398,35.452z"/>
				</g>
				<g>
					<path fill="#EA9E39" d="M73.055,31.973H59.53c-0.671,0-1.214,0.339-1.214,0.757v2.513v0.416
						c0.539,0.438,2.753,0.793,5.65,0.919h4.653c2.896-0.125,5.111-0.479,5.65-0.919v-0.416V32.73
						C74.269,32.312,73.726,31.973,73.055,31.973z"/>
				</g>
			</g>
		</g>
		<ellipse fill="#E5B27A" cx="66.292" cy="32.08" rx="7.621" ry="0.605"/>
	</g>
</g>
</svg>
