<?xml version="1.0" encoding="utf-8"?>
<!-- Generator: Adobe Illustrator 24.3.0, SVG Export Plug-In . SVG Version: 6.00 Build 0)  -->
<svg version="1.1" id="Layer_1" xmlns="http://www.w3.org/2000/svg" xmlns:xlink="http://www.w3.org/1999/xlink" x="0px" y="0px"
	 viewBox="0 0 192 140" style="enable-background:new 0 0 192 140;" xml:space="preserve">
<style type="text/css">
	.st0{fill:#E8E8E8;}
	.st1{fill:#AFAFAF;}
	.st2{fill:#E5B27A;}
	.st3{fill:#B2B2B2;}
	.st4{fill:#B2732F;}
	.st5{fill:#D88E36;}
	.st6{fill:#404C61;}
	.st7{fill:#EFEFEF;}
	.st8{fill:#F7F7F7;}
	.st9{fill:#BCBCBC;}
	.st10{fill:#D6D6D6;}
	.st11{fill:#C48131;}
	.st12{fill:#EA9E39;}
	.st13{fill:#CE9E6F;}
	.st14{fill:#E2E2E2;}
	.st15{fill:#C9C9C9;}
	.st16{fill:#DDDDDD;}
	.st17{fill:#D3D3D3;}
	.st18{fill:#FFFFFF;}
	.st19{fill:#5B5B5B;}
</style>
<path class="st0" d="M192,108.7c0,2.8-2.2,5-5,5H6.3c-2.8,0-5-2.2-5-5V6c0-2.8,2.2-5,5-5H187c2.8,0,5,2.2,5,5V108.7z"/>
<path class="st1" d="M173.2,116.4c0,0.7-0.8,1.3-1.9,1.3h-66.7c-1,0-1.9-0.6-1.9-1.3v-1.1c0-0.7,0.8-1.3,1.9-1.3h66.7
	c1,0,1.9,0.6,1.9,1.3V116.4z"/>
<ellipse class="st2" cx="85.2" cy="50.1" rx="49.6" ry="5"/>
<path class="st3" d="M139.1,119.1c0,7.9-18.1,14.7-50,14.4c-37.3-0.3-51.5-6.2-51.5-14.1s23.8-14.7,51.5-14.7
	C116.7,104.7,139.1,111.2,139.1,119.1z"/>
<g>
	<path class="st4" d="M171.4,112.9c0,1.2-0.8,2.2-1.9,2.2h-66.7c-1,0-1.9-1-1.9-2.2v-1.7c0-1.2,0.8-2.2,1.9-2.2h66.7
		c1,0,1.9,1,1.9,2.2V112.9z"/>
	<path class="st5" d="M169.6,108.9h-66.7c-1,0-1.9,0.8-1.9,1.8v0.3c0,1,0.8,1.8,1.9,1.8h66.7c1,0,1.9-0.8,1.9-1.8v-0.3
		C171.4,109.7,170.6,108.9,169.6,108.9z"/>
	<ellipse class="st6" cx="166" cy="112.2" rx="1.1" ry="1.1"/>
	<path class="st7" d="M168.1,72.9v1.5c0,0.3-0.2,0.5-0.4,0.5h-1.6c-0.2,0-0.4-0.2-0.4-0.5v-1.5h-2.1v1.5c0,0.3-0.2,0.5-0.4,0.5h-1.6
		c-0.2,0-0.4-0.2-0.4-0.5v-1.5h-2.1v1.5c0,0.3-0.2,0.5-0.4,0.5h-1.6c-0.2,0-0.4-0.2-0.4-0.5v-1.5h-2.1v1.5c0,0.3-0.2,0.5-0.4,0.5
		h-1.6c-0.2,0-0.4-0.2-0.4-0.5v-1.5h-2.1v1.5c0,0.3-0.2,0.5-0.4,0.5h-1.6c-0.2,0-0.4-0.2-0.4-0.5v-1.5h-2.1v1.5
		c0,0.3-0.2,0.5-0.4,0.5h-1.6c-0.2,0-0.4-0.2-0.4-0.5v-1.5h-2.1v1.5c0,0.3-0.2,0.5-0.4,0.5h-1.6c-0.2,0-0.4-0.2-0.4-0.5v-1.5h-2.1
		v1.5c0,0.3-0.2,0.5-0.4,0.5H135c-0.2,0-0.4-0.2-0.4-0.5v-1.5h-2.1v1.5c0,0.3-0.2,0.5-0.4,0.5h-1.6c-0.2,0-0.4-0.2-0.4-0.5v-1.5H128
		v1.5c0,0.3-0.2,0.5-0.4,0.5H126c-0.2,0-0.4-0.2-0.4-0.5v-1.5h-2.1v1.5c0,0.3-0.2,0.5-0.4,0.5h-1.6c-0.2,0-0.4-0.2-0.4-0.5v-1.5H119
		v1.5c0,0.3-0.2,0.5-0.4,0.5H117c-0.2,0-0.4-0.2-0.4-0.5v-1.5h-2.1v1.5c0,0.3-0.2,0.5-0.4,0.5h-1.6c-0.2,0-0.4-0.2-0.4-0.5v-1.5H110
		v1.5c0,0.3-0.2,0.5-0.4,0.5H108c-0.2,0-0.4-0.2-0.4-0.5v-1.5h-2.1v1.5c0,0.3-0.2,0.5-0.4,0.5h-1.6c-0.2,0-0.4-0.2-0.4-0.5v-1.5
		h-1.8l1.1,34.9h64l3.5-34.9H168.1z"/>
	<path class="st8" d="M168.1,74.4c0,0.3-0.2,0.5-0.4,0.5h-1.6c-0.2,0-0.4-0.2-0.4-0.5v-1.5h-2.1v1.5c0,0.3-0.2,0.5-0.4,0.5h-1.6
		c-0.2,0-0.4-0.2-0.4-0.5v-1.5h-2.1v1.5c0,0.3-0.2,0.5-0.4,0.5h-1.6c-0.2,0-0.4-0.2-0.4-0.5v-1.5h-2.1v1.5c0,0.3-0.2,0.5-0.4,0.5
		h-1.6c-0.2,0-0.4-0.2-0.4-0.5v-1.5h-2.1v1.5c0,0.3-0.2,0.5-0.4,0.5h-1.6c-0.2,0-0.4-0.2-0.4-0.5v-1.5h-2.1v1.5
		c0,0.3-0.2,0.5-0.4,0.5h-1.6c-0.2,0-0.4-0.2-0.4-0.5v-1.5h-2.1v1.5c0,0.3-0.2,0.5-0.4,0.5h-1.6c-0.2,0-0.4-0.2-0.4-0.5v-1.5H138
		v34.9h28.3l4.3-34.9h-2.9L168.1,74.4L168.1,74.4z"/>
	<polygon class="st9" points="102.6,105 102.7,107.8 165.5,107.8 165.7,105 	"/>
	<polygon class="st10" points="102.6,105 166.6,105 166.7,101.9 102.5,101.9 	"/>
	<path class="st11" d="M169.6,109.1h-31.3v6h31.3c1,0,1.9-1,1.9-2.2v-1.7C171.4,110,170.6,109.1,169.6,109.1z"/>
	<g>
		<path class="st12" d="M169.6,108.9h-31.3v3.8h31.3c1,0,1.9-0.8,1.9-1.8v-0.3C171.4,109.7,170.6,108.9,169.6,108.9z"/>
	</g>
	<path class="st13" d="M101,110.9c0,0.1,0,0.2,0,0.3v1.7c0,0.2,0,0.3,0.1,0.5h56.1c0.6,0,7.1,0,14.3-0.1c0-0.1,0-0.3,0-0.4v-1.7
		c0-0.1,0-0.1,0-0.2c-7.1-0.1-13.7-0.1-14.3-0.1L101,110.9z"/>
	<path class="st2" d="M171.4,111c-7.1-0.1-13.7-0.1-14.3-0.1h-18.9v2.6h18.9c0.6,0,7.1,0,14.3-0.1c0-0.1,0-0.3,0-0.4v-1.7
		C171.4,111.1,171.4,111.1,171.4,111z"/>
	<polygon class="st14" points="167.4,101.9 138.4,101.9 138.4,105 167,105 	"/>
	<polygon class="st15" points="167.1,105 138.4,105 138.4,107.8 166.7,107.8 	"/>
</g>
<path class="st11" d="M85.5,55.5c-26.1,0-47.5-2.2-49.5-5h-0.1V56l0,0v0.3H36c1.3,2.8,23,5.1,49.6,5.1c24.8,0,45.4-2,49-4.5v-0.6
	v-1.1V51C130.8,53.5,110.3,55.5,85.5,55.5z"/>
<g>
	<path class="st16" d="M86.9,105.1c-12.3,0-22.9-1.6-31.3-4.6c-7-2.5-12.7-6.1-16.8-10.7c-8.6-9.5-7.7-19.6-7.7-20.1h2l0,0
		c0,0.1-0.8,9.9,7.2,18.8c8.8,9.7,24.5,14.6,46.6,14.6c21.8,0,36.8-4.9,44.8-14.5c7.5-9.1,5.6-19.4,5.6-19.5h2
		c0.1,0.5,2.1,10.9-6,20.7c-3.7,4.5-9.1,8.1-15.8,10.7C109.3,103.5,99,105.1,86.9,105.1z"/>
</g>
<path class="st15" d="M134.5,66.2H35.8l1.9,53c0,0.2,0,0.3,0,0.5c0,6.1,21.3,11,47.5,11s47.4-4.9,47.5-10.9h0.1L134.5,66.2z"/>
<path class="st1" d="M134.4,69.9l0.1-3.7H35.8l0.1,3.7c8.1,2.3,27.1,3.8,49.2,3.8C107.3,73.8,126.3,72.2,134.4,69.9z"/>
<path class="st12" d="M136,56.9l-1.4-2.9c-1.8,2.8-23.2,5.1-49.3,5.1c-26.7,0-48.4-2.3-49.4-5.3h-0.2l-1.4,2.9v0.4h0.1
	c1.9,2.9,23.9,5.2,50.7,5.2s48.8-2.3,50.7-5.2L136,56.9z"/>
<g>
	<g>
		<g>
			<path class="st8" d="M136.5,57.6l-0.1,0.2c-1.9,2.9-24.1,5.1-51.2,5.1S35.9,60.6,34,57.8l0,0l-0.3,8.7c1.9,2.9,24.3,5.1,51.6,5.1
				s49.7-2.3,51.6-5.1L136.5,57.6z"/>
		</g>
	</g>
</g>
<path class="st11" d="M36.7,52.2c4.9-2.7,24.6-4.6,48.2-4.6c23.9,0,43.9,2,48.4,4.8c0.8-0.4,1.2-0.8,1.2-1.3
	c0-3.3-22.1-5.9-49.4-5.9s-49.4,2.7-49.4,5.9C35.8,51.4,36.1,51.8,36.7,52.2z"/>
<path class="st1" d="M85.1,62.9c-4,0-8-0.1-11.8-0.1v2.5c0,1.4,1,2.6,2.3,2.6h18.9c1.3,0,2.3-1.2,2.3-2.6v-2.5
	C93.1,62.9,89.2,62.9,85.1,62.9z"/>
<path class="st8" d="M85.1,62.9c-3.6,0-7.1,0-10.4-0.1v1.8c0,1.3,0.9,2.3,2.1,2.3h16.8c1.1,0,2.1-1,2.1-2.3v-1.8
	C92.2,62.9,88.7,62.9,85.1,62.9z"/>
<path class="st8" d="M86,76.7c-17.4,0-32.8-0.9-42.2-2.3l1.4,44.7c8.3,3.2,23.5,5.4,40.9,5.4c16.2,0,30.5-1.9,39-4.7l0,0l1.3-45.1
	C117,75.9,102.4,76.7,86,76.7z"/>
<path class="st8" d="M85.8,77.2c-17.4,0-32.8-0.9-42.2-2.3l1.4,44.7c8.3,3.2,23.5,5.4,40.9,5.4c16.2,0,30.4-1.9,39-4.7l0,0l1.3-45.1
	C116.7,76.4,102.1,77.2,85.8,77.2z"/>
<path class="st17" d="M122.8,118.4l0.9-29.9c-7.3,1.4-22.4,3.2-37.5,3.2c-16.1,0-33.4-2.1-39.1-3.4l0.9,29.5c7.8,3,22,5.1,38.3,5.1
	C101.4,122.8,114.8,121.1,122.8,118.4L122.8,118.4L122.8,118.4z"/>
<path class="st18" d="M139.3,66.7c0,0.5-0.4,0.9-0.9,0.9l0,0c-0.5,0-0.9-0.4-0.9-0.9v-5.6c0-0.5,0.4-0.9,0.9-0.9l0,0
	c0.5,0,0.9,0.4,0.9,0.9V66.7z"/>
<path class="st18" d="M32.6,66.7c0,0.5-0.4,0.9-0.9,0.9l0,0c-0.5,0-0.9-0.4-0.9-0.9v-5.6c0-0.5,0.4-0.9,0.9-0.9l0,0
	c0.5,0,0.9,0.4,0.9,0.9V66.7z"/>
<path class="st12" d="M85.2,44.6c-27.4,0-49.6,2.5-49.6,5.6s22.2,5.6,49.6,5.6s49.6-2.5,49.6-5.6C134.8,47.1,112.6,44.6,85.2,44.6z
	 M85.2,54.9c-26.8,0-48.4-2.1-48.4-4.7c0-2.6,21.7-4.7,48.4-4.7s48.4,2.1,48.4,4.7C133.6,52.8,111.9,54.9,85.2,54.9z"/>
<path class="st8" d="M72.4,101.2v4.5h0.4l3.4-4.5h1.6l-3.8,4.6c1.7,0.2,2.3,1.2,2.8,2.6c0.4,1,0.7,2,1.1,2.9h-1.4
	c-0.4-0.7-0.6-1.6-0.9-2.4c-0.5-1.3-1.1-2.2-2.8-2.2h-0.4v4.6h-1.3v-10.1H72.4L72.4,101.2z"/>
<path class="st8" d="M86.4,101.2v10.1h-1.3v-9h-3.3v3c0,2.2-0.1,4.6-1.5,5.6c-0.4,0.2-1,0.5-1.5,0.5l-0.2-1c0.4-0.1,0.8-0.3,1.1-0.5
	c0.8-0.8,0.9-2.7,0.9-4.4v-4.2L86.4,101.2L86.4,101.2z"/>
<path class="st8" d="M93.9,106.5H90v3.6h4.4v1.1h-5.7v-10.1h5.4v1.1H90v3.2h3.9V106.5L93.9,106.5z"/>
<path class="st8" d="M97.2,101.2v4.2c0,1.6,0,2.9-0.1,4.3l0,0c0.5-1,1.1-2.1,1.9-3.3l3.3-5.2h1.3v10.1h-1.2V107c0-1.6,0-2.8,0.1-4.1
	l0,0c-0.5,1.1-1.2,2.3-1.9,3.4l-3.2,5H96v-10.1C96,101.2,97.2,101.2,97.2,101.2z M98.9,99c0.1,0.5,0.2,0.9,0.9,0.9
	c0.7,0,0.9-0.4,0.9-0.9h1c-0.1,1-0.7,1.6-1.9,1.6c-1.2,0-1.8-0.6-1.9-1.6H98.9z"/>
<path class="st19" d="M74.7,88.7c-0.6,0-1.1-0.2-1.5-0.5s-0.6-0.8-0.6-1.3c0-0.6,0.3-1.1,0.8-1.4s1.3-0.5,2.2-0.5c0.2,0,0.5,0,0.8,0
	c0-0.7-0.4-1-1.2-1c-0.7,0-1.3,0.2-1.9,0.5l-0.1-1.4c0.6-0.3,1.3-0.4,2.2-0.4c1.8,0,2.8,0.8,2.8,2.4c0,0.1,0,0.3,0,0.6
	c0,0.3,0,0.6,0,0.8c0,0.7,0,1.4,0.1,2.1h-1.7c0-0.1,0-0.2,0-0.5c0-0.2,0-0.4,0-0.5l0,0C76.3,88.4,75.6,88.7,74.7,88.7z M75.4,87.5
	c0.4,0,0.7-0.1,0.9-0.4c0.2-0.3,0.3-0.6,0.3-1c-0.2,0-0.3,0-0.4,0c-1.1,0-1.6,0.3-1.6,0.8C74.6,87.2,74.8,87.5,75.4,87.5z"/>
<path class="st19" d="M79.6,88.6v-4c0-0.7,0-1.3-0.1-1.7h1.8c0,0.4,0.1,0.8,0.1,1.3l0,0c0.3-0.9,0.9-1.4,1.7-1.4
	c0.3,0,0.5,0,0.6,0.1l-0.1,1.7c-0.2-0.1-0.4-0.1-0.6-0.1c-0.5,0-0.9,0.2-1.1,0.5s-0.3,0.9-0.3,1.7v2L79.6,88.6L79.6,88.6z"/>
<path class="st19" d="M86.6,88.7c-0.8,0-1.4-0.3-1.9-0.8c-0.5-0.6-0.7-1.3-0.7-2.2c0-0.9,0.2-1.6,0.7-2.1s1.1-0.8,1.8-0.8
	c0.8,0,1.4,0.3,1.8,1l0,0c0-0.5,0-1.1,0-1.7v-1.7h2V87c0,0.7,0,1.3,0.1,1.7h-1.8c0-0.3,0-0.7,0-1l0,0C88.2,88.4,87.5,88.7,86.6,88.7
	z M87.3,87.3c0.4,0,0.7-0.1,0.9-0.4c0.2-0.3,0.3-0.7,0.3-1.1c0-0.5-0.1-0.8-0.3-1.1c-0.2-0.3-0.5-0.4-0.9-0.4
	c-0.3,0-0.6,0.1-0.8,0.4s-0.3,0.6-0.3,1.1s0.1,0.8,0.3,1.1C86.6,87.1,86.9,87.3,87.3,87.3z"/>
<path class="st19" d="M94.8,88.7c-1,0-1.8-0.3-2.5-0.8c-0.6-0.5-0.9-1.3-0.9-2.2c0-0.9,0.3-1.6,0.9-2.2c0.6-0.5,1.3-0.8,2.3-0.8
	c0.9,0,1.6,0.3,2,0.8c0.5,0.5,0.7,1.3,0.7,2.3c0,0.2,0,0.4,0,0.5h-4c0,0.3,0.2,0.6,0.5,0.8c0.3,0.2,0.7,0.3,1.2,0.3
	c0.6,0,1.2-0.1,1.7-0.4l0.1,1.4C96.3,88.6,95.7,88.7,94.8,88.7z M93.4,85.1h2.2c0-0.7-0.3-1.1-1-1.1c-0.3,0-0.6,0.1-0.8,0.3
	C93.6,84.5,93.4,84.8,93.4,85.1z"/>
<path class="st19" d="M97.6,88.6l2-2.9l-1.8-2.8h2.3l0.5,0.9c0.2,0.4,0.4,0.7,0.5,0.9l0,0c0.1-0.2,0.2-0.5,0.5-0.9l0.5-0.9h2.1
	l-1.8,2.8l1.9,2.9H102l-0.4-0.6c-0.3-0.5-0.5-1-0.7-1.3l0,0c-0.2,0.4-0.4,0.8-0.7,1.3l-0.4,0.6H97.6z"/>
</svg>
