<?xml version="1.0" encoding="utf-8"?>
<!-- Generator: Adobe Illustrator 24.3.0, SVG Export Plug-In . SVG Version: 6.00 Build 0)  -->
<svg version="1.1" id="Layer_1" xmlns="http://www.w3.org/2000/svg" xmlns:xlink="http://www.w3.org/1999/xlink" x="0px" y="0px"
	 viewBox="0 0 192 140" style="enable-background:new 0 0 192 140;" xml:space="preserve">
<style type="text/css">
	.st0{fill:#E8E8E8;}
	.st1{fill:#AFAFAF;}
	.st2{fill:#C9C9C9;}
	.st3{fill:#999999;}
	.st4{fill:#EA9E39;}
	.st5{fill:#E5B27A;}
	.st6{fill:#FFFFFF;}
	.st7{fill:#C48131;}
	.st8{fill:#F7F7F7;}
	.st9{fill:#5B5B5B;}
</style>
<path class="st0" d="M191.5,108.8c0,2.8-2.2,5-5,5H5.8c-2.8,0-5-2.2-5-5V6.1c0-2.8,2.2-5,5-5h180.7c2.8,0,5,2.2,5,5L191.5,108.8z"/>
<path class="st1" d="M124.3,130.5c0,6.1-12.4,8.6-23.3,8.6s-21.5-3.4-21.5-8.4c0-5,3.8-4.3,21.4-4.3
	C112.9,126.3,124.3,125.3,124.3,130.5z"/>
<path class="st2" d="M87.5,25.3c-2.2,0.4-4.2,1.4-5.9,2.8c-1.3,1.4-2,3.3-2,5.2c0,0.3-0.1,5.8-0.1,6.5v86.4c0,0,0,4.1,0.5,5.5
	c0.7,1.7,7.5,6.2,20.9,6.2s19.5-3.8,20.8-6.9c0.5-1.3,0.7-2.8,0.7-4.2V33.1c0,0,0-3.3-1.8-4.8c-2.1-1.9-6.7-2.9-6.7-2.9l-4.2-1.7
	H91.5L87.5,25.3z"/>
<path class="st3" d="M88.8,24c0,0,0.2-5.5,0-6.2s-1-1-2-1c-0.7-0.1-1.4,0.2-1.8,0.8c-0.1,0.5-0.2,1-0.2,1.5l3.6,4.7L88.8,24z"/>
<path class="st1" d="M91.1,24h-2.4c0.1-1.8,0.1-3.5,0-5.3c-0.3-0.9-1.1-1.4-2-1.3c-1,0-1.8,0.7-2,1.7v5.5c0,0.3,0.2,0.5,0.5,0.5
	c0,0,0,0,0,0l2.6,0.1C89,24.9,90.1,24.5,91.1,24z"/>
<path class="st4" d="M91.3,14.6c0,0,0.3,7.6,0,8.1s-0.8,0.6-0.8,1s-0.4,0.6-0.8,0.7s-1.9,0.5-2.1,0.7s0.1,0.1,0.1,0.1
	s-0.5,2.5,13.3,2.5c13.7,0,13.6-2.7,13.7-3s-1.8-0.5-2.4-0.8s-0.3-0.6-0.8-0.8c-0.3-0.1-0.5-0.1-0.8-0.1v-8.6L91.3,14.6z"/>
<path class="st5" d="M91.4,14.8c-0.1-0.1,0-0.3,0.1-0.4c0.8-0.9,4.1-1.5,9.5-1.5c6.5,0,9.7,1,9.7,1.6c0,0.5-3.2,2-9.7,2
	C95.1,16.4,92,15.7,91.4,14.8z"/>
<path class="st2" d="M98.9,12.9"/>
<path class="st6" d="M102.6,10.9c-0.6,0.3-1.2,0.4-1.9,0.3c-0.6,0-1.3-0.1-1.8-0.3"/>
<path class="st4" d="M98.9,10.9C98.9,10.9,98.8,10.9,98.9,10.9C98.8,10.9,98.8,10.9,98.9,10.9c-0.1,0.6-0.2,3.4-0.1,3.5
	c0.5,0.4,1.2,0.5,1.8,0.4c1.3,0,2-0.2,2-0.5V11c0,0,0-0.1-0.1-0.1c0,0,0,0,0,0c-0.6,0.2-1.2,0.3-1.9,0.3
	C100.1,11.2,99.5,11.1,98.9,10.9z"/>
<path class="st5" d="M98.9,10.9c0,0,0.2-0.6,1.8-0.6s1.9,0.6,1.9,0.6C101.4,11.3,100.1,11.3,98.9,10.9L98.9,10.9z"/>
<path class="st5" d="M99.4,8.1c0,0,0.2-0.3,1.2-0.3s1.2,0.3,1.2,0.3c-0.4,0.1-0.8,0.2-1.2,0.2C100.2,8.3,99.8,8.2,99.4,8.1z"/>
<path class="st5" d="M99.9,5.8c0,0,0.1-0.1,0.8-0.1s0.8,0.1,0.8,0.1c-0.2,0.1-0.5,0.1-0.8,0.2C100.4,5.9,100.1,5.9,99.9,5.8z"/>
<path class="st7" d="M100.1,2.8c0,0,0.1-0.1,0.6-0.1s0.6,0.1,0.6,0.1C100.9,3,100.4,3,100.1,2.8z"/>
<path class="st4" d="M99.4,8c0,0,0,2.8,0,2.9c0.4,0.1,0.8,0.2,1.3,0.2c0.4,0,0.8,0,1.2-0.2c0-0.1,0-2.9,0-2.9
	C101.1,8.3,100.2,8.3,99.4,8z"/>
<path class="st4" d="M99.9,5.8c0,0,0,2.1,0,2.1c0.3,0.1,0.5,0.1,0.8,0.1c0.3,0,0.5,0,0.7-0.1V5.8c-0.2,0.1-0.5,0.2-0.8,0.1
	C100.4,6,100.1,5.9,99.9,5.8z"/>
<path class="st4" d="M100.1,2.8c0,0,0,2.9,0,2.9c0.2,0.1,0.4,0.1,0.6,0.1c0.2,0,0.4,0,0.6-0.1V2.8c-0.2,0.1-0.4,0.1-0.6,0.1
	C100.5,2.9,100.3,2.9,100.1,2.8z"/>
<path class="st7" d="M94.7,24.9c-0.3,0-0.4-0.3-0.4-0.5v-6.3c0-0.2,0.1-0.4,0.3-0.4S95,18,95,18.1v6.3C95,24.6,95,24.9,94.7,24.9z"
	/>
<path class="st7" d="M98.5,25.5c-0.3,0-0.4-0.3-0.4-0.5v-6.3c0-0.2,0.1-0.4,0.3-0.4s0.3,0.3,0.3,0.4V25
	C98.8,25.1,98.8,25.5,98.5,25.5z"/>
<path class="st7" d="M103.5,25.5c-0.3,0-0.4-0.3-0.4-0.5v-6.3c0-0.2,0.1-0.4,0.3-0.4s0.3,0.3,0.3,0.4V25
	C103.8,25.1,103.8,25.5,103.5,25.5z"/>
<path class="st7" d="M107.9,25.1c-0.3,0-0.4-0.3-0.4-0.5v-6.3c0-0.2,0.1-0.4,0.3-0.4s0.3,0.3,0.3,0.4v6.3
	C108.2,24.7,108.2,25.1,107.9,25.1z"/>
<path class="st7" d="M91.5,24c-0.3,0-0.4-0.3-0.4-0.5v-6.3c0-0.2,0.1-0.4,0.3-0.4s0.3,0.3,0.3,0.4v6.3C91.8,23.6,91.8,24,91.5,24z"
	/>
<path class="st7" d="M110.7,24c-0.3,0-0.4-0.3-0.4-0.5v-6.3c0-0.2,0.1-0.4,0.3-0.4s0.3,0.3,0.3,0.4v6.3C111,23.6,111,24,110.7,24z"
	/>
<path class="st7" d="M88.5,24.9c0,0,0.2,2,12.9,2s13.2-2.2,13.2-2.2c0.1,0,0.2,0.1,0.3,0.2c0.1,0.2,0.2,0.4,0.2,0.6
	c0,0,0.6,2.7-13.6,2.7c-12.8,0-14-2.6-14-2.6s0-0.3,0.5-0.5S88.5,24.9,88.5,24.9z"/>
<path class="st8" d="M101.3,68.5c-5.2,0.1-10.4-0.2-15.6-0.9v16.1c5,1.6,10.3,2.4,15.6,2.4c4.9,0,9.8-0.8,14.4-2.4l0,0V67.6
	C111,68.2,106.1,68.5,101.3,68.5z"/>
<path class="st9" d="M90.8,73.4v3.1h0.3l2.4-3.1h1.1l-2.6,3.2c1,0.1,1.7,0.8,1.9,1.8c0.3,0.7,0.5,1.3,0.8,2h-1
	c-0.3-0.5-0.5-1.1-0.6-1.6c-0.1-0.9-0.9-1.6-1.8-1.6h-0.3v3.2H90v-6.9H90.8z"/>
<path class="st9" d="M100.4,73.4v6.9h-0.9v-6.2h-2.3v2.1c0,1.5-0.1,3.2-1,3.8c-0.3,0.2-0.7,0.3-1.1,0.3L95,79.7
	c0.3-0.1,0.5-0.2,0.7-0.4c0.6-0.6,0.6-1.9,0.6-3v-2.9H100.4z"/>
<path class="st9" d="M105.6,77.1h-2.7v2.5h3v0.8H102v-6.9h3.7v0.8h-2.8v2.2h2.7L105.6,77.1L105.6,77.1z"/>
<path class="st9" d="M107.9,73.4v2.9c0,1.1,0,2-0.1,2.9l0,0c0.3-0.7,0.8-1.5,1.3-2.3l2.2-3.6h0.9v6.9h-0.8v-3c0-1.1,0-2,0.1-2.8l0,0
	c-0.4,0.8-0.8,1.6-1.3,2.4l-2.2,3.4h-1v-6.9H107.9z M109,71.9c0,0.3,0.2,0.6,0.6,0.6s0.6-0.3,0.6-0.6h0.7c0,0.7-0.5,1.1-1.3,1.1
	c-0.6,0.1-1.2-0.3-1.3-0.9c0-0.1,0-0.1,0-0.2H109z"/>
</svg>
