<svg enable-background="new 0 0 86 98" height="98" viewBox="0 0 86 98" width="86" xmlns="http://www.w3.org/2000/svg"><g stroke="#fff" stroke-miterlimit="10"><circle cx="43.849" cy="49.54" fill="none" r="22.588" stroke-width="2"/><g fill="#fff" stroke-width=".75"><path d="m21.808 54.502c3.202-3.486 7.807-5.441 12.509-4.586 9.532 1.727 11.165 20.961 16.956 20.961l1.432-.543c-5.749-.041-7.691-20.145-18.146-21.941-4.857-.832-9.549 1.342-13.015 4.727z"/><path d="m37.792 71.305c-4.521-2.743-5.442-13.105-1.938-24.226 3.599-11.427 10.564-19.513 15.897-18.706l-1.305-.439c-5.337-.811-12.295 7.271-15.893 18.695-3.533 11.213-2.564 21.661 2.055 24.297z"/><path d="m33.644 29.391c1.561 3.238 3.19 5.606 6.713 7.041 6.092 2.475 14.271-2.26 20.383-1.678l1.098 1.01c-9.134.834-15.37 4.822-22.065 2.096-3.869-1.573-5.755-4.194-7.467-7.74z"/><path d="m64.81 57.956c-3.521-3.297-10.726-8.216-18.688-12.572-10.929-5.975-21.08-8.476-22.712-5.513l-.599 1.39c1.633-2.967 11.718-.477 22.583 5.447 7.899 4.308 15.354 9.384 18.716 12.829z"/></g></g></svg>