<svg enable-background="new 0 0 86 98" height="98" viewBox="0 0 86 98" width="86" xmlns="http://www.w3.org/2000/svg"><path d="m68.502 30.966c-.004 0-.008 0-.012 0h-3.486v-1.193c.02-.472-.287-.896-.74-1.028-2.42-.635-4.914-.953-7.414-.946-4.115 0-9.721.925-13.865 5.142-4.114-4.258-9.76-5.142-13.864-5.142-2.502-.006-4.995.312-7.416.946-.454.132-.759.556-.74 1.028v1.183h-3.465c-.568 0-1.029.46-1.029 1.028v32.85c0 .568.461 1.028 1.029 1.028.176-.001.35-.046.504-.134.102-.051 10.387-5.677 24.745-2.058h.155.092c.082.011.165.011.247 0 14.399-3.65 24.684 1.965 24.745 2.058.318.184.711.184 1.029 0 .316-.183.512-.519.514-.884v-32.85c-.002-.567-.461-1.028-1.029-1.028zm-49.974 32.232v-30.176h2.458v25.796c-.006.566.449 1.032 1.017 1.039.056.001.111-.002.167-.011 2.127-.326 4.275-.497 6.428-.516 2.981-.051 5.95.397 8.784 1.327-6.401-.772-12.89.103-18.854 2.541zm10.068-5.914c-1.871.005-3.739.125-5.595.361v-27.06c2.003-.447 4.047-.674 6.099-.679 3.847 0 9.154.884 12.836 5.04l.03 25.619c-2.138-1.398-6.315-3.281-13.37-3.281zm15.427-22.338c3.682-4.114 8.988-5.04 12.836-5.04 2.051.006 4.096.233 6.1.679v27.06c-1.848-.238-3.705-.362-5.566-.371-7.014 0-11.199 1.883-13.369 3.28v-25.608zm23.44 28.252c-5.979-2.445-12.482-3.32-18.895-2.54 2.848-.933 5.83-1.381 8.824-1.327 2.168.013 4.328.181 6.471.504.561.086 1.086-.301 1.17-.862.01-.055.014-.11.014-.165v-25.786h2.457z" fill="#fff"/></svg>