<svg enable-background="new 0 0 192 140" viewBox="0 0 192 140" xmlns="http://www.w3.org/2000/svg"><path d="m191.4 110.2c0 2.5-2.2 4.6-5 4.6h-180.6c-2.8 0-5-2.1-5-4.6v-95.8c0-2.5 2.2-4.6 5-4.6h180.7c2.8 0 5 2.1 5 4.6z" fill="#ede9e7"/><path d="m87.2 77.9c-3.2-.3-6.6-.5-10-.5-28.3 0-52.1 10.8-52.1 23.6h-1.6c0-14.5 23.6-25.8 53.7-25.8 4.4 0 8.6.2 12.7.7 0 .1-1.8 2.1-2.7 2z" fill="#afafaf"/><path d="m96.4 134.9v-2.2l-82.1-1.5-.8 2.1z" fill="#ea9e39"/><path d="m.9 131v2.2h6.9l.8-2.1z" fill="#ea9e39"/><path d="m71.2 130c-4.1-.3-8.1-.8-12-1.6l.2-2.1c3.8.8 7.8 1.3 11.8 1.6zm12 0-.1-2.1c4-.3 8-.8 11.8-1.6l.2 2.1c-3.8.7-7.8 1.3-11.9 1.6zm-35.8-5.1c-4.2-1.6-8-3.5-11.3-5.7l.7-1.9c3.2 2.1 7 4 11.1 5.6z" fill="#afafaf"/><path d="m26.1 109.6c-1.7-2.8-2.6-5.6-2.6-8.5h1.6c0 2.3.8 4.7 2.2 7.1z" fill="#afafaf"/><path d="m89.8 70.4c-5.6-.6-10.4-.9-16.2-.9-23.5 0-46.2 5-63.9 14.1-3.1 1.6-6.1 3.3-8.8 5.2v2.4c2.9-2 6-3.8 9.3-5.5 17.5-9 40-14 63.3-14 5.8 0 10.7.3 16.3.9z" fill="#afafaf"/><path d="m82.1 98.1-58.7-.5-16.1 42.1h1.8l15.2-40 57.8.5z" fill="#afafaf"/><path d="m.9 61.9 73.3-1.5v-2.1l-73.3 1.5z" fill="#ea9e39"/><path d="m96.2 60.7h10.8v10.9l-15.6 8.2v20.1" fill="none" stroke="#c9c9c9" stroke-miterlimit="10" stroke-width="1.4818"/><path d="m79.4 56.5h24v8.2h-24z" fill="#fff"/><path d="m96.6 95.2h-10.3v3.1l2.9 1.2v21.8h4.5v-21.8l2.9-1.2z" fill="#f1b974"/><path d="m79.4 61.9h24v2.8h-24z" fill="#b2b2b2"/><path d="m79.4 59h24v3h-24z" fill="#c9c9c9"/><path d="m86.3 94.5h10.3v1.2h-10.3z" fill="#fff"/><path d="m78.3 56.5h1.2v8.2h-1.2z" fill="#ea9e39"/><path d="m103.3 56.5h1.2v8.2h-1.2z" fill="#ea9e39"/><path d="m90.6 118.7.4-4h1l.3 4z" fill="#fff"/><path d="m145.5 38.1c14.4 0 26.4-.8 29.3-1.8-3.1-1.1-15.2-2.1-29.5-2.1-14.4 0-26.2 1-29.1 2.2 3.1.9 15.1 1.7 29.3 1.7z" fill="#fff"/><path d="m180.6 118.6c0 5.9-11.8 10.9-32.6 10.7-24.3-.2-33.5-4.6-33.5-10.5s15.6-10.9 33.5-10.9c18 0 32.6 4.9 32.6 10.7z" fill="#b2b2b2"/><path d="m177.6 41.2s-8.3 2.5-32.9 2.2c-24.7-.4-31.4-2.2-31.4-2.2l1.2 77.5v.4c0 4.5 13.8 8.2 30.9 8.2s30.9-3.6 30.9-8.2h.1z" fill="#c9c9c9"/><path d="m145.4 44.3c-17 0-30.9-1.6-32.1-3.4v2.3c1.3 1.9 15.1 3.4 32 3.4s30.7-1.5 32-3.4v-2.3c-1 2-14.9 3.4-31.9 3.4z" fill="#afafaf"/><path d="m145.4 42.6c-17.5 0-31.8-1.6-32.9-3.4v2.3c1.4 1.9 15.6 3.4 32.8 3.4 17.4 0 31.6-1.5 32.8-3.4v-2.3c-.8 1.8-15.1 3.4-32.7 3.4z" fill="#fff"/><path d="m145.9 58c-11.3 0-21.4-.7-27.5-1.8l.9 51.6c5.4 2.4 15.3 4 26.7 4 10.6 0 19.9-1.4 25.4-3.5l.9-51.9c-6.3 1-15.8 1.6-26.4 1.6z" fill="#fff"/><path d="m145.4 32.8c-16.6 0-29.7 1.3-29.7 2.6 0 0 .9.4 1.7.7 3.9-1.1 13.8-1.8 28.2-1.8 14.3 0 24.8.8 27.9 1.8.4-.1 2.2-.6 2.2-.8-.2-1.1-13.8-2.5-30.3-2.5z" fill="#afafaf"/><path d="m149.9 37.6h.4c-.1 0-.2 0-.4 0z" fill="#afafaf"/><path d="m148.5 37.6h.6c-.3 0-.5 0-.6 0z" fill="#afafaf"/><path d="m176.7 35.4c-1.1 1.6-15 3.2-31.3 3.2-17 0-31.2-1.5-31.2-3.1l.3 4.3s13.7 2.4 30.5 2.4c17 0 30.9-1.6 31-2.4.2 0 .7-4.4.7-4.4z" fill="#d8d8d8"/><path d="m145.4 32.3c-19.5 0-31.2 1.4-31.2 3.1s13.9 3.1 31.2 3.1c17.2 0 31.2-1.4 31.2-3.1s-12.2-3.1-31.2-3.1zm0 5.1c-16.3 0-29.6-.9-29.6-2.1s13-2.4 29.3-2.4 29.7 1.2 29.7 2.4-13 2.1-29.4 2.1z" fill="#e2e2e2"/><path d="m171.3 109.9c-5.6 2.2-14.9 3.5-25.4 3.5-11.3 0-21.2-1.6-26.7-4v2.7c5.4 2.4 15.3 4 26.7 4 10.6 0 19.9-1.4 25.4-3.5z" fill="#fff"/><path d="m114.3 37.7c-1.1.4-1.7.8-1.7 1.2 0 2.1 14.7 3.7 32.8 3.7s32.8-1.7 32.8-3.7c0-.4-.7-.9-1.8-1.3v.3c.7.3 1 .5 1 .8 0 1.8-14.3 3.1-31.9 3.1s-31.9-1.4-31.9-3.1c0-.3.3-.5.9-.7z" fill="#afafaf"/><path d="m145.9 58c-11.3 0-21.4-.7-27.5-1.8l.9 51.6c5.4 2.4 15.3 4 26.7 4 10.6 0 19.9-1.4 25.4-3.5l.9-51.9c-6.3 1-15.8 1.6-26.4 1.6z" fill="#fff"/><path d="m126.2 57.2c-.2 0-.3 0-.5 0-2.8-.3-5.2-.6-7.3-.9l.9 51.6c1.6.7 3.6 1.4 5.8 1.9.3.1.7.2.9.2z" fill="#ea9e39"/><path d="m164.8 57.3v52.9c2.6-.5 4.8-1.1 6.6-1.9l.9-51.9c-2.2.3-4.8.6-7.5.9z" fill="#ea9e39"/><path d="m134.5 70.2c0 .4.4.6.9.6.3 0 .6 0 .9-.1l.1.7c-.3.1-.7.2-1.1.2-1.1 0-1.7-.6-1.7-1.6 0-.8.5-1.7 1.6-1.7 1 0 1.4.8 1.4 1.6v.4zm1.1-.7c0-.2-.1-.6-.5-.6s-.6.4-.6.6zm3.4-.5c0-.4.3-.7.7-.7h.3v2.1 1h-.8v-.4c-.1.2-.4.5-1 .5s-1.1-.4-1.1-1.4v-1.8h1v1.7c0 .5.1.7.5.7.3 0 .4-.2.5-.3 0-.1 0-.1 0-.2zm1.8.3c0-.5 0-.8 0-1h.8v.6c.2-.5.5-.7.8-.7h.2v.9c-.1 0-.2 0-.3 0-.4 0-.6.2-.7.5v.2 1.7h-.3c-.4 0-.7-.3-.7-.7zm3.8 2.2c-.9 0-1.6-.6-1.6-1.6s.7-1.7 1.7-1.7 1.6.7 1.6 1.6c-.1 1.2-.9 1.7-1.7 1.7zm0-.7c.4 0 .6-.4.6-.9s-.2-.9-.6-.9c-.5 0-.6.5-.6.9-.1.5.2.9.6.9zm4.5.6c-.2.1-.5.1-.9.1-1 0-1.7-.6-1.7-1.6 0-.9.6-1.7 1.8-1.7.3 0 .5 0 .7.1l-.2.7c-.1-.1-.3-.1-.5-.1-.5 0-.8.4-.8.9 0 .6.4.9.9.9.2 0 .4 0 .6-.1zm2 .1c-.9 0-1.6-.6-1.6-1.6s.7-1.7 1.7-1.7 1.6.7 1.6 1.6c-.1 1.2-.9 1.7-1.7 1.7zm0-.7c.4 0 .6-.4.6-.9s-.2-.9-.6-.9c-.5 0-.6.5-.6.9 0 .5.2.9.6.9zm2.8.6c-.4 0-.7-.3-.7-.7v-3.8h1v4.5z" fill="#5b5b5b"/><path d="m171.3 107.8c-5.6 2.2-14.9 3.5-25.4 3.5-11.3 0-21.2-1.6-26.7-4v2.7c5.4 2.4 15.3 4 26.7 4 10.6 0 19.9-1.4 25.4-3.5z" fill="#e2e2e2"/><g fill="#5b5b5b"><path d="m129.4 85.1c.3 0 .7-.1 1.3-.1s1.1.1 1.4.4c.3.2.4.6.4 1s-.1.8-.4 1c-.3.3-.9.5-1.5.5-.2 0-.4 0-.5 0v1.9h-.7zm.6 2.3h.5c.8 0 1.3-.4 1.3-1s-.5-.9-1.2-.9c-.3 0-.5 0-.6 0z"/><path d="m133.6 88.3-.5 1.5h-.7l1.7-4.7h.8l1.7 4.6h-.7l-.5-1.5zm1.6-.5-.5-1.4c-.1-.3-.2-.6-.3-.9-.1.3-.2.6-.3.9l-.5 1.4z"/><path d="m137.1 85.3c.3-.2.8-.4 1.3-.4.9 0 1.5.4 1.5 1.2 0 .6-.4 1-1 1.1.7.1 1.2.5 1.2 1.2 0 1-.9 1.4-1.8 1.4-.5 0-.9-.1-1.3-.3l.2-.5c.3.1.7.3 1.1.3.7 0 1.2-.4 1.2-.9 0-.7-.7-.9-1.4-.9h-.3v-.5h.3c.7 0 1.2-.4 1.2-.9s-.4-.7-.9-.7c-.4 0-.8.1-1 .3z"/><path d="m145 87.7c0-.7-.1-1.4-.1-2-.2.6-.4 1.1-.6 1.8l-.9 2.3h-.5l-.8-2.2c-.2-.7-.4-1.3-.6-1.8 0 .6-.1 1.4-.1 2.1l-.1 2h-.6l.3-4.9h.8l.9 2.3c.2.6.4 1.1.5 1.6.1-.5.3-1 .5-1.6l.9-2.3h.8l.3 4.6h-.7z"/><path d="m149.1 87.5h-2v1.7h2.2v.5h-2.8v-4.7h2.7v.5h-2.1v1.5h2z"/><path d="m151.3 85.6h-1.5v-.6h3.6v.5h-1.4v4.1h-.7z"/><path d="m154.5 85v2.1h.2l1.7-2.1h.8l-1.9 2.2c.8.1 1.2.6 1.4 1.2.2.5.3.9.6 1.3h-.7c-.2-.3-.3-.7-.5-1.1-.2-.6-.6-1.1-1.4-1.1h-.2v2.2h-.6v-4.7z"/><path d="m158.9 88.3-.5 1.5h-.7l1.7-4.6h.8l1.7 4.6h-.7l-.5-1.5zm1.6-.5-.5-1.4c-.1-.3-.2-.6-.3-.9-.1.3-.2.6-.3.9l-.5 1.4z"/></g></svg>