<?xml version="1.0" encoding="utf-8"?>
<!-- Generator: Adobe Illustrator 16.0.0, SVG Export Plug-In . SVG Version: 6.00 Build 0)  -->
<!DOCTYPE svg PUBLIC "-//W3C//DTD SVG 1.1//EN" "http://www.w3.org/Graphics/SVG/1.1/DTD/svg11.dtd">
<svg version="1.1" id="Layer_1" xmlns="http://www.w3.org/2000/svg" xmlns:xlink="http://www.w3.org/1999/xlink" x="0px" y="0px"
	 width="192px" height="140px" viewBox="0 0 192 140" enable-background="new 0 0 192 140" xml:space="preserve">
<path fill="#E8E8E8" d="M192,108.666c0,2.762-2.238,5-5,5H6.333c-2.762,0-5-2.238-5-5V6c0-2.762,2.238-5,5-5H187
	c2.762,0,5,2.238,5,5V108.666z"/>
<g>
	<path fill="#B2B2B2" d="M125.523,114.839c0,6.908-18.588,12.128-51.649,11.886c-38.665-0.279-53.517-4.735-53.517-11.647
		c0-6.904,24.702-12.744,53.33-12.744C102.314,102.334,125.523,107.933,125.523,114.839z"/>
	<path fill="#B2B2B2" d="M175.512,112.859c0,0.9-0.701,1.25-2.09,1.202H98.605c-1.153,0.864-2.09,0.134-2.09-0.769v-1.308
		c0-0.901,0.937-1.635,2.09-1.635h74.815c1.154,0,2.091,0.731,2.091,1.635V112.859L175.512,112.859z"/>
	<path fill="#AFAFAF" d="M74.86,99.153c29.251,0,51.679,6.966,51.679,18.09c0,12.826-23.721,21.933-58,21.933l-6.413-1.776
		L74.86,99.153z"/>
	<g>
		<polygon fill="#F7F7F7" points="173.816,61.26 174.003,57.634 174.003,57.268 172,61.056 171.859,61.056 170.057,57.268 
			168.251,61.056 168.109,61.056 166.307,57.268 164.501,61.056 164.361,61.056 162.557,57.268 160.752,61.056 160.609,61.056 
			158.809,57.268 157.003,61.056 156.861,61.056 155.059,57.268 153.253,61.056 153.111,61.056 151.309,57.268 149.504,61.056 
			149.363,61.056 147.559,57.268 145.754,61.056 145.613,61.056 143.809,57.268 142.005,61.056 141.863,61.056 140.059,57.268 
			138.256,61.056 138.113,61.056 136.311,57.268 134.506,61.056 134.365,61.056 132.561,57.268 130.757,61.056 130.615,61.056 
			128.811,57.268 127.007,61.056 126.867,61.056 125.063,57.268 123.257,61.056 123.117,61.056 121.311,57.268 119.507,61.056 
			119.368,61.056 117.563,57.268 115.758,61.056 115.618,61.056 113.813,57.268 112.009,61.056 111.868,61.056 110.064,57.268 
			108.259,61.056 108.119,61.056 106.314,57.268 104.509,61.056 104.369,61.056 102.564,57.268 100.76,61.056 100.62,61.056 
			98.816,57.268 97.012,61.056 96.87,61.056 95.065,57.268 95.013,57.34 96.256,71.858 96.245,71.858 99.186,102.941 
			169.212,102.941 		"/>
		<path fill="#B2732F" d="M174.613,109.462c0,1.502-0.951,2.721-2.127,2.721H96.385c-1.175,0-2.127-1.219-2.127-2.721v-2.18
			c0-1.502,0.952-2.723,2.127-2.723h76.104c1.175,0,2.125,1.221,2.125,2.723V109.462L174.613,109.462z"/>
		<path fill="#D88E36" d="M172.486,104.303H96.385c-1.175,0-2.127,0.991-2.127,2.211v0.434c0,1.223,0.952,2.214,2.127,2.214h76.104
			c1.175,0,2.125-0.993,2.125-2.214v-0.434C174.613,105.294,173.662,104.303,172.486,104.303z"/>
		<ellipse fill="#404C61" cx="168.367" cy="108.536" rx="1.281" ry="1.437"/>
		<polygon fill="#BCBCBC" points="99.055,99.432 99.178,102.941 167.896,102.941 168.02,99.432 		"/>
		<polygon fill="#D6D6D6" points="99.049,99.432 169.124,99.432 169.266,95.487 98.907,95.487 		"/>
		<path fill="#C48131" d="M172.486,104.56h-35.723v7.623h35.723c1.176,0,2.127-1.219,2.127-2.721v-2.18
			C174.613,105.777,173.662,104.56,172.486,104.56z"/>
		<polygon fill="#F7F7F7" points="174.003,57.634 174.003,57.268 172,61.056 171.859,61.056 170.057,57.268 168.251,61.056 
			168.109,61.056 166.307,57.268 164.501,61.056 164.361,61.056 162.557,57.268 160.752,61.056 160.609,61.056 158.809,57.268 
			157.003,61.056 156.861,61.056 155.059,57.268 153.253,61.056 153.111,61.056 151.309,57.268 149.504,61.056 149.363,61.056 
			147.559,57.268 145.754,61.056 145.613,61.056 143.809,57.268 142.005,61.056 141.863,61.056 140.059,57.268 138.256,61.056 
			138.113,61.056 136.87,58.032 136.87,102.941 169.212,102.941 173.816,61.26 		"/>
		<g>
			<path fill="#EA9E39" d="M172.486,104.303h-35.723v4.858h35.723c1.176,0,2.127-0.993,2.127-2.214v-0.434
				C174.613,105.294,173.662,104.303,172.486,104.303z"/>
		</g>
		<path fill="#CE9E6F" d="M94.288,106.847c-0.018,0.144-0.03,0.287-0.03,0.436v2.18c0,0.214,0.022,0.424,0.059,0.624h63.977
			c0.715,0,8.155,0.005,16.283-0.136c0.024-0.157,0.036-0.322,0.036-0.488v-2.18c0-0.098-0.006-0.192-0.012-0.286
			c-8.154-0.139-15.623-0.149-16.309-0.149H94.288z"/>
		<path fill="#E5B27A" d="M174.602,106.996c-8.154-0.139-15.623-0.149-16.309-0.149h-21.527v3.239h21.527
			c0.715,0,8.154,0.005,16.283-0.136c0.023-0.157,0.037-0.322,0.037-0.488v-2.18C174.613,107.185,174.607,107.09,174.602,106.996z"
			/>
		<polygon fill="#E2E2E2" points="170.033,95.485 136.766,95.473 136.766,99.418 169.598,99.432 		"/>
		<polygon fill="#C9C9C9" points="169.723,99.432 136.766,99.432 136.766,102.941 169.211,102.941 		"/>
	</g>
	<path fill="#B2732F" d="M69.702,106.535c15.778,0,30.153-0.514,40.31,1.861c9.553,2.237,15.373,5.568,15.127,10.077l0.004-11.83
		c0.252-4.604-5.732-8.559-15.742-10.215c-11.975-1.981-24.23-1.723-39.693-1.723L69.702,106.535z"/>
	<path fill="#EA9E39" d="M115.279,102.441c-1.448,0.858-4.977,2.363-13.141,3.715c-8.63,1.428-19.751,2.217-31.316,2.217
		c-11.563,0-22.684-0.789-31.316-2.217c-8.168-1.352-10.996-2.25-12.442-3.108c-1.662-1.151-3.921-0.027-7.013-0.057l-0.02,9.205
		h0.006c-0.001,0.053-0.006,0.103-0.006,0.155c0,4.448,4.9,7.265,16.382,9.422c9.215,1.732,21.436,2.686,34.41,2.686
		c12.974,0,25.193-0.953,34.41-2.686c11.481-2.157,16.382-4.974,16.382-9.422c0-0.052-0.005-0.104-0.005-0.155h0.005v-9.092
		C121.615,103.104,115.868,101.321,115.279,102.441z"/>
	<g>
		<ellipse fill="#FFFFFF" cx="71.05" cy="101.236" rx="42.999" ry="6.789"/>
	</g>
	<path fill="#F1B974" d="M121.663,103.12c0,6.396-22.761,10.935-50.839,10.935c-28.079,0-50.84-4.539-50.84-10.935
		s22.762-8.673,50.84-8.673S121.663,96.725,121.663,103.12z"/>
	<path fill="#AFAFAF" d="M46.742,107.071c6.657,0.826,15.01,1.3,24.082,1.3c9.072,0,17.426-0.474,24.082-1.3
		c-6.656-0.624-15.01-0.922-24.082-0.922C61.752,106.149,53.399,106.447,46.742,107.071z"/>
	<path fill="#F7F7F7" d="M46.742,107.071c6.657-0.624,15.01-0.922,24.082-0.922c9.072,0,17.426,0.298,24.082,0.922
		c9.294-1.155,15.278-3.007,15.278-5.231c0-3.821-17.623-5.181-39.359-5.181c-21.738,0-39.361,1.359-39.361,5.181
		C31.463,104.066,37.448,105.916,46.742,107.071z"/>
	<path fill="#D88E36" d="M125.143,106.436c-0.526,9.6-27.433,19.679-63.016,18.917v11.991c35.583,0.762,62.488-9.317,63.016-18.918
		V106.436z"/>
	<path fill="none" stroke="#D3D3D3" stroke-miterlimit="10" d="M94.906,107.071c9.294-1.155,15.278-3.007,15.278-5.231
		c0-3.821-17.623-5.181-39.359-5.181c-21.738,0-39.361,1.359-39.361,5.181c0,2.225,5.985,4.076,15.279,5.231"/>
	<path fill="none" stroke="#D3D3D3" stroke-miterlimit="10" d="M46.742,107.071c6.657,0.826,15.01,1.3,24.082,1.3
		c9.072,0,17.426-0.474,24.082-1.3"/>
</g>
</svg>
