<svg enable-background="new 0 0 98 72" viewBox="0 0 98 72" xmlns="http://www.w3.org/2000/svg"><g fill="none" stroke="#586f69" stroke-linecap="round" stroke-miterlimit="10"><path d="m14.5 43.6c.8 0 1.6 0 2.3-.3.3-.1.7-.2 1-.3h.1l1.1-.4 4.4 8.5c-.3 0-2.2 0-2.6 0"/><path d="m16.6 43.4.2-.1 1-.3"/><path d="m52.1 47.5c-1.5.8-2.8 1.6-3.9 2.2"/><path d="m40.7 35 4.2-1.5.3.4v.1l2 3.9 1.3 2.5"/><path d="m48.1 49.7c-2.2 1.2-3.5 2-3.5 2s-.1-.1-.6-.2l-3.9-7.6-.1-.3-.2-.4-.3-.7-2-3.8-1.1-2.2 2.3-.8 2-.7"/><path d="m33 37.7 3.3-1.2 1.1 2.2 2 3.8.3.7.2.4.2.4 3.9 7.6c-.7-.2-2.3-.4-5.4-.5"/><path d="m38.7 51c-1.4-.1-3.1-.1-5.2-.1l-2.3-4.3-.4-.7-.1-.2-1.2-2.2-1.7-3.2-.3-.6.6-.2 3.9-1.5"/><path d="m33.5 50.9c-1.5 0-3.2 0-5.1 0-1.5 0-3.2.1-5 .1l-4.4-8.4 8.6-3z"/><path d="m70.8 34.8c1.8.4 3 .7 3 1.1-.6.3-7.8 4.1-8.5 4.4"/><path d="m59.8 33.3c1.8.2 3.7.4 5.4.6l2.5 5"/><path d="m49.2 32.3c1.6.1 6 .5 10.6 1"/><path d="m45.2 33.9-.2-.4.4-.1 3.2-1.1h.7"/><path d="m62.6 41.6c-1.4.8-9.4 5.2-10.6 5.9l-3-6.1-.5-1-1.3-2.4"/><path d="m14.4 19.4c-.1 0-.2 0-.3 0-1 0-1.9.1-2.8.3-.3.1-.6.1-.9.2-.1 0-.1 0-.2 0s-.1 0-.1 0c-12.1 3.8-13.5 25.9 4.3 30.4 1 .3 2 .4 3.1.6.3 0 .5.1.8.1"/><path d="m14.5 43.6c-1.4-.1-3-.5-4.6-1.5-.6-.3-1.1-.8-1.6-1.2-1.4-1.4-2.2-3.1-2.5-4.8-.5-3.1.9-6.2 3.6-6.7 1.3-.2 3 .1 4.9 1.4l7.5-2.9"/><path d="m9.4 29.5 11.3-3.6"/><path d="m13.3 19.2c1.9-.5 4.6-1.2 7.6-1.9"/><path d="m10.1 20h.1.2c.2 0 .5-.1.9-.2.5-.1 1.2-.3 2.1-.5"/><path d="m43.4 11.6c2.1-.5 3.6-.9 3.9-1 .2-.1.8-.2 1.6-.2 2.2-.2 5.9 0 8.3 2.4 3.3 3.4 4 7.1 3.4 10.2s-2.6 5.6-4.6 6.5l-.2.1"/><path d="m60 43.1-5.2-10.3"/><path d="m8.6 41.6 4 7.5"/><path d="m67.8 38.9-2.5-5c2.1.3 4 .6 5.5.9"/><path d="m21.8 28-7.5 2.9c-8.8-5.7-11.9 6.8-4.5 11.2 14.6 8.6 21.8-22.2 4.3-22.7-17.5-.4-20 32.6 8.3 31.6 19.4-.7 22.2.6 22.2.6s19.8-11.4 29.2-15.8c0-1.7-25.2-3.7-25.2-3.7l-32 11.2"/><path d="m9.4 29.5 11.4-3.6"/><path d="m48.6 32.2 7.4-2.8c4.1-1.8 8-10 1.3-16.7-3.3-3.3-9-2.4-9.9-2.2-2 .5-37.3 9.4-37.3 9.4"/></g></svg>