<svg enable-background="new 0 0 98 72" height="72" viewBox="0 0 98 72" width="98" xmlns="http://www.w3.org/2000/svg"><g fill="none" stroke="#ecaf56" stroke-linecap="round" stroke-miterlimit="10"><path d="m20.9 38.691-7.163 2.773c-8.373-5.47-11.43 6.526-4.294 10.735 13.951 8.23 20.891-21.273 4.078-21.683-16.743-.406-19.119 31.207 7.945 30.267 18.604-.643 21.231.607 21.231.607s18.981-10.879 27.928-15.096c0-1.609-24.128-3.525-24.128-3.525l-30.567 10.67"/><path d="m9.033 40.123 10.858-3.451" stroke-linejoin="round"/><path d="m46.497 42.77 7.073-2.646c3.898-1.727 7.611-9.609 1.246-15.992-3.123-3.136-8.639-2.312-9.495-2.096-1.872.47-35.648 9.013-35.648 9.013"/></g><g fill="#ecaf56"><path d="m28.055 11.607c.093 1.184 1.259 1.747 2.592 1.747.976 0 1.765-.132 2.535-.375l.376 1.934c-.939.376-2.085.564-3.325.564-3.117 0-4.902-1.803-4.902-4.677 0-2.328 1.447-4.902 4.639-4.902 2.968 0 4.095 2.31 4.095 4.584 0 .487-.056.92-.094 1.126h-5.916zm3.362-1.954c0-.694-.301-1.859-1.615-1.859-1.203 0-1.689 1.089-1.766 1.859z"/><path d="m42.667 15.062c-.51.226-1.466.414-2.555.414-2.967 0-4.866-1.803-4.866-4.695 0-2.687 1.841-4.884 5.259-4.884.75 0 1.577.132 2.179.358l-.451 2.122c-.339-.15-.846-.283-1.598-.283-1.5 0-2.477 1.071-2.458 2.574 0 1.69 1.125 2.573 2.516 2.573.675 0 1.202-.113 1.634-.282z"/><path d="m53.109 10.593c0 3.362-2.387 4.902-4.848 4.902-2.684 0-4.751-1.766-4.751-4.732 0-2.968 1.954-4.866 4.9-4.866 2.82 0 4.699 1.936 4.699 4.696zm-6.649.095c0 1.577.656 2.76 1.878 2.76 1.107 0 1.82-1.109 1.82-2.76 0-1.372-.525-2.762-1.82-2.762-1.371 0-1.878 1.408-1.878 2.762z"/></g><path d="m21.263 17.005-3.148-4.812-.192-.291h2.257l-2.608-3.703-.577-.818h1.276l-1.654-2.885-1.654-2.881-1.651 2.881-1.653 2.885h1.275l-.578.818-2.606 3.703h2.255l-.19.291-3.15 4.812h5.24v2.527h2.119v-2.527z" fill="none" stroke="#ecaf56" stroke-linecap="round" stroke-miterlimit="10"/></svg>