<svg enable-background="new 0 0 98 72" height="72" viewBox="0 0 98 72" width="98" xmlns="http://www.w3.org/2000/svg"><g fill="none" stroke="#e2a459" stroke-miterlimit="10"><path d="m30.017 54.628-.982-10.981s2.782.006 3.93.006v2.866h3.554c0-.508 0-2.324 0-2.863h3.556v2.871h3.551c0-.529 0-2.345 0-2.876h3.555v2.876h3.553c0-.525 0-2.338 0-2.874h3.556v2.868h3.55c0-.51 0-2.324 0-2.865h3.405l-1.064 10.971"/><path d="m50.271 54.626 3.489-.002"/><path d="m56.423 54.624c5.39-.002-1.71.002 3.678.004.902 0 1.489.477 1.491 1.215.004 1.544.004 3.092.004 4.635-.004.781-.574 1.252-1.52 1.252-4.979.004-9.957 0-14.94 0-4.947 0-9.896.004-14.845 0-1.075 0-1.619-.449-1.619-1.334 0-1.508-.002-3.017 0-4.528 0-.738.604-1.239 1.503-1.239h18.117"/></g><path d="m58.991 58.296c0 .474-.382.854-.851.854-.472 0-.854-.381-.854-.854 0-.47.382-.854.854-.854.468 0 .851.384.851.854z" fill="#e2a459"/><g fill="none" stroke="#e2a459" stroke-miterlimit="10"><path d="m26.822 57.281h-16.433l-4.436-30.415h49.429l-2.762 15.635"/><path d="m20.702 30.034c-3.048 0-5.97 0-8.702 0"/><path d="m52.678 42.082c4.447-3.227 7.141-7.439 7.141-12.048-10.531 0-22.701 0-33.777 0"/><path d="m4.089 30.034c-.899 0-1.758 0-2.57 0 0 9.504 11.445 17.324 26.127 18.276"/><path d="m54.431 23.696h-47.527l1.269-4.436h44.99z"/><path d="m75.702 46.928h-9.778v-39.785h20.94v18.041"/><path d="m96.295 61.731h-20.593v-30.049-6.96h20.593z"/><path d="m81.318 30.18v25.541"/><path d="m85.755 29.179v11.517"/><path d="m86.31 45.705v6.51"/><path d="m91.302 30.18v25.541"/><path d="m66.063 14.405 7.94-7.168"/><path d="m65.924 25.047 19.692-17.779"/><path d="m78.336 24.734 8.528-7.574"/><path d="m65.924 36.065 9.811-8.858"/><path d="m67.069 47.052 8.597-7.764"/></g></svg>