<svg enable-background="new 0 0 98 72" height="72" viewBox="0 0 98 72" width="98" xmlns="http://www.w3.org/2000/svg"><g fill="none" stroke="#586f69" stroke-miterlimit="10"><path d="m34.299 3h13.021v45.85h-45.85v-12.87"/><path d="m33.313 3h14.007v45.85h-45.85v-12.854z"/><path d="m33.197 35.996h-31.727l2.774-2.898 26.492-27.532 2.461-2.566z" stroke-linecap="round" stroke-linejoin="round"/><path d="m39.361 48.85v-45.85"/><path d="m10.065 48.85-.092-12.854"/><path d="m19.843 48.85-.085-12.854"/><path d="m29.627 48.85-.093-12.854"/></g><g fill="#586f69"><path d="m73.666 21.589h2.039l2.649 1.887v1.454z"/><path d="m55.771 21.589h2.042l20.541 14.638v1.455z"/><path d="m39.026 67.242-6.326-4.506v-1.453l8.366 5.959z"/><path d="m49.727 31.666v-1.455l28.627 20.398v1.454z"/><path d="m49.727 45.977v-1.456l28.627 20.409v1.453z"/><path d="m60.104 67.242-22.592-16.096h2.039l22.594 16.096z"/></g></svg>