<svg enable-background="new 0 0 98 72" viewBox="0 0 98 72" xmlns="http://www.w3.org/2000/svg"><g fill="none" stroke="#586f69" stroke-linecap="round" stroke-miterlimit="10"><path d="m21.5 40.5-7.5 2.9c-8.8-5.7-11.9 6.8-4.5 11.2 14.6 8.6 21.8-22.2 4.3-22.7-17.5-.4-20 32.6 8.3 31.6 19.4-.7 22.2.6 22.2.6s19.8-11.4 29.2-15.8c0-1.7-25.2-3.7-25.2-3.7l-32 11.2"/><path d="m9.1 42 11.3-3.6"/><path d="m48.2 44.7 7.4-2.8c4.1-1.8 8-10 1.3-16.7-3.3-3.3-9-2.4-9.9-2.2-2 .5-37.3 9.4-37.3 9.4"/><ellipse cx="8.5" cy="11.4" rx="7.9" ry="7.4" stroke-linejoin="round"/><path d="m.9 13c1.1-1.1 2.7-1.8 4.3-1.5 3.3.6 3.9 6.9 5.9 6.9" stroke-linejoin="round"/><path d="m11.3 4.4-.5-.1c-1.8-.3-4.2 2.4-5.5 6.1-1.2 3.7-.9 7.1.7 8l.4.1" stroke-linejoin="round"/><path d="m5 4.8c.5 1.1 1.1 1.8 2.3 2.3 2.1.8 5-.7 7.1-.6" stroke-linejoin="round"/><path d="m1.2 8.7c.6-1 4.1-.2 7.9 1.8 2.7 1.4 5.3 3.1 6.5 4.2" stroke-linejoin="round"/></g><path d="m20.1 13.8c.5.3 1.6.7 2.4.7.9 0 1.2-.3 1.2-.8s-.3-.7-1.3-1c-1.9-.6-2.6-1.6-2.6-2.7 0-1.7 1.4-3 3.7-3 1.1 0 2 .2 2.6.5l-.5 1.9c-.4-.2-1.2-.5-2-.5-.7 0-1.1.3-1.1.7s.4.6 1.5 1c1.7.6 2.4 1.5 2.5 2.8 0 1.7-1.3 2.9-3.9 2.9-1.2 0-2.2-.3-2.9-.6z" fill="#586f69"/><path d="m28.1 10.2c0-1.2 0-2.2-.1-3h2.4l.1 1.3c.7-1 1.7-1.5 3-1.5 2 0 3.8 1.7 3.8 4.6 0 3.3-2.1 4.8-4.1 4.8-1.1 0-1.9-.4-2.3-1v4.5h-2.8zm2.8 2.1c0 .2 0 .4.1.6.2.8.8 1.3 1.6 1.3 1.2 0 1.9-1 1.9-2.6 0-1.4-.6-2.5-1.9-2.5-.8 0-1.5.6-1.7 1.4 0 .1-.1.3-.1.5v1.3z" fill="#586f69"/><path d="m48.2 11.6c0 3.3-2.3 4.8-4.8 4.8-2.6 0-4.7-1.7-4.7-4.7s1.9-4.7 4.8-4.7c2.8 0 4.7 1.9 4.7 4.6zm-6.6.1c0 1.6.6 2.7 1.8 2.7 1.1 0 1.8-1.1 1.8-2.7 0-1.4-.5-2.7-1.8-2.7s-1.8 1.4-1.8 2.7z" fill="#586f69"/><path d="m49.9 10.2c0-1.3 0-2.2-.1-3h2.4l.1 1.7h.1c.5-1.4 1.6-1.9 2.5-1.9h.6v2.6c-.2 0-.4-.1-.8-.1-1 0-1.7.6-1.9 1.4 0 .2-.1.4-.1.6v4.6h-2.8z" fill="#586f69"/><path d="m60.5 4.6v2.6h2v2.1h-2v3.3c0 1.1.3 1.6 1.1 1.6.4 0 .6 0 .8-.1v2.1c-.4.1-1 .2-1.8.2-.9 0-1.7-.3-2.1-.8-.5-.5-.8-1.4-.8-2.7v-3.7h-1.2v-2h1.2v-2z" fill="#586f69"/></svg>