<svg enable-background="new 0 0 98 72" height="72" viewBox="0 0 98 72" width="98" xmlns="http://www.w3.org/2000/svg"><g fill="none" stroke="#e2a459" stroke-miterlimit="10"><path d="m1 4h5.528v64.979h-5.528z"/><path d="m77.578 4h5.531v64.979h-5.531z"/><path d="m6.528 4h71.05"/><path d="m6.528 13.283h17.215"/><path d="m34.641 13.283h42.937"/><path d="m21.971 22.564h-15.443"/><path d="m37.462 22.564h40.116"/><path d="m6.528 31.848h17.215"/><path d="m36.731 31.848h15.904"/><path d="m62.543 31.848h15.035"/><path d="m6.528 41.131h23.094"/><path d="m36.936 41.131h12.796"/><path d="m64.32 41.131h13.258"/><path d="m6.528 50.414h23.713"/><path d="m36.537 50.414h12.828"/><path d="m61.253 50.414h16.325"/><path d="m6.528 59.695h71.05"/><path d="m6.528 68.979h71.05"/><path d="m25.811 36.489s-6.126-9.36-3.84-19.494c2.217-9.819 14.294-8.774 14.965 3.037.709 12.469-1.083 15.26-1.083 15.26z"/><path d="m58.999 54.734s6.59-9.08 5.147-18.71c-1.402-9.33-12.252-9.438-13.99 1.958-1.615 10.584-.479 15.154-.479 15.154z"/><path d="m35.108 51.115c5.031-1.051 1.526-10.941 1.526-10.941l-8.528 1.254s-1.673 11.496 7.002 9.687z"/></g></svg>