<svg enable-background="new 0 0 98 72" viewBox="0 0 98 72" xmlns="http://www.w3.org/2000/svg"><g fill="none" stroke="#586f69" stroke-miterlimit="10"><path d="m49.9 39.7v15.2l-14 14.1-13.9-14.2v-15.2l13.9 14.2z" stroke-linecap="round" stroke-linejoin="round"/><path d="m36.3 68.6 13.6-13.8v14.2h-27.9v-14.2l13.5 13.8c.3.2.6.2.8 0z"/><path d="m49.9 24.4v.1l-14 14.1-13.9-14.2z" stroke-linecap="round" stroke-linejoin="round"/><path d="m49.9 24.5v15.2l-14 14.1-13.9-14.2v-15.2l13.9 14.2z" stroke-linecap="round" stroke-linejoin="round"/><path d="m29.3 53.9v-.1"/><path d="m2.1 20.2 7.5-6.9"/><path d="m2.1 10 9.8-9.1"/><path d="m1.9 30.5 28.8-26.4"/><path d="m13.8 10.2 10.2-9.3"/><path d="m24.8 20.2 5.9-5.4"/><path d="m1.9 41.2 17-15.5"/><path d="m3 51.9 15.9-14.6"/><g stroke-linecap="round" stroke-linejoin="round"><path d="m22 51.8h-20.1v-50.8h28.8v23"/><path d="m36.3 68.6v-44.2"/></g></g></svg>