<svg enable-background="new 0 0 98 72" height="72" viewBox="0 0 98 72" width="98" xmlns="http://www.w3.org/2000/svg"><g fill="none" stroke="#ecaf56" stroke-linecap="round" stroke-miterlimit="10"><path d="m21.802 27.976-7.486 2.9c-8.751-5.719-11.949 6.817-4.489 11.22 14.583 8.604 21.837-22.237 4.264-22.665-17.503-.425-19.986 32.622 8.303 31.639 19.447-.672 22.192.634 22.192.634s19.839-11.371 29.191-15.782c0-1.678-25.22-3.683-25.22-3.683l-31.95 11.152"/><path d="m9.398 29.471 11.35-3.608"/><path d="m48.557 32.238 7.391-2.767c4.079-1.804 7.959-10.045 1.307-16.715-3.266-3.278-9.03-2.417-9.927-2.192-1.956.492-37.261 9.421-37.261 9.421"/></g></svg>