<svg width="59" height="50" viewBox="0 0 59 50" fill="none" xmlns="http://www.w3.org/2000/svg">
<g>
<path d="M2 9H11.5652L23.5217 37H49.2283L57 18.1163" stroke="white" stroke-width="3" stroke-linecap="round" stroke-linejoin="round"/>
<path d="M35.2706 8.76023V13C35.2706 13.5523 35.7183 14 36.2706 14H37.7294C38.2817 14 38.7294 13.5523 38.7294 13V8.76023H43C43.5523 8.76023 44 8.31252 44 7.76023V6.23977C44 5.68748 43.5523 5.23977 43 5.23977H38.7294V1C38.7294 0.447715 38.2817 0 37.7294 0H36.2706C35.7183 0 35.2706 0.447716 35.2706 1V5.23977H31C30.4477 5.23977 30 5.68748 30 6.23977V7.76023C30 8.31252 30.4477 8.76023 31 8.76023H35.2706Z" fill="white"/>
<path d="M17 22H55" stroke="white" stroke-width="3"/>
<path d="M20 29H53" stroke="white" stroke-width="3"/>
<path d="M42.2349 43.2235C43.0492 42.4078 43.9888 42 45.0537 42C46.1186 42 47.0268 42.4078 47.7785 43.2235C48.5928 44.0392 49 44.9804 49 46.0471C49 47.1137 48.5928 48.0549 47.7785 48.8706C47.0268 49.6235 46.1186 50 45.0537 50C43.9888 50 43.0492 49.6235 42.2349 48.8706C41.4206 48.0549 41.0134 47.1137 41.0134 46.0471C41.0134 44.9804 41.4206 44.0392 42.2349 43.2235ZM24.1275 43.2235C24.9418 42.4078 25.8814 42 26.9463 42C28.0112 42 28.9508 42.4078 29.7651 43.2235C30.5794 44.0392 30.9866 44.9804 30.9866 46.0471C30.9866 47.1137 30.5794 48.0549 29.7651 48.8706C28.9508 49.6235 28.0112 50 26.9463 50C25.8814 50 24.9418 49.6235 24.1275 48.8706C23.3758 48.0549 23 47.1137 23 46.0471C23 44.9804 23.3758 44.0392 24.1275 43.2235Z" fill="white"/>
</g>
</svg>
