<?xml version="1.0" encoding="utf-8"?>
<!-- Generator: Adobe Illustrator 24.0.1, SVG Export Plug-In . SVG Version: 6.00 Build 0)  -->
<svg version="1.1" id="Layer_1" xmlns="http://www.w3.org/2000/svg" xmlns:xlink="http://www.w3.org/1999/xlink" x="0px" y="0px"
	 viewBox="0 0 54 56" style="enable-background:new 0 0 54 56;" xml:space="preserve">
<style type="text/css">
	.st0{fill:#EDB056;}
	.st1{fill:none;stroke:#FFFFFF;stroke-width:1.7;}
	.st2{fill:#FFFFFF;}
</style>
<path class="st0" d="M0,18c0,20.99,17.01,38,38,38c5.72,0,11.14-1.27,16-3.53V0H4.53C1.64,5.36,0,11.49,0,18z"/>
<g>
	<path class="st1" d="M25.04,15.78h6.69"/>
	<path class="st1" d="M25.04,21.69H38.3"/>
	<path class="st1" d="M25.04,27.6H38.3"/>
	<path class="st1" d="M36.55,8.31H19.87v30.6h23.6V15.65L36.55,8.31z"/>
	<path class="st2" d="M35.48,9.12v6.64c0,0.19,0.16,0.34,0.35,0.34h6.73c0.31,0,0.47-0.37,0.25-0.59l-6.73-6.64
		C35.87,8.66,35.48,8.81,35.48,9.12z"/>
</g>
</svg>
