<svg enable-background="new 0 0 52 48" height="48" viewBox="0 0 52 48" width="52" xmlns="http://www.w3.org/2000/svg"><path d="m17.505 44.432c0 .242-.193.433-.43.433h-10.022c-.238 0-.43-.19-.43-.433v-38.515c0-.236.192-.43.43-.43h10.022c.237 0 .43.194.43.43z" style="fill:none;stroke:#edb056;stroke-width:1.5;stroke-linecap:round;stroke-linejoin:round;stroke-miterlimit:10"/><path d="m17.504 19.664 7.219-13.621c.111-.21.372-.291.58-.181l8.856 4.696c.21.112.29.371.178.579l-16.846 31.785" style="fill:none;stroke:#edb056;stroke-width:1.5;stroke-linecap:round;stroke-linejoin:round;stroke-miterlimit:10"/><path d="m26.667 25.604 12.848-7.842c.204-.124.467-.059.592.142l5.224 8.555c.122.203.061.465-.144.59l-27.682 16.954" style="fill:none;stroke:#edb056;stroke-width:1.5;stroke-linecap:round;stroke-linejoin:round;stroke-miterlimit:10"/><path d="m34.365 33.905 11.498-.058c.239-.003.433.189.434.428l.047 10.021c.001.237-.191.433-.429.433l-28.912.135" style="fill:none;stroke:#edb056;stroke-width:1.5;stroke-linecap:round;stroke-linejoin:round;stroke-miterlimit:10"/><circle cx="11.813" cy="40.389" fill="#edb056" r="1.11"/><g style="fill:none;stroke:#edb056;stroke-width:1.5;stroke-linecap:round;stroke-linejoin:round;stroke-miterlimit:10"><path d="m24.143 7.614 2.348 18.302"/><path d="m19.163 16.874 1.834 19.309"/><path d="m27.17 38.42v5.944"/><path d="m32.753 34.982v9.666"/><path d="m39.482 33.981v10.415"/></g></svg>