<svg enable-background="new 0 0 52 48" height="48" viewBox="0 0 52 48" width="52" xmlns="http://www.w3.org/2000/svg"><g style="clip-rule:evenodd;fill:none;stroke:#edb056;stroke-width:1.5;stroke-linecap:round;stroke-linejoin:round;stroke-miterlimit:10"><path d="m2.417 13.251h28.836c.057.009.111.021.168.027.496.06.955.188 1.334.452.621.432.863.996.865 1.62.006 5.358.002 10.717.002 16.076v.149c-5.258 0-10.5 0-15.737 0-.63-2.806-3.22-4.533-6.095-4.533-2.746-.099-5.083 2-6.037 4.537-.772 0-3.337-.008-3.337-.008s0-2.911 0-2.972c0-5.054-.001-10.109 0-15.162.001-.062.001-.124.001-.186z"/><path d="m50.582 32.063c-.152.524-.541.677-1.039.67-.52-.007-1.621-.029-2.141-.02-.168.004-.074-.077-.127-.255-.771-2.571-1.951-4.552-4.58-5.088-2.223-.454-4.408.086-6.061 1.648-.043.042-.15.129-.172.132 0-4.873 0-9.23 0-14.125h.363c2.68 0 5.359.003 8.039-.003.805-.001 1.461.337 1.918.958 1.195 1.625 2.258 3.335 3.059 5.194.336.782.613 1.585.711 2.438.006.041.02.081.029.121.001 2.777.001 5.553.001 8.33zm-14.093-11.647 12.917-.042"/><path d="m15.772 33.328c.006 2.2-1.827 3.974-4.021 3.928-2.135-.045-3.876-1.81-3.857-3.978.019-2.138 1.792-3.904 3.944-3.894 2.187.011 3.934 1.761 3.934 3.944z"/><path d="m41.094 37.253c-2.197 0-3.934-1.759-3.932-3.985 0-2.125 1.779-3.879 3.939-3.883 2.186-.004 3.941 1.764 3.939 3.969-.001 2.151-1.77 3.899-3.946 3.899z"/></g></svg>