<svg enable-background="new 0 0 280 106" height="106" viewBox="0 0 280 106" width="280" xmlns="http://www.w3.org/2000/svg"><g fill="none"><path d="m16.468 72.134h48.833" stroke="#5a5456" stroke-miterlimit="10"/><path d="m9.932 78.33h38.187" stroke="#5a5456" stroke-miterlimit="10"/><path d="m27.417 84.288h29.333" stroke="#5a5456" stroke-miterlimit="10"/><path d="m215.027 72.134h49.582" stroke="#5a5456" stroke-miterlimit="10"/><path d="m232.451 78.163h38.688" stroke="#5a5456" stroke-miterlimit="10"/><path d="m224.267 84.288h28.333" stroke="#5a5456" stroke-miterlimit="10"/><path d="m170.848 63.137v7.274" stroke="#e2a459" stroke-linejoin="round" stroke-miterlimit="10" stroke-width="1.1"/><path d="m170.848 46.55v13.638" stroke="#e2a459" stroke-linejoin="round" stroke-miterlimit="10" stroke-width="1.1"/><path d="m170.848 74.729v5.59h-70.261v-70.619h17.431 6.926 38.273 7.631v34.584" stroke="#e2a459" stroke-linejoin="round" stroke-miterlimit="10" stroke-width="1.1"/><path d="m97.002 21.171h7.528" stroke="#e2a459" stroke-linejoin="round" stroke-miterlimit="10" stroke-width="1.1"/><path d="m97.002 31.925h7.528" stroke="#e2a459" stroke-linejoin="round" stroke-miterlimit="10" stroke-width="1.1"/><path d="m157.047 76.557v7.527" stroke="#e2a459" stroke-linejoin="round" stroke-miterlimit="10" stroke-width="1.1"/><path d="m146.293 76.557v7.527" stroke="#e2a459" stroke-linejoin="round" stroke-miterlimit="10" stroke-width="1.1"/><path d="m127.897 56.303h7.006" stroke="#e2a459" stroke-linejoin="round" stroke-miterlimit="10" stroke-width="1.1"/><path d="m101.304 56.303h18.153" stroke="#e2a459" stroke-linejoin="round" stroke-miterlimit="10" stroke-width="1.1"/><path d="m134.265 56.111v23.66" stroke="#e2a459" stroke-linejoin="round" stroke-miterlimit="10" stroke-width="1.1"/><path d="m138.585 10.058v24.377" stroke="#e2a459" stroke-linejoin="round" stroke-miterlimit="10" stroke-width="1.1"/><path d="m147.983 34.793h-20.51" stroke="#e2a459" stroke-linejoin="round" stroke-miterlimit="10" stroke-width="1.1"/><path d="m170.132 34.793h-13.454" stroke="#e2a459" stroke-linejoin="round" stroke-miterlimit="10" stroke-width="1.1"/><path d="m156.37 27.128v8.356" stroke="#e2a459" stroke-linejoin="round" stroke-miterlimit="10" stroke-width="1.1"/><path d="m148.016 35.561c-.021-.234-.032-.47-.032-.71 0-4.499 3.647-8.145 8.146-8.145.325 0 .646.018.961.054" stroke="#e2a459" stroke-dasharray="14.4576" stroke-linejoin="round" stroke-width="1.1"/><path d="m119.332 48.651v8.355" stroke="#e2a459" stroke-linejoin="round" stroke-miterlimit="10" stroke-width="1.1"/><path d="m127.688 57.083c.021-.233.031-.471.031-.71 0-4.499-3.646-8.146-8.145-8.146-.325 0-.646.019-.961.055" stroke="#e2a459" stroke-dasharray="14.457" stroke-linejoin="round" stroke-width="1.1"/><path d="m79.537 9.656h17.048" stroke="#e2a459" stroke-linejoin="round" stroke-miterlimit="10" stroke-width="1.1"/><path d="m79.537 80.382h17.048" stroke="#e2a459" stroke-linejoin="round" stroke-miterlimit="10" stroke-width="1.1"/><path d="m85.446 9.656v1.434" stroke="#e2a459" stroke-linejoin="round" stroke-width="1.1"/><path d="m85.446 14.055v63.748" stroke="#e2a459" stroke-dasharray="2.965 2.965" stroke-linejoin="round" stroke-width="1.1"/><path d="m85.446 79.285v1.434" stroke="#e2a459" stroke-linejoin="round" stroke-width="1.1"/></g><path d="m76.473 41.263.539 1.215c.149.356.264.631.367.884h.034c.218-.31.333-.494.608-.837l1.02-1.262h1.101l-2.338 2.705 1.307 2.844h-1.032l-.562-1.249c-.184-.413-.264-.632-.402-.987h-.022c-.172.265-.333.517-.574.849l-1.123 1.387h-1.101l2.431-2.854-1.284-2.694h1.031z" fill="#e2a459"/><path d="m136.726 99.451.54 1.215c.149.356.264.631.366.884h.035c.217-.31.333-.494.607-.838l1.021-1.261h1.1l-2.338 2.705 1.307 2.844h-1.032l-.561-1.248c-.184-.414-.265-.632-.403-.988h-.022c-.173.265-.333.518-.573.849l-1.125 1.387h-1.101l2.431-2.855-1.284-2.693h1.032z" fill="#e2a459"/><path d="m100.322 100.609v-17.049" fill="none" stroke="#e2a459" stroke-linejoin="round" stroke-miterlimit="10" stroke-width="1.1"/><path d="m171.048 100.609v-17.049" fill="none" stroke="#e2a459" stroke-linejoin="round" stroke-miterlimit="10" stroke-width="1.1"/><path d="m100.322 94.699h1.434" fill="none" stroke="#e2a459" stroke-linejoin="round" stroke-width="1.1"/><path d="m104.721 94.699h63.748" fill="none" stroke="#e2a459" stroke-dasharray="2.965 2.965" stroke-linejoin="round" stroke-width="1.1"/><path d="m169.951 94.699h1.434" fill="none" stroke="#e2a459" stroke-linejoin="round" stroke-width="1.1"/><path d="m191.198 76.557h-11.566v-61.301h11.566v5.807z" fill="none" stroke="#e2a459" stroke-linejoin="round" stroke-miterlimit="10" stroke-width="1.1"/><path d="m180.209 18.533h6.169" fill="none" stroke="#e2a459" stroke-linejoin="round" stroke-miterlimit="10" stroke-width="1.1"/><path d="m180.209 22.691h6.169" fill="none" stroke="#e2a459" stroke-linejoin="round" stroke-miterlimit="10" stroke-width="1.1"/><path d="m180.209 26.849h6.169" fill="none" stroke="#e2a459" stroke-linejoin="round" stroke-miterlimit="10" stroke-width="1.1"/><path d="m180.209 31.01h6.169" fill="none" stroke="#e2a459" stroke-linejoin="round" stroke-miterlimit="10" stroke-width="1.1"/><path d="m180.209 35.166h8.29" fill="none" stroke="#e2a459" stroke-linejoin="round" stroke-miterlimit="10" stroke-width="1.1"/><path d="m180.209 39.324h6.169" fill="none" stroke="#e2a459" stroke-linejoin="round" stroke-miterlimit="10" stroke-width="1.1"/><path d="m180.209 43.483h6.169" fill="none" stroke="#e2a459" stroke-linejoin="round" stroke-miterlimit="10" stroke-width="1.1"/><path d="m180.209 47.642h6.169" fill="none" stroke="#e2a459" stroke-linejoin="round" stroke-miterlimit="10" stroke-width="1.1"/><path d="m180.209 51.801h6.169" fill="none" stroke="#e2a459" stroke-linejoin="round" stroke-miterlimit="10" stroke-width="1.1"/><path d="m180.209 55.958h8.29" fill="none" stroke="#e2a459" stroke-linejoin="round" stroke-miterlimit="10" stroke-width="1.1"/><path d="m180.209 60.117h6.169" fill="none" stroke="#e2a459" stroke-linejoin="round" stroke-miterlimit="10" stroke-width="1.1"/><path d="m180.209 64.275h6.169" fill="none" stroke="#e2a459" stroke-linejoin="round" stroke-miterlimit="10" stroke-width="1.1"/><path d="m180.209 68.433h6.169" fill="none" stroke="#e2a459" stroke-linejoin="round" stroke-miterlimit="10" stroke-width="1.1"/><path d="m180.209 72.592h6.169" fill="none" stroke="#e2a459" stroke-linejoin="round" stroke-miterlimit="10" stroke-width="1.1"/><path d="m208.019 67.91v2.552h-8.604v-30.829h8.604v21.466" fill="none" stroke="#e2a459" stroke-linecap="square" stroke-miterlimit="10" stroke-width="1.1"/><path d="m208.019 63.006v2.033" fill="none" stroke="#e2a459" stroke-linecap="square" stroke-miterlimit="10" stroke-width="1.1"/><path d="m208.019 72.987v3.652h-8.604v-3.652" fill="none" stroke="#e2a459" stroke-linecap="square" stroke-miterlimit="10" stroke-width="1.1"/><path d="m199.882 37.478 3.899-7.16 3.857 7.158z" fill="none" stroke="#e2a459" stroke-linecap="square" stroke-miterlimit="10" stroke-width="1.1"/><path d="m202.767 32.616h2.08l-1.068-1.686z" fill="#e2a459"/></svg>