<svg enable-background="new 0 0 280 106" height="106" viewBox="0 0 280 106" width="280" xmlns="http://www.w3.org/2000/svg"><path d="m8.468 77.134h48.833" fill="none" stroke="#5a5456" stroke-miterlimit="10"/><path d="m1.932 82.33h38.187" fill="none" stroke="#5a5456" stroke-miterlimit="10"/><path d="m19.417 89.288h29.333" fill="none" stroke="#5a5456" stroke-miterlimit="10"/><path d="m220.027 77.134h49.582" fill="none" stroke="#5a5456" stroke-miterlimit="10"/><path d="m237.451 83.163h38.688" fill="none" stroke="#5a5456" stroke-miterlimit="10"/><path d="m229.267 89.288h28.333" fill="none" stroke="#5a5456" stroke-miterlimit="10"/><path d="m147.823 45.286c-.356.265-.707.536-1.056.815-1.424 1.146-2.754 2.407-3.972 3.772-2.678 2.996-4.818 6.48-6.271 10.3m54.738-11.269c-6.022-6.224-14.46-10.102-23.784-10.102-5.987 0-11.611 1.6-16.46 4.394m44.049 46.969c3.48-5.237 5.509-11.518 5.509-18.263 0-6.427-1.841-12.435-5.023-17.518-.819-1.312-1.731-2.561-2.721-3.741m-17.859 53.499c5.515-1.28 10.506-3.942 14.586-7.604m-54.467-31.488c-.467 2.213-.713 4.503-.713 6.853 0 18.249 14.849 33.098 33.099 33.098 1.871 0 3.708-.156 5.495-.458.095-.016.188-.03.282-.049" fill="none" stroke="#e2a459" stroke-miterlimit="10" stroke-width="1.1"/><circle cx="167.478" cy="71.902" fill="none" r="2.694" stroke="#e2a459" stroke-miterlimit="10" stroke-width="1.1"/><path d="m165.126 70.303-12.341-12.332" fill="none" stroke="#e2a459" stroke-linecap="round" stroke-miterlimit="10" stroke-width="1.1"/><path d="m177.04 62.091-7.558 7.563" fill="none" stroke="#e2a459" stroke-linecap="round" stroke-miterlimit="10" stroke-width="1.1"/><circle cx="143.184" cy="72.445" fill="#e2a459" r="1.253"/><circle cx="167.479" cy="47.056" fill="#e2a459" r="1.253"/><circle cx="167.479" cy="96.676" fill="#e2a459" r="1.253"/><circle cx="192" cy="72.445" fill="#e2a459" r="1.253"/><g fill="none" stroke-miterlimit="10"><path d="m167.478 100.724c-15.892 0-28.82-12.929-28.82-28.819 0-15.893 12.929-28.824 28.82-28.824 15.895 0 28.82 12.931 28.82 28.824 0 15.89-12.926 28.819-28.82 28.819z" stroke="#e2a459" stroke-width="1.1"/><path d="m157.465 40.339c.021-.926.034-3.209.034-3.558 0-2.908 2.357-5.262 5.263-5.262h9.424c2.907 0 5.263 2.354 5.263 5.262 0 .336.015 2.84.041 3.458" stroke="#e2a459" stroke-width="1.1"/><path d="m165.172 30.917c0-.971.809-1.754 1.804-1.754h1.003c.996 0 1.805.784 1.805 1.754" stroke="#e2a459" stroke-width="1.1"/><path d="m110.61 38.987v-3.381" stroke="#e2a459" stroke-width="1.1"/><path d="m110.61 33.159v-11.752h16.556v21.277h-16.556v-1.358" stroke="#e2a459" stroke-width="1.1"/><path d="m113.897 24.849h9.592" stroke="#e2a459" stroke-width="1.1"/><path d="m113.897 28.168h9.592" stroke="#e2a459" stroke-width="1.1"/><path d="m113.897 31.488h9.592" stroke="#e2a459" stroke-width="1.1"/><path d="m120.334 36.55c.505.312 1.813 1.662 1.813 1.662s1.008-2.704 1.611-3.118" stroke="#e2a459" stroke-width="1.1"/><path clip-rule="evenodd" d="m95.083 92.451c-.812 0-1.53 0-2.112 0-.474-2.111-2.461-3.283-4.498-3.357-2.067-.072-4.104 1.637-4.639 3.361-.584 0-2.513-.009-2.513-.009s0-2.193 0-2.235c0-3.808-.002-7.613 0-11.421 0-.045-.002-.095 0-.141h20.953c.041.009.082.019.122.022.376.043.721.139 1.005.339.47.325.652.751.656 1.221.004 4.035.001 8.071.001 12.106v.113c-1.597 0-4.953 0-7.729 0" stroke="#e2a459" stroke-width="1.0365"/><path clip-rule="evenodd" d="m116.831 92.819c-.115.397-.406.508-.783.502-.393-.002-1.221-.021-1.611-.014-.128.004-.057-.057-.098-.191-.582-1.933-1.47-3.429-3.448-3.834-1.676-.34-3.319.065-4.565 1.244-.034.031-.113.097-.131.102 0-3.675.093-6.954.093-10.645h.182c2.018 0 4.037.002 6.056 0 .604 0 1.099.257 1.443.72.902 1.227 1.702 2.514 2.301 3.912.257.595.465 1.193.54 1.838.002.031.011.062.022.09-.001 2.095-.001 4.184-.001 6.276zm-10.157-8.038h9.297" stroke="#e2a459" stroke-width="1.0365"/><path clip-rule="evenodd" d="m91.376 93.771c.009 1.66-1.373 2.993-3.028 2.96-1.607-.035-2.919-1.365-2.902-2.998.013-1.609 1.348-2.939 2.971-2.93 1.646.006 2.959 1.324 2.959 2.968z" stroke="#e2a459" stroke-width="1.0365"/><path clip-rule="evenodd" d="m109.683 96.729c-1.654 0-2.963-1.323-2.963-3 0-1.604 1.343-2.924 2.97-2.926 1.646-.004 2.969 1.326 2.968 2.989-.003 1.62-1.335 2.937-2.975 2.937z" stroke="#e2a459" stroke-width="1.0365"/><path clip-rule="evenodd" d="m111.082 80.183.094 4.693" stroke="#e2a459" stroke-width="1.0365"/><path d="m87.481 60.451c.094-3.524-2.389-5.498-5.196-5.498-2.805 0-5.286 1.818-5.157 5.434.095 2.737 5.157 9.627 5.157 9.627s5.118-6.756 5.196-9.563zm-5.196 2.188c-1.405 0-2.542-1.138-2.542-2.541 0-1.399 1.137-2.539 2.542-2.539 1.403 0 2.539 1.14 2.539 2.539 0 1.403-1.136 2.541-2.539 2.541z" stroke="#e2a459" stroke-width="1.1"/><path d="m115.619 56.776c.122-4.592-3.112-7.164-6.768-7.164-3.659 0-6.889 2.369-6.72 7.081.126 3.561 6.72 12.545 6.72 12.545s6.667-8.808 6.768-12.462zm-6.768 2.85c-1.832 0-3.312-1.48-3.312-3.31s1.48-3.309 3.312-3.309c1.825 0 3.307 1.479 3.307 3.309s-1.482 3.31-3.307 3.31z" stroke="#e2a459" stroke-width="1.1"/><path d="m97.702 48.682c.051-1.869-1.267-2.914-2.751-2.914-1.489 0-2.802.962-2.732 2.881.05 1.449 2.732 5.099 2.732 5.099s2.711-3.579 2.751-5.066z" stroke="#e2a459" stroke-width="1.1"/></g><circle cx="94.951" cy="48.494" fill="#e2a459" r=".839"/><path d="m70.729 66.887s2.334-1.768 5.758-3.775" fill="none" stroke="#e2a459" stroke-linecap="round" stroke-miterlimit="10" stroke-width="1.0365"/><path d="m88.901 57.877c1.992-.428 3.949-.582 5.753-.318 4.457.649 8.704 3.946 13.048 6.145" style="fill:none;stroke:#e2a459;stroke-width:1.0365;stroke-linecap:round;stroke-miterlimit:10;stroke-dasharray:13.5224 13.5224"/><path d="m114.117 65.7c4.034.273 6.692-1.249 6.692-1.249" fill="none" stroke="#e2a459" stroke-linecap="round" stroke-miterlimit="10" stroke-width="1.0365"/></svg>