<svg enable-background="new 0 0 280 106" height="106" viewBox="0 0 280 106" width="280" xmlns="http://www.w3.org/2000/svg"><g fill="none" stroke-miterlimit="10"><path d="m36.468 76.134h48.833" stroke="#5a5456"/><path d="m29.932 82.33h38.187" stroke="#5a5456"/><path d="m47.417 88.288h29.333" stroke="#5a5456"/><path d="m206.027 76.134h49.582" stroke="#5a5456"/><path d="m223.451 82.163h38.688" stroke="#5a5456"/><path d="m215.267 88.288h28.333" stroke="#5a5456"/><path d="m107.773 37.602c12.014 0 21.756 8.016 21.756 17.901 0 3.163-.998 6.135-2.746 8.714-.958 1.404-2.139 2.693-3.503 3.832.73 1.468 2.745 4.842 6.917 7.615.782.521-10.844-2.854-13.818-3.721-2.642.938-5.55 1.456-8.605 1.456-12.016 0-21.757-8.012-21.757-17.896s9.74-17.901 21.756-17.901z" stroke="#e2a459" stroke-linecap="square" stroke-linejoin="round" stroke-width="1.1"/><path d="m118.662 49.269h-22.255" stroke="#e2a459" stroke-linecap="square" stroke-linejoin="round" stroke-width="1.1"/><path d="m111.486 53.802h-15.079" stroke="#e2a459" stroke-linecap="square" stroke-linejoin="round" stroke-width="1.1"/><path d="m118.662 53.802h-3.871" stroke="#e2a459" stroke-linecap="square" stroke-linejoin="round" stroke-width="1.1"/><path d="m101.576 58.328h-5.169" stroke="#e2a459" stroke-linecap="square" stroke-linejoin="round" stroke-width="1.1"/><path d="m118.662 58.328h-11.736-2.046" stroke="#e2a459" stroke-linecap="square" stroke-linejoin="round" stroke-width="1.1"/><path d="m118.662 62.858h-12.14" stroke="#e2a459" stroke-linecap="round" stroke-linejoin="round" stroke-width="1.3308"/><path d="m137.662 85.009c-4.57 2.368-10.476 5.23-12.216 6.004-5.248 2.331-2.914 13.987-2.914 13.987h15.842" stroke="#e2a459" stroke-linecap="square" stroke-linejoin="round" stroke-width="1.1"/><path d="m169.065 83.565c5.42 2.78 12.979 6.8 14.435 7.447 5.246 2.331 2.915 13.987 2.915 13.987h-37.295-3.924" stroke="#e2a459" stroke-linecap="square" stroke-linejoin="round" stroke-width="1.1"/><path d="m162.456 73.234.695 7.729" stroke="#e2a459" stroke-linecap="square" stroke-linejoin="round" stroke-width="1.1"/><path d="m139.425 49.572.683 4.777" stroke="#e2a459" stroke-linecap="square" stroke-linejoin="round" stroke-width="1.1"/><path d="m145.582 72.39-.766 7.863" stroke="#e2a459" stroke-linecap="square" stroke-linejoin="round" stroke-width="1.1"/></g><circle cx="147.786" cy="57.036" fill="#e2a459" r="1.458"/><path d="m154.034 75.304c-7.439-.255-9.661-3.341-12.392-10.507-.524-1.374-.938-2.051-1.194-1.962-1.962.683-2.518-3.596-2.73-5.032-.427-2.901 1.876-4.095 2.73-1.195" style="fill:none;stroke:#e2a459;stroke-width:1.1;stroke-linecap:square;stroke-linejoin:round;stroke-miterlimit:10"/><path d="m159.139 66.513c.04.641-3.346 2.891-4.955 2.891s-5.07-2.251-5.119-2.891c-.021-.272 3.245.742 5.037.759 1.838.015 5.02-1.032 5.037-.759z" fill="#e2a459"/><path d="m150.336 54.188c-.015.257-.165.462-.336.452l-4.492-.246c-.171-.009-.297-.228-.282-.487.013-.261.164-.463.335-.453l4.491.245c.171.01.298.23.284.489z" fill="#e2a459"/><path d="m153.842 63.944c-.684 0-2.035-.538-2.063-.865-.028-.328.682-.521.83-.521.149 0 .977.288 1.264.288.288 0 1.125-.282 1.253-.288s.837.167.864.521-1.466.865-2.148.865z" fill="#e2a459"/><circle cx="160.411" cy="57.036" fill="#e2a459" r="1.458"/><path d="m154.161 75.304c7.439-.255 9.662-3.341 12.393-10.507.523-1.374.938-2.051 1.193-1.962 1.962.683 2.518-3.596 2.729-5.032.428-2.901-1.876-4.095-2.729-1.195" style="fill:none;stroke:#e2a459;stroke-width:1.1;stroke-linecap:square;stroke-linejoin:round;stroke-miterlimit:10"/><path d="m157.86 54.188c.014.257.165.462.336.452l4.491-.246c.171-.009.297-.228.283-.487-.014-.261-.164-.463-.335-.453l-4.491.245c-.171.01-.298.23-.284.489z" fill="#e2a459"/><path d="m161.861 43.3c1.791 1.876 4.264 5.972 4.947 9.213" style="fill:none;stroke:#e2a459;stroke-width:1.1;stroke-linecap:square;stroke-linejoin:round;stroke-miterlimit:10"/><path d="m168.685 52.087c-.067-1.89.194-4.626-.643-7.414-.615-2.048-3.066-6.968-5.854-6.131-.404-1.469-3.622-3.902-3.622-3.902s-10.531-3.649-20.626 3.066c.588.406 1.567.99 1.952 1.951.385.963-2.23 2.508-3.624 4.181 1.952 1.394 4.035 2.129 4.035 2.129s7.672-4.638 19.084-5.14" style="fill:none;stroke:#e2a459;stroke-width:1.1;stroke-linecap:square;stroke-linejoin:round;stroke-miterlimit:10"/><path d="m151.002 84.757h7.508l-1.541 5.434h-4.405z" style="fill:none;stroke:#e2a459;stroke-width:1.1;stroke-linecap:square;stroke-linejoin:round;stroke-miterlimit:10"/><path d="m159.798 103.875-3.034-13.567-3.905.118-2.37 13.608" style="fill:none;stroke:#e2a459;stroke-width:1.1;stroke-linecap:square;stroke-linejoin:round;stroke-miterlimit:10"/><path d="m171.476 80.529-2.902-3.125-10.628 7.818 4.634 4.749z" style="fill:none;stroke:#e2a459;stroke-width:1.1;stroke-linecap:square;stroke-linejoin:round;stroke-miterlimit:10"/><path d="m137.866 81.041 2.901-3.125 10.793 7.068-4.377 5.087z" style="fill:none;stroke:#e2a459;stroke-width:1.1;stroke-linecap:square;stroke-linejoin:round;stroke-miterlimit:10"/></svg>