<svg enable-background="new 0 0 280 106" height="106" viewBox="0 0 280 106" width="280" xmlns="http://www.w3.org/2000/svg"><g fill="none" stroke-miterlimit="10"><path d="m11.468 77.134h48.833" stroke="#5a5456"/><path d="m4.932 83.33h38.187" stroke="#5a5456"/><path d="m22.417 89.288h29.333" stroke="#5a5456"/><path d="m215.027 77.134h49.582" stroke="#5a5456"/><path d="m232.451 83.163h38.688" stroke="#5a5456"/><path d="m224.267 89.288h28.333" stroke="#5a5456"/><g stroke="#e2a459"><path d="m166.497 85.116h-11.48v-49.491h24.584v22.441" stroke-width="1.1"/><path d="m190.675 103.532h-24.178v-37.381-8.658h24.178z" stroke-width="1.1"/><path d="m173.091 64.281v31.775" stroke-width="1.1"/><path d="m178.301 63.037v14.329" stroke-width="1.1"/><path d="m178.95 83.595v8.1" stroke-width="1.1"/><path d="m184.813 64.281v31.775" stroke-width="1.1"/><path d="m155.18 44.658 9.322-8.918" stroke-width="1.1"/><path d="m154.814 51.238 16.117-15.418" stroke-width="1.1"/><path d="m155.017 57.897 23.121-22.115" stroke-width="1.1"/><path d="m155.1 64.671 24.501-23.439" stroke-width="1.1"/><path d="m169.59 57.508 10.011-9.422" stroke-width="1.1"/><path d="m155.017 71.603 11.518-11.019" stroke-width="1.1"/><path d="m177.446 57.625 2.155-2.064" stroke-width="1.1"/><path d="m154.895 79.194 11.479-10.978" stroke-width="1.1"/><path d="m156.36 85.27 10.095-9.658" stroke-width="1.1"/><path d="m87.379 65.968v-33.567h3.522" stroke-width="1.1"/><path d="m87.379 91.323v-16.903" stroke-width="1.1"/><path d="m139.263 101.021v2.979h-4.696-5.164-5.165-36.859v-4.693" stroke-width="1.1"/><path d="m114.495 44.337v-9.757" stroke-width="1.2"/><path d="m117.077 44.337v-9.757" stroke-width="1.2"/><path d="m119.66 44.337v-9.757" stroke-width="1.2"/><path d="m122.242 34.58v9.757" stroke-width="1.2"/><path d="m137.531 59.345h-9.215" stroke-width="1.2"/><path d="m137.531 56.654h-9.215" stroke-width="1.2"/><path d="m137.531 53.961h-9.215" stroke-width="1.2"/><path d="m128.316 51.269h9.215" stroke-width="1.2"/><path d="m122.915 91.045h-9.215" stroke-width="1.2"/><path d="m122.915 85.657h-9.215" stroke-width="1.2"/><path d="m122.067 82.964h.848" stroke-width="1.2"/><path d="m120.131 82.964h.997.235" stroke-width="1.2"/><path d="m117.431 82.964h1.995" stroke-width="1.2"/><path d="m115.317 82.964h.587.705" stroke-width="1.2"/><path d="m113.7 82.964h.854" stroke-width="1.2"/><path d="m122.067 88.497h.848" stroke-width="1.2"/><path d="m120.131 88.497h.997.235" stroke-width="1.2"/><path d="m117.431 88.497h1.995" stroke-width="1.2"/><path d="m115.317 88.497h.587.705" stroke-width="1.2"/><path d="m113.7 88.497h.854" stroke-width="1.2"/><path d="m133.629 75.132h-5.254" stroke-width="1.2"/><path d="m137.588 75.132h-1.788" stroke-width="1.2"/><path d="m131.223 72.44h-2.848" stroke-width="1.2"/><path d="m137.588 72.44h-5.309" stroke-width="1.2"/><path d="m133.102 69.746h-4.727" stroke-width="1.2"/><path d="m137.588 69.746h-3.019" stroke-width="1.2"/><path d="m132.396 67.056h5.192" stroke-width="1.2"/><path d="m128.375 67.056h2.025" stroke-width="1.2"/><path d="m92.369 28.114h51.883v71.6h-51.883z" stroke-width="1.1"/><path d="m122.916 75.256h-9.214" stroke-dasharray="2.8904 1.4449" stroke-width="1.2"/><path d="m122.916 72.565h-9.214" stroke-dasharray="2.8904 1.4449" stroke-width="1.2"/><path d="m122.916 69.867h-9.214" stroke-dasharray="2.8904 1.4449" stroke-width="1.2"/><path d="m122.916 67.135h-9.214" stroke-dasharray="2.8904 1.4449" stroke-width="1.2"/><path d="m99.938 60.185v-.72" stroke-width="1.2"/><path d="m99.938 57.802v-5.822" stroke-dasharray="1.6634 1.6634" stroke-width="1.2"/><path d="m99.938 51.148v-.719" stroke-width="1.2"/><path d="m102.483 60.185v-.72" stroke-width="1.2"/><path d="m102.483 57.802v-5.822" stroke-dasharray="1.6634 1.6634" stroke-width="1.2"/><path d="m102.483 51.148v-.719" stroke-width="1.2"/><path d="m105.026 60.185v-.72" stroke-width="1.2"/><path d="m105.026 57.802v-5.822" stroke-dasharray="1.6634 1.6634" stroke-width="1.2"/><path d="m105.026 51.148v-.719" stroke-width="1.2"/><path d="m107.57 50.429v.719" stroke-width="1.2"/><path d="m107.57 52.812v5.822" stroke-dasharray="1.6634 1.6634" stroke-width="1.2"/><path d="m107.57 59.465v.72" stroke-width="1.2"/><path d="m114.495 60.123v-1.445" stroke-width="1.2"/><path d="m114.495 56.978v-4.253" stroke-dasharray="3.4021 1.701" stroke-width="1.2"/><path d="m114.495 51.874v-1.445" stroke-width="1.2"/><path d="m117.077 60.123v-1.445" stroke-width="1.2"/><path d="m117.077 56.978v-4.253" stroke-dasharray="3.4021 1.701" stroke-width="1.2"/><path d="m117.077 51.874v-1.445" stroke-width="1.2"/><path d="m119.66 60.123v-1.445" stroke-width="1.2"/><path d="m119.66 56.978v-4.253" stroke-dasharray="3.4021 1.701" stroke-width="1.2"/><path d="m119.66 51.874v-1.445" stroke-width="1.2"/><path d="m122.242 50.429v1.445" stroke-width="1.2"/><path d="m122.242 53.575v4.253" stroke-dasharray="3.4021 1.701" stroke-width="1.2"/><path d="m122.242 58.678v1.445" stroke-width="1.2"/><path d="m137.501 91.201h-1.444" stroke-width="1.2"/><path d="m134.491 91.201h-3.915" stroke-dasharray="3.1318 1.5659" stroke-width="1.2"/><path d="m129.793 91.201h-1.445" stroke-width="1.2"/><path d="m137.501 88.464h-1.444" stroke-width="1.2"/><path d="m134.491 88.464h-3.915" stroke-dasharray="3.1318 1.5659" stroke-width="1.2"/><path d="m129.793 88.464h-1.445" stroke-width="1.2"/><path d="m137.501 85.729h-1.444" stroke-width="1.2"/><path d="m134.491 85.729h-3.915" stroke-dasharray="3.1318 1.5659" stroke-width="1.2"/><path d="m129.793 85.729h-1.445" stroke-width="1.2"/><path d="m128.348 82.998h1.445" stroke-width="1.2"/><path d="m131.359 82.998h3.914" stroke-dasharray="3.1318 1.5659" stroke-width="1.2"/><path d="m136.057 82.998h1.444" stroke-width="1.2"/><path d="m107.923 34.58v1.444" stroke-width="1.2"/><path d="m107.923 37.725v4.252" stroke-dasharray="3.4013 1.7007" stroke-width="1.2"/><path d="m107.923 42.827v1.445" stroke-width="1.2"/><path d="m105.34 34.58v1.444" stroke-width="1.2"/><path d="m105.34 37.725v4.252" stroke-dasharray="3.4013 1.7007" stroke-width="1.2"/><path d="m105.34 42.827v1.445" stroke-width="1.2"/><path d="m102.757 34.58v1.444" stroke-width="1.2"/><path d="m102.757 37.725v4.252" stroke-dasharray="3.4013 1.7007" stroke-width="1.2"/><path d="m102.757 42.827v1.445" stroke-width="1.2"/><path d="m100.176 44.272v-1.445" stroke-width="1.2"/><path d="m100.176 41.126v-4.251" stroke-dasharray="3.4013 1.7007" stroke-width="1.2"/><path d="m100.176 36.024v-1.444" stroke-width="1.2"/><path d="m129.109 40.539v-5.959" stroke-width="1.2"/><path d="m129.109 44.399v-2.054" stroke-width="1.2"/><path d="m131.691 37.686v-3.106" stroke-width="1.2"/><path d="m131.691 44.399v-4.626" stroke-width="1.2"/><path d="m134.273 36.627v-2.047" stroke-width="1.2"/><path d="m134.273 44.399v-5.893" stroke-width="1.2"/><path d="m136.856 41.914v2.485" stroke-width="1.2"/><path d="m136.856 34.58v5.604" stroke-width="1.2"/><path d="m104.573 91.135h-5.628" stroke-width="1.2"/><path d="m108.218 91.135h-1.94" stroke-width="1.2"/><path d="m101.878 88.404h-2.933" stroke-width="1.2"/><path d="m108.218 88.404h-4.368" stroke-width="1.2"/><path d="m100.879 85.669h-1.934" stroke-width="1.2"/><path d="m108.218 85.669h-5.566" stroke-width="1.2"/><path d="m105.872 82.932h2.346" stroke-width="1.2"/><path d="m98.945 82.932h5.292" stroke-width="1.2"/><path d="m100.292 75.132h-1.204" stroke-width="1.2"/><path d="m104.341 75.132h-3.051" stroke-width="1.2"/><path d="m106.806 75.132h-1.409" stroke-width="1.2"/><path d="m108.302 75.132h-.732" stroke-width="1.2"/><path d="m102.112 72.44h-3.024" stroke-width="1.2"/><path d="m106.16 72.44h-3.168" stroke-width="1.2"/><path d="m108.302 72.44-1.26.017" stroke-width="1.2"/><path d="m101.17 69.746h-.291-1.791" stroke-width="1.2"/><path d="m103.813 69.746h-1.35" stroke-width="1.2"/><path d="m108.302 69.746h-3.667" stroke-width="1.2"/><path d="m107.511 67.056h.791" stroke-width="1.2"/><path d="m105.105 67.056h1.291" stroke-width="1.2"/><path d="m102.17 67.056h1.703" stroke-width="1.2"/><path d="m99.088 67.056h2.025" stroke-width="1.2"/></g></g></svg>