<svg enable-background="new 0 0 280 106" height="106" viewBox="0 0 280 106" width="280" xmlns="http://www.w3.org/2000/svg"><g fill="none" stroke-miterlimit="10"><path d="m8.468 68.475h48.833" stroke="#5a5456"/><path d="m1.932 73.671h38.187" stroke="#5a5456"/><path d="m19.417 80.629h29.333" stroke="#5a5456"/><path d="m222.889 68.475h49.582" stroke="#5a5456"/><path d="m240.313 74.504h38.687" stroke="#5a5456"/><path d="m232.129 80.629h28.332" stroke="#5a5456"/><path d="m147.238 75.781-.188-50.647s-9.999-2.063-18.887-2.063c-2.85 0-13.017.219-12.31 4.276.706 4.054 22.81 4.797 22.81.024 0-2.493-16.328-2.876-16.824-.503-.342 1.639 6.362 1.671 6.362 1.671l-.038 2.218" stroke="#e2a459" stroke-width="1.1"/><path d="m147.281 86.894-.026-9.071" stroke="#e2a459" stroke-width="1.1"/><path d="m141.588 95.655 5.739.094-.023-6.081" stroke="#e2a459" stroke-width="1.1"/><path d="m138.646 27.238v72.217s-1.583 4.103-10.75 3.823c-10.273-.313-11.864-4.529-11.864-4.529v-71.301" stroke="#e2a459" stroke-width="1.1"/><path d="m116.084 47.751 17.397-17.396" stroke="#e2a459" stroke-linejoin="round" stroke-width="1.1"/><path d="m116.084 66.539 22.569-22.567" stroke="#e2a459" stroke-linejoin="round" stroke-width="1.1"/><path d="m116.084 57.146 22.569-22.568" stroke="#e2a459" stroke-linejoin="round" stroke-width="1.1"/><path d="m116.363 38.2 7.551-7.554" stroke="#e2a459" stroke-linejoin="round" stroke-width="1.1"/><path d="m116.084 75.934 22.569-22.569" stroke="#e2a459" stroke-linejoin="round" stroke-width="1.1"/><path d="m116.084 85.327 22.569-22.569" stroke="#e2a459" stroke-linejoin="round" stroke-width="1.1"/><path d="m116.084 94.721 22.569-22.567" stroke="#e2a459" stroke-linejoin="round" stroke-width="1.1"/><path d="m119.167 101.031 19.486-19.486" stroke="#e2a459" stroke-linejoin="round" stroke-width="1.1"/><path d="m126.708 103.023 12.083-12.085" stroke="#e2a459" stroke-width="1.1"/><path d="m110.575 75.781-.189-50.647s-9.999-2.063-18.887-2.063c-2.85 0-13.017.219-12.309 4.276.706 4.054 22.81 4.797 22.81.024 0-2.493-16.328-2.876-16.824-.503-.343 1.639 6.361 1.671 6.361 1.671l-.038 2.218" stroke="#e2a459" stroke-width="1.1"/><path d="m110.619 86.894-.027-9.071" stroke="#e2a459" stroke-width="1.1"/><path d="m104.924 95.655 5.739.094-.024-6.081" stroke="#e2a459" stroke-width="1.1"/><path d="m101.983 27.238v72.217s-1.584 4.103-10.75 3.823c-10.273-.313-11.864-4.529-11.864-4.529v-71.301" stroke="#e2a459" stroke-width="1.1"/><path d="m79.421 47.751 17.396-17.396" stroke="#e2a459" stroke-width="1.1"/><path d="m79.421 66.539 22.567-22.567" stroke="#e2a459" stroke-width="1.1"/><path d="m79.421 57.146 22.567-22.568" stroke="#e2a459" stroke-width="1.1"/><path d="m79.698 38.2 7.552-7.554" stroke="#e2a459" stroke-width="1.1"/><path d="m79.421 75.934 22.567-22.569" stroke="#e2a459" stroke-width="1.1"/><path d="m79.421 85.327 22.567-22.569" stroke="#e2a459" stroke-width="1.1"/><path d="m79.421 94.721 22.567-22.567" stroke="#e2a459" stroke-width="1.1"/><path d="m82.503 101.031 19.485-19.486" stroke="#e2a459" stroke-width="1.1"/><path d="m90.043 103.023 12.084-12.085" stroke="#e2a459" stroke-width="1.1"/><path d="m202.341 15.433-40.168 85.563-2.352 5.004" stroke="#e2a459" stroke-width="1.0687"/><path d="m161.106 15.433 40.167 85.563 2.35 5.004" stroke="#e2a459" stroke-width="1.0687"/></g><path d="m202.025 85.223-.043-15.556h-.914l.045 15.556z" fill="#e2a459"/><path d="m192.394 74.745-1.862-1.861 1.111 2.365.751.752v.846l1.11 2.366v-39.647l-1.11 2.369v4.629l-1.48-1.48-.401.854 1.881 1.881v8.139l-4.481-4.481-.402.856 4.883 4.879v8.141l-7.482-7.483-.402.856 7.884 7.879z" fill="#e2a459"/><path d="m201.047 95.283.432.923.607.008-.031-8.401h-.913l.029 7.473z" fill="#e2a459"/><path d="m178.509 71.508 12.189 12.19-1.108-2.365-10.681-10.677z" fill="#e2a459"/><path d="m196.101 95.201-2.597-.043v-5.484l-1.11-2.368v6.226l-16.485-16.483-.402.854 16.888 16.885v4.544c-.131.239-.604.976-1.771 1.705l-17.714-17.606-.398.853 17.296 17.192c-1.49.713-3.772 1.302-7.216 1.248l-11.7-11.767v-3.223l-1.11 2.369v8.646l.034.195c.07.187 1.842 4.571 12.365 4.891.307.008.605.012.893.012 8.67 0 10.325-4.015 10.394-4.191l.037-.098v-3.484l3.028.049zm-25.209 3.422v-6.409l10.4 10.46c-8.141-.464-10.127-3.535-10.4-4.051z" fill="#e2a459"/><path d="m182.388 65.992-.645-1.372-.232.495z" fill="#e2a459"/><path d="m201.807 24.762-.362-.074c-.023-.005-.184-.115-1.087-.28l-.401.855c.583.105.653.193.941.247l.162 41.936h.915l-.166-42.313z" fill="#e2a459"/><path d="m169.781 27.628v1.051l1.11 2.367v-2.091c.981.658 2.501 1.156 4.274 1.513l-.061.061 12.202 12.202.398-.854-11.164-11.166c2.661.399 5.7.51 8.374.351l5.354 5.356.4-.852-4.592-4.593c2.006-.189 4.817-.654 6.315-1.79v2.713l1.11-2.367v-2.292h-.11c-.148-1.09-2.039-1.834-5.665-2.21-3.578-.371-11.577-.443-12.036 1.748-.021.103-.004.202.004.302h-.01v2.541c-2.333-.439-4.125-1.083-4.795-1.831v-.34h-.22c-.026-.059-.056-.118-.067-.179-.089-.51.033-.954.372-1.356 1.253-1.494 5.55-2.385 11.486-2.385 4.675 0 9.657.579 13.332 1.125l.404-.862c-3.729-.561-8.892-1.175-13.736-1.175-3.699 0-10.204.353-12.186 2.71-.518.613-.708 1.319-.571 2.1.014.072.055.135.078.203zm6.807-.666c.13-.621 3.108-1.232 7.05-1.232 1.253 0 2.608.063 3.997.206 3.416.353 4.555.979 4.811 1.302h-.052v.596c-.536 1.094-2.971 1.937-6.627 2.253-.934.08-1.886.124-2.837.132l.037-2.134-.463-.002c-2.005-.008-4.98-.304-5.75-.916v-.089h-.121c-.002-.002-.006-.004-.009-.007-.049-.058-.041-.084-.036-.109zm.166 2.708v-1.464c1.462.623 4.089.757 5.284.783l-.021 1.228c-2.146-.03-4.238-.228-6.036-.547z" fill="#e2a459"/><path d="m184.705 48.27-10.798-10.797 1.109 2.363 9.29 9.289z" fill="#e2a459"/><path d="m170.892 45.104 3.182 3.183-1.108-2.363-2.074-2.075v-2.345l-1.111-2.367v40.927l1.111-2.365v-4.416l1.41 1.411.4-.853-1.81-1.813v-8.138l4.411 4.41.4-.852-4.811-4.813v-8.138l7.412 7.413.399-.854-7.811-7.812z" fill="#e2a459"/></svg>