<svg enable-background="new 0 0 280 106" height="106" viewBox="0 0 280 106" width="280" xmlns="http://www.w3.org/2000/svg"><g fill="none" stroke="#5a5456" stroke-miterlimit="10"><path d="m18.468 60.134h48.833"/><path d="m11.932 66.33h38.187"/><path d="m29.417 72.288h29.333"/><path d="m211.027 60.134h49.582"/><path d="m228.451 66.163h38.688"/><path d="m220.267 72.288h28.333"/></g><path d="m129.688 104.9c-1.6-.034-2.909-.889-3.588-2.343-.722-1.541-.546-3.029.508-4.305.559-.676 1.1-1.368 1.64-2.06l.813-1.036c.79-.998 1.967-1.571 3.231-1.571.824 0 1.612.249 2.279.719 1.867 1.309 2.398 3.809 1.185 5.572-.925 1.347-1.982 2.589-3.074 3.849-.662.766-1.637 1.149-2.98 1.175zm2.603-10.08c-.883 0-1.708.402-2.264 1.104l-.807 1.028c-.547.7-1.096 1.401-1.663 2.088-.749.906-.86 1.886-.34 2.994.492 1.055 1.321 1.604 2.466 1.632 1.001-.02 1.638-.251 2.068-.749 1.068-1.233 2.101-2.447 2.99-3.739.83-1.21.436-2.943-.877-3.865-.46-.323-1.004-.493-1.573-.493zm15.152 9.385c-2.606-.07-4.813-.772-7.147-1.516-.529-.169-1.044-.333-1.573-.494-.287-.086-.572-.181-.865-.277l-1.361-.453.669-1.066.785.25c.443.148.784.264 1.13.367.539.164 1.063.33 1.58.496 2.25.717 4.375 1.395 6.812 1.461.877 0 2.682-.497 3.008-1.311.07-.177.134-.524-.231-.873-.406-.389-3.136-1.812-7.584-4.108-3.693-1.908-8.643-4.467-8.922-4.848-.191-.45-.033-1.065.103-1.313l4.336 2.368c5.235 2.861 11.51 6.287 11.663 6.363 1.836.896 1.89 1.139 1.844 1.651-.16 1.788-2.062 3.301-4.15 3.304zm-26.315-3.473c-.954 0-1.901-.304-2.738-.877-1.624-1.116-1.979-3.562-.776-5.341.682-1.011 1.45-1.978 2.192-2.911l.71-.895c1.428-1.813 2.865-3.617 4.314-5.41.782-.972 1.942-1.529 3.181-1.529.711 0 1.418.189 2.044.546 1.159.661 2.591 2.336 2.147 3.988-.336 1.25-.491 1.49-.889 2.002l-.098.128c-1.23 1.601-2.492 3.177-3.754 4.752-.604.754-1.209 1.51-1.811 2.268-.186.233-.363.475-.54.715l-.072.097c-.278.38-.496.678-.725.964-.756.956-1.917 1.503-3.185 1.503zm6.871-15.736c-.853 0-1.658.392-2.209 1.076-1.446 1.791-2.879 3.592-4.305 5.399l-.631.796c-.714.896-1.524 1.91-2.221 2.938-.803 1.188-.586 2.919.455 3.632.636.438 1.344.668 2.047.668.893 0 1.679-.37 2.214-1.043.229-.288.446-.583.662-.879.242-.33.452-.616.674-.896.554-.699 1.112-1.396 1.671-2.093l.248-.309c1.222-1.526 2.443-3.052 3.633-4.603l.104-.134c.311-.401.395-.535.672-1.566.245-.912-.749-2.127-1.568-2.598-.451-.253-.95-.388-1.446-.388zm26.145 15.295c-.491 0-.833-.098-.914-.26-.018-.033-.054-.115-.035-.152.089-.178.825-.31 1.312-.396.43-.078.852-.154 1.247-.273 2.033-.608 2.614-1.716 2.874-2.496.358-1.075-.953-1.563-1.821-1.887-.213-.08-.366-.138-.5-.195-6.311-2.733-17.997-9.133-18.902-9.7l-.27-.17c-.657-.41-.972-1.089-.856-1.831.192.064.659.254 1.493.776l.287.18c.964.605 13.385 7.389 19.355 9.875.229.095.455.182.672.266.405.155.697.269.939.383.587.276.861.785.918 1.138.288 1.841-.591 3.222-2.612 4.105-.287.125-2.007.637-3.187.637zm-41.013-4.893c-2.16-.067-3.167-1.169-3.629-2.082-.782-1.54-.624-3.158.445-4.557.754-.985 1.532-1.953 2.311-2.922l2.286-2.859c1.44-1.807 2.881-3.613 4.327-5.416.301-.374.638-.721 1.001-1.029.832-.701 1.778-1.072 2.737-1.072.689 0 1.34.189 1.935.563 1.568.979 2.306 2.878 1.793 4.615-.241.811-.64 1.598-1.125 2.217-1.974 2.523-3.971 5.028-5.969 7.535l-2.738 3.437c-.815 1.025-1.914 1.539-3.359 1.57zm9.478-18.701c-.666 0-1.337.27-1.94.779-.299.252-.581.542-.838.861-1.444 1.797-2.881 3.601-4.318 5.403l-2.295 2.872c-.779.967-1.548 1.923-2.292 2.896-.798 1.043-.904 2.105-.326 3.248.292.576.871 1.348 2.525 1.408 1.087-.027 1.83-.368 2.415-1.104l2.739-3.437c1.996-2.504 3.991-5.006 5.962-7.529.392-.5.716-1.142.913-1.807.357-1.208-.162-2.532-1.262-3.221-.396-.244-.828-.369-1.283-.369zm38.637 17.071c-.232 0-.633-.036-.712-.271-.016-.049-.039-.136-.019-.177.051-.096.383-.19.676-.273.562-.161 1.321-.378 2.021-.976.703-.598 1.37-1.739 1.222-2.68-.063-.395-.297-.931-1.061-1.245-.462-.192-7.134-3.703-10.462-5.563-4.764-2.661-9.55-5.38-10.229-5.782l-.319-.189c-.825-.491-1.122-.924-.962-1.404.009-.026.029-.088.231-.088.413 0 1.079.287 1.374.438l.308.183c1.325.788 20.018 11.073 20.409 11.229.113.046 2.768 1.136 2.051 3.284-.278.828-.713 1.789-1.829 2.637-.544.414-1.814.877-2.699.877zm-53.576-6.584c-.972 0-1.931-.362-2.702-1.02-1.71-1.458-1.892-4.039-.414-5.875.287-.354.975-1.221.975-1.221l.196-.249c.766-.97 1.635-2.069 2.539-3.123.787-.915 1.921-1.44 3.11-1.44.182 0 .366.012.549.036 1.385.188 2.57 1.06 3.172 2.333l.065.126c.278.53 1.015 1.939-.407 4.011-1.163 1.694-2.205 2.918-3.308 4.213l-.574.674c-.754.892-1.775 1.432-2.875 1.521-.108.01-.218.014-.326.014zm3.697-11.696c-.838 0-1.608.359-2.168 1.013-.868 1.01-1.73 2.102-2.491 3.064-.428.539-.809 1.021-1.194 1.499-1.075 1.332-.966 3.121.252 4.162.55.468 1.224.725 1.898.725.077 0 .155-.004.232-.01.771-.063 1.492-.45 2.033-1.09l.557-.654c1.09-1.278 2.119-2.486 3.25-4.133 1.004-1.464.599-2.23.331-2.738l-.089-.181c-.428-.902-1.237-1.498-2.219-1.631-.132-.016-.263-.026-.392-.026zm55.475 11.563c-.249 0-.297-.11-.322-.169-.136-.316.11-.621.822-1.02.072-.039.121-.066.152-.089 1.334-.884 2.149-2.097 2.182-3.243.021-.759-.299-1.406-.924-1.874-2.307-1.723-6.326-4.372-10.581-7.178l-.156-.103c-5.839-3.85-12.456-8.213-15.491-10.765l-4.515-2.96 1.748-.438 3.325 2.291c2.151 1.721 7.046 4.95 12.228 8.369 5.838 3.851 11.875 7.832 14.249 9.849 1.42 1.183 1.835 2.514 1.271 4.071-.097.269-1.18 2.23-3.126 3.031-.362.152-.652.228-.862.228zm2.812-9.416 1.025-.53c2.42-1.263 4.546-2.978 6.32-5.099l.276-.331.551 1.263c-1.856 2.184-4.069 3.953-6.576 5.259l-.626.327zm-65.459-1.393-.245-.264c-.532-.577-1.059-1.149-1.578-1.726l-.478-.529.653-1.341.719 1.017c.585.652 1.158 1.272 1.737 1.9l.533.666-.754.979zm-4.799-2.664c-.107 0-.214-.03-.31-.086l-6.625-3.934c-1.216-.725-2.428-1.445-3.644-2.16-.616-.362-.807-.85-.582-1.49 1.354-3.876 2.622-7.01 3.988-9.861l.265-.556 1.113.532-.268.556c-1.323 2.766-2.546 5.783-3.851 9.497l-.082.231 9.774 5.803.148-.278c.066-.124.127-.252.18-.38.321-.796.633-1.598.942-2.398.542-1.397 1.075-2.771 1.647-4.084 2.664-6.138 5.757-11.088 9.455-15.133.66-.722 1.361-1.362 2.104-2.039l.468-.431-2.595-1.555c-2.364-1.405-4.728-2.811-7.089-4.223l-.19-.114-.165.149c-.972.883-1.861 1.769-2.717 2.71l-.416.457-.912-.831.415-.456c.929-1.019 1.909-1.993 2.912-2.896.289-.26.582-.392.87-.392.206 0 .42.066.639.198 1.833 1.096 6.265 3.733 6.265 3.733l3.903 2.32c.06.036.116.078.232.175l.213.177c.141.114.225.28.23.457.007.179-.063.35-.192.472-.328.31-.656.61-.98.906-.778.71-1.461 1.333-2.083 2.015-3.603 3.94-6.623 8.779-9.235 14.792-.573 1.32-1.116 2.718-1.594 3.951-.347.896-.659 1.701-.983 2.501-.129.323-.297.619-.46.906-.096.168-.168.297-.241.431-.079.15-.217.262-.377.307-.056.015-.113.022-.167.022h-.005zm81.188-.346c-.081 0-.157-.016-.228-.047-.164-.067-.29-.2-.348-.365-.304-.867-.614-1.729-.933-2.586l-.215-.578 1.154-.43.215.576c.198.528.392 1.058.582 1.59l.123.343 3.343-1.986c2.096-1.245 4.19-2.489 6.291-3.726l.213-.126-.082-.231c-.286-.816-.565-1.585-.851-2.352l-.216-.578 1.155-.43.215.578c.322.86.635 1.726.939 2.594.229.649.063 1.129-.505 1.465-2.409 1.418-4.813 2.846-7.217 4.273l-2.963 1.76c-.067.04-.135.071-.226.114l-.174.08c-.083.04-.175.062-.269.062zm-57.875-5.119c-.911 0-1.76-.36-2.457-1.04-1.193-1.167-1.489-2.732-.812-4.295.42-.974 1.089-2.402 2.055-3.567 2.011-2.427 4.127-4.719 6.173-6.935 1.087-1.176 2.548-1.997 4.342-2.44 4.039-.996 8.123-1.232 11.934-1.338.285-.009.571-.013.858-.013 2.776 0 5.703.385 8.948 1.176 1.829.447 3.669.664 5.626.664 1.567 0 3.225-.147 4.924-.437l.713-.122.75 1.109-1.258.228c-1.771.303-3.498.457-5.135.457-2.05 0-3.983-.229-5.912-.7-3.145-.768-5.982-1.141-8.673-1.141-.271 0-.541.003-.81.011-3.745.106-7.75.337-11.67 1.303-1.58.391-2.8 1.072-3.731 2.082-2.041 2.21-4.15 4.497-6.13 6.884-.863 1.041-1.481 2.364-1.872 3.269-.477 1.101-.29 2.111.542 2.924.471.462 1.007.696 1.591.696.397 0 .826-.11 1.274-.328 1.135-.552 2.034-1.119 2.748-1.732 1.343-1.149 2.643-2.386 3.9-3.581l1.151-1.093c2.106-1.988 4.363-3.148 6.9-3.548.197-.031.416-.057.652-.057.479 0 .913.107 1.326.326l-.116 1.368-.368-.225c-.269-.163-.529-.235-.845-.235-.137 0-.288.013-.459.041-2.28.358-4.323 1.414-6.245 3.227l-1.087 1.03c-1.287 1.226-2.617 2.492-4.006 3.682-.793.682-1.779 1.305-3.012 1.906-.605.294-1.214.444-1.809.444zm55.208-.856c-.239-.586-.484-1.169-.734-1.748l-.245-.564 1.131-.49.245.564c.255.587.503 1.178.744 1.772l.232.572-1.142.464zm-2.297-5.129c-2.998-6.075-6.547-10.947-10.85-14.893-.139-.127-.211-.31-.198-.5.014-.188.111-.357.268-.464l.186-.129c.135-.095.249-.175.368-.246l2.732-1.622c2.379-1.411 4.758-2.822 7.129-4.247.243-.147.48-.222.706-.222.445 0 .763.29.898.413 2.945 2.667 5.489 5.724 7.778 9.348l.329.521-1.042.659-.331-.521c-2.208-3.496-4.655-6.447-7.483-9.021l-.165-.151-.191.114c-2.352 1.41-4.675 2.789-6.999 4.168l-2.574 1.529.283.272c4.033 3.902 7.39 8.628 10.262 14.447l.273.552-1.106.546zm12.693-2.694c-.655-1.555-1.307-2.978-1.991-4.349l-.275-.552 1.104-.551.275.551c.699 1.403 1.361 2.85 2.024 4.422l.24.567-1.137.48zm-66.311-5.141c-1.1-.138-2.231-.28-3.316-.497-1.724-.342-2.599-1.009-3.802-2.285l-.423-.449.898-.846.423.448c1.108 1.178 1.75 1.646 3.145 1.922 1.039.206 2.079.337 3.181.476.537.065 1.026.128 1.521.196l.644.068-.976 1.131c-.434-.057-.865-.111-1.295-.164zm-28.43-.92.297-.542c.247-.448.501-.894.76-1.339 1.022-1.75 2.129-3.414 3.288-4.944l.373-.492.983.745-.372.491c-1.133 1.497-2.213 3.119-3.208 4.823-.254.434-.501.872-.743 1.31l-.297.542z" fill="#e2a459"/><circle clip-rule="evenodd" cx="184.333" cy="63.089" fill="#e2a459" fill-rule="evenodd" r="1.7"/></svg>