<svg enable-background="new 0 0 280 106" height="106" viewBox="0 0 280 106" width="280" xmlns="http://www.w3.org/2000/svg"><g fill="none" stroke-miterlimit="10"><path d="m27.885 74.134h48.833" stroke="#5a5456"/><path d="m21.432 79.83h38.188" stroke="#5a5456"/><path d="m38.584 86.33h29.333" stroke="#5a5456"/><path d="m195.027 74.134h49.582" stroke="#5a5456"/><path d="m212.451 79.83h38.688" stroke="#5a5456"/><path d="m204.934 86.33h28.332" stroke="#5a5456"/><g stroke="#e2a459" stroke-width="1.1"><path d="m142.814 99.389c-1.16 0-2.187 0-3.022 0-.678-3.023-3.522-4.701-6.436-4.807-2.961-.107-5.871 2.346-6.638 4.811-.832 0-3.597-.009-3.597-.009s0-3.139 0-3.202c0-5.447-.001-10.896 0-16.34 0-.068-.001-.135 0-.201h39.854c.061.008.118.021.18.026.535.063 1.029.204 1.438.487.67.466.932 1.074.934 1.746.007 5.774.002 11.55.002 17.326v.16c-2.282 0-7.082 0-11.06 0"/><path d="m149.807 99.389c-.802 0-3.773 0-4.522 0"/><path d="m183.805 99.912c-.162.566-.582.73-1.119.723-.56-.008-1.748-.031-2.309-.021-.182.005-.078-.082-.136-.273-.833-2.771-2.103-4.904-4.937-5.482-2.396-.489-4.752.093-6.533 1.775-.045.045-.162.141-.185.145 0-5.254.134-9.949.134-15.227h.256c2.891 0 5.776.004 8.666-.003.867-.001 1.575.363 2.067 1.032 1.288 1.752 2.433 3.595 3.296 5.6.361.844.66 1.709.768 2.627.004.045.021.088.031.131.001 2.989.001 5.981.001 8.973zm-14.532-11.499h13.297"/><path d="m137.513 101.275c.007 2.371-1.967 4.283-4.333 4.233-2.299-.048-4.176-1.95-4.156-4.286.021-2.306 1.931-4.207 4.25-4.197 2.357.012 4.239 1.897 4.239 4.25z"/><path d="m173.577 105.507c-2.366 0-4.238-1.896-4.237-4.295 0-2.292 1.919-4.181 4.246-4.187 2.357-.004 4.248 1.902 4.246 4.279-.002 2.319-1.908 4.203-4.255 4.203z"/><path d="m175.58 81.832.137 6.718"/><path d="m120.745 94.537h-27.053v-41.392h55.384v24.393"/><path d="m156.434 74.076.136 3.096"/><path d="m156.064 65.645.122 2.746.127 2.934"/><path d="m142.002 51.144.676-15.623h12.062l.328 7.47.075 1.644.552 12.606.257 5.857"/><path d="m154.84 32.893h-12.262l.1-2.633h12.062z"/><path d="m98.261 78.809v-3.65h12.979v19.195"/><path d="m98.261 84.848v-4.571"/><path d="m98.261 94.354v-5.301-2.188"/><path d="m98.261 59.259h12.979v4.755h-12.979z"/><path d="m115.169 59.259h12.978v4.755h-12.978z"/><path d="m132.077 59.259h12.978v4.755h-12.978z"/><path d="m115.169 94.354v-19.195h12.977v2.379"/><path d="m132.533 77.538v-2.379h12.981v2.379"/><path d="m142.13 21.836c-1.461-1.619-4.3-4.493-2.01-6.141 1.463-1.053 6.233.096 4.203-2.632-.911-1.229-4.569-4.037 0-5.616 2.415-.834-.261-3.891 2.376-5.789 2.193-1.579 8.955.351 8.592 3.685-.26 2.374-4.594 4.613-.732 6.14 3.108 1.229 1.463 5.967-2.191 9.125-5.102 4.406-2.658 6.879-3.84 6.315-.366-.173-4.022-2.456-6.398-5.087z"/></g></g></svg>