<svg enable-background="new 0 0 280 106" height="106" viewBox="0 0 280 106" width="280" xmlns="http://www.w3.org/2000/svg"><path d="m11.468 73.748h48.833" fill="none" stroke="#5a5456" stroke-miterlimit="10"/><path d="m4.932 79.944h38.187" fill="none" stroke="#5a5456" stroke-miterlimit="10"/><path d="m22.417 85.902h29.333" fill="none" stroke="#5a5456" stroke-miterlimit="10"/><path d="m223.889 73.748h49.582" fill="none" stroke="#5a5456" stroke-miterlimit="10"/><path d="m241.313 79.777h38.687" fill="none" stroke="#5a5456" stroke-miterlimit="10"/><path d="m233.128 85.902h28.333" fill="none" stroke="#5a5456" stroke-miterlimit="10"/><path d="m121.657 98.505c0 .732-.604 1.328-1.352 1.328h-31.105c-.748 0-1.353-.596-1.353-1.328v-40.542c0-.73.605-1.324 1.353-1.324h31.104c.748 0 1.352.594 1.352 1.324v40.542z" fill="none" stroke="#e2a459" stroke-linejoin="round" stroke-miterlimit="10" stroke-width="1.1"/><path d="m117.659 60.615c.109 0 .197.102.197.227v5.379c0 .124-.09.229-.197.229h-26.225c-.106 0-.196-.105-.196-.229v-5.379c0-.125.088-.227.196-.227zm0-1.099h-26.225c-.716 0-1.296.593-1.296 1.326v5.379c0 .733.58 1.329 1.296 1.329h26.225c.716 0 1.297-.596 1.297-1.329v-5.379c0-.734-.581-1.326-1.297-1.326z" fill="#e2a459"/><path d="m94.7 71.579v1.853h-3.95v-1.853zm1.1-1.1h-6.15v4.052h6.15z" fill="#e2a459"/><path d="m118.303 71.375v1.854h-4.361v-1.854zm1.1-1.1h-6.561v4.053h6.561z" fill="#e2a459"/><path d="m94.7 77.253v1.854h-3.95v-1.854zm1.1-1.1h-6.15v4.054h6.15z" fill="#e2a459"/><path d="m118.303 77.049v1.854h-4.361v-1.854zm1.1-1.1h-6.561v4.054h6.561z" fill="#e2a459"/><path d="m94.7 83.002v1.855h-3.95v-1.855zm1.1-1.1h-6.15v4.055h6.15z" fill="#e2a459"/><path d="m94.7 88.788v1.854h-3.95v-1.854zm1.1-1.1h-6.15v4.053h6.15z" fill="#e2a459"/><path d="m102.509 71.579v1.853h-3.95v-1.853zm1.1-1.1h-6.15v4.052h6.15z" fill="#e2a459"/><path d="m102.509 77.253v1.854h-3.95v-1.854zm1.1-1.1h-6.15v4.054h6.15z" fill="#e2a459"/><path d="m102.509 83.002v1.855h-3.95v-1.855zm1.1-1.1h-6.15v4.055h6.15z" fill="#e2a459"/><path d="m102.509 88.788v1.854h-3.95v-1.854zm1.1-1.1h-6.15v4.053h6.15z" fill="#e2a459"/><path d="m110.318 71.579v1.853h-3.951v-1.853zm1.1-1.1h-6.151v4.052h6.151z" fill="#e2a459"/><path d="m110.318 77.253v1.854h-3.951v-1.854zm1.1-1.1h-6.151v4.054h6.151z" fill="#e2a459"/><path d="m110.318 83.002v1.855h-3.951v-1.855zm1.1-1.1h-6.151v4.055h6.151z" fill="#e2a459"/><path d="m110.318 88.788v1.854h-3.951v-1.854zm1.1-1.1h-6.151v4.053h6.151z" fill="#e2a459"/><path d="m110.318 94.372v1.855h-3.745v-1.855zm1.1-1.1h-5.945v4.055h5.945z" fill="#e2a459"/><path d="m118.303 82.798v1.855h-4.361v-1.855zm1.1-1.1h-6.561v4.055h6.561z" fill="#e2a459"/><path d="m102.751 94.297v1.931h-11.85v-1.931zm1.101-1.1h-14.05v4.13h14.05z" fill="#e2a459"/><path d="m118.303 88.548v7.68h-4.261v-7.68zm1.1-1.1h-6.461v9.879h6.461z" fill="#e2a459"/><path d="m170.385 96.264c-.352.238-.938.474-1.683.474-.915 0-1.728-.349-2.294-1.004-.43-.478-.711-1.13-.813-1.941h-.699v-.554h.644c0-.059 0-.115 0-.173 0-.18.011-.349.022-.506h-.666v-.565h.744c.137-.791.476-1.445.927-1.911.575-.596 1.31-.937 2.235-.937.667 0 1.187.193 1.504.363l-.229.745c-.282-.172-.756-.314-1.265-.314-.61 0-1.104.215-1.49.618-.34.329-.563.837-.678 1.436h3.15v.565h-3.252c-.01.146-.021.314-.021.472v.207h3.273v.554h-3.194c.089.654.314 1.138.621 1.477.416.442.98.654 1.591.654.601 0 1.119-.227 1.379-.37z" fill="#e2a459"/><circle cx="168.48" cy="92.941" fill="none" r="6.673" stroke="#e2a459" stroke-miterlimit="10" stroke-width="1.1"/><path d="m166.36 99.258c-.349.035-.773.122-1.063.122-3.686 0-6.675-2.99-6.675-6.675 0-3.686 2.989-6.672 6.675-6.672.205 0 .405.008.607.024.332.031.838.082 1.291.291" fill="none" stroke="#e2a459" stroke-miterlimit="10" stroke-width="1.1"/><path d="m181.875 78.74c-.003.442-.446.799-.991.795l-11.333-.076c-.546-.004-.984-.366-.981-.809l.01-1.4c.003-.442.445-.799.991-.795l11.334.077c.545.003.983.365.98.808z" fill="none" stroke="#e2a459" stroke-miterlimit="10" stroke-width="1.1"/><path d="m176.822 95.79c.092-.335.164-.681.218-1.052l3.741.024c.284 0 .458-.155.46-.267l.01-1.448-.062-.087c-.088-.09-.235-.145-.395-.146l-3.693-.025c-.026-.357-.058-.709-.124-1.054l3.823.025c.405.003.786.145 1.07.399.281.252.435.584.433.934l-.009 1.406c-.006.726-.683 1.315-1.509 1.315 0 .002-3.963-.024-3.963-.024z" fill="#e2a459"/><path d="m176.812 90.536c-.09-.325-.202-.693-.354-1.056l4.011.027c.288 0 .463-.157.463-.27l.01-1.403c0-.127-.2-.273-.46-.274l-5.252-.036c-.247-.366-.579-.729-.943-1.06l6.203.042c.835.006 1.51.604 1.506 1.335l-.01 1.404c-.005.726-.684 1.315-1.512 1.315-.001.002-3.662-.024-3.662-.024z" fill="#e2a459"/><path d="m170.764 101.277.033-.029c.953-.253 1.841-.658 2.602-1.185l7.346.067c.281 0 .459-.175.461-.295l.011-1.585c0-.121-.178-.298-.456-.3l-5.207-.035c.272-.385.514-.792.719-1.213l4.496.03c.403.003.781.163 1.065.452.284.288.438.669.437 1.071l-.011 1.585c-.006.829-.684 1.504-1.512 1.504z" fill="#e2a459"/><path d="m172.558 85.257c-1.272-.705-2.649-1.073-4.044-1.082-.001 0-.001 0-.001 0-.141 0-.261.016-.383.031-.041.006-.082.011-.123.016l.012-1.723c.005-.728.682-1.319 1.509-1.319l11.345.076c.834.007 1.508.607 1.503 1.34l-.01 1.402c-.005.725-.681 1.314-1.506 1.314zm-3.032-3.024c-.259 0-.454.143-.456.271l-.011 1.676 11.792.079c.284 0 .459-.155.461-.267l.01-1.444-.063-.093c-.088-.09-.235-.145-.394-.146z" fill="#e2a459"/><g stroke-miterlimit="10"><path d="m145.115 85.907v-2.677c-1.536-.027-3.128-.505-4.055-1.167l.636-1.777c.954.64 2.333 1.142 3.817 1.142 1.883 0 3.154-1.087 3.154-2.599 0-1.457-1.035-2.358-2.995-3.155-2.703-1.059-4.374-2.278-4.374-4.582 0-2.201 1.563-3.872 4.003-4.268v-2.682h1.644v2.575c1.591.05 2.677.474 3.445.926l-.664 1.751c-.556-.319-1.643-.904-3.338-.904-2.042 0-2.81 1.222-2.81 2.283 0 1.378.979 2.067 3.286 3.022 2.73 1.109 4.108 2.488 4.108 4.849 0 2.095-1.458 4.056-4.188 4.509v2.754z" fill="#fff" stroke="#e2a459" stroke-width="1.1"/><path d="m125.32 60.109c2.017-2.457 4.494-4.86 7.498-7.163h27.363c.628.629 9.991 9.976 13.245 21.964" fill="none" stroke="#e2a459" stroke-linecap="round" stroke-width="1.1"/><path d="m159.806 100.231c-3.864 1.324-7.501 1.714-13.725 1.714-9.896 0-16.361-1.567-20.577-4.131" fill="none" stroke="#e2a459" stroke-linecap="round" stroke-width="1.1"/><path d="m133.307 50.349h23.369" fill="none" stroke="#e2a459" stroke-width="1.1"/><path d="m130.009 35.482c.511 3.689 4.232 11.987 4.232 11.987h21.158s3.897-8.239 4.405-11.987c-1.954-1.129-4.066-3.197-6.328-2.657-9.135 2.177-10.812-1.901-15.402-1.143-3.427.568-5.261 2.045-8.065 3.8z" fill="none" stroke="#e2a459" stroke-width="1.1"/><ellipse cx="174.67" cy="34.696" fill="none" rx="2.972" ry="3.87" stroke="#e2a459" stroke-width="1.1"/><path d="m186.144 43.946c0 2.138-1.33 3.87-2.973 3.87-1.641 0-2.97-1.731-2.97-3.87 0-2.143 1.329-3.872 2.97-3.872 1.642.001 2.973 1.73 2.973 3.872z" fill="none" stroke="#e2a459" stroke-width="1.1"/><path d="m186.953 31.492-15.652 15.51" fill="none" stroke="#e2a459" stroke-width="1.1"/><path d="m126.275 44.804-12.239-4.659-6.935 5.282-30.809-12.9" fill="none" stroke="#e2a459" stroke-width="1.1"/><path d="m211.938 66.553-30.617-10.021-6.598 5.275-5.092-1.935" fill="none" stroke="#e2a459" stroke-width="1.1"/><path d="m207.933 68.257 4.617-1.22-2.147-4.425" fill="none" stroke="#e2a459" stroke-width="1.1"/><path d="m79.17 37.605v62.626" fill="none" stroke="#e2a459" stroke-linecap="round" stroke-width="1.1"/><path d="m174.92 65.161v5.288" fill="none" stroke="#e2a459" stroke-linecap="round" stroke-width="1.1"/><path d="m181.67 60.708v11.411" fill="none" stroke="#e2a459" stroke-linecap="round" stroke-width="1.1"/><path d="m188.421 62.656v40.36" fill="none" stroke="#e2a459" stroke-linecap="round" stroke-width="1.1"/><path d="m195.17 65.161v38.969" fill="none" stroke="#e2a459" stroke-linecap="round" stroke-width="1.1"/><path d="m201.919 67.11v37.854" fill="none" stroke="#e2a459" stroke-linecap="round" stroke-width="1.1"/><path d="m86.963 40.946v13.081" fill="none" stroke="#e2a459" stroke-linecap="round" stroke-width="1.1"/><path d="m94.479 44.006v8.91" fill="none" stroke="#e2a459" stroke-linecap="round" stroke-width="1.1"/><path d="m102.271 47.347v5.569" fill="none" stroke="#e2a459" stroke-linecap="round" stroke-width="1.1"/><path d="m109.788 47.347v5.569" fill="none" stroke="#fff" stroke-linecap="round" stroke-width="1.2525"/><path d="m116.746 45.121v7.795" fill="none" stroke="#fff" stroke-linecap="round" stroke-width="1.2525"/><path d="m123.427 47.625v6.125" fill="none" stroke="#fff" stroke-linecap="round" stroke-width="1.2525"/></g></svg>