<svg enable-background="new 0 0 280 106" height="106" viewBox="0 0 280 106" width="280" xmlns="http://www.w3.org/2000/svg"><g fill="none" stroke-miterlimit="10"><path d="m16.468 72.134h48.833" stroke="#5a5456"/><path d="m9.932 78.33h38.187" stroke="#5a5456"/><path d="m27.417 84.288h29.333" stroke="#5a5456"/><path d="m215.027 72.134h49.582" stroke="#5a5456"/><path d="m232.451 78.163h38.688" stroke="#5a5456"/><path d="m224.267 84.288h28.333" stroke="#5a5456"/><path d="m108.721 92.549v5.062c0 .82-.678 1.484-1.514 1.484h-23.714c-.836 0-1.514-.664-1.514-1.484v-17.172c0-.819.678-1.484 1.514-1.484h23.714c.836 0 1.514.665 1.514 1.484v5.987" stroke="#e2a459" stroke-width="1.086"/><path d="m95.206 97.558h-10.271c-.717 0-1.297-.568-1.297-1.27v-1.612" stroke="#e2a459" stroke-width="1.086"/><path d="m100.128 97.558h-4.078" stroke="#e2a459" stroke-width="1.086"/><path d="m104.487 97.558h-3.445" stroke="#e2a459" stroke-width="1.086"/><path d="m85.792 76.729-1.833.022c-.821 0-1.485.665-1.485 1.485v1.039" stroke="#e2a459" stroke-width="1.086"/><path d="m110.538 94.472v1.652c0 .82-.501 1.813-1.321 1.813h-.975" stroke="#e2a459" stroke-width="1.086"/><path d="m110.538 92.608v.91" stroke="#e2a459" stroke-width="1.086"/><path d="m110.538 81.924v3.798" stroke="#e2a459" stroke-width="1.0059"/><path d="m107.116 76.752h1.934c.822 0 1.488.665 1.488 1.485v1.898" stroke="#e2a459" stroke-width="1.086"/><path d="m110.593 91.295-2.408 1.361h-3.003c-1.757 0-3.183-1.347-3.183-3.014 0-1.661 1.426-3.013 3.183-3.013h2.919l2.492-1.361z" stroke="#e2a459" stroke-width="1.086"/><circle cx="105.212" cy="89.63" r="1.128" stroke="#e2a459" stroke-width=".947"/><path d="m86.675 77.792 11.216-9.458 3.753 4.178" stroke="#e2a459" stroke-width="1.086"/><path d="m90.939 77.865 12.25-6.103 2.896 5.806" stroke="#e2a459" stroke-width="1.086"/></g><path d="m103.433 76.277c-.076.177-.243.409-.528.595-.352.219-.748.287-1.124.174-.28-.076-.549-.261-.787-.546l-.267.17-.135-.212.246-.156c-.014-.021-.027-.041-.042-.066-.044-.069-.082-.137-.117-.2l-.254.164-.138-.216.287-.184c-.142-.336-.171-.67-.112-.954.075-.373.272-.681.627-.907.256-.162.502-.218.664-.229l.096.339c-.149.006-.368.065-.562.19-.232.148-.372.354-.42.602-.049.209-.011.46.092.715l1.207-.772.137.22-1.246.792c.032.06.068.13.107.19.016.026.032.045.049.075l1.256-.8.134.214-1.223.78c.193.229.399.359.6.414.268.066.536.013.769-.136.23-.147.373-.363.437-.482z" fill="#e2a459"/><path d="m96.776 72.23c.237.311.585.299 1.056.163.344-.094.575-.079.725.116.036.044.056.093.071.142l.34-.167c-.026-.089-.068-.163-.122-.236-.243-.317-.569-.359-1.049-.228-.406.111-.609.119-.751-.067-.108-.139-.131-.384.142-.593.228-.175.432-.207.539-.222l-.09-.304c-.149.019-.338.075-.556.229l-.265-.343-.22.169.275.357c-.284.306-.321.691-.095.984z" fill="#e2a459"/><path d="m191.398 80.851v-9.668" fill="none" stroke="#e2a459" stroke-miterlimit="10" stroke-width="1.086"/><path d="m191.398 95.534v-10.423" fill="none" stroke="#e2a459" stroke-miterlimit="10" stroke-width="1.086"/><path d="m135.641 71.183v33.817h5.091 13.671 36.995v-5.67" fill="none" stroke="#e2a459" stroke-miterlimit="10" stroke-width="1.086"/><path d="m200.479 69.884-35.426-31.714c-.612-.617-1.659-.762-2.596 0-.941.769-35.432 31.714-35.432 31.714-.177.158-.1.528.178.836l1.493 1.665c.277.311.64.433.812.273l3.439-3.077 3.092-2.765 27.711-24.798 22.297 19.954 5.019 4.489 6.926 6.197c.171.159.541.037.813-.273l1.497-1.665c.271-.308.354-.678.177-.836z" fill="none" stroke="#e2a459" stroke-miterlimit="10" stroke-width="1.086"/><path d="m155.941 69.972h15.468v18.936h-15.468z" fill="none" stroke="#e2a459" stroke-miterlimit="10" stroke-width="1.086"/><path d="m163.404 70.445v18.462" fill="none" stroke="#e2a459" stroke-miterlimit="10" stroke-width="1.086"/><path d="m155.741 78.494h13.487" fill="none" stroke="#e2a459" stroke-miterlimit="10" stroke-width="1.086"/><path d="m179.375 46.78v-2.846h5.438v8.517" fill="none" stroke="#e2a459" stroke-miterlimit="10" stroke-width="1.086"/><path d="m103.087 42.7c1.402-.578 2.292-.008 3.297.616.8.511 1.686 1.063 2.83 1.063.829 0 1.829-.297 3.059-1.063 2.03-1.404 3.087-.723 4.316.042.8.51 1.688 1.06 2.83 1.06.83 0 1.829-.293 3.059-1.06" fill="none" stroke="#e2a459" stroke-linecap="round" stroke-miterlimit="10" stroke-width="1.1"/><path d="m104.67 47.929c.608.119 1.142.456 1.713.81.8.512 1.686 1.064 2.83 1.064.829 0 1.829-.299 3.059-1.064 2.03-1.403 3.087-.723 4.316.043.8.51 1.688 1.061 2.83 1.061.83 0 1.829-.297 3.059-1.061" fill="none" stroke="#e2a459" stroke-linecap="round" stroke-miterlimit="10" stroke-width="1.1"/><path d="m103.929 53.324c.948-.106 1.666.349 2.455.839.8.511 1.686 1.06 2.83 1.06.829 0 1.829-.295 3.059-1.06 2.03-1.403 3.087-.723 4.316.042.8.512 1.688 1.063 2.83 1.063.83 0 1.829-.296 3.059-1.063" fill="none" stroke="#e2a459" stroke-linecap="round" stroke-miterlimit="10" stroke-width="1.1"/><path d="m98.035 56.921c-3.921 0-7.11-3.251-7.11-7.247 0-3.305 4.701-11.781 6.245-14.567.197-.354.337-.606.411-.746.054-.09.212-.25.454-.25.151 0 .353.042.45.24l.091.161c4.176 7.339 6.571 12.866 6.571 15.162-.001 3.996-3.191 7.247-7.112 7.247zm-.846-19.575c-2.196 4.197-5.199 9.934-5.199 12.328 0 3.391 2.711 6.147 6.044 6.147s6.046-2.757 6.046-6.147c0-2.396-3.007-8.138-5.202-12.33l-.844-1.614z" fill="#e2a459"/><path d="m98.119 53.776c-3.271-.044-4.301-2.734-4.395-4.317-.031-.326.233-.528.498-.556.282 0 .495.207.525.514.293 2.103 1.476 3.276 3.33 3.308.275 0 .515.269.515.575-.026.249-.228.478-.433.48z" fill="#e2a459"/><path d="m138.76 17.243h4.282" fill="none" stroke="#e2a459" stroke-miterlimit="10" stroke-width="1.1"/><path d="m138.76 19.392h1.933" fill="none" stroke="#e2a459" stroke-miterlimit="10" stroke-width="1.1"/><path d="m138.76 21.542h1.933" fill="none" stroke="#e2a459" stroke-miterlimit="10" stroke-width="1.1"/><path d="m138.76 23.692h1.933" fill="none" stroke="#e2a459" stroke-miterlimit="10" stroke-width="1.1"/><path d="m138.76 12.945h1.933" fill="none" stroke="#e2a459" stroke-miterlimit="10" stroke-width="1.1"/><path d="m138.76 10.796h1.933" fill="none" stroke="#e2a459" stroke-miterlimit="10" stroke-width="1.1"/><path d="m138.76 15.092h1.933" fill="none" stroke="#e2a459" stroke-miterlimit="10" stroke-width="1.1"/><path d="m138.76 25.84h1.933" fill="none" stroke="#e2a459" stroke-miterlimit="10" stroke-width="1.1"/><path d="m138.76 27.989h4.282" fill="none" stroke="#e2a459" stroke-miterlimit="10" stroke-width="1.1"/><path d="m136.812 30.758v-21.31c0-.677-.549-1.226-1.227-1.226h-3.27c-.678 0-1.228.549-1.228 1.226v21.311c-1.354.918-2.246 2.471-2.246 4.232 0 2.822 2.287 5.107 5.107 5.107 2.821 0 5.108-2.285 5.108-5.107.001-1.762-.89-3.314-2.244-4.233z" fill="none" stroke="#e2a459" stroke-miterlimit="10" stroke-width="1.1"/><circle cx="133.949" cy="34.99" fill="#e2a459" r="2.452"/><path d="m133.898 21.037v13.026" fill="none" stroke="#e2a459" stroke-linecap="round" stroke-miterlimit="10" stroke-width="1.226"/></svg>