<svg enable-background="new 0 0 280 106" height="106" viewBox="0 0 280 106" width="280" xmlns="http://www.w3.org/2000/svg"><g fill="none" stroke-miterlimit="10"><path d="m22.468 77.134h48.833" stroke="#5a5456"/><path d="m15.932 82.33h38.187" stroke="#5a5456"/><path d="m33.417 89.288h29.333" stroke="#5a5456"/><path d="m201.027 77.134h49.582" stroke="#5a5456"/><path d="m218.451 83.163h38.688" stroke="#5a5456"/><path d="m210.267 89.288h28.333" stroke="#5a5456"/><path d="m180.95 43.423c-9.179 0-16.622 5.863-16.622 13.089 0 2.313.762 4.486 2.096 6.371.734 1.026 1.635 1.97 2.677 2.804-.556 1.072-2.096 3.538-5.281 5.565-.599.381 8.284-2.086 10.558-2.72 2.016.686 4.242 1.066 6.573 1.066 9.181 0 16.624-5.86 16.624-13.087-.001-7.225-7.444-13.088-16.625-13.088z" stroke="#e2a459" stroke-linecap="round" stroke-linejoin="round" stroke-width="1.1"/><path d="m172.632 51.953h17.005" stroke="#e2a459" stroke-linecap="round" stroke-linejoin="round" stroke-width="1.1"/><path d="m178.111 55.268h11.526" stroke="#e2a459" stroke-linecap="round" stroke-linejoin="round" stroke-width="1.1"/><path d="m172.632 55.268h2.958" stroke="#e2a459" stroke-linecap="round" stroke-linejoin="round" stroke-width="1.1"/><path d="m185.686 58.578h3.951" stroke="#e2a459" stroke-linecap="round" stroke-linejoin="round" stroke-width="1.1"/><path d="m172.632 58.578h8.965 1.564" stroke="#e2a459" stroke-linecap="round" stroke-linejoin="round" stroke-width="1.1"/><path d="m172.632 61.891h9.273" stroke="#e2a459" stroke-linecap="round" stroke-linejoin="round" stroke-width="1.1"/><path d="m99.845 65.543c2.329 3.612 4.772 6.241 7.808 6.341 3.187.104 5.15-1.596 5.068-2.114-.084-.521-.358-1.407-1.443-2.513-1.081-1.107-2.094-2.619-3.542-1.006-1.444 1.616-1.103 1.083-1.804.715-.697-.367-4.478-4.528-4.525-7.317-.013-.672 1.052-.249 2.324-1.305.949-.789 1.417-1.452.005-3.623-1.191-1.83-1.878-2.923-3.462-1.496-1.582 1.425-3.138 2.686-2.696 6.131.252 1.959.994 4.205 2.267 6.187z" stroke="#e2a459" stroke-linecap="round" stroke-linejoin="round" stroke-width="1.1"/><path d="m116.125 62.859c-.21-4.517-2.605-8.469-6.15-10.819" stroke="#e2a459" stroke-linecap="round" stroke-linejoin="round" stroke-width="1.1"/><path d="m113.571 62.859c-.204-3.571-2.089-6.689-4.868-8.59" stroke="#e2a459" stroke-linecap="round" stroke-linejoin="round" stroke-width="1.1"/><path d="m111.016 62.859c-.195-2.624-1.568-4.913-3.587-6.366" stroke="#e2a459" stroke-linecap="round" stroke-linejoin="round" stroke-width="1.1"/><circle cx="125.584" cy="33.349" r="1.18" stroke="#e2a459" stroke-linecap="round" stroke-linejoin="round" stroke-width=".7"/><path d="m126.824 43.545h-2.481v-7.02l-1.254-.604h1.254 2.481z" stroke="#e2a459" stroke-linecap="round" stroke-linejoin="round" stroke-width=".7"/><path d="m118.407 43.211c-.306-.428-.572-.882-.803-1.361-.579-1.209-.903-2.563-.903-3.995 0-5.109 4.146-9.253 9.257-9.253 1.965 0 3.785.611 5.282 1.654" stroke="#e2a459" stroke-linecap="round" stroke-linejoin="round" stroke-width="1.1"/><path d="m135.212 37.855c0 5.113-4.143 9.257-9.254 9.257-2.345 0-4.485-.873-6.115-2.309" stroke="#e2a459" stroke-linecap="round" stroke-linejoin="round" stroke-width="1.1"/><path d="m132.897 31.733c.515.584.959 1.234 1.315 1.935.209.41.387.837.533 1.28" stroke="#e2a459" stroke-linecap="round" stroke-linejoin="round" stroke-width="1.1"/><path d="m92.225 100.893v-3.653" stroke="#e2a459" stroke-linecap="square" stroke-linejoin="round" stroke-width="1.1"/><path d="m92.225 94.597v-12.698h17.432v22.987h-17.432v-1.471" stroke="#e2a459" stroke-linecap="square" stroke-linejoin="round" stroke-width="1.1"/><path d="m95.685 85.614h10.098" stroke="#e2a459" stroke-linecap="round" stroke-linejoin="round" stroke-width="1.1"/><path d="m95.685 89.202h10.098" stroke="#e2a459" stroke-linecap="round" stroke-linejoin="round" stroke-width="1.1"/><path d="m95.685 92.789h10.098" stroke="#e2a459" stroke-linecap="round" stroke-linejoin="round" stroke-width="1.1"/><path d="m102.462 98.258c.531.339 1.91 1.797 1.91 1.797s1.062-2.919 1.697-3.367" stroke="#e2a459" stroke-linecap="round" stroke-linejoin="round" stroke-width="1.1"/><path d="m133.141 90.674c-3.376 1.75-7.738 3.863-9.023 4.435-3.876 1.722-2.153 10.332-2.153 10.332h11.702" stroke="#e2a459" stroke-linecap="square" stroke-linejoin="round"/><path d="m156.338 89.608c4.003 2.054 9.588 5.022 10.661 5.5 3.874 1.722 2.153 10.332 2.153 10.332h-27.548-2.898" stroke="#e2a459" stroke-linecap="square" stroke-linejoin="round"/><path d="m151.455 81.976.514 5.709" stroke="#e2a459" stroke-linecap="square" stroke-linejoin="round" stroke-width=".983"/><path d="m134.443 64.499.505 3.528" stroke="#e2a459" stroke-linecap="square" stroke-linejoin="round"/><path d="m138.991 81.353-.565 5.808" stroke="#e2a459" stroke-linecap="square" stroke-linejoin="round" stroke-width=".983"/></g><circle cx="140.618" cy="70.012" fill="#e2a459" r="1.077"/><path d="m145.234 83.506c-5.495-.188-7.137-2.469-9.153-7.762-.387-1.014-.693-1.515-.882-1.448-1.45.504-1.86-2.656-2.017-3.719-.315-2.142 1.386-3.023 2.017-.881" fill="none" stroke="#e2a459" stroke-linecap="square" stroke-linejoin="round" stroke-miterlimit="10"/><path d="m149.005 77.012c.03.474-2.473 2.136-3.661 2.136s-3.744-1.662-3.78-2.136c-.016-.201 2.397.549 3.72.561 1.359.011 3.708-.762 3.721-.561z" fill="#e2a459"/><path d="m142.502 67.908c-.01.19-.122.342-.248.335l-3.317-.182c-.126-.008-.219-.169-.209-.361.01-.192.121-.342.247-.333l3.318.18c.126.008.221.17.209.361z" fill="#e2a459"/><path d="m145.092 75.114c-.504 0-1.502-.396-1.522-.639-.021-.241.503-.385.613-.385.109 0 .72.213.933.213.212 0 .831-.209.927-.213.095-.004.617.123.638.385.017.261-1.084.639-1.589.639z" fill="#e2a459"/><circle cx="149.944" cy="70.012" fill="#e2a459" r="1.077"/><path d="m145.327 83.506c5.496-.188 7.138-2.469 9.154-7.762.386-1.014.692-1.515.881-1.448 1.45.504 1.86-2.656 2.019-3.719.313-2.142-1.388-3.023-2.019-.881" fill="none" stroke="#e2a459" stroke-linecap="square" stroke-linejoin="round" stroke-miterlimit="10"/><path d="m148.061 67.908c.011.19.122.342.247.335l3.318-.182c.125-.008.219-.169.209-.361-.009-.192-.121-.342-.247-.333l-3.318.18c-.125.008-.219.17-.209.361z" fill="#e2a459"/><path d="m151.016 59.866c1.322 1.386 3.148 4.411 3.654 6.806" fill="none" stroke="#e2a459" stroke-linecap="square" stroke-linejoin="round" stroke-miterlimit="10"/><path d="m156.055 66.356c-.048-1.396.145-3.417-.474-5.476-.454-1.513-2.266-5.146-4.324-4.528-.298-1.086-2.675-2.884-2.675-2.884s-7.779-2.695-15.235 2.266c.434.3 1.157.73 1.442 1.44.284.712-1.648 1.854-2.677 3.089 1.441 1.029 2.98 1.572 2.98 1.572s5.666-3.425 14.097-3.797" fill="none" stroke="#e2a459" stroke-linecap="square" stroke-linejoin="round" stroke-miterlimit="10"/><path d="m142.995 90.487h5.544l-1.138 4.016h-3.252z" fill="none" stroke="#e2a459" stroke-linecap="square" stroke-linejoin="round" stroke-miterlimit="10"/><path d="m149.491 104.609-2.24-10.02-2.885.086-1.75 10.053" fill="none" stroke="#e2a459" stroke-linecap="square" stroke-linejoin="round" stroke-miterlimit="10"/><path d="m158.116 87.366-2.141-2.309-7.851 5.774 3.423 3.509z" fill="none" stroke="#e2a459" stroke-linecap="square" stroke-linejoin="round" stroke-miterlimit="10"/><path d="m133.292 87.743 2.142-2.308 7.972 5.22-3.233 3.758z" fill="none" stroke="#e2a459" stroke-linecap="square" stroke-linejoin="round" stroke-miterlimit="10"/></svg>