<svg enable-background="new 0 0 280 106" height="106" viewBox="0 0 280 106" width="280" xmlns="http://www.w3.org/2000/svg"><path d="m21.468 80.475h48.833" fill="none" stroke="#5a5456" stroke-miterlimit="10"/><path d="m14.932 85.671h38.187" fill="none" stroke="#5a5456" stroke-miterlimit="10"/><path d="m32.417 92.629h29.333" fill="none" stroke="#5a5456" stroke-miterlimit="10"/><path d="m207.027 80.475h49.582" fill="none" stroke="#5a5456" stroke-miterlimit="10"/><path d="m224.451 86.504h38.688" fill="none" stroke="#5a5456" stroke-miterlimit="10"/><path d="m216.268 92.629h28.332" fill="none" stroke="#5a5456" stroke-miterlimit="10"/><path d="m196.95 42.764c-9.179 0-16.622 5.863-16.622 13.089 0 2.313.762 4.486 2.096 6.371.734 1.026 1.635 1.971 2.678 2.805-.557 1.071-2.097 3.537-5.281 5.564-.6.381 8.283-2.086 10.558-2.721 2.017.687 4.242 1.066 6.573 1.066 9.181 0 16.624-5.859 16.624-13.086-.002-7.225-7.445-13.088-16.626-13.088z" style="fill:none;stroke:#e2a459;stroke-width:1.1;stroke-linecap:round;stroke-linejoin:round;stroke-miterlimit:10"/><path d="m188.632 51.294h17.005" style="fill:none;stroke:#e2a459;stroke-width:1.1;stroke-linecap:round;stroke-linejoin:round;stroke-miterlimit:10"/><path d="m194.111 54.608h11.526" style="fill:none;stroke:#e2a459;stroke-width:1.1;stroke-linecap:round;stroke-linejoin:round;stroke-miterlimit:10"/><path d="m188.632 54.608h2.958" style="fill:none;stroke:#e2a459;stroke-width:1.1;stroke-linecap:round;stroke-linejoin:round;stroke-miterlimit:10"/><path d="m201.686 57.919h3.951" style="fill:none;stroke:#e2a459;stroke-width:1.1;stroke-linecap:round;stroke-linejoin:round;stroke-miterlimit:10"/><path d="m188.632 57.919h8.966 1.563" style="fill:none;stroke:#e2a459;stroke-width:1.1;stroke-linecap:round;stroke-linejoin:round;stroke-miterlimit:10"/><path d="m188.632 61.231h9.272" style="fill:none;stroke:#e2a459;stroke-width:1.1;stroke-linecap:round;stroke-linejoin:round;stroke-miterlimit:10"/><path d="m148.614 88.688c-3.222 1.67-7.385 3.688-8.612 4.233-3.699 1.643-2.055 9.86-2.055 9.86h11.168" fill="none" stroke="#e2a459" stroke-linecap="square" stroke-linejoin="round" stroke-miterlimit="10"/><path d="m170.752 87.671c3.819 1.961 9.149 4.793 10.174 5.249 3.697 1.645 2.056 9.86 2.056 9.86h-26.292-2.765" fill="none" stroke="#e2a459" stroke-linecap="square" stroke-linejoin="round" stroke-miterlimit="10"/><path d="m166.092 80.389.49 5.448" fill="none" stroke="#e2a459" stroke-linecap="square" stroke-linejoin="round" stroke-miterlimit="10"/><path d="m149.856 63.709.482 3.367" style="fill:none;stroke:#e2a459;stroke-width:.9544;stroke-linecap:square;stroke-linejoin:round;stroke-miterlimit:10"/><path d="m154.196 79.794-.539 5.542" fill="none" stroke="#e2a459" stroke-linecap="square" stroke-linejoin="round" stroke-miterlimit="10"/><circle cx="155.749" cy="68.97" fill="#e2a459" r="1.028"/><path d="m160.155 81.848c-5.245-.179-6.812-2.355-8.736-7.407-.368-.968-.66-1.446-.841-1.382-1.385.48-1.775-2.534-1.925-3.549-.301-2.044 1.322-2.885 1.925-.842" fill="none" stroke="#e2a459" stroke-linecap="square" stroke-linejoin="round" stroke-miterlimit="10"/><path d="m163.753 75.65c.029.453-2.359 2.039-3.494 2.039-1.133 0-3.573-1.586-3.606-2.039-.016-.192 2.287.523 3.55.535 1.296.011 3.538-.727 3.55-.535z" fill="#e2a459"/><path d="m157.547 66.962c-.009.182-.116.326-.236.32l-3.165-.175c-.12-.007-.21-.16-.199-.344.009-.184.115-.327.235-.317l3.166.171c.12.008.211.162.199.345z" fill="#e2a459"/><path d="m160.019 73.839c-.48 0-1.434-.378-1.452-.61-.021-.229.48-.367.586-.367.104 0 .686.203.89.203.202 0 .793-.199.885-.203.091-.003.589.118.609.367.015.25-1.035.61-1.518.61z" fill="#e2a459"/><circle cx="164.648" cy="68.97" fill="#e2a459" r="1.028"/><path d="m160.243 81.848c5.245-.179 6.813-2.355 8.735-7.407.369-.968.661-1.446.841-1.382 1.385.48 1.776-2.534 1.928-3.549.298-2.044-1.324-2.885-1.928-.842" fill="none" stroke="#e2a459" stroke-linecap="square" stroke-linejoin="round" stroke-miterlimit="10"/><path d="m162.852 66.962c.012.182.118.326.237.32l3.166-.175c.119-.007.21-.16.199-.344-.009-.184-.115-.327-.235-.317l-3.167.171c-.119.008-.209.162-.2.345z" fill="#e2a459"/><path d="m165.672 59.287c1.263 1.323 3.005 4.21 3.488 6.495" style="fill:none;stroke:#e2a459;stroke-width:.9544;stroke-linecap:square;stroke-linejoin:round;stroke-miterlimit:10"/><path d="m170.481 65.48c-.046-1.332.139-3.26-.452-5.226-.434-1.443-2.163-4.911-4.127-4.321-.284-1.037-2.553-2.752-2.553-2.752s-7.424-2.572-14.539 2.162c.414.286 1.104.696 1.376 1.374.271.681-1.572 1.769-2.555 2.949 1.375.981 2.844 1.499 2.844 1.499s5.407-3.269 13.454-3.623" fill="none" stroke="#e2a459" stroke-linecap="square" stroke-linejoin="round" stroke-miterlimit="10"/><path d="m158.018 88.51h5.291l-1.087 3.833h-3.104z" fill="none" stroke="#e2a459" stroke-linecap="square" stroke-linejoin="round" stroke-miterlimit="10"/><path d="m164.218 101.988-2.139-9.563-2.753.082-1.67 9.595" fill="none" stroke="#e2a459" stroke-linecap="square" stroke-linejoin="round" stroke-miterlimit="10"/><path d="m172.448 85.532-2.043-2.204-7.492 5.511 3.267 3.349z" fill="none" stroke="#e2a459" stroke-linecap="square" stroke-linejoin="round" stroke-miterlimit="10"/><path d="m148.758 85.892 2.045-2.203 7.607 4.981-3.086 3.587z" fill="none" stroke="#e2a459" stroke-linecap="square" stroke-linejoin="round" stroke-miterlimit="10"/><path d="m86.928 96.131-.951-10.62s2.688.005 3.801.005v2.776h3.436c0-.493 0-2.251 0-2.771h3.438v2.774h3.435c0-.51 0-2.268 0-2.78h3.438v2.78h3.438c0-.504 0-2.26 0-2.778h3.437v2.774h3.437c0-.491 0-2.249 0-2.771h3.291l-1.029 10.609" fill="none" stroke="#e2a459" stroke-linejoin="round" stroke-miterlimit="10" stroke-width="1.1"/><path d="m106.513 96.13 3.374-.001" fill="none" stroke="#e2a459" stroke-linejoin="round" stroke-miterlimit="10" stroke-width="1.1"/><path d="m112.464 96.129c5.212-.002-1.656.001 3.556.001.873 0 1.441.461 1.441 1.177.004 1.494.004 2.987.002 4.482-.002.753-.555 1.211-1.465 1.211-4.818.001-9.634 0-14.452 0-4.785 0-9.57.001-14.356 0-1.038 0-1.565-.436-1.565-1.289 0-1.461-.002-2.919 0-4.381 0-.715.585-1.2 1.456-1.2h17.521" fill="none" stroke="#e2a459" stroke-linejoin="round" stroke-miterlimit="10" stroke-width="1.1"/><circle cx="114.124" cy="99.678" fill="#e2a459" r=".824"/><g fill="none" stroke-miterlimit="10"><path d="m132.203 40.34h-5.804v-26.162h12.432v11.864" stroke="#e2a459" stroke-linejoin="round" stroke-width="1.1"/><path d="m144.429 50.074h-12.226v-19.76-4.576h12.226z" stroke="#e2a459" stroke-linejoin="round" stroke-width="1.1"/><path d="m135.539 29.327v16.795" stroke="#e2a459" stroke-linejoin="round" stroke-width="1.1"/><path d="m138.172 28.668v7.575" stroke="#e2a459" stroke-linejoin="round" stroke-width="1.1"/><path d="m138.502 39.536v4.281" stroke="#e2a459" stroke-linejoin="round" stroke-width="1.1"/><path d="m141.465 29.327v16.795" stroke="#e2a459" stroke-linejoin="round" stroke-width="1.1"/><path d="m126.482 18.953 4.713-4.715" stroke="#e2a459" stroke-linejoin="round" stroke-width="1.1"/><path d="m126.296 22.432 8.151-8.151" stroke="#e2a459" stroke-linejoin="round" stroke-width="1.1"/><path d="m126.399 25.951 11.691-11.691" stroke="#e2a459" stroke-linejoin="round" stroke-width="1.1"/><path d="m126.44 29.533 12.391-12.391" stroke="#e2a459" stroke-linejoin="round" stroke-width="1.1"/><path d="m133.767 25.745 5.064-4.98" stroke="#e2a459" stroke-linejoin="round" stroke-width="1.1"/><path d="m126.399 33.196 5.825-5.824" stroke="#e2a459" stroke-linejoin="round" stroke-width="1.1"/><path d="m137.74 25.808 1.091-1.091" stroke="#e2a459" stroke-linejoin="round" stroke-width="1.1"/><path d="m126.337 37.21 5.805-5.804" stroke="#e2a459" stroke-linejoin="round" stroke-width="1.1"/><path d="m127.078 40.42 5.105-5.104" stroke="#e2a459" stroke-linejoin="round" stroke-width="1.1"/><path d="m107.754 33.219v-2.681c0-.213-.176-.383-.396-.383h-4.143c-.217 0-.394.17-.394.383v1.706" stroke="#e2a459" stroke-linejoin="round" stroke-width="1.1"/><path d="m108.543 36.85c0 .194-.177.353-.395.353h-5.72c-.219 0-.395-.159-.395-.353v-2.068c0-.195.176-.353.395-.353h5.72c.218 0 .395.158.395.353z" stroke="#e2a459" stroke-linecap="round" stroke-linejoin="round" stroke-width="1.1"/><path d="m111.377 68.102v-18.935s.164-4.041-.516-6.323c-.375-1.256-2.377-4.812-2.852-5.92m-8.425 29.558v2.867c0 .933.946 2.079 2.066 1.993h2.74m-4.806-12.169v3.968m2.765-25.888c-.829 1.812-2.765 6.104-2.764 8.492v11.496m9.399-4.738c0 .335-.229 1.667-1.098 1.479-.87-.188-1.063-1.098-1.154-2.321 0 0-.236-3.292 0-5.846.1-1.071.786-2.452 1.176-2.432.39.022 1.028.125 1.077 3.247.044 2.942-.001 5.873-.001 5.873z" stroke="#e2a459" stroke-linejoin="round" stroke-width="1.1"/><path d="m115.334 34.504v29.277" stroke="#e2a459" stroke-linejoin="round" stroke-width="1.1"/><path d="m115.385 26.404-.051 5.268" stroke="#e2a459" stroke-linejoin="round" stroke-width="1.1"/><path d="m116.401 33.032h-2.135" stroke="#e2a459" stroke-linejoin="round" stroke-width="1.4"/><path d="m116.535 69.653h6.516c1.023 0 1.341.588 1.395.706l.034.073.389 2.332c.013.121.037.536-.263.867-.143.157-.405.343-.842.343h-16.811c-.683 0-1.076-.528-1.153-1.02l-.015-.097.34-2.046c.01-.16.064-.526.352-.814.154-.157.431-.345.872-.345h6.754" stroke="#e2a459" stroke-linejoin="round" stroke-width="1.1"/><path d="m116.454 71.094c0 .704-2.24.709-2.24 0 0-.705 0-5.72 0-5.72h2.24z" stroke="#e2a459" stroke-linejoin="round" stroke-width="1.1"/></g></svg>