<svg enable-background="new 0 0 24 24" height="24" viewBox="0 0 24 24" width="24" xmlns="http://www.w3.org/2000/svg"><path clip-rule="evenodd" d="m14.314 16.736c-2.047 1.362-4.301 1.823-6.736 1.271-2.037-.463-3.678-1.567-4.926-3.242-2.458-3.299-2.141-7.976.735-10.941 2.915-3.005 7.561-3.456 10.98-1.063.93.65 1.699 1.456 2.308 2.412.605.952 1.005 1.983 1.198 3.096.192 1.117.166 2.228-.083 3.333-.239 1.058-.672 2.028-1.289 2.933-.024.037.409.421.609.621 1.83 1.83 3.656 3.662 5.489 5.49.325.324.391.708.285 1.134-.191.775-.954 1.388-1.712 1.379-.301-.003-.545-.123-.756-.335-1.274-1.278-2.554-2.554-3.83-3.83-.599-.598-1.2-1.192-1.793-1.796-.148-.15-.455-.477-.479-.462zm.61-7.002c.007-2.977-2.419-5.415-5.391-5.422-3.014-.008-5.457 2.419-5.452 5.42.004 2.986 2.429 5.413 5.413 5.419 2.986.006 5.423-2.426 5.43-5.417z" fill="#fff" fill-rule="evenodd"/></svg>