<svg enable-background="new 0 0 192 140" height="140" viewBox="0 0 192 140" width="192" xmlns="http://www.w3.org/2000/svg"><path d="m192 108.666c0 2.762-2.238 5-5 5h-180.667c-2.762 0-5-2.238-5-5v-102.666c0-2.762 2.238-5 5-5h180.667c2.762 0 5 2.238 5 5z" fill="#ede9e7"/><path d="m140.615 120.712c0 3.871-13.074 7.013-29.201 7.013s-35.174-3.03-35.174-6.904c0-3.871 19.047-7.124 35.174-7.124s29.201 3.141 29.201 7.015z" fill="#b2b2b2"/><path d="m148.067 36.56h-77.857l10.853 82.56h.014c-.001.023-.005.048-.005.068 0 3.22 12.566 5.831 28.066 5.831s28.066-2.611 28.066-5.831c0-.021-.002-.045-.004-.068h.012z" fill="#f7f7f7"/><ellipse cx="109.14" cy="35.684" fill="#f7f7f7" rx="39.587" ry="1.728"/><path d="m89.932 37.185-19.722-.625 10.853 82.56h.014c-.001.023-.005.048-.005.068 0 2.083 5.258 3.911 13.166 4.943v-79.446z" fill="#efefef"/><path d="m94.238 75.477c-15.591-4.959-26.961-17.36-26.961-31.45v-1.799h-3.774v1.799c0 5.065 1.275 9.998 3.791 14.663 2.388 4.429 5.78 8.416 10.083 11.856 4.24 3.391 9.126 6.059 14.522 7.932.775.268 1.556.516 2.341.748v-3.749z" fill="#bcbcbc"/><path d="m148.793 43.052c-2.615 1.007-19.37 1.781-39.658 1.781-20.244 0-36.974-.771-39.642-1.775l.691 4.347c1.552.993 18.396 1.776 38.951 1.776 20.559 0 37.4-.783 38.952-1.776z" fill="#ea9e39"/><path d="m94.238 76.374c-16.121-5.012-27.915-17.803-27.915-32.348v-.953h-1.869v.953c0 4.938 1.245 9.748 3.699 14.297 2.333 4.326 5.65 8.225 9.859 11.592 4.156 3.324 8.943 5.938 14.23 7.771.662.229 1.327.444 1.995.647v-1.959z" fill="#d6d6d6"/><path d="m150.9 42.538.1 1.488c0 18.296-19.17 33.75-41.861 33.75-5.217 0-10.246-.819-14.9-2.3v3.749c4.834 1.43 9.834 2.153 14.9 2.153 5.889 0 11.689-.978 17.24-2.901 5.396-1.873 10.281-4.541 14.522-7.932 4.303-3.44 7.693-7.428 10.081-11.856 2.518-4.665 3.793-9.598 3.793-14.663l-.101-1.488z" fill="#c9c9c9"/><path d="m109.139 37.411c17.387 0 32.151-.489 37.473-1.17-4.916-.707-19.832-1.221-37.473-1.221-17.64 0-32.556.514-37.472 1.221 5.321.681 20.086 1.17 37.472 1.17z" fill="#c9c9c9"/><path d="m69.558 35.701h-.001l.006.018c-.003-.004-.004-.012-.005-.018z" fill="#e2e2e2"/><path d="m94.238 37.284c-8.084-.144-14.837-.4-19.224-.725h-4.804l.054.406c1.789.627 11.18 1.149 23.975 1.38v-1.061z" fill="#d6d6d6"/><path d="m148.719 35.706c-.074.246-1.32.479-3.51.69-.031.002-.063.005-.094.009-6.264.594-20.016 1.006-35.977 1.006-5.054 0-9.885-.042-14.329-.117-.191-.004-4.942-.105-5.132-.109l.951 1.12c.272.005 4.156.051 4.432.057 4.37.073 9.117.114 14.081.114 21.076 0 38.265-.733 39.151-1.652l.025-.027c.002-.006.003-.011.005-.018l.398-1.072h-.001z" fill="#e2e2e2"/><path d="m69.915 36.763h-.002l.007.017c-.003-.007-.003-.011-.005-.017z" fill="#b2b2b2"/><path d="m70.265 36.976c-.187-.06-.303-.122-.34-.187l.413 1.09c.014.015.031.028.052.043z" fill="#b2b2b2"/><path d="m148.362 36.768c-.075.245-1.31.479-3.479.688-.031.002-.063.006-.094.008-6.208.595-19.835 1.006-35.651 1.006-5.033 0-9.843-.041-14.265-.116-.212-.006-7.201-.093-7.412-.099l.127.903c.209.005 7.07.254 7.282.257 4.417.077 9.231.12 14.271.12 20.886 0 37.918-.732 38.798-1.65l.023-.029c.004-.006.004-.011.008-.018l.395-1.07z" fill="#b2b2b2"/><path d="m70.39 37.922c.979.671 7.504 1.046 20.809 1.29l-.633-.957c-12.716-.229-18.406-.659-20.301-1.279z" fill="#a5a5a5"/><path d="m94.238 44.688c-13.098-.271-22.771-.889-24.746-1.631l.691 4.347c1.154.738 10.758 1.359 24.054 1.63v-4.346z" fill="#d88e36"/><path d="m94.238 45.746c-10.048-.203-19.149-.622-23.318-1.282l.346 2.178c.924.207 3.698.625 11.721.982 3.348.15 7.156.267 11.251.352z" fill="#ce9e6f"/><path d="m70.184 47.404c1.154.738 10.758 1.359 24.054 1.63v-1.059c-4.095-.085-7.903-.201-11.251-.352-8.023-.357-10.797-.775-11.721-.982z" fill="#b2732f"/><path d="m70.698 40.92h-3.5v6.218h4.198z" fill="#636363"/><path d="m90.168 129.943c-.681.701-3.207.684-4.473.684-1.267 0-28.167-.06-29.13-.2-2.046-.302-3.215-2.156-3.215-2.403l-.585-2.904c0-.248 2.194 1.402 2.437 1.402 0 0 11.557-2.519 21.235-2.479 13.959.057 16.262-.035 15.946 1.345-.153.659-1.532 3.855-2.215 4.555z" fill="#b2b2b2"/><path d="m88.245 46.282c-2.526-7.527-7.328-16.333-7.861-17.329-1.754.435-5.236.685-10.243.685-5.511 0-9.408-.438-9.408-.646 0-.014.02-.025.055-.038h-.046s-9.261 14.558-9.261 25.737v68.441c0 2.708 3.087 6.028 6.735 5.775h25.538c3.085 0 6.174-2.593 6.174-5.775v-58.518c.001 0 .535-11.718-1.683-18.332zm-3.932 24.104c0 .9-.701 4.457-3.367 3.955-2.666-.503-2.456-2.442-2.737-5.707 0 0-1.122-11.622.001-18.402.275-1.666 1.612-4.259 2.806-4.203 1.193.059 2.666 1.378 3.297 7.404.5 4.777 0 16.953 0 16.953z" fill="#c9c9c9"/><path d="m81.998 82.668c-3.366-.376-4.906-12.46-5.116-16.018-.344-5.793 1.908-18.6 1.75-18.611-10.104-.749-17.542 3.125-19.506 5.372-2.929 3.349-2.806 8.736-2.806 8.736l.106 23.328h31.044v-4.361s-2.473 1.885-5.472 1.554z" fill="#fff"/><path d="m82.068 42.236c-1.939 0-5.963 1.595-5.963 16.286 0 15.348 2.011 24.54 7.366 24.705 4.279.133 4.069-2.113 4.069-2.113s.19-15.917 0-21.472c-.46-13.477-3.789-17.406-5.472-17.406zm2.245 28.638c0 .896-.701 4.432-3.367 3.93-2.666-.497-2.456-2.425-2.737-5.67 0 0-.911-11.924.211-18.662.275-1.656 1.401-3.857 2.595-3.801 1.193.059 2.666 1.368 3.297 7.357.501 4.747.001 16.846.001 16.846z" fill="#bfbfbf"/><path d="m86.792 80.966v-.023c.001-.159.187-15.972 0-21.449-.48-14.051-3.996-16.924-4.911-16.924-1.625 0-5.402 1.537-5.402 15.785 0 8.029.543 13.894 1.658 17.929 1.133 4.097 2.871 6.208 5.167 6.28.115.003.228.005.335.005 1.292 0 2.242-.25 2.747-.724.429-.404.409-.844.408-.855zm-2.479-10.092c0 .896-.701 4.432-3.367 3.93-2.666-.497-2.456-2.425-2.737-5.67 0 0-.911-11.924.211-18.662.275-1.656 1.401-3.857 2.595-3.801 1.193.059 2.666 1.368 3.297 7.357.501 4.747.001 16.846.001 16.846z" fill="#b2b2b2"/><path d="m56.601 123.544h30.869v-38.068h-31.044z" fill="#ea9e39"/><path d="m59.689 84.913h24.414v32.943h-24.414z" fill="#fff"/><path d="m56.587 120.787.014 2.757h30.869v-2.757z" fill="#f7f7f7"/><path d="m60.478 79.487c.026.286.345.424.71.424.267 0 .483-.031.694-.095l.102.47c-.257.098-.57.143-.909.143-.854 0-1.342-.441-1.342-1.14 0-.566.401-1.193 1.27-1.193.812 0 1.121.563 1.121 1.115 0 .119-.015.226-.026.276zm.921-.474c0-.171-.082-.454-.437-.454-.335 0-.468.27-.488.454zm2.783-.386c0-.266.242-.48.54-.48h.242v1.519c0 .293.01.529.02.719h-.678l-.036-.315h-.016c-.098.136-.334.364-.787.364-.514 0-.885-.283-.885-.973v-1.313h.782v1.203c0 .326.119.521.396.521.217 0 .345-.133.392-.242.02-.042.03-.091.03-.15zm1.41.255c0-.329-.005-.542-.02-.735h.668l.031.415h.02c.13-.328.433-.466.679-.466.072 0 .108.006.165.014v.655c-.062-.01-.124-.02-.211-.02-.288 0-.483.132-.534.354-.011.049-.016.103-.016.153v1.176h-.246c-.298 0-.541-.215-.541-.48zm3.112 1.551c-.735 0-1.301-.43-1.301-1.152s.535-1.185 1.347-1.185c.767 0 1.28.472 1.28 1.149 0 .813-.652 1.188-1.321 1.188zm.021-.498c.309 0 .499-.27.499-.674 0-.328-.144-.665-.499-.665-.37 0-.514.337-.514.671 0 .38.18.668.509.668zm3.677.388c-.139.061-.401.105-.699.105-.813 0-1.332-.443-1.332-1.144 0-.648.503-1.184 1.44-1.184.205 0 .432.031.597.087l-.124.516c-.093-.035-.231-.067-.438-.067-.411 0-.679.261-.674.622 0 .409.309.626.689.626.185 0 .329-.028.448-.074zm1.59.11c-.735 0-1.3-.43-1.3-1.152s.534-1.185 1.347-1.185c.766 0 1.28.472 1.28 1.149 0 .813-.652 1.189-1.321 1.189zm.021-.498c.308 0 .498-.27.498-.674 0-.328-.143-.665-.498-.665-.371 0-.514.337-.514.671 0 .38.18.668.509.668zm2.331.449c-.298 0-.541-.217-.541-.48v-2.772h.782v3.253h-.241z" fill="#5b5b5b"/><g fill="#f1b974"><path d="m60.951 87.159h21.889v1.871h-21.889z"/><path d="m60.951 100.846h21.889v.702h-21.889z"/><path d="m60.951 96.354h21.889v.702h-21.889z"/><path d="m63.203 99.025c0 .603-.411.921-.913.921-.519 0-.883-.357-.883-.887 0-.556.388-.919.912-.919.537.001.884.367.884.885zm-1.524.029c0 .374.228.709.626.709.402 0 .629-.33.629-.727 0-.348-.204-.711-.626-.711-.419 0-.629.345-.629.729z"/><path d="m63.75 98.17v.555c0 .239.14.374.417.374.137 0 .286-.042.387-.099v-.83h.257v1.748h-.257v-.742h-.006c-.137.07-.3.109-.472.109-.26 0-.58-.099-.58-.526v-.589z"/><path d="m65.49 98.17v.736c0 .277-.006.506-.023.739l.006.003c.099-.182.222-.371.364-.579l.636-.899h.253v1.748h-.239v-.744c0-.283.003-.49.023-.711l-.009-.003c-.096.192-.23.395-.364.589l-.615.869h-.271v-1.748z"/><path d="m68.542 99.861c-.093.041-.28.083-.519.083-.554 0-.97-.312-.97-.885 0-.548.417-.919 1.026-.919.245 0 .399.047.466.078l-.061.185c-.096-.042-.233-.073-.396-.073-.46 0-.767.263-.767.722 0 .428.277.703.755.703.154 0 .312-.029.414-.073z"/><path d="m69.334 98.361h-.598v-.191h1.454v.191h-.6v1.557h-.256z"/><path d="m70.648 98.17v.736c0 .277-.006.506-.023.739l.006.003c.099-.182.222-.371.364-.579l.636-.899h.253v1.748h-.239v-.744c0-.283.003-.49.023-.711l-.009-.003c-.096.192-.23.395-.364.589l-.615.869h-.271v-1.748z"/><path d="m72.7 98.361h-.598v-.191h1.454v.191h-.6v1.557h-.256z"/><path d="m74.792 99.099h-.764v.63h.851v.189h-1.104v-1.748h1.061v.189h-.807v.552h.764v.188z"/><path d="m76.575 98.17v1.748h-.256v-1.559h-.65v.528c0 .379-.018.802-.294.968-.073.042-.187.083-.3.083l-.032-.182c.079-.013.16-.054.207-.093.157-.138.172-.478.172-.758v-.735z"/><path d="m77.269 98.17v.653c.058-.008.175-.013.242-.013.402 0 .758.158.758.545 0 .163-.058.282-.151.373-.16.15-.435.205-.706.205-.178 0-.312-.011-.396-.021v-1.742zm0 1.574c.058.011.123.013.21.013.283 0 .524-.122.524-.389 0-.275-.248-.379-.527-.379-.064 0-.143.005-.207.013z"/></g><path d="m81.11 82.353c-1.82-1.188-1.945-5.347-1.993-8.658-.111-.235-.176-.487-.276-.754-.497-1.323-.447-2.074-.634-4.242 0 0-.709-9.278-.106-16.092.081-.908.148-1.783.318-2.572.695-3.248 1.445-6.75 2.66-7.651-2.064.624-4.974 3.646-4.974 16.14 0 .188.001.378.001.566.072 12.51 1.509 21.267 4.987 23.291.03.018.185.06.185.06z" fill="#a0a0a0"/><path d="m79.117 73.694c-.111-.235-.176-.487-.276-.754-.497-1.323-.447-2.074-.634-4.242 0 0-.709-9.278-.106-16.092.081-.908.148-1.783.318-2.572.267-1.248.543-2.535.85-3.699-.567.854-.997 2.006-1.161 2.982-1.249 7.495-.234 20.756-.234 20.756.229 2.65.166 4.508 1.288 5.53-.024-.651-.036-1.293-.045-1.909z" fill="#e2e2e2"/><path d="m84.934 53.272c-.729-6.66-2.429-8.117-3.807-8.18-1.376-.063-2.676 2.385-2.995 4.225-1.296 7.495-.243 20.756-.243 20.756.323 3.609.082 5.752 3.157 6.307 3.077.556 3.887-3.373 3.887-4.371.001 0 .578-13.457.001-18.737zm-.621 17.602c0 .896-.701 4.432-3.367 3.93-2.666-.497-2.456-2.425-2.737-5.67 0 0-.911-11.924.211-18.662.275-1.656 1.401-3.857 2.595-3.801 1.193.059 2.666 1.368 3.297 7.357.501 4.747.001 16.846.001 16.846z" fill="#bababa"/><path d="m79.119 73.838c-.753-.957-.723-2.536-.91-4.704 0 0-.334-4.381-.349-9.332-.015-2.385.04-4.926.241-7.195.081-.908.148-1.783.318-2.572.254-1.188.517-2.412.806-3.53-.532.833-.934 1.898-1.093 2.813-1.296 7.495-.243 20.756-.243 20.756.232 2.602.173 4.439 1.271 5.473-.02-.581-.033-1.155-.041-1.709z" fill="#a5a5a5"/><path d="m70.211 29.544c-5.511 0-9.407-.499-9.407-.735 0-.014.019-.03.055-.043h-.045s-.255.453-.677 1.265v.01c0 .465 4.689.844 10.474.844 5.626 0 10.215-.357 10.462-.807-.31-.663-.527-1.119-.618-1.312-1.755.495-5.237.778-10.244.778z" fill="#a0a0a0"/><path d="m78.397 24.603v-7.243c0-.215-.188-.389-.421-.389h-14.872c-.233 0-.421.174-.421.389v7.242c0 .116.094.325.094.342 0 .266 3.476.479 7.764.479s7.764-.213 7.764-.479c-.001-.016.092-.225.092-.341z" fill="#f1b974"/><path d="m77.971 24.954c0 .218-3.477.396-7.764.396-4.289 0-7.764-.178-7.764-.396 0-.008-1.644.392-1.309.456 1.325.259 5.054.443 9.447.443 4.31 0 7.979-.179 9.368-.429.384-.069-1.978-.48-1.978-.47z" fill="#e5b27a"/><ellipse cx="70.54" cy="17.034" fill="#f1b974" rx="7.624" ry=".411"/><path d="m80.502 26.144v-.186c0-.076-.025-.145-.066-.201-.004.005-.014.01-.019.016-.101-.21-.282-.378-.507-.469-1.388.296-5.059.507-9.369.507s-7.981-.211-9.369-.507c-.226.092-.407.26-.506.469-.008-.006-.016-.011-.021-.016-.041.057-.067.125-.067.201v2.745c0 .085.047.271.047.291 0 .39 4.439.704 9.916.704s9.916-.314 9.916-.704c0-.021.046-.206.046-.291v-2.554c-.001 0-.001-.003-.001-.005z" fill="#ea9e39"/><path d="m109.135 44.833c-5.265 0-10.291-.05-14.896-.145v4.346c4.59.094 9.622.146 14.896.146 20.559 0 37.4-.783 38.952-1.776l.719-4.228c-.323.123-1.31.149-1.603.236-5.019 1.48-20.279 1.421-38.068 1.421z" fill="#ea9e39"/><path d="m109.135 45.895c-4.883 0-10.002-.048-14.896-.148v2.229c4.679.094 9.73.146 14.896.146 9.69 0 18.977-.179 26.15-.497 8.027-.357 12.033-.857 12.955-1.065l.354-2.179c-6.194.977-24.531 1.514-39.459 1.514z" fill="#f1b974"/><path d="m148.298 46.294c-.921.205-4.985.973-13.013 1.33-7.174.318-16.46.497-26.15.497-5.166 0-10.218-.052-14.896-.146v1.059c4.59.094 9.622.146 14.896.146 20.559 0 37.4-.783 38.952-1.776z" fill="#c48131"/><path d="m151.953 42.222v1.805c0 18.755-19.606 34.598-42.814 34.598-5.209 0-10.234-.801-14.9-2.25v1.96c4.829 1.458 9.832 2.196 14.9 2.196 5.771 0 11.454-.955 16.895-2.844 5.287-1.833 10.075-4.447 14.23-7.771 4.209-3.367 7.527-7.266 9.859-11.592 2.455-4.549 3.699-9.359 3.699-14.297v-1.805z" fill="#e2e2e2"/><path d="m148.533 44.437-.193 2.27h2.788l.126-2.591z" fill="#c9c9c9"/></svg>