<svg enable-background="new 0 0 192 140" height="140" viewBox="0 0 192 140" width="192" xmlns="http://www.w3.org/2000/svg"><path d="m192.127 107.819c0 2.731-2.238 4.946-5 4.946h-180.667c-2.762 0-5-2.215-5-4.946v-101.559c0-2.731 2.238-4.945 5-4.945h180.667c2.762 0 5 2.214 5 4.945z" fill="#ede9e7"/><path d="m118.144 110.797c0 13.076-21.593 23.677-48.229 23.677s-48.229-10.601-48.229-23.677 20.497-29.158 47.133-29.158c26.635 0 49.325 16.082 49.325 29.158z" fill="#fff"/><path d="m60.498 95.186-15.335 5.158c-.465.156-.99.11-1.406-.129-4.675-2.651-8.8-3.297-11.939-1.865-2.868 1.309-4.713 4.419-4.819 8.118-.117 4.144 2.043 9.747 8.459 13.034 5.473 2.805 10.057 3.145 13.717 2.375l2.733-.828c1.39-.558 2.599-1.256 3.629-1.985 7.373-5.223 11.19-16.139 9.3-25.264z" fill="#afafaf"/><path d="m59.914 138.539c-18.133 0-33.343-5.816-40.651-16.444-6.727-9.78-6.24-24.613.294-34.26 5.695-8.403 17.576-11.967 27.395-12.517.109-.005 3.062.877 5.303 1.279 1.345.243 16.803 5.688 16.104 6.303-4.155 3.663-34.368 11.24-34.368 11.24-.927.146-3.325 1.005-4.124 1.37-3.419 1.559-6.656 5.368-6.776 9.593-.128 4.508 1.255 13.136 8.249 16.719 3.785 1.94 10.826 4.111 14.435 4.111 2.02 0 55.768-16.978 71.825-21.791 2.337-.699 72.523 1.681 72.523 1.681l-.302 2.569-41.83 29.874s-87.214.273-88.077.273z" fill="#fff"/><path d="m116.436 104.264-63.351 19.275c-5.832 2.287-12.487 1.721-19.2-1.719-7.571-3.881-10.12-10.51-9.979-15.421.133-4.743 2.553-8.645 6.472-10.431.832-.381 1.834-.709 3.003-.894l23.178-6.406 8.952-2.296c-2.946-4.842-9.917-8.405-16.594-8.953-12.632-1.038-22.667 4.033-27.69 11.512-6.198 9.229-6.017 22.489.409 31.834 7.401 10.763 21.881 16.376 40.79 15.81 8.896-.268 16.23-.377 22.268-.377 18.234 0 60.64-.341 62.709.148 5.091-2.527 34.466-24.939 43.598-30.423-.001.001-68.47-1.968-74.565-1.659z" fill="#c9c9c9"/><path d="m60.611 92.264c.052-.018.104-.011.156-.024l3.321-1.117c-.079-.225-.144-.459-.231-.681-.133-.338-.282-.66-.433-.984l-3.901 1.173c-.075.033-.137.085-.218.105l-1.66.459-2.051.615.016-.055-14.828 4.097c1.243.416 2.57.977 3.992 1.737z" fill="#d3d3d3"/><path d="m66.787 89.569c3.272 9.546 1.305 21.869-7.055 29.684 0 0 59.246-18.4 60.179-18.834 6.306-2.934 9.46-22.385-1.142-30.74-9.79-7.72-26.551-2.953-26.551-2.953l-48.408 8.866c11.116.272 19.969 5.206 22.977 13.977z" fill="#fff"/><path d="m106.415 131.773c2.755 0 6.071.178 10.081.037 3.322-.118 36.436.111 40.753.012l.239-2.435c-4.332.098-37.749-.13-41.078-.011-11.539.405-17.33.021-19.563-2.169-1.249-1.225-1.687-3.42-1.614-8.103l-2.436-.038c-.07 4.61.296 7.873 2.344 9.88 2.033 1.993 5.36 2.827 11.274 2.827z" fill="#fff"/><path d="m92.879 122.627c-.189 0-.338-.152-.333-.334l.12-7.4c.002-.187.158-.34.343-.339l2.214.038c.189 0 .34.163.34.348l-.127 7.387c-.002.196-.16.346-.348.346z" fill="#828181"/><path d="m85.23 70.963c-.162-.006-.625-1.189-.619-1.36l2.732-5.615c.006-.171 1.156-.289 1.322-.286l12.648.212c.162.007 1.317.161 1.313.327l2.547 5.354c-.006.172-.504 1.69-.657 1.683z" fill="#a5733d"/><path d="m84.06 76.809c-.194.004-.339-.176-.337-.395l.087-5.168c.002-.215.155-.39.341-.389l21.439.356c.184.007.326.182.334.394l-.096 5.176c-.002.217-.151.383-.336.378z" fill="#c48131"/><path d="m88.283 81.22c-.188 0-.34-.163-.338-.359l-3.023-2.353c.002-.195-.16-1.769.025-1.768l19.645.327c.194-.002-.019 1.221-.021 1.413l-2.766 2.609c-.003.195-.156.349-.342.349z" fill="#a5733d"/><path d="m87.977 115.024c-.187-.004-.331-.159-.332-.35l.547-33.201c.004-.191.156-.338.344-.334l12.327.201c.192.004.338.163.259.09l-.551 33.196c.078.449-1.195.313-1.38.311z" fill="#f1b974"/><path d="m89.834 86.861.037-2.468 9.776.164-.036 2.466z" fill="#fff"/><g fill="#f1b974"><path d="m83.629 77.141.111-6.63 1.42.026-.107 6.633z"/><path d="m104.483 77.486.109-6.626 1.422.018-.11 6.637z"/><path d="m87.592 77.209.113-6.632 5.44.09-.106 6.637z"/><path d="m95.953 71.366h6.634v5.443h-6.634z" transform="matrix(-.0163 .9999 -.9999 -.0163 174.9691 -23.9583)"/><path d="m85.322 69.43 2.473-4.805 3.393.058-2.122 4.811z"/><path d="m104.46 69.746-2.302-4.879-3.396-.063 1.958 4.884z"/><path d="m90.045 69.511 2.057-4.814 5.748.095 1.889 4.878z"/></g><path d="m89.973 63.782c-.192.002-.337-.183-.332-.409l.01-.497c-.002-.226.16-.411.348-.401l10.027.165c.189-.001.338.19.332.411l-.005.502c-.007.227-.154.405-.346.399z" fill="#5b5b5b"/><path d="m99.133 62.602.377-22.606c.004-.191-.146-.354-.334-.354l-7.566-.131c-.191-.003-.347.155-.348.351l-.368 22.601z" fill="#f1b974"/><path d="m95.822 27.761s-.272-8.874-.265-9.674c.019-.794 2.503-1.474 2.503-1.474l1.519 10.627z" fill="#b5b5b5"/><path d="m94.918 34.971s.151-16.011.271-16.601c.125-.582 1.124-1.152 1.124-1.152l-.289 17.773z" fill="#5b5b5b"/><path d="m98.873 39.629c0-.034.003-.065.006-.101l.076-4.39c.009-.569-.282-1.039-.647-1.044l-5.646-.094c-.37-.007-.67.454-.682 1.018l-.076 4.395c.006.034.006.069.008.103z" fill="#fff"/><path d="m100.092 33.006-2.514-16.399.862-.128 2.512 16.398z" fill="#5b5b5b"/><path d="m94.7 33.41h1.444v6.973h-1.444z" fill="#afafaf" transform="matrix(-.0142 .9999 -.9999 -.0142 133.6703 -57.9916)"/><path d="m97.102 21.564c-.284-.004-.508-.238-.502-.514 0-.281.236-.506.516-.501.277.006.506.237.5.515-.006.283-.24.502-.514.5z" fill="#526752"/><path d="m97.516 26.033c-.287-.001-.507-.234-.496-.519.006-.276.229-.499.513-.494.281.004.507.237.503.515-.009.28-.243.5-.52.498z" fill="#526752"/><ellipse cx="113.323" cy="113.889" fill="#f1b974" rx="4.874" ry=".877"/><ellipse cx="94.077" cy="114.798" fill="#f1b974" rx="6.488" ry="1.048"/><path d="m104.129 55.749s12.683-3.386 20.02 5.081c4.738 5.466 2.254 21.13 2.254 21.13l-2.852.267s-.547-4.296-4.264-3.602c-3.018.564-2.305 6.735-2.305 6.735l-5.834.187s.121-3.67-.688-3.545c-.929.146-4.108-.627-2.189-4.543 1.918-3.916 2.368-11.755-.296-16.52-2.726-4.876-3.846-5.19-3.846-5.19z" fill="#afafaf"/><path d="m112.238 85.513c-.006-.187-.05-1.708-.063-1.879-.084-1.119-.535-2.025-.93-2.421-.271-.273-2.045.428-2.594-.947-.217-.541.01-1.448.533-2.514 2.089-4.265 2.498-12.328-.294-17.324-.95-1.703-1.826-3.06-2.587-4.024.795-.116 1.799-.222 2.934-.26 4.198-.135 10.057.689 14.117 5.375 3.414 3.94 2.773 14.708 2.128 19.472l-1.11.103c-.504-1.638-1.816-3.677-4.458-3.593-.266.009-.542.039-.82.092-2.793.521-3.243 3.875-3.245 5.969 0 .173.037 1.682.041 1.833z" fill="#c9c9c9"/><path d="m119.305 113.173c0 2.967-2.405 5.021-5.371 5.021-2.967 0-5.37-2.055-5.37-5.021l2.102-27.553c0-.179.935-.397 3.385-.374 2.569.024 3.152.062 3.152.374z" fill="#c48131"/><path d="m113.934 117.143c-2.489 0-4.299-1.65-4.32-3.932l2.047-27.522c.368-.046 3.979-.078 4.545-.044l2.049 27.566c-.023 2.281-1.831 3.932-4.321 3.932z" fill="#e2af60"/><circle cx="113.934" cy="90.758" fill="#fff" r=".699"/><circle cx="113.934" cy="96.478" fill="#fff" r=".699"/><circle cx="113.934" cy="102.258" fill="#fff" r=".699"/></svg>