<svg enable-background="new 0 0 192 140" height="140" viewBox="0 0 192 140" width="192" xmlns="http://www.w3.org/2000/svg"><path d="m192 108.666c0 2.762-2.238 5-5 5h-180.667c-2.762 0-5-2.238-5-5v-102.666c0-2.762 2.238-5 5-5h180.667c2.762 0 5 2.238 5 5z" fill="#ede9e7"/><path d="m173.17 116.398c0 .727-.834 1.316-1.863 1.316h-66.689c-1.029 0-1.863-.59-1.863-1.316v-1.053c0-.725.834-1.314 1.863-1.314h66.689c1.029 0 1.863.59 1.863 1.314z" fill="#afafaf"/><ellipse cx="85.154" cy="50.064" fill="#e5b27a" rx="49.645" ry="4.989"/><path d="m139.102 119.119c0 7.949-18.115 14.67-50.017 14.393-37.308-.322-51.459-6.168-51.459-14.115s23.836-14.67 51.459-14.67c27.622 0 50.017 6.443 50.017 14.392z" fill="#b2b2b2"/><path d="m171.43 112.949c0 1.189-.834 2.154-1.863 2.154h-66.689c-1.029 0-1.863-.965-1.863-2.154v-1.725c0-1.189.834-2.152 1.863-2.152h66.689c1.029 0 1.863.963 1.863 2.152z" fill="#b2732f"/><path d="m169.566 108.867h-66.689c-1.029 0-1.863.785-1.863 1.752v.342c0 .967.834 1.75 1.863 1.75h66.689c1.029 0 1.863-.783 1.863-1.75v-.342c.001-.967-.833-1.752-1.863-1.752z" fill="#d88e36"/><ellipse cx="165.955" cy="112.217" fill="#404c61" rx="1.123" ry="1.137"/><path d="m168.084 72.893v1.469c0 .252-.174.455-.389.455h-1.576c-.215 0-.391-.203-.391-.455v-1.469h-2.094v1.469c0 .252-.174.455-.389.455h-1.576c-.215 0-.389-.203-.389-.455v-1.469h-2.096v1.469c0 .252-.174.455-.389.455h-1.576c-.215 0-.389-.203-.389-.455v-1.469h-2.096v1.469c0 .252-.174.455-.389.455h-1.576c-.215 0-.389-.203-.389-.455v-1.469h-2.096v1.469c0 .252-.174.455-.389.455h-1.576c-.215 0-.389-.203-.389-.455v-1.469h-2.096v1.469c0 .252-.174.455-.389.455h-1.576c-.215 0-.389-.203-.389-.455v-1.469h-2.096v1.469c0 .252-.174.455-.389.455h-1.576c-.215 0-.389-.203-.389-.455v-1.469h-2.096v1.469c0 .252-.174.455-.389.455h-1.576c-.215 0-.389-.203-.389-.455v-1.469h-2.096v1.469c0 .252-.174.455-.389.455h-1.576c-.215 0-.389-.203-.389-.455v-1.469h-2.096v1.469c0 .252-.174.455-.389.455h-1.576c-.215 0-.389-.203-.389-.455v-1.469h-2.096v1.469c0 .252-.174.455-.389.455h-1.576c-.215 0-.389-.203-.389-.455v-1.469h-2.096v1.469c0 .252-.174.455-.389.455h-1.576c-.215 0-.389-.203-.389-.455v-1.469h-2.096v1.469c0 .252-.174.455-.389.455h-1.576c-.215 0-.389-.203-.389-.455v-1.469h-2.094v1.469c0 .252-.176.455-.391.455h-1.574c-.217 0-.391-.203-.391-.455v-1.469h-2.094v1.469c0 .252-.176.455-.391.455h-1.574c-.217 0-.391-.203-.391-.455v-1.469h-1.783l1.064 34.9h63.975l3.516-34.9z" fill="#efefef"/><path d="m168.084 74.361c0 .252-.174.455-.389.455h-1.576c-.215 0-.391-.203-.391-.455v-1.469h-2.094v1.469c0 .252-.174.455-.389.455h-1.576c-.215 0-.389-.203-.389-.455v-1.469h-2.096v1.469c0 .252-.174.455-.389.455h-1.576c-.215 0-.389-.203-.389-.455v-1.469h-2.096v1.469c0 .252-.174.455-.389.455h-1.576c-.215 0-.389-.203-.389-.455v-1.469h-2.096v1.469c0 .252-.174.455-.389.455h-1.576c-.215 0-.389-.203-.389-.455v-1.469h-2.096v1.469c0 .252-.174.455-.389.455h-1.576c-.215 0-.389-.203-.389-.455v-1.469h-2.096v1.469c0 .252-.174.455-.389.455h-1.576c-.215 0-.389-.203-.389-.455v-1.469h-.68v34.9h28.342l4.254-34.9h-2.867v1.469z" fill="#f7f7f7"/><path d="m102.607 105.016.108 2.777h62.828l.109-2.777z" fill="#bcbcbc"/><path d="m102.602 105.016h64.019l.123-3.121h-64.265z" fill="#d6d6d6"/><path d="m169.566 109.072h-31.303v6.031h31.303c1.029 0 1.863-.965 1.863-2.154v-1.725c.001-1.189-.833-2.152-1.863-2.152z" fill="#c48131"/><path d="m169.566 108.867h-31.303v3.844h31.303c1.029 0 1.863-.783 1.863-1.75v-.342c.001-.967-.833-1.752-1.863-1.752z" fill="#ea9e39"/><path d="m101.039 110.883c-.016.111-.025.225-.025.342v1.725c0 .172.02.336.051.494h56.064c.625 0 7.146.004 14.27-.105.02-.127.031-.256.031-.389v-1.725c0-.076-.004-.15-.01-.225-7.146-.111-13.693-.117-14.291-.117z" fill="#ce9e6f"/><path d="m171.42 111c-7.146-.111-13.693-.117-14.291-.117h-18.865v2.561h18.865c.625 0 7.146.004 14.27-.105.02-.127.031-.256.031-.389v-1.725c0-.077-.004-.151-.01-.225z" fill="#e5b27a"/><path d="m167.416 101.893-29.041-.012v3.123l28.66.012z" fill="#e2e2e2"/><path d="m167.145 105.016h-28.79v2.777h28.342z" fill="#c9c9c9"/><path d="m85.451 55.495c-26.132 0-47.548-2.182-49.5-4.951h-.145v5.523.003.266h.061c1.285 2.839 22.992 5.098 49.584 5.098 24.801 0 45.352-1.966 49.049-4.533v-.564-1.099-4.274c-3.697 2.566-24.248 4.531-49.049 4.531z" fill="#c48131"/><path d="m86.894 105.08c-12.338 0-22.886-1.557-31.35-4.629-7.011-2.547-12.658-6.146-16.784-10.703-8.626-9.525-7.713-19.637-7.67-20.072h2.013v-.001c-.01.097-.847 9.909 7.191 18.754 8.822 9.707 24.5 14.629 46.6 14.629 21.782 0 36.846-4.877 44.772-14.496 7.516-9.121 5.629-19.353 5.607-19.457h1.986c.088.456 2.082 10.894-6.033 20.742-3.744 4.545-9.068 8.131-15.822 10.66-8.103 3.036-18.369 4.573-30.51 4.573z" fill="#ddd"/><path d="m134.5 66.193h-98.695l1.896 53.03c-.031.164-.05.326-.05.49 0 6.051 21.268 10.957 47.501 10.957 26.2 0 47.446-4.895 47.501-10.934h.105z" fill="#c9c9c9"/><path d="m134.379 69.934.121-3.741h-98.695l.134 3.745c8.123 2.251 27.098 3.83 49.214 3.83 22.128 0 41.111-1.58 49.226-3.834z" fill="#afafaf"/><path d="m135.982 56.878-1.404-2.878c-1.787 2.836-23.168 5.075-49.282 5.075-26.685 0-48.425-2.338-49.37-5.264h-.176l-1.407 2.889-.019.38h.1c1.896 2.912 23.87 5.211 50.7 5.211 26.831 0 48.804-2.299 50.7-5.211z" fill="#ea9e39"/><path d="m136.494 57.627-.133.164c-1.916 2.854-24.121 5.107-51.237 5.107-27.115 0-49.322-2.253-51.238-5.107h-.015l-.313 8.689c1.93 2.875 24.291 5.142 51.596 5.142 27.306 0 49.667-2.267 51.597-5.142z" fill="#f7f7f7"/><path d="m36.734 52.18c4.901-2.656 24.626-4.642 48.218-4.642 23.927 0 43.878 2.043 48.419 4.754.766-.414 1.174-.846 1.174-1.288 0-3.274-22.113-5.928-49.392-5.928-27.278 0-49.391 2.653-49.391 5.928.001.403.336.795.972 1.176z" fill="#c48131"/><path d="m85.124 62.906c-4.045 0-7.979-.051-11.754-.146v2.541c0 1.425 1.046 2.58 2.338 2.58h18.892c1.291 0 2.338-1.155 2.338-2.58v-2.543c-3.794.097-7.748.148-11.814.148z" fill="#afafaf"/><path d="m85.124 62.906c-3.578 0-7.069-.04-10.439-.114v1.775c0 1.266.93 2.291 2.077 2.291h16.784c1.147 0 2.077-1.025 2.077-2.291v-1.776c-3.39.075-6.901.115-10.499.115z" fill="#f7f7f7"/><path d="m86.026 76.67c-17.406 0-32.801-.92-42.177-2.334l1.416 44.699c8.279 3.213 23.48 5.369 40.864 5.369 16.169 0 30.451-1.865 39.029-4.711v-.008l1.299-45.102c-9.478 1.272-24.066 2.087-40.431 2.087z" fill="#f7f7f7"/><path d="m85.767 77.193c-17.406 0-32.801-.92-42.177-2.334l1.416 44.699c8.279 3.213 23.48 5.367 40.864 5.367 16.169 0 30.451-1.863 39.029-4.709v-.006l1.299-45.105c-9.479 1.274-24.067 2.088-40.431 2.088z" fill="#f7f7f7"/><path d="m122.848 118.391.855-29.922c-7.311 1.41-22.373 3.211-37.489 3.211-16.052 0-33.365-2.129-39.086-3.375l.927 29.471c7.75 3.031 21.98 5.063 38.255 5.063 15.137 0 28.506-1.758 36.537-4.441v-.007z" fill="#d3d3d3"/><path d="m67.827 86.201c.059.73.777 1.078 1.601 1.078.603 0 1.09-.082 1.566-.244l.232 1.195c-.58.244-1.288.357-2.053.357-1.925 0-3.027-1.111-3.027-2.887 0-1.438.904-3.027 2.865-3.027 1.832 0 2.528 1.428 2.528 2.83 0 .301-.035.568-.058.697h-3.654zm2.076-1.209c0-.428-.186-1.146-.986-1.146-.754 0-1.056.684-1.102 1.146zm6.278-.972c0-.672.545-1.219 1.217-1.219h.545v3.852c0 .742.023 1.346.047 1.82h-1.53l-.082-.801h-.035c-.221.35-.754.928-1.775.928-1.16 0-1.995-.719-1.995-2.469v-3.33h1.763v3.051c0 .824.267 1.322.893 1.322.487 0 .777-.336.882-.613.046-.105.069-.234.069-.383v-2.158zm3.182.65c0-.836-.011-1.381-.046-1.869h1.508l.07 1.057h.046c.291-.836.975-1.184 1.531-1.184.163 0 .244.012.372.035v1.658c-.14-.023-.278-.045-.476-.045-.65 0-1.09.336-1.206.893-.025.129-.038.262-.035.395v2.979h-.557c-.673 0-1.218-.545-1.218-1.217zm7.02 3.93c-1.659 0-2.935-1.088-2.935-2.922 0-1.832 1.207-3.004 3.039-3.004 1.729 0 2.888 1.195 2.888 2.912 0 2.064-1.473 3.014-2.981 3.014zm.046-1.264c.696 0 1.125-.684 1.125-1.703 0-.836-.326-1.695-1.125-1.695-.835 0-1.16.859-1.16 1.705 0 .963.406 1.693 1.149 1.693zm8.297.986c-.314.15-.905.266-1.578.266-1.833 0-3.004-1.123-3.004-2.898 0-1.646 1.137-3.004 3.248-3.004.463 0 .974.082 1.345.221l-.278 1.311c-.209-.094-.521-.174-.986-.174-.928 0-1.531.66-1.52 1.578 0 1.043.696 1.588 1.555 1.588.418 0 .742-.07 1.009-.186zm3.587.278c-1.659 0-2.935-1.088-2.935-2.922 0-1.832 1.206-3.004 3.038-3.004 1.729 0 2.889 1.195 2.889 2.912 0 2.064-1.473 3.016-2.98 3.016zm.044-1.264c.697 0 1.125-.684 1.125-1.703 0-.836-.324-1.695-1.125-1.695-.834 0-1.159.859-1.159 1.705 0 .963.405 1.693 1.149 1.693zm5.258 1.137c-.672 0-1.217-.545-1.217-1.217v-7.029h1.764v8.246z" fill="#5b5b5b"/><path d="m139.307 66.651c0 .48-.389.869-.871.869-.48 0-.869-.389-.869-.869v-5.569c0-.481.389-.87.869-.87.482 0 .871.389.871.87z" fill="#fff"/><path d="m32.62 66.651c0 .48-.39.869-.87.869-.481 0-.871-.389-.871-.869v-5.569c0-.481.389-.87.871-.87.48 0 .87.389.87.87z" fill="#fff"/><path d="m85.153 44.648c-27.418 0-49.645 2.495-49.645 5.572s22.227 5.571 49.645 5.571c27.419 0 49.646-2.494 49.646-5.571s-22.227-5.572-49.646-5.572zm0 10.23c-26.754 0-48.443-2.106-48.443-4.705s21.688-4.705 48.443-4.705 48.444 2.106 48.444 4.705-21.689 4.705-48.444 4.705z" fill="#ea9e39"/><g fill="#f7f7f7"><path d="m69.34 101.154v4.467h.404l3.45-4.467h1.569l-3.81 4.615c1.658.225 2.301 1.24 2.823 2.6.374 1.029.657 1.957 1.106 2.852h-1.405c-.358-.686-.643-1.582-.911-2.373-.463-1.33-1.105-2.242-2.808-2.242h-.418v4.615h-1.285v-10.066h1.285z"/><path d="m83.307 101.154v10.066h-1.314v-8.977h-3.331v3.047c0 2.182-.09 4.617-1.509 5.572-.373.238-.956.479-1.538.479l-.165-1.047c.404-.074.822-.313 1.062-.537.807-.791.881-2.748.881-4.361v-4.242z"/><path d="m90.775 106.502h-3.914v3.629h4.362v1.09h-5.662v-10.066h5.437v1.09h-4.138v3.182h3.914v1.075z"/><path d="m94.135 101.154v4.242c0 1.598-.029 2.914-.119 4.258l.03.014c.508-1.047 1.135-2.135 1.867-3.332l3.257-5.182h1.299v10.066h-1.225v-4.287c0-1.627.016-2.822.119-4.092l-.045-.016c-.492 1.105-1.18 2.27-1.867 3.391l-3.151 5.004h-1.389v-10.066zm1.644-2.107c.059.463.208.928.911.928.687 0 .851-.434.911-.928h1c-.074.986-.672 1.598-1.941 1.598-1.225 0-1.808-.611-1.882-1.598z"/></g></svg>