<svg enable-background="new 0 0 192 140" height="140" viewBox="0 0 192 140" width="192" xmlns="http://www.w3.org/2000/svg"><path d="m192 106.505c0 2.731-2.238 4.946-5 4.946h-180.667c-2.762 0-5-2.215-5-4.946v-101.56c0-2.731 2.238-4.945 5-4.945h180.667c2.762 0 5 2.214 5 4.945z" fill="#e8e8e8"/><path d="m175.997 66.492c7.466 16.798 1.905 35.578-12.42 41.945-14.325 6.369-31.993-2.09-39.458-18.889-7.469-16.799-1.907-35.58 12.419-41.946 14.323-6.369 31.991 2.09 39.459 18.89z" fill="#afafaf"/><path d="m174.212 67.076c7.468 16.795 1.907 35.576-12.419 41.943-14.325 6.369-31.993-2.088-39.458-18.888-7.467-16.801-1.905-35.58 12.42-41.947 14.324-6.367 31.991 2.089 39.457 18.892z" fill="#d3d3d3"/><ellipse cx="150.976" cy="79.99" fill="#b2b2b2" rx="26.638" ry="20.051" transform="matrix(-.2476 -.9689 .9689 -.2476 110.8523 246.0687)"/><path d="m166.589 70.406c6.451 13.437 3.181 28.516-7.307 33.676-10.486 5.158-24.218-1.555-30.666-14.99-6.451-13.439-3.181-28.516 7.308-33.676 10.485-5.161 24.217 1.551 30.665 14.99z" fill="none" stroke="#f7f7f7" stroke-miterlimit="10" stroke-width="2.1331"/><path d="m163.891 71.768c6.52 13.58 3.213 28.821-7.388 34.035-10.601 5.217-24.478-1.566-30.997-15.15s-3.213-28.821 7.387-34.036c10.598-5.219 24.476 1.566 30.998 15.151z" fill="none" stroke="#f7f7f7" stroke-miterlimit="10" stroke-width="2.1561"/><path d="m161.188 73.127c6.59 13.727 3.248 29.129-7.465 34.4-10.711 5.27-24.738-1.586-31.326-15.313-6.59-13.728-3.248-29.13 7.465-34.399 10.71-5.274 24.738 1.583 31.326 15.312z" fill="none" stroke="#f7f7f7" stroke-miterlimit="10" stroke-width="2.179"/><path d="m158.488 74.486c6.658 13.871 3.281 29.436-7.543 34.764-10.825 5.326-25-1.604-31.657-15.475-6.658-13.873-3.281-29.438 7.545-34.765 10.821-5.326 24.996 1.603 31.655 15.476z" fill="none" stroke="#f7f7f7" stroke-miterlimit="10" stroke-width="2.202"/><path d="m155.788 75.848c6.728 14.016 3.313 29.742-7.623 35.125-10.937 5.381-25.259-1.619-31.985-15.637-6.729-14.018-3.316-29.742 7.623-35.126 10.933-5.381 25.258 1.62 31.985 15.638z" fill="none" stroke="#f7f7f7" stroke-miterlimit="10" stroke-width="2.2249"/><ellipse cx="130.375" cy="87.576" fill="#afafaf" rx="35.917" ry="28.387" transform="matrix(-.4062 -.9138 .9138 -.4062 103.3089 242.2841)"/><ellipse cx="128.55" cy="88.121" fill="#d3d3d3" rx="35.918" ry="28.385" transform="matrix(-.4061 -.9138 .9138 -.4061 100.2298 241.3802)"/><ellipse cx="128.347" cy="88.214" fill="#afafaf" rx="16.525" ry="12.688" transform="matrix(-.3499 -.9368 .9368 -.3499 90.6196 239.3147)"/><ellipse cx="128.346" cy="88.22" fill="#9b9b9b" rx="12.24" ry="9.397" transform="matrix(-.3499 -.9368 .9368 -.3499 90.6127 239.3212)"/><path d="m137.146 84.928c-1.947-5.215-6.265-8.615-10.44-8.639-3.479 2.624-4.699 8.275-2.662 13.727 1.946 5.215 6.263 8.613 10.44 8.641 3.48-2.628 4.7-8.278 2.662-13.729z" fill="#5b5b5b"/><ellipse cx="138.302" cy="64.714" fill="#afafaf" rx="3.279" ry="2.488" transform="matrix(-.21 -.9777 .9777 -.21 104.0702 213.5203)"/><ellipse cx="153.338" cy="88.817" fill="#afafaf" rx="3.277" ry="2.489" transform="matrix(-.2098 -.9777 .9777 -.2098 98.6664 257.3762)"/><ellipse cx="116.901" cy="111.053" fill="#afafaf" rx="3.279" ry="2.488" transform="matrix(-.2095 -.9778 .9778 -.2095 32.8026 248.6254)"/><ellipse cx="114.637" cy="61.963" fill="#afafaf" rx="3.279" ry="2.489" transform="matrix(-.2097 -.9778 .9778 -.2097 78.085 187.043)"/><g stroke-miterlimit="10"><path d="m106.227 76.053c-.363-.58-.799-1.281-1.097-1.816l-.015.011c.172.563.337 1.174.506 1.856l.597 2.401-.323.185-1.688-1.731c-.498-.513-.943-.987-1.324-1.44l-.01.006c.293.537.675 1.266 1.01 1.924l.952 1.88-.405.229-2.197-4.4.543-.307 1.734 1.743c.438.449.816.854 1.15 1.25l.014-.008c-.16-.479-.311-1.013-.469-1.636l-.588-2.399.542-.309 2.632 4.155-.415.233z" fill="#a3a3a3" stroke="#a3a3a3" stroke-width=".4163"/><path d="m108.165 75.656.421 1.537-.439.25-1.308-4.907.515-.291 3.549 3.63-.453.259-1.115-1.143zm.836-1.047-1.021-1.045c-.232-.238-.424-.463-.614-.684l-.009.006c.095.281.188.572.271.868l.38 1.418z" fill="#a3a3a3" stroke="#a3a3a3" stroke-width=".4163"/><path d="m108.991 71.389c.184-.179.475-.385.767-.554.454-.257.809-.317 1.15-.192.273.097.533.334.72.664.319.563.261 1.094-.001 1.442l.012.019c.317-.028.644.188.973.588.447.533.759.9.922 1.027l-.44.25c-.122-.09-.403-.416-.8-.896-.432-.533-.734-.654-1.132-.454l-.399.228 1.051 1.85-.426.24zm1.53 1.703.436-.246c.455-.259.561-.746.281-1.232-.313-.551-.758-.617-1.211-.369-.205.115-.338.227-.391.289z" fill="#a3a3a3" stroke="#a3a3a3" stroke-width=".4163"/><path d="m115.725 70.654c-.361-.581-.799-1.28-1.096-1.814l-.016.006c.173.564.338 1.176.507 1.859l.596 2.402-.323.183-1.688-1.731c-.499-.512-.943-.988-1.325-1.44l-.01.005c.293.538.676 1.268 1.01 1.924l.952 1.883-.404.229-2.197-4.399.543-.309 1.734 1.745c.436.447.814.854 1.149 1.248l.015-.008c-.16-.479-.313-1.014-.47-1.635l-.589-2.399.544-.309 2.632 4.154-.415.235z" fill="#a3a3a3" stroke="#a3a3a3" stroke-width=".4163"/><path d="m119.52 68.097c.836 1.468.59 2.639-.25 3.117-.871.495-1.979-.032-2.713-1.325-.771-1.354-.625-2.611.256-3.111.897-.511 1.987.05 2.707 1.319zm-2.517 1.52c.519.914 1.364 1.514 2.034 1.133.674-.382.6-1.404.048-2.374-.481-.849-1.329-1.54-2.037-1.139-.705.402-.577 1.445-.045 2.38z" fill="#a3a3a3" stroke="#a3a3a3" stroke-width=".4163"/><path d="m121.848 69.655-3.263-3.794.449-.256 1.618 1.938c.4.477.791.959 1.084 1.337l.01-.006c-.188-.455-.373-1.02-.573-1.636l-.784-2.403.444-.251 1.633 1.937c.38.456.757.912 1.062 1.334l.01-.006c-.198-.508-.375-1.035-.574-1.625l-.791-2.401.436-.247 1.494 4.8-.444.251-1.679-1.986c-.414-.486-.719-.865-1.008-1.271l-.011.006c.183.457.349.917.538 1.537l.795 2.49z" fill="#a3a3a3" stroke="#a3a3a3" stroke-width=".4163"/><path d="m126.012 64.641-1.281.729.875 1.538 1.428-.81.263.461-1.853 1.054-2.426-4.271 1.777-1.011.264.464-1.354.77.768 1.349 1.279-.729z" fill="#a3a3a3" stroke="#a3a3a3" stroke-width=".4163"/><path d="m125.421 61.977.425-.242 2.163 3.807 1.408-.798.263.461-1.832 1.042z" fill="#a3a3a3" stroke="#a3a3a3" stroke-width=".4163"/><path d="m127.759 60.723c.229-.198.517-.412.854-.602.611-.348 1.15-.412 1.638-.228.49.182.942.579 1.335 1.271.396.697.555 1.359.469 1.929-.08.573-.467 1.078-1.105 1.442-.305.172-.568.297-.803.388zm2.572 3.533c.121-.036.28-.117.446-.213.908-.516 1.027-1.455.373-2.607-.567-1.012-1.371-1.4-2.271-.889-.219.123-.371.243-.465.338z" fill="#a3a3a3" stroke="#a3a3a3" stroke-width=".4163"/></g><path d="m109.645 116.508h-.619v.95c-3.219-4.774-18.611-8.394-37.115-8.394-18.506 0-33.897 3.617-37.115 8.394v-.95h-.621v2.774l.002.005c0 .01-.002.02-.002.027 0 5.662 16.896 10.252 37.736 10.252s37.734-4.59 37.734-10.252c0-.01-.002-.021-.002-.03l.002-.002z" fill="#999"/><path d="m109.333 115.241h-.642v.92c-3.319-4.629-19.199-8.138-38.292-8.138-19.092 0-34.972 3.509-38.292 8.138v-.92h-.64v2.688l.001.006c0 .01-.001.02-.001.027 0 5.488 17.43 9.938 38.932 9.938s38.934-4.448 38.934-9.938c0-.01-.002-.021-.002-.031l.002-.002z" fill="#afafaf"/><ellipse cx="70.4" cy="114.93" fill="#f7f7f7" rx="38.933" ry="10.735"/><path d="m101.268 114.829s-21.647 6.368-62.487 0c1.741-24.411 0-51.316 0-51.316h62.487z" fill="#9b6429"/><path d="m70.984 78.341c-8.668 0-16.831-.575-22.989-1.62-7.671-1.301-10.943-2.998-10.943-5.682 0-2.356 2.129-2.881 3.032-3.243l2.567 1.456c-1.873.486-2.013 1.457-.901 2.152.966.516 2.855 1.058 8.313 1.873 5.766.863 13.196 1.338 20.921 1.338 7.726 0 15.155-.475 20.923-1.338 5.454-.815 7.811-1.723 8.778-2.24.393-.675-.352-1.07-1.621-1.438l.158-3.088c2.445.711 5.695 1.953 5.695 4.527 0 2.683-3.273 4.381-10.945 5.683-6.155 1.045-14.319 1.62-22.988 1.62z" fill="#f1b974"/><path d="m70.984 84.316c-8.668 0-16.831-.572-22.989-1.617-7.671-1.303-10.944-3.002-10.944-5.684 0-2.355 2.13-2.879 3.033-3.244l2.567 1.459c-1.873.483-2.013 1.455-.901 2.149.966.519 2.855 1.06 8.313 1.874 5.766.862 13.196 1.339 20.921 1.339 7.726 0 15.155-.477 20.923-1.339 5.454-.813 7.811-1.721 8.778-2.238.393-.677-.352-1.07-1.621-1.439l.158-3.086c2.445.711 5.695 1.951 5.695 4.525 0 2.682-3.273 4.381-10.945 5.684-6.155 1.045-14.319 1.617-22.988 1.617z" fill="#f1b974"/><path d="m70.984 90.296c-8.668 0-16.831-.575-22.989-1.62-7.671-1.301-10.943-2.999-10.943-5.682 0-2.355 2.129-2.881 3.032-3.245l2.567 1.458c-1.873.486-2.013 1.457-.901 2.15.966.518 2.855 1.06 8.313 1.875 5.766.863 13.196 1.338 20.921 1.338 7.726 0 15.155-.475 20.923-1.338 5.454-.813 7.811-1.724 8.776-2.24.395-.676-.35-1.07-1.619-1.438l.158-3.089c2.445.711 5.695 1.953 5.695 4.527 0 2.683-3.273 4.381-10.945 5.682-6.155 1.047-14.319 1.622-22.988 1.622z" fill="#f1b974"/><path d="m70.984 96.271c-8.668 0-16.831-.574-22.989-1.617-7.671-1.303-10.944-3.002-10.944-5.684 0-2.355 2.13-2.88 3.033-3.244l2.567 1.459c-1.873.485-2.013 1.455-.901 2.148.966.52 2.855 1.061 8.313 1.875 5.766.861 13.196 1.337 20.921 1.337 7.726 0 15.155-.476 20.923-1.337 5.454-.814 7.811-1.721 8.778-2.241.393-.675-.352-1.067-1.621-1.438l.158-3.086c2.445.709 5.695 1.953 5.695 4.525 0 2.682-3.273 4.381-10.945 5.684-6.155 1.045-14.319 1.619-22.988 1.619z" fill="#f1b974"/><path d="m70.984 102.251c-8.668 0-16.831-.575-22.989-1.62-7.671-1.301-10.944-2.999-10.944-5.682 0-2.355 2.13-2.881 3.033-3.243l2.567 1.456c-1.873.486-2.013 1.457-.901 2.152.966.516 2.855 1.058 8.313 1.873 5.766.862 13.196 1.338 20.921 1.338 7.726 0 15.155-.476 20.923-1.338 5.454-.813 7.811-1.724 8.778-2.24.393-.676-.352-1.07-1.621-1.438l.158-3.088c2.445.711 5.695 1.953 5.695 4.527 0 2.683-3.273 4.381-10.945 5.682-6.155 1.046-14.319 1.621-22.988 1.621z" fill="#f1b974"/><path d="m70.984 108.227c-8.668 0-16.831-.574-22.989-1.617-7.671-1.303-10.943-3.002-10.943-5.684 0-2.355 2.129-2.879 3.032-3.244l2.567 1.457c-1.873.486-2.013 1.459-.901 2.151.966.519 2.855 1.06 8.313 1.875 5.766.862 13.196 1.338 20.921 1.338 7.726 0 15.155-.476 20.923-1.338 5.454-.815 7.811-1.724 8.776-2.239.395-.678-.35-1.07-1.619-1.439l.158-3.086c2.445.709 5.695 1.951 5.695 4.525 0 2.682-3.273 4.381-10.945 5.684-6.155 1.042-14.319 1.617-22.988 1.617z" fill="#f1b974"/><path d="m70.984 114.205c-8.668 0-16.831-.574-22.989-1.619-7.671-1.303-10.944-3.001-10.944-5.682 0-2.357 2.13-2.879 3.033-3.246l2.567 1.458c-1.873.485-2.013 1.458-.901 2.151.966.518 2.855 1.061 8.313 1.875 5.766.861 13.196 1.338 20.921 1.338 7.726 0 15.155-.477 20.923-1.338 5.454-.814 7.811-1.724 8.778-2.24.393-.676-.352-1.07-1.621-1.438l.158-3.087c2.445.711 5.695 1.953 5.695 4.527 0 2.681-3.273 4.379-10.945 5.682-6.155 1.045-14.319 1.619-22.988 1.619z" fill="#f1b974"/><path d="m70.984 120.182c-8.668 0-16.831-.574-22.989-1.617-7.671-1.303-10.943-3.002-10.943-5.684 0-2.355 2.129-2.879 3.032-3.244l2.567 1.457c-1.873.486-2.013 1.457-.901 2.151.966.519 2.855 1.06 8.313 1.875 5.766.862 13.196 1.338 20.921 1.338 7.726 0 15.155-.476 20.923-1.338 5.454-.815 7.811-1.722 8.778-2.239.393-.676-.352-1.07-1.621-1.439l.158-3.086c2.445.709 5.695 1.951 5.695 4.525 0 2.682-3.273 4.381-10.945 5.684-6.155 1.042-14.319 1.617-22.988 1.617z" fill="#f1b974"/><path d="m70.984 72.424c-8.668 0-16.831-.576-22.989-1.621-7.671-1.3-10.943-3.001-10.943-5.684 0-2.354 2.748-3.465 3.651-3.83l1.396 3.454c-.345.139-.611.265-.816.376.968.516 3.323 1.425 8.781 2.24 5.766.861 13.196 1.336 20.921 1.336 7.726 0 15.155-.475 20.923-1.336 5.455-.815 7.811-1.723 8.777-2.24-.459-.245-1.23-.578-2.5-.948l1.039-3.576c2.444.71 5.694 1.952 5.694 4.524 0 2.683-3.272 4.384-10.945 5.684-6.156 1.045-14.32 1.621-22.989 1.621z" fill="#ea9e39"/><path d="m105.504 63.758h-.566v.65c-2.938-3.27-16.996-5.745-33.896-5.745s-30.957 2.476-33.896 5.745v-.65h-.566v1.899l.001.003c0 .008-.001.014-.001.021 0 3.875 15.429 7.018 34.462 7.018s34.462-3.143 34.462-7.018c0-.008-.002-.016-.002-.023l.002-.001z" fill="#9b6429" opacity=".7"/><path d="m109.137 59.158h-.641v.78c-3.318-3.923-19.2-6.896-38.292-6.896s-34.973 2.974-38.293 6.896v-.78h-.64v2.278l.001.005c0 .008-.001.018-.001.023 0 4.652 17.431 8.424 38.933 8.424s38.933-3.771 38.933-8.424c0-.008-.002-.018-.002-.026l.002-.002z" fill="#afafaf"/><ellipse cx="70.204" cy="59.287" fill="#f7f7f7" rx="38.933" ry="8.424"/><ellipse cx="70.204" cy="58.012" fill="#afafaf" rx="17.515" ry="3.331"/><ellipse cx="43.368" cy="55.013" fill="#afafaf" rx="3.756" ry=".808"/><ellipse cx="90.308" cy="53.139" fill="#afafaf" rx="3.756" ry=".807"/><ellipse cx="44.929" cy="62.321" fill="#afafaf" rx="4.141" ry="1.065"/><ellipse cx="99.57" cy="58.008" fill="#afafaf" rx="3.986" ry="1.064"/><ellipse cx="64.583" cy="51.998" fill="#afafaf" rx="4.354" ry=".758"/><path d="m63.957 123.574c-2.55-1.271-4.815-2.586-6.833-3.916-2.295-.186-4.466-.418-6.477-.692 2.608 2.138 5.742 4.276 9.504 6.322 2.697.202 5.512.327 8.41.362-1.557-.632-3.094-1.323-4.604-2.076z" fill="#999"/><path d="m68.562 125.65c-2.898-.035-5.713-.16-8.41-.362.757.411 1.535.819 2.344 1.22.914.457 1.837.893 2.769 1.307 1.681.058 3.396.086 5.136.086 1.476 0 2.93-.021 4.362-.062-2.105-.628-4.172-1.359-6.201-2.189z" fill="#8c8b8b"/><path d="m57.124 119.658c.003.001.007.003.01.005-7.798-5.14-10.932-8.017-13.024-11.97-2.835-5.351-2.916-4.123-2.915-4.161l-1.64-.046-.944.641c-.006.188-.608.376 1.058 3.43 1.88 3.445 5.476 6.904 10.979 11.409 2.01.274 4.181.507 6.476.692z" fill="#9b6429"/><path d="m92.838 133.078c-7.507 0-17.059-1.521-27.458-6.867-10.889-5.596-22.995-15.376-26.988-21.802-4.027-6.483-2.248-14.753.872-16.95l1.919 2.723c-1.379.973-3.241 7.193.039 12.471 3.247 5.228 13.99 14.59 25.68 20.597 13.223 6.796 24.951 7.058 32.463 6.084 8.316-1.081 13.736-3.901 14.387-4.376l1.996 2.667c-1.256.942-7.346 3.877-15.854 4.997-2.07.271-4.439.456-7.056.456z" fill="#f1b974"/><path d="m115.343 125.943c.5.787.655 1.58.345 1.771-.311.188-.967-.297-1.467-1.085-.5-.787-.654-1.58-.345-1.77.312-.19.967.295 1.467 1.084z" fill="#9b6429"/><path d="m164.07 65.594s32.046 32.26 5.998 63.029c-10.713 12.654-30.959 5.926-30.959 5.926" fill="none" stroke="#f7f7f7" stroke-miterlimit="10" stroke-width="2.202"/></svg>