<svg enable-background="new 0 0 192 140" height="140" viewBox="0 0 192 140" width="192" xmlns="http://www.w3.org/2000/svg"><path d="m147.875 82.221-107.344 17.911v1.3l107.344-18.625z" fill="#e2e2e2"/><path d="m192 107.415c0 2.731-2.238 4.946-5 4.946h-180.667c-2.762 0-5-2.215-5-4.946v-101.56c0-2.731 2.238-4.945 5-4.945h180.667c2.762 0 5 2.214 5 4.945z" fill="#e8e8e8"/><path d="m147.709 106.725s0-34.549 0-37.126c-4.189-.726-3.423-4.537-3.423-4.537 3.538-1.476 3.349-4.768 3.259-7.038-.133-3.369-4.016-5.62-4.479-5.896-.463-.275-.034-.945-.035-.945l.804-.152v-1.58h-7.685l-108.733 9.166-.052 8.908 6.39 1.773.111 56.625-6.5-2.09.025 5.412 12.975 5.228z" fill="#e1e1e1"/><path d="m36.942 80.314s107.041-15.166 107.344-15.254c.671-.197 1.472-.873 1.472-.873l-107.267 14.836z" fill="#c9c9c9"/><path d="m147.709 106.725-107.344 27.748v-47.959l107.344-16.916z" fill="#e1e1e1"/><path d="m27.417 58.617 7.99 1.482v2.291l-.102.599c.001 0-.148.877-.148.877s4.229 1.654 5.028 7.015c1.106 7.412-3.243 9.434-3.243 9.434s-.766 5.392 3.423 6.199v47.959l-12.975-5.227-.025-5.412 4.988 1.527-.11-56.627-4.877-1.209z" fill="#c48131"/><path d="m35.157 63.866 107.909-11.739-.035-.945-107.874 11.209.148.598z" fill="#c9c9c9"/><path d="m35.407 60.1 108.428-10.65v1.579l-108.428 11.362z" fill="#f7f7f7"/><path d="m147.709 69.598-107.344 16.916v1.297l107.344-17.628z" fill="#fff"/><path d="m35.407 60.1 108.428-10.65h-7.685l-108.733 9.167z" fill="#fff"/><path d="m156.975 108.986-105.482 26.696v-43.643l105.482-17.521z" fill="#e2e2e2"/><path d="m158.637 109.318-105.483 26.696v-43.643l105.483-17.521z" fill="#f9d8b7"/><path d="m51.493 135.682 1.661.332v-43.643l-1.661-.332z" fill="#d18f46"/><path d="m53.154 101.799v-9.428l105.483-17.521v8.347z" fill="#f9d8b7"/><path d="m48.686 92.322 7.559.36v1.523h1.575v-2.491l-9.134-.831z" fill="#d18f46"/><path d="m160.657 74.58-103.003 17.217v2.408l103.003-17.494z" fill="#db9b5a"/><path d="m153.156 73.912 7.473.68-102.809 17.122-9.218-.845z" fill="#f9d8b7"/><path d="m158.637 105-105.483 25.034v-29.026l105.483-18.851z" fill="#f1b974"/><path d="m168.102 112.188-95.797 27.164s-5.348.156-5.35-2.084c-.011-9.772-.037-36.117.004-37.552.05-1.765-1.554-1.604-1.554-1.604l95.798-17.992s1.545-.006 1.575 1.439c.023 1.191.009 21.517.002 28.861-.003 1.569 5.322 1.768 5.322 1.768z" fill="#e2e2e2"/><path d="m162.779 81.814c-.002-.117-.002-.207-.002-.256-.031-1.445-1.576-1.439-1.576-1.439l-95.649 17.967.012.023c.404.014 1.435.186 1.394 1.605-.001.051-.003.135-.004.241z" fill="#fff"/><path d="m163.318 111.197-.197-.273-96.113 26.342-.054.018c.026 2.225 5.349 2.068 5.349 2.068l95.798-27.164c.001 0-4.316-.312-4.783-.991z" fill="#f4f4f4"/><path d="m69.492 139.123c1.381.27 2.811.229 2.811.229l95.798-27.164s-.939-.035-2.027-.19z" fill="#fff"/><path d="m72.303 139.352s-5.348.156-5.35-2.084c-.011-9.772-.037-36.117.004-37.552.05-1.765-1.554-1.604-1.554-1.604l-.03-.004.087.646c.007-.001.022-.001.044-.001.095 0 .417.017.607.211.142.146.208.394.199.733-.041 1.416-.017 26.744-.004 37.568.002 2.467 4.04 2.732 5.775 2.732.153 0 .24-.003.24-.003l.076-.001 95.871-27.186-.07-.617z" fill="#afafaf"/><path d="m162.363 80.555-95.557 18.3c.101.218.162.498.151.86-.001.05-.003.134-.004.241l95.826-18.143c-.002-.117-.002-.207-.002-.256-.009-.473-.185-.789-.414-1.002z" fill="#efefef"/><path d="m72.519 139.961 95.751-27.148-.071-.62-95.68 27.097z" fill="#c9c9c9"/><path d="m164.339 111.654c-.466-.129-.709-.26-1.021-.457l-.197-.273-96.113 26.342-.054.018c.005.363.479.92.72 1.167.243.246 96.81-26.758 96.665-26.797z" fill="#efefef"/></svg>