<svg enable-background="new 0 0 192 140" height="140" viewBox="0 0 192 140" width="192" xmlns="http://www.w3.org/2000/svg"><path d="m192.127 107.818c0 2.731-2.238 4.947-5 4.947h-180.667c-2.762 0-5-2.216-5-4.947v-101.558c0-2.731 2.238-4.945 5-4.945h180.667c2.762 0 5 2.214 5 4.945z" fill="#e8e8e8"/><path d="m118.145 110.797c0 13.076-21.594 23.678-48.229 23.678-26.636 0-48.229-10.602-48.229-23.678s20.497-29.158 47.133-29.158c26.634 0 49.325 16.082 49.325 29.158z" fill="#fff"/><path d="m60.498 95.186-15.335 5.158c-.465.156-.99.11-1.406-.129-4.675-2.65-8.8-3.297-11.939-1.865-2.868 1.31-4.713 4.42-4.819 8.118-.117 4.144 2.043 9.747 8.459 13.034 5.473 2.805 10.057 3.145 13.717 2.375l2.733-.828c1.39-.558 2.599-1.256 3.629-1.984 7.373-5.224 11.19-16.14 9.3-25.265z" fill="#afafaf"/><path d="m59.914 138.539c-18.133 0-33.343-5.816-40.651-16.443-6.727-9.781-6.24-24.613.294-34.261 5.695-8.403 17.576-11.967 27.395-12.517.109-.006 3.062.877 5.303 1.279 1.345.243 16.803 5.688 16.104 6.303-4.155 3.662-34.368 11.24-34.368 11.24-.927.146-3.325 1.004-4.124 1.369-3.419 1.559-6.656 5.368-6.776 9.594-.128 4.508 1.255 13.136 8.249 16.719 3.785 1.939 10.826 4.111 14.435 4.111 2.02 0 55.768-16.979 71.825-21.791 2.338-.699 72.523 1.681 72.523 1.681l-.303 2.569-41.829 29.873c0 .001-87.214.274-88.077.274z" fill="#fff"/><path d="m116.436 104.264-63.351 19.275c-5.832 2.287-12.487 1.721-19.2-1.719-7.571-3.881-10.12-10.51-9.979-15.422.133-4.742 2.553-8.645 6.472-10.431.832-.381 1.834-.709 3.003-.894l23.178-6.406 8.952-2.296c-2.946-4.843-9.917-8.405-16.594-8.953-12.632-1.038-22.667 4.033-27.69 11.513-6.198 9.229-6.017 22.488.409 31.834 7.401 10.762 21.881 16.375 40.79 15.81 8.896-.269 16.23-.377 22.268-.377 18.234 0 60.64-.341 62.708.147 5.092-2.527 34.467-24.938 43.599-30.423-.001.002-68.47-1.967-74.565-1.658z" fill="#c9c9c9"/><path d="m60.611 92.264c.052-.018.104-.011.156-.023l3.321-1.117c-.079-.225-.144-.459-.231-.682-.133-.338-.282-.659-.433-.983l-3.901 1.173c-.075.033-.137.085-.218.105l-1.66.459-2.051.615.016-.056-14.828 4.097c1.243.416 2.57.978 3.992 1.737z" fill="#d3d3d3"/><path d="m66.787 89.568c3.272 9.547 1.305 21.869-7.055 29.685 0 0 59.247-18.399 60.179-18.834 6.306-2.935 9.46-22.385-1.142-30.74-9.791-7.72-26.552-2.953-26.552-2.953l-48.407 8.866c11.116.272 19.969 5.206 22.977 13.976z" fill="#fff"/><path d="m106.415 131.773c2.755 0 6.071.178 10.081.037 3.322-.119 36.436.11 40.753.012l.239-2.436c-4.332.098-37.75-.13-41.078-.011-11.539.405-17.33.021-19.563-2.169-1.25-1.225-1.688-3.42-1.615-8.104l-2.436-.037c-.07 4.609.296 7.873 2.344 9.879 2.034 1.995 5.361 2.829 11.275 2.829z" fill="#fff"/><path d="m92.879 122.627c-.189 0-.338-.152-.333-.334l.12-7.4c.002-.187.158-.34.343-.338l2.214.037c.189 0 .34.163.34.348l-.127 7.388c-.002.196-.16.346-.348.346z" fill="#828181"/><path d="m85.23 70.963c-.162-.006-.625-1.189-.619-1.36l2.732-5.615c.006-.171 1.156-.289 1.322-.286l12.647.212c.162.007 1.317.161 1.313.327l2.547 5.354c-.006.172-.504 1.69-.657 1.682z" fill="#a5733d"/><path d="m84.06 76.809c-.194.004-.339-.176-.337-.395l.087-5.168c.002-.215.155-.391.341-.389l21.439.355c.184.008.326.182.334.395l-.096 5.176c-.002.217-.15.383-.336.378z" fill="#c48131"/><path d="m88.283 81.221c-.188 0-.34-.164-.338-.359l-3.023-2.354c.002-.195-.16-1.769.025-1.768l19.645.326c.194-.002-.02 1.222-.021 1.414l-2.766 2.608c-.002.195-.156.349-.342.349z" fill="#a5733d"/><path d="m87.977 115.023c-.187-.004-.331-.158-.332-.35l.547-33.201c.004-.19.156-.338.344-.334l12.327.201c.191.004.338.163.259.09l-.552 33.196c.078.449-1.194.313-1.379.312z" fill="#f1b974"/><path d="m89.834 86.861.037-2.468 9.775.164-.035 2.466z" fill="#fff"/><g fill="#f1b974"><path d="m83.629 77.141.111-6.63 1.42.026-.107 6.633z"/><path d="m104.482 77.486.11-6.627 1.422.019-.11 6.638z"/><path d="m87.592 77.209.113-6.632 5.44.09-.106 6.638z"/><path d="m95.954 71.373h6.634v5.443h-6.634z" transform="matrix(.0165 -.9999 .9999 .0165 23.5503 172.1303)"/><path d="m85.322 69.43 2.473-4.805 3.393.058-2.122 4.811z"/><path d="m104.46 69.746-2.302-4.879-3.396-.063 1.959 4.884z"/><path d="m90.045 69.511 2.057-4.814 5.748.095 1.888 4.878z"/></g><path d="m89.973 63.782c-.192.002-.337-.183-.332-.409l.01-.497c-.002-.226.16-.411.348-.401l10.026.165c.189-.001.338.19.332.411l-.004.502c-.008.227-.154.405-.347.399z" fill="#5b5b5b"/><path d="m99.133 62.602.377-22.606c.004-.191-.146-.354-.334-.354l-7.566-.131c-.191-.003-.347.155-.348.351l-.368 22.601z" fill="#f1b974"/><path d="m95.822 27.761s-.272-8.874-.265-9.674c.019-.794 2.503-1.474 2.503-1.474l1.519 10.627z" fill="#b5b5b5"/><path d="m94.918 34.971s.151-16.011.271-16.601c.125-.582 1.124-1.152 1.124-1.152l-.289 17.773z" fill="#5b5b5b"/><path d="m98.873 39.629c0-.034.003-.065.006-.101l.076-4.39c.009-.569-.282-1.039-.646-1.044l-5.647-.094c-.37-.007-.67.454-.682 1.018l-.076 4.395c.006.034.006.069.008.103z" fill="#fff"/><path d="m100.092 33.006-2.514-16.399.861-.128 2.513 16.398z" fill="#5b5b5b"/><path d="m94.701 33.411h1.444v6.973h-1.444z" fill="#afafaf" transform="matrix(.0142 -.9999 .9999 .0142 57.1741 131.7859)"/><path d="m97.102 21.564c-.283-.004-.508-.238-.502-.514 0-.281.236-.506.517-.501.276.006.506.237.5.515-.008.283-.241.502-.515.5z" fill="#526752"/><path d="m97.516 26.033c-.287-.001-.507-.234-.496-.519.006-.276.229-.499.514-.494.281.004.507.237.503.515-.01.28-.244.5-.521.498z" fill="#526752"/><ellipse cx="113.322" cy="113.889" fill="#f1b974" rx="4.875" ry=".877"/><ellipse cx="94.077" cy="114.798" fill="#f1b974" rx="6.487" ry="1.048"/><path d="m104.129 55.749s12.684-3.386 20.02 5.081c4.738 5.466 2.254 21.13 2.254 21.13l-2.852.267s-.547-4.295-4.264-3.602c-3.018.564-2.305 6.734-2.305 6.734l-5.834.188s.121-3.67-.688-3.545c-.929.146-4.108-.627-2.188-4.543 1.918-3.916 2.367-11.755-.297-16.52-2.726-4.876-3.846-5.19-3.846-5.19z" fill="#afafaf"/><path d="m112.238 85.514c-.006-.188-.051-1.709-.063-1.88-.084-1.118-.534-2.024-.93-2.421-.271-.273-2.045.428-2.595-.947-.217-.541.011-1.447.533-2.514 2.09-4.266 2.498-12.328-.293-17.324-.951-1.703-1.826-3.06-2.588-4.024.795-.116 1.799-.222 2.934-.26 4.199-.135 10.058.689 14.117 5.375 3.414 3.94 2.773 14.708 2.129 19.472l-1.11.103c-.504-1.638-1.815-3.677-4.458-3.593-.266.009-.542.039-.82.092-2.793.521-3.242 3.875-3.244 5.97 0 .172.037 1.682.041 1.832z" fill="#c9c9c9"/><path d="m119.305 113.173c0 2.968-2.404 5.021-5.371 5.021-2.967 0-5.369-2.055-5.369-5.021l2.102-27.553c0-.179.936-.397 3.385-.374 2.569.023 3.152.063 3.152.374z" fill="#c48131"/><path d="m113.934 117.143c-2.488 0-4.299-1.649-4.32-3.932l2.048-27.521c.368-.047 3.979-.078 4.545-.045l2.049 27.566c-.024 2.281-1.832 3.932-4.322 3.932z" fill="#e2af60"/><circle cx="113.934" cy="90.758" fill="#fff" r=".699"/><circle cx="113.934" cy="96.478" fill="#fff" r=".699"/><circle cx="113.934" cy="102.258" fill="#fff" r=".699"/></svg>