<?xml version="1.0" encoding="utf-8"?>
<!-- Generator: Adobe Illustrator 24.1.2, SVG Export Plug-In . SVG Version: 6.00 Build 0)  -->
<svg version="1.1" id="Layer_1" xmlns="http://www.w3.org/2000/svg" xmlns:xlink="http://www.w3.org/1999/xlink" x="0px" y="0px"
	 viewBox="0 0 86 98" style="enable-background:new 0 0 86 98;" xml:space="preserve">
<style type="text/css">
	.st0{fill:none;stroke:#FFFFFF;stroke-width:1.8;stroke-linecap:round;stroke-linejoin:round;stroke-miterlimit:10;}
</style>
<line class="st0" x1="42.8" y1="41.3" x2="42.9" y2="64.8"/>
<path class="st0" d="M52.7,43.1c7,1.7,10.8,6.2,10.7,10.7c-0.1,6.6-10.7,15.6-29.5,17.6c-5.5,0.6-15.3,1-15.3,1"/>
<path class="st0" d="M52.5,39.6c12.7,2.2,20.6,7.9,20.2,17.8c-0.5,10.3-11.1,24-39.5,26.8c-10.9,1.1-17.4,1.2-17.4,1.2"/>
<path class="st0" d="M42.8,56.5c-3.7-0.7-7.4-3.3-9.5-5.4c-5.4-5.6-0.2-9.9,0.4-11.5c0.6-1.8,0-3.8-0.8-5.5c-0.9-1.7-2-3.3-2.4-5.2
	c-0.4-1.9,0-4.1,1.7-5.1c0.8-0.5,1.7-0.6,2.5-1c2.1-1.3,2-4.3,3.4-6.2c1.2-1.7,3.7-2.3,5.7-1.7c2,0.6,3.6,2.4,4.1,4.5
	c0.5,1.6,0.4,3.4,0.6,5.1c0.2,1.4,0.7,3.1,1.8,4c1.1,0.9,2.2,1.1,3,2.4c1.3,2.2,1.3,5.3-0.3,7.4c-0.4,0.5-0.9,1-1,1.7
	c-0.3,1.1,0.5,2.2,0.8,3.3c0.6,1.8,1.2,4.3,0.4,5.9s-1.9,3.3-3.4,4.4C45.9,56.4,42.4,56.7,42.8,56.5"/>
</svg>
