<?xml version="1.0" encoding="utf-8"?>
<!-- Generator: Adobe Illustrator 24.1.2, SVG Export Plug-In . SVG Version: 6.00 Build 0)  -->
<svg version="1.1" id="Layer_1" xmlns="http://www.w3.org/2000/svg" xmlns:xlink="http://www.w3.org/1999/xlink" x="0px" y="0px"
	 viewBox="0 0 86 98" style="enable-background:new 0 0 86 98;" xml:space="preserve">
<style type="text/css">
	.st0{fill:none;stroke:#FFFFFF;stroke-width:1.8;stroke-linecap:round;stroke-linejoin:round;stroke-miterlimit:10;}
</style>
<g>
	<g>
		<polyline class="st0" points="41.3,17.1 48.4,17.1 46.1,19.3 48.4,21.1 41.3,21.1 		"/>
		<line class="st0" x1="41.3" y1="26.1" x2="41.3" y2="17.1"/>
	</g>
	<polyline class="st0" points="28.3,43.8 28.3,83.7 33.3,83.7 33.3,69.5 	"/>
	<polyline class="st0" points="54.4,43.8 54.4,83.7 49.4,83.7 49.4,69.5 	"/>
	<line class="st0" x1="29.1" y1="55.1" x2="53.1" y2="55.1"/>
	<line class="st0" x1="53.8" y1="69.5" x2="29.4" y2="69.5"/>
	<path class="st0" d="M54.5,60.2c0.7,0,17.6,17.9,17.6,17.9l4.1,0.1c3.2,0.1,5.1,1.4,5.1,5.4c0,0-12.6,0-12.6,0L54.5,69.3V60.2z"/>
	<line class="st0" x1="33.2" y1="43.6" x2="33.2" y2="54.1"/>
	<path class="st0" d="M47.9,38.4c-0.6-2.6-3.1-4.6-6-4.6c-2.8,0-5.3,2-5.9,4.6H47.9z"/>
	<line class="st0" x1="49.7" y1="54" x2="49.7" y2="43.6"/>
	<path class="st0" d="M60.7,40.2L43,27.2c-0.9-0.7-2.3-0.7-3.2,0l-17.9,13v1.4c0,0.9,0.7,1.6,1.6,1.6h35.5c0.9,0,1.6-0.7,1.6-1.6
		V40.2z"/>
	<polygon class="st0" points="19.2,73.8 17.7,72.3 16.4,73.2 17.9,74.7 	"/>
	<polygon class="st0" points="25.4,69.4 24,67.9 22.6,68.9 24.1,70.4 	"/>
	<polygon class="st0" points="12.4,78.5 11,77 9.7,78 11.1,79.5 	"/>
	<g>
		<line class="st0" x1="27.6" y1="67.9" x2="5.3" y2="83.5"/>
	</g>
	<circle class="st0" cx="41.6" cy="62.1" r="4.2"/>
</g>
</svg>
