<?xml version="1.0" encoding="utf-8"?>
<!-- Generator: Adobe Illustrator 24.1.2, SVG Export Plug-In . SVG Version: 6.00 Build 0)  -->
<svg version="1.1" id="Layer_1" xmlns="http://www.w3.org/2000/svg" xmlns:xlink="http://www.w3.org/1999/xlink" x="0px" y="0px"
	 viewBox="0 0 86 98" style="enable-background:new 0 0 86 98;" xml:space="preserve">
<style type="text/css">
	.st0{fill:none;stroke:#FFFFFF;stroke-width:1.8;stroke-linecap:round;stroke-linejoin:round;stroke-miterlimit:10;}
</style>
<path class="st0" d="M26.6,31c0,0,0.1,9.3-1.8,11.5s-4.4,7.7-2.8,13.5c6.1,0.7,10.7,1.4,12.7,1.5c12.2,0.4,13.1,5.7,17.1,5.7
	S71.6,63,71.6,63s3-7-4.2-8.7c-4.8-1.1-15.3-1.8-18.1-7.2c-2.8-5.3-2.9-4.8-2.9-19c-4.6,0.2-6.8-2.7-8.8-0.1
	C34.6,32,28.6,31,26.6,31z"/>
<polygon class="st0" points="22.1,63.2 35,63.2 35,57.7 22.1,56 "/>
<path class="st0" d="M18.2,72h48.9c2.8,0,5.1-2.1,5.3-4.9l0-0.6v-3.3h-7.2v4.4h-7.8v-4.4h-5.5v4.4H30.7v-4.4h-5.9v4.4h-6.6
	c-1.2,0-2.2,1-2.2,2.2v0C16,71.1,17,72,18.2,72z"/>
<path class="st0" d="M38.9,28.1c0,0,0.1,7.9,0.7,14.9c1,12,11.5,11.3,15,9"/>
<line class="st0" x1="45.6" y1="35" x2="42.6" y2="35"/>
<line class="st0" x1="45.6" y1="40" x2="42.6" y2="40"/>
<line class="st0" x1="47.6" y1="46" x2="43.6" y2="46"/>
</svg>
