<svg enable-background="new 0 0 86 98" viewBox="0 0 86 98" xmlns="http://www.w3.org/2000/svg"><g style="fill:none;stroke:#fff;stroke-width:1.8;stroke-linecap:round;stroke-linejoin:round;stroke-miterlimit:10"><g clip-rule="evenodd"><path d="m58.2 40.1c3.7-.2 5.8.4 8 1.7 2.1 1.3 3.9 2.9 5.4 4.9 1.9 2.6 2.8 5.4 2.8 9.2 0 1.4-.4 3.3-1.1 5.1-.7 1.9-1.6 3.6-2.8 5.1-1.6 2.2-3.6 4.1-6.1 5.4-1.3.7-2.7 1.2-4.2 1.5-.1 0-3.7.4-3.8.3"/><path d="m56.5 73.5c-.5 0-1-.1-1.5-.1-1.3-.1-2.6-.5-3.9-.9-1.4-.4-2.9-.5-4.4 0-.3.1-.6.3-.7.5-.9 1-1.9 2.1-2.8 3.2-1.1 1.4-2.2 2.7-3.4 4.1-.9 1-2 1.1-3.1.5-1.4-.7-2.5-1.8-3.2-3.2-.6-1.1-.6-2.4.5-3.3s2.2-1.7 3.2-2.6c1.3-1.1 2.7-2.2 4-3.4"/><circle cx="30.2" cy="25.4" r="5"/><path d="m27 51.8c-.1-.1.3-3.8.3-3.9.8-3.5 2.6-6.4 5.3-8.8 1.4-1.2 2.9-2.3 4.6-3.2 2.6-1.3 5.4-2.1 8.3-2 2.5.1 4.9.8 7.1 2.1 2.1 1.3 3.9 2.9 5.4 4.9 1.9 2.6 2.8 5.4 2.8 9.2 0 1.4-.4 3.3-1.1 5.1s-1.7 3.5-2.9 5.1c-1.6 2.2-3.6 4.1-6.1 5.4-1.3.7-2.7 1.2-4.2 1.5-.1 0-3.7.4-3.8.3"/><path d="m42.8 67.5c-.5 0-1-.1-1.5-.1-1.3-.1-2.6-.5-3.9-.9-1.4-.4-2.9-.5-4.4 0-.3.1-.6.3-.7.5-.9 1-1.9 2.1-2.8 3.2-1.1 1.4-2.2 2.7-3.4 4.1-.9 1-2 1.1-3.1.5-1.4-.7-2.5-1.8-3.2-3.2-.6-1.1-.6-2.4.5-3.3s2.2-1.7 3.2-2.6c1.3-1.1 2.7-2.2 4-3.4.6-.5.7-1.3.8-2.1.1-1.4-.1-2.7-.6-4.1s-.7-2.9-.7-4.4"/></g><path d="m27.3 47.3 19.4 19.4"/><path d="m53 64.3 8.7 8.5"/></g></svg>