<?xml version="1.0" encoding="utf-8"?>
<!-- Generator: Adobe Illustrator 24.1.2, SVG Export Plug-In . SVG Version: 6.00 Build 0)  -->
<svg version="1.1" id="Layer_1" xmlns="http://www.w3.org/2000/svg" xmlns:xlink="http://www.w3.org/1999/xlink" x="0px" y="0px"
	 viewBox="0 0 86 98" style="enable-background:new 0 0 86 98;" xml:space="preserve">
<style type="text/css">
	.st0{fill:none;stroke:#FFFFFF;stroke-width:1.8;stroke-linecap:round;stroke-linejoin:round;stroke-miterlimit:10;}
	.st1{fill:none;stroke:#FFFFFF;stroke-width:1.3487;stroke-linecap:round;stroke-linejoin:round;stroke-miterlimit:10;}
	.st2{fill:#FFFFFF;}
</style>
<path class="st0" d="M51.3,66.6l2.8,9c0.3,1,1.2,1.6,2.2,1.6h0c0.2,0,0.4-0.1,0.6-0.1"/>
<path class="st0" d="M62.6,56.4c-0.7,6.5-4.1,9.4-16.7,10.3l-21.1-2.3c-3.8-0.9-6.4-4.3-6.4-8.1l-0.9-11c-0.1-1.5,0.3-3.1,1.3-4.3
	l1-1.3c1.1-1.4,2.9-2.2,4.7-2.2l23.8,0.5"/>
<path class="st0" d="M24.6,65.5l-3.1,10.1c-0.3,1-1.2,1.6-2.2,1.6h0c-1.2-0.1-2.1-1.2-2-2.4l1-17.4"/>
<path class="st0" d="M55.7,65.6l2.7,10c0.3,1,1.2,1.6,2.2,1.6h0c1.2-0.1,2.1-1.2,2-2.4l-0.8-14.7"/>
<path class="st0" d="M24.2,37.5c-11.9,1.6-11.6,20.4-11.9,20"/>
<path class="st0" d="M11.9,58.1l-1.2,4l0.5,0.7c0.6,0.8,1.6,0.8,2.2,0l0.5-0.7l-1.2-4C12.7,57.6,12.1,57.6,11.9,58.1z"/>
<ellipse class="st0" cx="59.7" cy="52.6" rx="7" ry="3.8"/>
<path class="st0" d="M76.4,27.2c0,0-0.8,6.4-7.7,7l0.2,0.1L67.9,39C79.2,38.2,76.4,27.2,76.4,27.2z"/>
<path class="st0" d="M50.6,34.2l0.3-0.1c-6.1-0.8-6.9-6.9-6.9-6.9S41.5,37.9,51.6,39L50.6,34.2z"/>
<path class="st0" d="M54.7,49.9c1.3-0.7,3.1-1.1,5.1-1.1c2,0,3.8,0.4,5.1,1.1h0.1l4.3-15.7l-4.3-1c-3.4-0.8-6.8-0.8-10.2,0l-4.3,1
	l1.9,7L54.7,49.9L54.7,49.9z"/>
<path class="st0" d="M27.6,68l-3,8c-0.6,1-1.3,1.5-2,1.4"/>
<path class="st1" d="M38.7,66.3l-11.8-1.8c-0.1,1.5,0.3,3.9,2.6,4.9c-0.2,1.7,0.5,2,1,2c0.5,0,0.8-0.6,1-1.5c0.4,0,0.7,0.1,1.1,0.1
	c0.4,0,0.7,0,1,0c0.1,0.8,0.5,1.5,1,1.5c0.5,0,0.9-0.3,1-1.9C37.8,68.9,38.5,67.4,38.7,66.3z"/>
<circle class="st2" cx="55.7" cy="42.3" r="1"/>
<circle class="st2" cx="63.7" cy="42.3" r="1"/>
</svg>
