<svg enable-background="new 0 0 86 98" viewBox="0 0 86 98" xmlns="http://www.w3.org/2000/svg"><g stroke="#fff" stroke-miterlimit="10"><g fill="none"><path d="m23.9 24.3h39.4v59.9h-39.4z" stroke-width="2.1609"/><path d="m71 46.3h6.7v11.6h-6.7z" stroke-linecap="round" stroke-width="1.5"/><path d="m73.1 49.5 1.2-1.4 1.2 1.4" stroke-linecap="round" stroke-width=".6357"/><path d="m74.3 48.8v2.4" stroke-linecap="round" stroke-width=".6357"/><path d="m73.1 54.7 1.2 1.4 1.2-1.4" stroke-linecap="round" stroke-width=".6357"/><path d="m74.3 55.4v-2.4" stroke-linecap="round" stroke-width=".6357"/><path d="m41.4 24.7v59.3" stroke-width="2.1609"/><path d="m45.9 24.7v59.3" stroke-width="2.1609"/><path d="m77.5 84.1h-69.5" stroke-width="2.1609"/><path d="m38.2 13.9h10.9v6.3h-10.9z" stroke-linecap="round" stroke-width="1.5"/><path d="m28.9 16.4 1.8-2.2 1.9 2.2" stroke-linecap="round" stroke-width=".9743"/><path d="m30.7 15.2v3.8" stroke-linecap="round" stroke-width=".9743"/><path d="m54.8 16.9 1.7 2.1 1.8-2.1" stroke-linecap="round" stroke-width=".9743"/><path d="m56.5 17.9v-3.7" stroke-linecap="round" stroke-width=".9743"/></g><path d="m42.5 18.1c.1.1.4.2.7.2.5 0 .7-.3.7-.6 0-.4-.4-.6-.8-.6h-.2v-.3h.2c.3 0 .7-.2.7-.5 0-.2-.2-.5-.5-.5-.2 0-.5.1-.6.2l-.2-.2c.2-.1.5-.2.8-.2.6 0 .9.4.9.7s-.2.6-.6.7c.4.1.7.4.7.8 0 .5-.4.9-1.1.9-.3 0-.6-.1-.8-.2z" fill="#fff" stroke-width=".2308"/></g></svg>