<?xml version="1.0" encoding="utf-8"?>
<!-- Generator: Adobe Illustrator 24.3.0, SVG Export Plug-In . SVG Version: 6.00 Build 0)  -->
<svg version="1.1" id="Layer_1" xmlns="http://www.w3.org/2000/svg" xmlns:xlink="http://www.w3.org/1999/xlink" x="0px" y="0px"
	 viewBox="0 0 36 28" style="enable-background:new 0 0 36 28;" xml:space="preserve">
<style type="text/css">
	.st0{fill:#EDB056;}
</style>
<path class="st0" d="M30.5,8.6v3.3c-1.5,0-3-0.3-4.4-0.9c-0.9-0.4-1.7-0.9-2.5-1.5l0,10c0,2.3-0.9,4.4-2.5,6c-1.3,1.3-3,2.1-4.8,2.4
	C15.9,28,15.4,28,15,28c-1.9,0-3.8-0.6-5.3-1.8c-0.3-0.2-0.6-0.5-0.8-0.7c-1.8-1.7-2.7-4.1-2.5-6.6c0.1-1.9,0.9-3.7,2.1-5.1
	c1.7-1.9,4-2.9,6.5-2.9c0.4,0,0.9,0,1.3,0.1v1.2v3.4c-0.4-0.1-0.8-0.2-1.3-0.2c-2.3,0-4.1,1.9-4.1,4.1c0,1.5,0.8,2.7,2,3.4
	c0.6,0.3,1.2,0.5,1.9,0.6c0.5,0,1,0,1.5-0.2c1.6-0.5,2.8-2.1,2.8-3.9l0-6.7V0.6h4.5c0,0.4,0,0.9,0.1,1.3C24,3.6,25,5,26.3,6
	c1.2,0.9,2.6,1.4,4.2,1.4c0,0,0,0,0,0V8.6z"/>
</svg>
