<svg enable-background="new 0 0 192 140" viewBox="0 0 192 140" xmlns="http://www.w3.org/2000/svg"><path d="m191.3 107.1c0 2.7-2.2 4.9-5 4.9h-180.6c-2.8 0-5-2.2-5-4.9v-101.5c0-2.7 2.2-4.9 5-4.9h180.7c2.8 0 5 2.2 5 4.9z" fill="#e8e8e8"/><path d="m144.9 124.2-115.7-1.4c-3.2 0-4.3-5.9-4.3-9.1v-10.8l13.1-1.6 117.7 1.2c1-.1 1.8 1 1.4 2l-6 13.5c-2.5 5-3.1 6.2-6.2 6.2z" fill="#b2b2b2"/><path d="m143 120.3v-.6l3.5-56.8 9.6-12.8-3.4 52.8c0 1.7-2.5 7.3-5.7 12.5-.7 1.3-2.5 4.4-4 4.9z" fill="#c9c9c9"/><path d="m142 120.3-111.6.5c-3.1 0-5.6-2.6-5.6-5.8l-1.5-50.4h123.7l-2.6 49.8c.1 3.3.7 5.9-2.4 5.9z" fill="#f9f9f9"/><path d="m155.9 52.5-7.8 8.9h-.6l-1.1 1.4-.3 5.6h.3c3.4 0 3.2 0 4.9-2.7l4.1-6.5z" fill="#a8a8a8"/><path d="m23.4 68.4h123.7l.5-7-124.2.8z" fill="#afafaf"/><path d="m146.2 64.3h1.3c1.7 0 1.9-.1 3.2-2.3l6.1-9.9c.3-.4.4-.9.4-1.4v-5.9l-11.1 11.5z" fill="#b77839"/><path d="m146.6 55.4h-122.2c-1.3 0-3.8-.8-3.8-2.3 0 0 10.3-7.5 11.5-7.5l118.4-.6c1.3 0 4.7-.7 5.2.5l-5.2 8.1c-1.2 1.8-2.6 1.8-3.9 1.8z" fill="#c48131"/><path d="m25 54.9c-.1 0-.2-.1-.2-.3l5.6-4.5c0-.1 1.2-.8 2-1.3.5-.3 1.1-.5 1.6-.5.8 0 2-.1 2.3-.1h117.1c.3 0-5.4 6.3-5.5 6.3z" fill="#e5b27a"/><path d="m147.8 64.3-126.7.3c-3.1-.4-3.3 1.1-3.1-9.2l3.3-2.3h1.1l.6 2.3 121.2-.1s2.4-.2 4.2.7c-.3 7.5.6 8.1-.6 8.3z" fill="#c48131"/><g fill="#ea9e39"><path d="m156.4 44.2h-122.7c-1.7 0-3.3.6-4.7 1.6-3.2 2.4-9.1 7-10.1 8-1.5 1.5-1.5 2 2.5 2l124.6.4c2.9 0 2.6-.4 3.9-1.8l7.1-9c.4-.4.1-1.2-.6-1.2zm-7.6 8.3c-.8.9-1.9 1.5-3.1 1.5l-119.4.3c-1.3 0-4.1.8-3-1.2l6.2-5.1s2.3-2.1 3.5-2.1l120.1-.4c.3 0 .4.3.2.5z"/><g stroke="#f7f7f7" stroke-miterlimit="10" stroke-width=".25"><path d="m44 90.6c0-2.6 0-5.2 0-7.8 0-1.2.5-1.6 1.6-1.6 2 .1 4 .1 6 .1 2.5.1 4.6 1.9 4.7 4.5.1 3.2.1 6.4-.2 9.6-.3 2.7-2.5 4.4-5.1 4.5-1.9.1-3.7.1-5.6.2-1.1 0-1.4-.7-1.4-1.7 0-2.6 0-5.2 0-7.8zm3 6.5c.5 0 .8.1 1.2.1.9 0 1.8.1 2.8 0 1.5-.1 2.6-1.3 2.6-2.9 0-2.5 0-4.9 0-7.4 0-.6-.3-1.3-.7-1.8-1.7-2.1-3.9-1.2-5.9-1.3z"/><path d="m88.5 91.2c1.8-1.7 3.6-3.4 5.5-5 .4-.3 1.2-.7 1.8-.1.7.6.6 1.3 0 2-.9 1-1.9 1.9-2.8 2.9-.2.3-.2 1-.1 1.3 1.1 1.9 2.3 3.8 3.3 5.7.2.5.4 1.2-.3 1.9-.3.3-1.4.1-1.8-.2-.7-.7-1.2-1.7-1.7-2.6-.6-1-1.1-2.7-2.1-3.1-2-.7-1.8 1.2-1.8 3.2 0 .6-.1 1.8-.3 2.3-.3.6-.6.6-1.1.8-.8.2-1.3-.5-1.3-1.3 0-5.6 0-11.3 0-16.9 0-1 .5-1.4 1.4-1.4.9.1 1.3.6 1.3 1.5v8.2c.2.3.1.9 0 .8"/><path d="m101.3 93.6v1.8c.1 1.2.7 2.1 1.8 2.3 1.6.4 2.6-.1 3.1-1.4.3-.8.7-1.6 1.7-1.2.9.4.8 1.3.7 2.1-.2 1.4-1.4 2.3-2.4 2.6-1.8.4-3.7.7-5.4-.4-1.4-.9-2.1-2.2-2.1-3.8 0-2.1.1-4.2.2-6.3.1-1.7 1.4-2.6 2.6-3.1 2.1-.8 4.3-.7 6.1 1.1.9.9 1 1.9 1 3.1 0 3.1 0 3.1-3 3.1-1.3 0-2.6 0-3.9 0-.1-.1-.2 0-.4.1m4.9-2.5c0-2.1-.8-3.2-2.5-3.2-1.3 0-2.5 1-2.3 3.2z"/><path d="m68.7 98.2c-.9 1.2-1.5 1.7-3 1.8-2 .1-4.3.4-5.6-1.6-.5-.7-.8-1.9-.8-3.5-.1-2.4-.1-3.9.4-6.2.5-2.5 2.5-3.1 4.7-3 1.9.1 5 .2 5.2 4.6.2 5-.1 6.9-.9 7.9zm-1.6-5.1c0-.9.1-1.7 0-2.6-.1-1.1-.6-2.5-2.3-2.5-1.4 0-2.4.3-2.7 1.4-.6 1.8-.6 3.4-.5 5.2.2 3.7 2.9 3.5 4.1 3.2 1.1-.3 1.3-1.3 1.4-2.5 0-.8 0-1.5 0-2.2"/><path d="m114.7 86.9c2.8-1.8 5.1-1.7 6.8.4.6.7 1 1.7 1 2.7.1 2.8.1 5.6 0 8.4 0 .9-.1 1.9-1.3 1.9-1 0-1.4-.8-1.4-2.2 0-2.4.1-4.8 0-7.2 0-1.8-.8-2.5-2.7-2.5-1.4 0-2.5 1-2.5 2.5v7.4c0 1.2-.5 1.9-1.5 1.7-.4-.1-.9-.6-.9-1-.1-4.1-.1-8.3 0-12.4 0-.4.4-1 .6-1 .4-.1 1 0 1.3.4.3.2.4.5.6.9"/><path d="m75.8 90.2v8.2c0 1.1-.5 1.7-1.4 1.7-1 0-1.3-.7-1.3-1.8 0-5.4 0-10.9-.1-16.3 0-1.1.6-2 1.5-1.9 1 .1 1.4.8 1.3 1.8z"/><path d="m82.3 90.2v8.2c0 1.1-.5 1.7-1.4 1.7-1 0-1.3-.7-1.3-1.8 0-5.4 0-10.9-.1-16.3 0-1.1.6-2 1.5-1.9 1 .1 1.4.8 1.3 1.8z"/><ellipse cx="62.7" cy="82.6" rx="1.4" ry="1.5"/><ellipse cx="66.4" cy="82.6" rx="1.4" ry="1.5"/></g></g><path d="m44 109.6h78.6v2.3h-78.6z" fill="#d3d3d3"/><path d="m44 105.5h78.6v2.3h-78.6z" fill="#d3d3d3"/><g fill="#b2b2b2"><path d="m103.3 138.5 9.3.9c.6 0 1.2-.1 1.8-.2l70-17.6c1.2-.3 1.9-2.1 1.6-3.3-.2-1-1.1-2.2-2.1-2.5h-2.1z"/><path d="m92.7 134.9 6.7 1c.6 0 1.2-.1 1.8-.2l72.6-18.6c1.8-.5 2.5-2.7 1.3-4.1l-3.5-1.1z"/><path d="m80.9 132.7 9 1.7c.6 0 1.2-.1 1.8-.2l70.3-19.2c1.8-.5 2.5-2.7 1.3-4.1l-3.5-1.1z"/></g><path d="m162.8 107.3c-.9-2.5-3-4-4.9-3.5-.1 0-.1 0-.2 0s-.2.1-.2.1l-78.7 19.3 3.5 9.3 78.6-19.3h.2c.1 0 .2-.1.3-.1l.2-.1c1.5-1 2-3.3 1.2-5.7z" fill="#ea9e39"/><path d="m81.6 130.8.6 1.7 78.6-19.3h.2c.1 0 .2-.1.3-.1l.2-.1c1.5-.9 2.1-3.3 1.2-5.6-.1-.2-.2-.4-.2-.5l-80.3 19.9z" fill="#ce883c"/><path d="m82.6 132.4 78.4-19.2h.2c.1 0 .2-.1.3-.1l.2-.1c1.2-.7 1.7-2.2 1.6-4l-80.4 20.5z" fill="#c48131"/><ellipse cx="80.3" cy="128" fill="#e5b27a" rx="3.4" ry="4.9" transform="matrix(.9489 -.3155 .3155 .9489 -36.2907 31.8627)"/><path d="m173.3 109.7c-.9-2.5-3-4-4.9-3.5-.1 0-.1 0-.2 0s-.2.1-.2.1l-78.7 19.3 3.5 9.3 78.6-19.3h.2c.1 0 .2-.1.3-.1l.2-.1c1.5-1 2.1-3.4 1.2-5.7z" fill="#ea9e39"/><path d="m92.2 133.2.6 1.7 78.6-19.3h.2c.1 0 .2-.1.3-.1l.2-.1c1.5-.9 2.1-3.3 1.2-5.6-.1-.2-.2-.4-.2-.5l-80.3 19.9z" fill="#ce883c"/><path d="m93.1 134.8 78.4-19.2h.2c.1 0 .2-.1.3-.1l.2-.1c1.2-.7 1.7-2.2 1.6-4l-80.4 20.5z" fill="#c48131"/><ellipse cx="90.8" cy="130.4" fill="#e5b27a" rx="3.4" ry="4.9" transform="matrix(.9489 -.3155 .3155 .9489 -36.5089 35.3127)"/><path d="m183.5 113.4c-.9-2.5-3-4-4.9-3.5-.1 0-.1 0-.2 0s-.2.1-.2.1l-78.7 19.3 3.5 9.3 78.6-19.3h.2c.1 0 .2-.1.3-.1l.2-.1c1.5-1 2.1-3.4 1.2-5.7z" fill="#ea9e39"/><path d="m102.4 136.9.6 1.7 78.6-19.3h.2c.1 0 .2-.1.3-.1l.2-.1c1.5-.9 2.1-3.3 1.2-5.6-.1-.2-.2-.4-.2-.5l-80.3 19.8z" fill="#ce883c"/><path d="m103.3 138.5 78.4-19.2h.2c.1 0 .2-.1.3-.1l.2-.1c1.2-.7 1.7-2.2 1.6-4l-80.4 20.5z" fill="#c48131"/><ellipse cx="101" cy="134.1" fill="#e5b27a" rx="3.4" ry="4.9" transform="matrix(.9489 -.3155 .3155 .9489 -37.1476 38.7167)"/></svg>