<svg enable-background="new 0 0 192 140" viewBox="0 0 192 140" xmlns="http://www.w3.org/2000/svg"><path d="m191.2 109c0 2.7-2.2 4.9-5 4.9h-180.6c-2.8 0-5-2.2-5-4.9v-101.5c0-2.7 2.2-4.9 5-4.9h180.7c2.8 0 5 2.2 5 4.9z" fill="#e8e8e8"/><path d="m34.9 126.4h117.7v3.6h-117.7z" fill="#5b5b5b"/><path d="m42.4 104.2-7.5 22.2h117.5l-2.9-22.2z" fill="#9b9b9b"/><path d="m152.9 119.7h-15.3v3h14.1z" fill="#c8c8c8"/><path d="m119.9 103.7h9.7v15.7h-9.7z" fill="#5b5b5b"/><path d="m136.5 51.1c-1.5 0-2.6-1.2-2.6-2.6v-2.4c0-1.5 1.2-2.6 2.6-2.6 1.5 0 2.6 1.2 2.6 2.6v2.3c0 1.5-1.2 2.7-2.6 2.7z" fill="#ea9e39"/><g fill="#5b5b5b"><path d="m135.9 51.1h1.1v8.6h-1.1z"/><path d="m140.4 63.3h7.6v1.8h-7.6z"/><path d="m131.9 61.1h8.8v6.2h-8.8z"/><path d="m122.7 69.3 9.2-8.2v6.2h2l6.8 11.9v8.9l3.8 3.4.2 2.9h-7v-8.1l-5.8-7.1h-9.2z"/></g><path d="m98 90.2h9.7v19.3h-9.7z" fill="#b7b7b7"/><path d="m161.4 34-123.3-23.2-5.1 3.3 132.2 27.6.6-2.5c.4-2.6-1.9-4.7-4.4-5.2z" fill="#ea9e39"/><path d="m93.9 98.6c-1.1 0-2.1-.9-2.1-2.1v-2c0-1.1.9-2.1 2.1-2.1 1.1 0 2.1.9 2.1 2.1v2c-.1 1.2-1 2.1-2.1 2.1z" fill="#b1793c"/><path d="m93.9 107.9c-1.1 0-2.1-.9-2.1-2.1v-2c0-1.1.9-2.1 2.1-2.1 1.1 0 2.1.9 2.1 2.1v2c-.1 1.2-1 2.1-2.1 2.1z" fill="#b1793c"/><path d="m133.1 109.1 3.5-1.5v15.1l-3.5-1.5z" fill="#f9d8b7"/><path d="m131.4 102.9 1.7 6.2 3.5-1.5-2.2-5.8z" fill="#f9d8b7"/><path d="m129.5 110.3 3.6 10.9v-12.1l-1.7-6.2-1.9.8z" fill="#f1b974"/><path d="m95.9 94.2h2.1v2.7h-2.1z" fill="#5b5b5b"/><path d="m95.9 103.5h2.1v2.7h-2.1z" fill="#5b5b5b"/><path d="m140.7 61.1h-8.8l.7-2h8.4z" fill="#c8c8c8"/><path d="m155.9 43.8-15.3 35.8-2.9 10.1v4.7h7l20.2-52c.6-1.6-.4-3.4-2.1-3.7l-128.4-24.8c-1.3-.3-2.6.6-2.9 1.9-.3 1.3.6 2.6 1.9 2.9z" fill="#b1793c"/><circle cx="160.7" cy="42.9" fill="#f7f7f7" r="2.4"/><circle cx="143.1" cy="88.7" fill="#f7f7f7" r="2.4"/><path d="m45.4 89.3c.3 1.5 1.2 2.4 2.8 2.8 1.5.3 24.5-5 30.4-6.4.9-.2 1.6-.8 2.1-1.5l.1-.2c.3-.6.4-1.2.2-1.8l-.6-1.7c-.4-1.2-1.6-1.9-2.9-1.8l-25 3.2s-8.3 1.8-7.1 7.4z" fill="#ea9e39"/><path d="m104.1 83.9v-1.4l-19 .2c-.4 0-.8-.1-1-.3-.3-.2-.4-.5-.4-.8s.2-.6.4-.8c.3-.2.7-.3 1.1-.3l19-.2v-1.4l-18.6.2c-.9 0-1.7.3-2.4.9-.5.5-.8 1-.8 1.6 0 .9.6 1.6 1.5 2.2.4.2.9.4 1.4.4z" fill="#5b5b5b"/><path d="m80.6 80.9h2v2h-2z" fill="#5b5b5b" transform="matrix(.9945 -.1047 .1047 .9945 -8.1279 8.9982)"/><path d="m100 74.8h15.1v15.3h-15.1z" fill="#c8c8c8"/><path d="m115.4 74.6h-15.3l.5-3.6 14.8.3z" fill="#f7f7f7"/><path d="m115.1 74.9h7.6v10.9h-7.6z" fill="#c8c8c8"/><path d="m115.1 67.3h7.6v7.6h-7.6z" fill="#f7f7f7"/><path d="m122.7 72.5v-5.2l7.3-7 2.2-.2-.3 1-.5 2.2z" fill="#f7f7f7"/><path d="m129.9 62.5-4.3 4.5c-.4.4-1.1.1-1.1-.4v-28.1c0-2 1.4-3.6 3.1-3.6 1.7 0 3.1 1.6 3.1 3.6z" fill="#5b5b5b"/><path d="m128 104.2 9.7-2.4-.1-9.4-4.7-2.4-14 .5v7.2l-3.8-.1v6.6z" fill="#c8c8c8"/><path d="m152.1 107.9h-14.5v11.8h15.1z" fill="#f7f7f7"/><path d="m113.9 90.2v4h9.6v-3.1l8.2-.2 5.9 1.5.1-6.1-5.8-7.1h-9.2v6.6h-7.6z" fill="#c8c8c8"/><path d="m144.7 94.4h-7l-1.8 7.8 1.5 5.7h14.7z" fill="#b7b7b7"/></svg>