<svg enable-background="new 0 0 192 140" viewBox="0 0 192 140" xmlns="http://www.w3.org/2000/svg"><path d="m191.3 107.1c0 2.7-2.2 4.9-5 4.9h-180.6c-2.8 0-5-2.2-5-4.9v-101.5c0-2.7 2.2-4.9 5-4.9h180.7c2.8 0 5 2.2 5 4.9z" fill="#e8e8e8"/><path d="m183.1 92.6-162 26.8s-9.4.2-9.4-2.5c0-11.8-.1-43.7 0-45.4.1-2.1-2.7-1.9-2.7-1.9l162-15.7s2.7 0 2.8 1.7v34.9c0 1.8 9.3 2.1 9.3 2.1z" fill="#e2e2e2"/><path d="m173.8 55.8c0-.1 0-.3 0-.3-.1-1.7-2.8-1.7-2.8-1.7l-161.7 15.7c.7 0 2.5.2 2.4 1.9v.3z" fill="#fff"/><path d="m174.7 91.4-.3-.3-162.6 25.8h-.1c0 2.7 9.4 2.5 9.4 2.5l162-26.8s-7.5-.4-8.4-1.2z" fill="#f4f4f4"/><path d="m16.2 119.1c2.4.3 4.9.3 4.9.3l162-26.8s-1.6 0-3.6-.2z" fill="#fff"/><path d="m21.1 119.4s-9.4.2-9.4-2.5c0-11.8-.1-43.7 0-45.4.1-2.1-2.7-1.9-2.7-1.9h-.1l.2.8h.1c.2 0 .7 0 1.1.3.2.2.4.5.3.9-.1 1.7 0 32.3 0 45.4 0 3 7.1 3.3 10.1 3.3h.4.1l162.1-26.9-.1-.7z" fill="#afafaf"/><path d="m173.1 54.3-161.6 16.1c.2.3.3.6.3 1v.3l162.1-15.9c0-.1 0-.3 0-.3-.1-.5-.4-.9-.8-1.2z" fill="#efefef"/><path d="m21.5 120.1 161.9-26.8-.1-.7-161.8 26.7z" fill="#c9c9c9"/><path d="m176.5 91.9c-.8-.2-1.2-.3-1.8-.6l-.3-.3-162.6 25.9h-.1c0 .4.8 1.1 1.3 1.4.4.3 163.8-26.3 163.5-26.4z" fill="#efefef"/><path d="m188.9 94.1-144 24.6s-8.5.2-8.5-2c0-9.6-.1-35.4 0-36.8.1-1.7-2.5-1.6-2.5-1.6l144-15.6s2.5 0 2.5 1.4v28.3c0 1.5 8.5 1.7 8.5 1.7z" fill="#f1b974"/><path d="m180.4 64.3c0-.1 0-.2 0-.3 0-1.4-2.5-1.4-2.5-1.4l-143.7 15.7c.6 0 2.3.2 2.2 1.6v.2z" fill="#f1b974"/><path d="m181.3 93.1-.3-.3-144.5 23.9h-.1c0 2.2 8.5 2 8.5 2l144-24.6s-6.9-.3-7.6-1z" fill="#f9d8b7"/><path d="m40.4 118.5c2.2.3 4.5.2 4.5.2l144-24.6s-1.5 0-3.2-.2z" fill="#f1b974"/><path d="m44.9 118.7s-8.5.2-8.5-2c0-9.6-.1-35.4 0-36.8.1-1.7-2.5-1.6-2.5-1.6l.1.7h.1c.2 0 .7 0 1 .2.2.1.3.4.3.7-.1 1.4 0 26.2 0 36.8 0 2.4 6.4 2.7 9.2 2.7h.4.1l144.1-24.6-.1-.6z" fill="#f0b874"/><path d="m179.7 63.1-143.5 16c.2.2.3.5.2.8v.2l144-15.8c0-.1 0-.2 0-.3 0-.4-.3-.7-.7-.9z" fill="#f9d8b7"/><path d="m45.2 119.3 143.9-24.6-.1-.6-143.8 24.6z" fill="#f0b874"/><path d="m182.9 93.6c-.7-.1-1.1-.3-1.6-.4l-.3-.3-144.5 23.8h-.1c0 .4.8.9 1.1 1.1.4.3 145.6-24.2 145.4-24.2z" fill="#f9d8b7"/><path d="m81.2 63.6c1.6 1 6.9 3.5 6.9 3.5l5.1-8.2s-4.3.2-5-.7 0-2.5 0-2.5l-9.6-3.1z" fill="#c8c8c8"/><path d="m92.6 53.5c-1 0-3.5.5-4.1.6-1.2.2-3.2-2.1-8.4-6-1-.7-2.1-1.4-3.1-2l-4.9 1.9 1.8 6.5 3.6-1 10.7 2.3 5.9-1.4z" fill="#b1b1b1"/><path d="m82.1 73.8s.5-1.8.6-1.8 10.5-13.1 10.5-13.1l11.9 7.6-4.1 5.5-5.2-1-1.6 4.5z" fill="#c8c8c8"/><path d="m58.5 136.3c1.2 1.1 3.1 1.9 4.7.8s2.2-2.9 2.8-7.2 6.2-17.2 14.3-26.3 12.7-15.7 14-15.6 2-.9 3.9.4 4 3.6 7-.1-2.6-9.5-2.9-10.6-18.3-3-18.3-3-.6-1-1 .3-.9 6-2.4 8.8-21.3 30.3-22.6 32.6-4.8 15 .5 19.9z" fill="#c48130"/><path d="m56.5 135.4c1.2 1.1 3.1 1.9 4.7.8s2.2-2.9 2.8-7.2 6.2-17.2 14.3-26.3 12.7-15.7 14-15.6c1.3.2 2-.9 3.9.4s4 3.6 7-.1c3-3.8-2.6-9.5-2.9-10.6s-18.3-3-18.3-3-.6-1-1 .3-.9 6-2.4 8.8-21.3 30.3-22.6 32.6-4.9 15 .5 19.9z" fill="#ea9e39"/><ellipse cx="95" cy="64.2" fill="#b1b1b1" rx="1.8" ry="1.8" transform="matrix(.9868 -.1617 .1617 .9868 -9.1384 16.2175)"/><path d="m11 34.3c-.2.4-.8 3 .5 4.3 2.4 2.5 6.5 3.5 11.9 3.5 5.6 0 26.8-1.8 39.2 1.8 5.6 1.6 4.6-.1 4.6-.1s11.2-9.2 12.8-10.3c1.7-1.2 1.6-1.6.3-3.3-2.1-2.6-6-7-9.1-5.7-2.4 1-2.3 4.9-3.9 6.8 0 0 1.5.9-19.3.2-20.4-.6-29.5.6-33.6 2.3-1.9.8-3-.3-3.4.5z" fill="#c48130"/><path d="m11 34.3c-.9 1.9 5 5.9 12 5.9 5.6 0 26.8-1.8 39.2 1.8 5.6 1.6 4.6-.1 4.6-.1s11.2-9.2 12.8-10.3c1.7-1.2 1.6-1.6.3-3.3-2.1-2.6-6-7-9.1-5.7-2.4 1-2.3 4.9-3.9 6.8 0 0 1.5.9-19.3.2-29.2-.7-35.3 2.1-36.6 4.7z" fill="#ea9e39"/><path d="m150 70.7c7.5.4 27.8-13.5 27.8-13.5h-35.8l-23.9 10.9s23.7 2.2 31.9 2.6z" fill="#b1b1b1"/><path d="m100 33.4-20.1.2-12.8 10.2s7.6.3 12.9 4.3 7.3 6.2 8.4 6 4-.9 4.4.4-.3 3.5.4 4.3 3.7 3.1 3.7 3.1 8.7 6.1 15.6 6.3 20.4-1.2 29.4-11.1c-7.1-.8-33.3-2.1-33.3-2.1l.8-7.7 4.5-1.2c0 .1.6-11-13.9-12.7z" fill="#e1e1e1"/><path d="m101.7 69.1-1.8-.1-.6-.7 2.1-3.6-4.5-2.7-.3-.7 1.8-20.8c.1-2.5 2.1-4.4 4.6-4.3 2.4.1 4.3 2.2 4.2 4.7l-1 23.8c0 2.6-2 4.5-4.5 4.4z" fill="#606060"/><path d="m101.1 68.4-1.9-.1 1.2-4.6-3.8-2.4 1.2-21.4c.1-2.5 2.1-4.4 4.6-4.3 2.4.1 4.3 2.2 4.2 4.7l-1 23.8c0 2.5-2.1 4.4-4.5 4.3z" fill="#fff"/><path d="m178.7 57.2.3-2.4s-25.1 1.9-31.9 1-36.4-2.7-36.4-2.7l.8-5.3-2.2-.3-1.2 7.7 46.6 3.5z" fill="#fff"/><ellipse cx="102.2" cy="41.1" fill="#c9c9c9" rx="3.1" ry="3.1" transform="matrix(.9868 -.1617 .1617 .9868 -5.2971 17.0744)"/><path d="m103.8 42.1-1.6.9-1.6-1v-1.9l1.7-.9 1.5 1z" fill="#b1b1b1"/><ellipse cx="100.5" cy="59.2" fill="#c9c9c9" rx="3.1" ry="3.1" transform="matrix(.9868 -.1617 .1617 .9868 -8.2552 17.0295)"/><path d="m102 60.2-1.6.9-1.6-1 .1-1.9 1.6-.9 1.6 1z" fill="#b1b1b1"/><ellipse cx="81.8" cy="36.7" fill="#b1b1b1" rx="1.2" ry="1.2" transform="matrix(.9868 -.1617 .1617 .9868 -4.861 13.7064)"/><path d="m125 63.9-3.5-.5-.3-.8-.8-2.8 2.1-2.8 3.5.5 1.3 3.3z" fill="#5b5b5b"/><path d="m124.4 63.1-3.2-.5-1.3-3.2 2.1-2.6 3.2.5 1.3 3.1z" fill="#fff"/><path d="m159.9 18.1c-17.6 0-22.1.9-33.9 6.5s-21.2 9.9-21.2 9.9c9.5 3.3 9 11.7 9 11.7l65.5-19.4c.1 0-1.8-8.7-19.4-8.7z" fill="#b1b1b1"/><path d="m113.2 42.2c.9-3.7 3-10.5 6.3-11.8l40.5-12.3c-17.6 0-22.1.9-33.9 6.5s-21.2 9.9-21.2 9.9c5.1 1.8 7.3 5 8.3 7.7z" fill="#c8c8c8"/><path d="m111.6 47.7 3.2-.7-.7 3.6 2.2-.6.6-3.4 2.2-.5 1 1.4c.7 1 .8 2.3-.3 2.7l-8.9 2.8z" fill="#afafaf"/><path d="m179 54.8-14.9-3-43.7-1.8-9.6 3.1 41.9 3.1z" fill="#afafaf"/><g fill="#fff"><path d="m114.8 47.1-1.8-.6-3.6 1 2.2.2z"/><path d="m116.9 46.6 2.2-.5-2.3-.7-2.1.7z"/><path d="m106.5 33.7c-1.2-.6-2.2-1-5.5-1.6l-19.9.6-1.9 1.4 20.7-.8c1.7.2 3.6.7 4.9 1.1z"/><path d="m105.6 74.4-1.4-.3.3-1.4 1.3.3z"/></g><path d="m103.4 75.9-10.5-2.1c-1-.2-1.7-1.2-1.5-2.3l.2-1c.2-1.1 1.2-1.8 2.2-1.5l10.5 2.1c.3.1.5.3.4.6l-.7 3.8c0 .3-.3.5-.6.4z" fill="#ea9e39"/><g fill="#fff"><path d="m106.2 76.2-.4-.1c-.4-.1-.7-.5-.6-.9l.5-3c.1-.4.5-.7.9-.6l.4.1c.4.1.7.5.6.9l-.5 3c0 .4-.4.7-.9.6z"/><ellipse cx="93.9" cy="71.6" rx="2" ry="2" transform="matrix(.9868 -.1617 .1617 .9868 -10.3437 16.1351)"/></g></svg>