<svg enable-background="new 0 0 192 140" viewBox="0 0 192 140" xmlns="http://www.w3.org/2000/svg"><path d="m191.3 106.4c0 2.7-2.2 4.9-5 4.9h-180.7c-2.8 0-5-2.2-5-4.9v-101.5c0-2.7 2.2-4.9 5-4.9h180.7c2.8 0 5 2.2 5 4.9z" fill="#e8e8e8"/><path d="m55.3 41.1 85.9-16.1s3.2.8 3.6 5.6c.5 4.8-2.3 51.5-1.3 55.2 1 3.4 3.8 4.9 4 7 .2 2.5-.1 3.7-.1 3.7l-82.7 20.4-5.1-11.5z" fill="#e2e2e2"/><path d="m42.7 38.2-12.3 64.4-3.1 3.5-2.7 4.9-8.2-8.9 1.4-4.7c.4-.8 2.4-1.9 3.1-2.4 0 0 1.4-1.6 1.6-3.2l3.4-45c.8-5.6 4.7-11.7 7.9-13.6z" fill="#e2e2e2"/><path d="m37.8 119.7h-.2z" fill="#ebd1ba"/><path d="m147.6 92.8c-.1-.8-.6-1.6-1.2-2.4l-83.3 19.4 1.7 7.1 82.7-20.4c0-.1.3-1.3.1-3.7z" fill="#9b9b9b"/><g fill="#afafaf"><path d="m59.6 104.7 3.5 5 83.3-19.4c-.9-1.2-2.1-2.5-2.7-4.4z"/><path d="m33.8 33 9.6 5.5-.9.7-9.5-5.6z"/><path d="m54.9 40.8 86-15.9 1.1.5-86.3 16.3z"/></g><path d="m40.1 109.5 1.1-37.5c.3-10.3 2.5-20.3 6.5-29.5l.8-1.7s-2.5-1.4-4.6-2.2c-.7-.3-1.6-.1-2.2.4-2.5 2.3-5.7 7.2-6.8 11.6-1.4 5.4-3.6 37.9-4.3 48.5-.1 2.1-1.1 4-2.7 5.1l-.3.2c-.3.2-.6.6-.8 1l-1.7 4.2 3.6 3.6c1.3 1.9 2.6 2.1 4.7 3.4 1.3.8 4.4 3.9 4.4 3.9 0-3.4.6-7.7 2.1-10.6z" fill="#ea9e39"/><path d="m37.4 121.1c1.1 0 .6-4.7 1.1-6.9-.2 0-.3 0-.4-.1-4.3-1.1-11.3-8.7-11.3-8.7l-2.2 5.5c0 .1 10.7 10.2 12.8 10.2z" fill="#ea9e39"/><path d="m38 114.1h.2.2c.3-1.6.8-3 1.4-4.3l.2-.4v-1.3c-4-.6-8.4-4.4-10.4-6.3-.5.9-1.1 1.7-1.9 2.3l-.3.2c-.3.2-.6.6-.8 1 .2.1 7.1 7.7 11.4 8.8z" fill="#f9d8b7"/><path d="m48.4 40.8-.8 1.7c-4 9.2-6.2 19.2-6.5 29.5l-1 34.7c-.1 1.8-.5 3.6-1.3 5.2-.8 1.6-1.2 3.5-1.2 5.3l.2 3.3 2.5.6c5.4.6 9.8-1 15.1-2.2l9.4-2.1-.4-2.5c-.3-1.8-.8-3.6-1.6-5.2l-3.2-4.4s1.6-36 .6-46.4c-.7-7.8-3.3-14-4.5-16.6-.4-.8-1.1-1.3-1.9-1.2z" fill="#c48131"/><path d="m64.8 116.9-.4-2.5c-.2-1.6-.7-3.1-1.3-4.5 0 0-20.7 5.5-25.1 4.4-.8 2-.7 6.9-.7 6.9s3.9 1.9 18-2.1z" fill="#c48131"/><path d="m40.1 108.2c-.3 1.3-.7 2.6-1.3 3.7-.3.7-.6 1.4-.8 2.2h.2.2c5 .7 24.7-4.4 24.7-4.4l-.3-.7-3.2-4.4c0 .1-14.1 4.5-19.5 3.6z" fill="#f1b974"/><path d="m29.8 102-8.9-7.1s-2.3 1-3.1 2.4c1.2 1.1 8.9 8.2 8.9 8.2z" fill="#efefef"/><path d="m24.6 111 2.2-5.6-9-8.1-1.4 4.7z" fill="#afafaf"/><path d="m87.7 51.8 85.5-19.1s3.2.7 3.8 5.5-1 51.6.2 55.2c1.1 3.3 4 4.8 4.2 6.8.3 2.4 0 3.7 0 3.7l-82.3 23.4-5.4-11.3z" fill="#e2e2e2"/><path d="m181.3 100.2c-.1-.8-.6-1.5-1.3-2.3l-82.7 22.3 1.9 7 82.1-23.4c0 .1.2-1.1 0-3.6z" fill="#9b9b9b"/><path d="m93.6 115.3 3.7 4.9 82.7-22.3c-.9-1.1-2.2-2.4-2.8-4.3z" fill="#afafaf"/><path d="m87.3 51.5 85.5-18.9 1.1.5-85.8 19.4z" fill="#afafaf"/><path d="m81.3 52.5c.8-.1 1.6.4 2 1.2 1.3 2.6 4 8.6 4.9 16.5 1.2 10.4.6 46.7.6 46.7l3.3 4.3c.8 1.6 1.4 3.4 1.7 5.2l.4 2.3 4.8-1.2-.4-2.5c-.3-1.8-.9-3.6-1.7-5.2l-3.3-4.2s.6-36-.6-46.4c-.9-7.8-3.6-13.9-4.9-16.4-.4-.8-1.2-1.3-2-1.2l-5.3.5-.3.7z" fill="#c48131"/><path d="m88.9 116.8 3.3 4.2c.1.2.2.4.3.5 2.8-.8 4.7-1.4 4.8-1.4-.1-.2-.2-.5-.3-.7l-3.3-4.2c-.1.1-2.1.8-4.8 1.6z" fill="#f9d8b7"/><path d="m98.3 123c-.1-.3-.1-.5-.2-.8-.1-.2-.1-.3-.2-.5s-.2-.5-.3-.7-.1-.3-.2-.5c0-.1-.1-.2-.1-.3-.1 0-2 .6-4.8 1.4.7 1.5 1.2 3 1.5 4.6l.4 2.3 4.8-1.2-.4-2.5c-.1-.4-.2-.8-.3-1.3-.1-.2-.2-.3-.2-.5z" fill="#ea9e39"/><path d="m92.2 121.1-3.3-4.3s.6-36.2-.6-46.7c-.9-7.8-3.6-13.9-4.9-16.5-.3-.6-.8-.9-1.3-1.1h-1.5l-.8 60.4 14.6 15.6-.4-2.3c-.4-1.8-1-3.5-1.8-5.1z" fill="#f1b974"/></svg>