<svg enable-background="new 0 0 192 140" viewBox="0 0 192 140" xmlns="http://www.w3.org/2000/svg"><path d="m191.3 107.1c0 2.7-2.2 4.9-5 4.9h-180.6c-2.8 0-5-2.2-5-4.9v-101.5c0-2.7 2.2-4.9 5-4.9h180.7c2.8 0 5 2.2 5 4.9z" fill="#e8e8e8"/><path d="m176.1 92.4-150.6 24.9s-8.7.2-8.7-2.3c0-11-.1-40.6 0-42.2.1-2-2.5-1.8-2.5-1.8l150.7-14.6s2.5 0 2.6 1.6v32.5c-.1 1.6 8.5 1.9 8.5 1.9z" fill="#e2e2e2"/><path d="m167.5 58.2c0-.1 0-.3 0-.3-.1-1.6-2.6-1.6-2.6-1.6l-150.4 14.6c.7 0 2.3.2 2.2 1.8v.3z" fill="#fff"/><path d="m168.3 91.3-.3-.3-151.2 24h-.1c0 2.5 8.7 2.3 8.7 2.3l150.7-24.9s-7-.4-7.8-1.1z" fill="#f4f4f4"/><path d="m20.9 117.1c2.2.3 4.6.3 4.6.3l150.7-24.9s-1.5 0-3.3-.2z" fill="#fff"/><path d="m25.5 117.3s-8.7.2-8.7-2.3c0-11-.1-40.6 0-42.2.1-2-2.5-1.8-2.5-1.8h-.1l.2.7h.1c.2 0 .7 0 1 .3.2.2.4.5.3.8-.1 1.6 0 30 0 42.2 0 2.8 6.6 3.1 9.4 3.1h.4.1l150.9-25-.1-.7z" fill="#afafaf"/><path d="m166.8 56.8-150.3 15c.2.3.3.6.3.9v.3l150.8-14.8c0-.1 0-.3 0-.3-.1-.5-.4-.8-.8-1.1z" fill="#efefef"/><path d="m25.8 118 150.6-24.9-.1-.7-150.5 24.8z" fill="#c9c9c9"/><path d="m170 91.8c-.7-.2-1.1-.3-1.7-.6l-.3-.3-151.2 24.1h-.1c0 .4.7 1 1.2 1.3.4.3 152.4-24.4 152.1-24.5z" fill="#efefef"/><path d="m181.4 97-133.9 22.9s-7.9.2-7.9-1.9c0-8.9-.1-32.9 0-34.2.1-1.6-2.3-1.5-2.3-1.5l133.9-14.5s2.3 0 2.3 1.3v26.3c.1 1.4 7.9 1.6 7.9 1.6z" fill="#f1b974"/><path d="m173.6 69.4c0-.1 0-.2 0-.3 0-1.3-2.3-1.3-2.3-1.3l-133.6 14.5c.6 0 2.1.2 2 1.5v.2z" fill="#f1b974"/><path d="m174.5 96.2-.3-.3-134.4 22.1h-.1c0 2 7.9 1.9 7.9 1.9l133.9-22.9c-.1 0-6.4-.3-7-.8z" fill="#f9d8b7"/><path d="m43.4 119.7c2 .3 4.2.2 4.2.2l133.9-22.9s-1.4 0-3-.2z" fill="#f1b974"/><path d="m47.6 119.9s-7.9.2-7.9-1.9c0-8.9-.1-32.9 0-34.2.1-1.6-2.3-1.5-2.3-1.5l.1.6h.1c.2 0 .7 0 .9.2.2.1.3.4.3.7-.1 1.3 0 24.4 0 34.2 0 2.2 6 2.5 8.6 2.5h.4.1l134-22.9-.1-.6z" fill="#f0b874"/><path d="m173 68.2-133.5 14.9c.2.2.3.5.2.7v.2l133.9-14.7c0-.1 0-.2 0-.3 0-.3-.2-.6-.6-.8z" fill="#f9d8b7"/><path d="m47.9 120.5 133.8-22.9-.1-.6-133.7 22.9z" fill="#f0b874"/><path d="m176 96.6c-.7-.1-1-.3-1.5-.4l-.3-.3-134.4 22.1h-.1c0 .4.7.8 1 1 .4.4 135.4-22.4 135.3-22.4z" fill="#f9d8b7"/><path d="m57.7 40 31-8.1 2.6-.3c2.4-.2 4.6 1.2 5.2 3.5l.7 2.5 7 26.9-10.5 4.5-4.9-18.7-1.5 12.1c-.4 3.4-3 6.3-6.5 7.1l-11.2 2.8z" fill="#919093"/><path d="m95.6 80.7 1.1-.2-1.9-9.3s-1.6-.3-2.3-.2c-.8 0 3.1 9.7 3.1 9.7z" fill="#5b5b5b"/><path d="m92.2 70.1 2-1.1-2.6-9.8-1.9 1.2z" fill="#f7f7f7"/><path d="m91.9 69.6-.2 2c-.1.7 0 1.3.2 2l2.1 6.8 1.6.4-2.2-8.3v-.1c.2-.5 1-.5 1.1.1l.1.5 2.3 8.8 1.9.7-1.4-7.8c0-2.1-1.1-4.1-2.8-5.4l-.4-.3z" fill="#f7f7f7"/><path d="m104.2 64.6-10 4.4.9 1.1c1.3 1.6 2.2 3.6 2.6 5.7l1.2 6.6 2.3-1.6 9.2 28.8c.3.9 1.3 1.4 2.2 1.1l4.3-1.5c1.3-.5 2-1.9 1.6-3.2l-10.5-35.2c-.5-1.7-1.4-3.3-2.6-4.6z" fill="#9b9b9b"/><path d="m58.1 102.6 2.9 3.7 3.8-2.2-2.7-11.3-1 .6 2.4 7.8z" fill="#f7f7f7"/><path d="m53.3 83 2.2 8.8c.1.4.3.7.5 1l1.4 1.3-2.4-9.5z" fill="#c8c8c8"/><path d="m63.7 124 2.9 5-5.6-22.7-2.9-3.7z" fill="#c8c8c8"/><path d="m98.2 43.6 23.4-13.7 1.1 4-25.6 14.1z" fill="#5b5b5b"/><path d="m92.7 58.9.5.7c1.2 1.4 3.1 2.1 4.9 1.9l7.4-1c1.5-.2 2.9-.9 4-2l2.7-2.8c.6-.6 1-1.4 1.2-2.2l1.6-7.4c.1-.7.1-1.3 0-2l-1.1-4.1c-.7-2.7-3.9-3.8-6.2-2.1l-2.2 1.6z" fill="#9b9b9b"/><path d="m87.3 62.5 1.2-9.7-13.1 7.6c-.8.5-1.3 2.3-1.1 3.2.5 2.3 1.8 3.3 3.9 4.3h.5c.3 0 .7-.1.9-.2l7.5-4.5c.1-.3.2-.5.2-.7z" fill="#5b5b5b"/><path d="m115.2 44.8-25.9 7.5 2.8 7.9 23-14.1z" fill="#5b5b5b"/><path d="m125.2 28.2-2.8.7-1.9.8-1.2.6-21.3 12.4.2.9 21.6-12.6.7-.1c.4-.1.8.3.8.7l-47.8 27.8c-.8.5-1.3 2.3-1 3.3.5 2.4 1.8 3.5 4 4.5h.5c.3 0 .7 0 .9-.2l47.5-29.3-1.2-7.3 2.5-1.7 3.1-1.8-.4-1z" fill="#f7f7f7"/><path d="m77.5 67.1h-.5c-2.2-1-3.4-2-3.9-4.3-.2-.9.2-2.7 1.1-3.2l49.4-28.6 2.6 7.2-47.7 28.7c-.3.2-.6.2-1 .2z" fill="#919093"/><path d="m131.3 35 31.1-9.9 7.7-.3c2-.1 3.6-1.6 3.8-3.6l.2-1.7c.2-2.1-1.2-3.9-3.3-4.3l-3.6-1c-4.1-1.2-8.4-1-12.4.5l-25.3 9.7c-.5.2-.8.8-.7 1.3z" fill="#e5b27a"/><path d="m134.9 34.8 30.7-9.8 7.6-.2c2-.1 3.6-1.6 3.8-3.5l.2-1.7c.2-2.1-1.2-3.9-3.3-4.3l-3.6-1.1c-4-1.2-8.3-1-12.3.5l-25 9.6c-.5.2-.8.8-.7 1.3z" fill="#ea9e39"/><path d="m132.4 25.6-3.7-.4 2.3 8.8 3.9.8z" fill="#f9f9f9"/><path d="m93.1 39.1c-.1.1-.1.3-.1.3s-1.1.3-1.6 0c-.4-.2-.7-.5-.9-1-.6-1.4-.1-2.6 1-3.1.4-.2.8-.2 1.2-.2.5 0 1.2.5 1.2.5s.2.4.3.7c.4 1.2-.1 2.4-1.1 2.8z" fill="#5b5b5b"/><circle cx="92.7" cy="37.4" fill="#fff" r="2.1"/><path d="m131.5 26.4-6 2.9-1.9 1.7 2.6 7.2 2.5-2.2 4.7-2.2z" fill="#9b9b9b"/><path d="m79.2 63.7c-.1.1-.1.3-.1.3s-1.1.3-1.6 0c-.4-.2-.7-.5-.9-1-.6-1.4-.1-2.6 1-3.1.4-.2.8-.2 1.2-.2.5 0 1.2.5 1.2.5s.2.4.3.7c.4 1.1 0 2.4-1.1 2.8z" fill="#5b5b5b"/><circle cx="78.8" cy="62" fill="#fff" r="2.1"/><path d="m91 30.8-2.6.3-32.4 8.4 2.9.2 29.7-7.7 2.6-.3c2.4-.2 4.6 1.2 5.2 3.5l-.2-.9c-.6-2.3-2.8-3.8-5.2-3.5z" fill="#f7f7f7"/><path d="m108 57.4c-.1.1-.1.3-.1.3s-1.1.3-1.6 0c-.4-.2-.7-.5-.9-1-.6-1.4-.1-2.6 1-3.1.4-.2.8-.2 1.2-.2.5 0 1.2.5 1.2.5s.2.4.3.7c.4 1.1-.1 2.3-1.1 2.8z" fill="#5b5b5b"/><circle cx="107.6" cy="55.7" fill="#fff" r="2.1"/><path d="m111.9 44.6c-.1.1-.1.3-.1.3s-1.1.3-1.6 0c-.4-.2-.7-.5-.9-1-.6-1.4-.1-2.6 1-3.1.4-.2.8-.2 1.2-.2.5 0 1.2.5 1.2.5s.2.4.3.7c.4 1.1 0 2.3-1.1 2.8z" fill="#5b5b5b"/><circle cx="111.5" cy="42.9" fill="#fff" r="2.1"/><path d="m104.5 41.4 1.2-1.8 2.2-1.6c1.1-.8 2.9-.9 3.6-.6l.5-.3c-1-.6-2.2-.8-3.4-.5-.6.1-1.1.4-1.5.7l-2.2 1.7-2.5 3.7z" fill="#f9f9f9"/><path d="m70.1 74.9-8.1-4.4c-.5-.3-.8-.7-1-1.3l-8.4-28.6c-.1-.4.9-1.6 1.3-1.5l8 .9c.7.1 1.2.6 1.4 1.2l8.4 32.4c.3 1-.7 1.8-1.6 1.3z" fill="#9b9b9b"/><path d="m69.3 75.2-8.2-4.3c-.5-.3-.8-.7-1-1.2l-7.5-28.9c-.1-.4.2-.7.6-.7l8 .9c.7.1 1.2.5 1.4 1.2l8.3 31.8c.2.8-.8 1.6-1.6 1.2z" fill="#f7f7f7"/><path d="m116.4 85.7-2.8.7-2.1-8.1 2.8-.7c2.2-.6 4.5.8 5.1 3s-.8 4.5-3 5.1z" fill="#b1793c"/><path d="m112 88.1c-1.1.3-2.1-.4-2.4-1.4l-1.8-7c-.3-1.1.4-2.1 1.4-2.4 1.1-.3 2.1.4 2.4 1.4l1.8 7c.3 1-.4 2.1-1.4 2.4z" fill="#f7f7f7"/><path d="m112.4 88.3c-1.1.3-2.1-.4-2.4-1.4l-1.8-7c-.3-1.1.4-2.1 1.4-2.4 1.1-.3 2.1.4 2.4 1.4l1.8 7c.3 1-.4 2.1-1.4 2.4z" fill="#5b5b5b"/><path d="m120.8 102.8-2.8.7-2.1-8.1 2.8-.7c2.2-.6 4.5.8 5.1 3s-.7 4.5-3 5.1z" fill="#b1793c"/><path d="m116.4 105.2c-1.1.3-2.1-.4-2.4-1.4l-1.8-7c-.3-1.1.4-2.1 1.4-2.4 1.1-.3 2.1.4 2.4 1.4l1.8 7c.3 1.1-.3 2.2-1.4 2.4z" fill="#f7f7f7"/><path d="m116.8 105.4c-1.1.3-2.1-.4-2.4-1.4l-1.8-7c-.3-1.1.4-2.1 1.4-2.4 1.1-.3 2.1.4 2.4 1.4l1.8 7c.3 1.1-.3 2.2-1.4 2.4z" fill="#5b5b5b"/><path d="m100.8 81.6h6.1v30.8h-6.1z" fill="#919093" transform="matrix(.9677 -.2523 .2523 .9677 -21.1152 29.3496)"/><path d="m104.8 112.7-8.9-5.1-7.3-25.9 8.5 1.2z" fill="#c8c8c8"/><path d="m93.9 80.3-5.3 1.4 8.5 1.2 5.9-1.6z" fill="#fff"/><path d="m91.7 84.1-1.8.2-.3 3.7 1.9 4.1 2.3.2-.2-4.3z" fill="#f7f7f7"/><path d="m91.7 84.1 2.8-.5 1.6 3.4.2 4.3-2.5 1-.2-4.3z" fill="#5b5b5b"/><path d="m90.5 86.9-8.3 2.2.9 3.4 8.3-2.2c.5-.1.7-1 .4-1.9-.2-.9-.8-1.6-1.3-1.5z" fill="#919093"/><path d="m94.5 83.6-2.4.9-2.2-.2 2-.7z" fill="#9b9b9b"/><path d="m96 98.9-1.7.2-.4 3.7 1.9 4.1 2.3.2-.1-4.3z" fill="#f7f7f7"/><path d="m96 98.9 2.9-.5 1.5 3.4.2 4.3-2.5 1-.1-4.3z" fill="#5b5b5b"/><path d="m94.9 101.7-8.3 2.2.9 3.4 8.3-2.2c.5-.1.7-1 .4-1.9s-.8-1.6-1.3-1.5z" fill="#919093"/><path d="m98.9 98.4-2.5.9-2.1-.2 1.9-.7z" fill="#9b9b9b"/><path d="m61 106.3 5.5 22.7 8.1 1.2 3.7-2 2.7-5.7-6.5-41.7-9.8.2-10 3.5 2.5 9.5c.1.4.4.6.7.5l2.9-.5c.6-.1 1.2.4 1.4 1.1l1.9 7.2c.2.6 0 1.2-.4 1.5z" fill="#5b5b5b"/><path d="m70.6 114.6 5.6 23.3 10 .8 4.7-2.3 2.9-6.1-11.6-47-5.5 4.8-12.4 4.1 2.5 9.7c.1.4.4.6.8.5l3.6-.6c.8-.1 1.5.3 1.7 1.1l1.9 7.4c.2.6-.1 1.2-.6 1.6z" fill="#9b9b9b"/><path d="m54.9 84.5 9.6-3.3c.6-.2 1.2-.1 1.7.2l6.9 4.5c.3.2.3.7-.1.8l-10.6 3.9c-.1 0-.1.2 0 .2l1.9 1.5 12.4-4.1 5.5-4.8-8.3-5.4-9.5 1.5-10.9 3.5c-.1 0-.2.2-.1.3z" fill="#f7f7f7"/><path d="m57 92.8-2.1-8.3 10.2-3.4.8-.4 7.5 5 .1 1.7-10.6 3.8 5.1 10.4 5.6-1.4 1 9.1-6.9 1.3-5.4-19.2z" fill="none"/><path d="m62.4 90.8 2.2 9c.1.4.3.7.6 1l1.6 1.3-2.5-9.7z" fill="#c8c8c8"/><path d="m73 132.9 3.2 5-5.6-23.3-3.3-3.7z" fill="#c8c8c8"/><path d="m67.3 110.9 3.3 3.7 4.7-2.5-2.7-11.6-1.2.6 2.5 8.1z" fill="#f7f7f7"/><path d="m76.8 88.2 5.5-4.8 12.2 47-3.6 6.1z" fill="#5b5b5b"/></svg>