<svg enable-background="new 0 0 192 140" viewBox="0 0 192 140" xmlns="http://www.w3.org/2000/svg"><path d="m191.3 107.1c0 2.7-2.2 4.9-5 4.9h-180.6c-2.8 0-5-2.2-5-4.9v-101.5c0-2.7 2.2-4.9 5-4.9h180.7c2.8 0 5 2.2 5 4.9z" fill="#e8e8e8"/><path d="m15.5 120.1 11.7 13.7 143-69-14.4-8.8z" fill="#9b9b9b"/><path d="m28.6 127.7c-2.2-.3-5.3-3.8-6.6-5.3-.5-.6-.4-1.4.2-1.9s1.4-.4 1.9.2c1.1 1.4 2.4 2.7 3.4 3.5-.6-2.4-1.5-6.4 1.7-8 2.5-1.3 5.2.3 7.7 1.8 2.1 1.3 4.3 2.6 6.1 2.1 1-.3 1.2-1.1.6-4-.4-2.2-1-5.3 1.7-6.6 2.8-1.4 5.3.1 7.2 1.2 1.1.7 2.2 1.3 3.2 1.4.7 0 1.4.6 1.3 1.4 0 .8-.6 1.4-1.4 1.3-1.7 0-3.1-.9-4.5-1.7-1.9-1.2-3.2-1.9-4.6-1.1-.7.4-.7 1.4-.2 3.7.4 2.4 1.1 6-2.5 7.1-2.9.9-5.8-.8-8.3-2.3-2-1.2-3.9-2.3-5.1-1.7s-.8 2.7-.3 5c.4 1.6.6 2.8-.1 3.6-.2.1-.8.3-1.4.3z" fill="#fff"/><path d="m15.4 125.6.1-5.5 11.7 13.7-.1 5.5z" fill="#f1b974"/><path d="m169.6 68 .6-3.2-143 69-.1 5.5z" fill="#f1b974"/><path d="m56.3 113.7c-.3.1-.7-.1-.9-.5 0-.1-2.9-6.2 2.8-10.5.3-.3.8-.1 1.1.3s.2.9-.2 1.2c-4.6 3.5-2.5 8.2-2.4 8.4.2.4.1.9-.3 1.1 0 0 0 0-.1 0z" fill="#5b5b5b"/><path d="m168.8 88.7-31.3-25.5c-3.3-2.7-4.8-7.4-3.7-11.6l2.5-10.2c.5-2.2-.2-4.6-1.8-6.1l-13.9-12.7-4.2.1c-1.5 0-3 .7-4.1 1.8-2.1 2.3-4.9 5.2-5.8 6.4-2.5 3.2 3.8 9.8 3.8 9.8l-2.6 5.7-6.5-6.1c-2.4-.1-4.8.8-6.5 2.6l-17 17.6c-.5.5-.9 1.1-1.3 1.7l-10.2 16.8c-1.1 1.8-1.7 3.8-1.9 6l-.3 3.3 6.4 9.3s1.8 1.2 6.1.5c2.9-.5 4.8-1.2 6.7-1.6 1.6-.4 3.3.4 4.2 2 6.4 11.3 13.2 17 16.4 19.3.8.6.8 1.8 0 2.4l-1 .6c-.5.4-.7 1.1-.4 1.8l1 2c.4.8 1.2 1.2 2 .9.6-.2 1-.9 1-1.7s.6-1.5 1.4-1.6l8.7-1 31.6-1.3c1.6-.1 3.1-1 3.9-2.4.6-1.1 1.7-1.9 3-2.2l13.2-2.5c2.8-.5 5.1-2.5 6.1-5.3l.9-2.7c.4-1.2.3-2.5-.2-3.6zm-49.1 18.8c-9.1-.9-11.7-1.3-17.4-5.9s-11.8-11.5-10.8-13.5 9.1-8.9 11.1-9.3 5.3-3.3 13.4-.5 32.7 18.6 34.6 22.5c2 4-21.8 7.7-30.9 6.7z" fill="#f7f7f7"/><path d="m175.5 100.8-6-12.6-.9-.7-1.3.1 1.4 1.2 6 12.5c.5 1.1.6 2.4.2 3.6l-.9 2.7c-.9 2.7-3.3 4.7-6.1 5.3l-13.2 2.5c-1.3.2-2.4 1-3 2.2-.8 1.4-2.3 2.4-3.9 2.4l-31.6 1.3-8.7 1c-.8.1-1.4.8-1.4 1.6s-.4 1.4-1 1.7c-.7.3-1.6-.1-2-.9l-1-2c-.3-.7-.1-1.4.4-1.8l1-.6c.9-.6.9-1.8 0-2.4-3.2-2.3-10-8-16.4-19.3-.2-.4-.8-1.1-1.2-1.5-.7-.7-2-.6-2-.6 1.6.9 2.1 1.9 2.4 2.5 6.4 11.3 13.2 17.1 16.7 19.6.2.1.2.4.2.5s0 .3-.3.5l-1 .6c-.9.6-1.2 1.9-.7 3l1 2c.5 1.1 1.7 1.7 2.8 1.5.1 0 .2-.1.4-.1 1-.4 1.6-1.4 1.5-2.6 0-.3.2-.6.6-.7l8.6-1 31.6-1.3c.3 0 .6-.1 1-.1 1.6-.3 2.9-1.4 3.7-2.8.5-.9 1.3-1.5 2.4-1.7l13.4-2.6c3-.7 5.5-2.9 6.6-5.8l.9-2.7c.6-1.6.5-3.2-.2-4.5z" fill="#c9c9c9"/><path d="m58.1 105.2-1.3-1.5c-.7-.8-.7-2-.1-2.7l2.3-2.5 3.8 4.3-2.3 2.5c-.7.8-1.7.7-2.4-.1z" fill="#f1b974"/><path d="m63 103.1-4.3-4.9c-.5-.5-.5-1.4-.1-1.9l1.7-1.9 6 6.8-1.7 1.9c-.3.6-1.1.5-1.6 0z" fill="#b1793c"/><path d="m66 100.9-5.3-6c-.2-.2-.2-.6 0-.8l3.3-5.9 8 9.8-5.3 2.9c-.2.2-.5.2-.7 0z" fill="#f1b974"/><path d="m152.5 100.7c-2.2-3.2-26.3-20.3-31.2-22-2.1-.7-5.2-1-8.3-1.2.9.2 2 .5 3.1.9 8.1 2.8 32.7 18.6 34.6 22.5s-21.9 7.6-31 6.7-11.7-1.3-17.4-5.9-11.8-11.5-10.8-13.5c.8-1.5 5.9-6.1 9-8.2-4.4 2.8-10.8 7-11.5 8.7-1.1 2.7 2.9 13.5 12.4 20.3 9.5 6.7 13.7 8 22.8 7.5 9-.5 23.4-3.8 23.4-3.8s7.1-8.9 4.9-12z" fill="#dfa65a"/><path d="m119 65.2c.4.7 1.2 1.4 2.4 2.3 1.5 1.1 2.1-1.3 3.1-1.7.6-.2 1.3.3 1.4.8.2.7-2.9 2 .1 3.9 4.1 2.6 9.5 5.8 14.6 9.6 9.6 7.1 17.4 12.7 18.9 13.8s4.5 2.4 5.9.9c.8-.9 2.3-3.5 3.4-5.3.7-1.2.4-2.7-.7-3.5l-31.3-26.4c-.6-.5-.9-1.2-1-2l-.1-1.8c-.1-1.4-.7-2.7-1.8-3.7-1-.9-2.3-1.8-3.2-1.4-1.8.7-.8.5-5.8 5.9s-6.6 7.4-5.9 8.6z" fill="#b1793c"/><path d="m115.3 23.8s-1.6.5.8 3.6 8 11.3 11 11.9 4.7-1 4.7-1 1.7 3.8 4.5 3.2c1.9-.4 1.6-2.3 1.3-3.6-.2-.6-.5-1.2-1-1.7l-4.7-4.9s-6.4-7.6-8.4-7.7-5.3-3-8.2.2z" fill="#ea9e39"/><path d="m127.5 25.8c1.8 1.8 4 5.1 4 5.1s-.7 1.3-.9 1.7c-.9 1.2-4.1.4-6.7-2.1s-4.1-5.8-3.2-7c.3-.4 1.5-1.8 1.5-1.8s3.5 2.3 5.3 4.1z" fill="#b1793c"/><ellipse cx="126.8" cy="26.3" fill="#f1b974" rx="2.7" ry="6.6" transform="matrix(.7168 -.6973 .6973 .7168 17.5573 95.8691)"/><path d="m129.8 28.6-5.7-5.8 10.4-10.3 2.7 2.5 2.7 3.1z" fill="#ea9e39"/><path d="m128.1 24.7c1.4 1.6 2.2 3.4 1.7 4s-2.8-.5-4.2-2.1-2-3.2-1.4-3.8c.4-.6 2.5.3 3.9 1.9z" fill="#ea9e39"/><path d="m137.4 14.5c2.1 1.8 2.9 3.3 2.6 3.6s-2.5-.9-3.9-2.5-1.8-2.7-1.6-3c.2-.4 1.3.4 2.9 1.9z" fill="#f1b974"/><path d="m89.2 71.4-13.7 15.4c-.9 1.1-2.5 1-3.5-.1s-1-2.9-.1-4l13.7-15.4c.9-1.1 2.5-1 3.5.1s1 2.9.1 4z" fill="#c9c9c9"/><path d="m105.5 54.3-1.5 1.7c-.7.8-1.8.7-2.6-.1l-1.6-1.8c-.7-.8-.8-2.1-.1-2.9l1.5-1.7c.7-.8 1.8-.7 2.6.1l1.6 1.8c.8.9.8 2.2.1 2.9z" fill="#c9c9c9"/><path d="m108.7 49.5c-.7.8-1.8.8-2.6 0-2.8-2.7-8.7-8.6-7.9-8.8.5-.1 2.7-1.2 3.3-1.5.7-.3 1.5-.1 2.1.5l4.5 4.9 2.3-2.5-.1-1.4 2.1-2.4 1.8 1.7c.9.9 1 2.4.2 3.2z" fill="#ea9e39"/><g fill="#b1793c"><path d="m111.6 44.3-3.1 3.5c-.7.8-1.8.7-2.6-.1l-1.6-1.8c-.7-.8-.8-2.1-.1-2.9l3.1-3.5c.7-.8 1.8-.7 2.6.1l1.6 1.8c.8.8.8 2.1.1 2.9z"/><path d="m164.5 110.9-7 1.4c-.5.1-1-.2-1.1-.7s.2-1 .7-1.1l7-1.4c.5-.1 1 .2 1.1.7.1.6-.2 1-.7 1.1z"/><path d="m163.8 107.8-7 1.4c-.5.1-1-.2-1.1-.7s.2-1 .7-1.1l7-1.4c.5-.1 1 .2 1.1.7s-.2 1-.7 1.1z"/><path d="m141 105.7s-4.5-9.5-6.2-12.3c-.8-1.3 2.6-3 2.6-3-7.8-5.2-17-10.4-21.4-12-2.1-.8-4-1.1-5.5-1.2h-2.3c-.5 0-.9.1-1.3.2l3.1 3.9c1 1.2 2.5 1.6 3.7.9.7-.4 1.7-.8 3-.8 5.9 0 21.5 24.9 21.5 24.9l2 3.7 1.7-.9c1-.7-.2-2.3-.9-3.4z"/></g></svg>