<svg enable-background="new 0 0 36 28" height="28" viewBox="0 0 36 28" width="36" xmlns="http://www.w3.org/2000/svg"><g fill="#edb056"><path d="m31.206 8.215c-.068-1.488-.304-2.504-.649-3.394-.358-.919-.835-1.698-1.612-2.475-.776-.777-1.556-1.256-2.476-1.612-.89-.346-1.905-.582-3.394-.65-1.491-.068-1.967-.084-5.762-.084-3.796 0-4.273.016-5.764.084-1.487.068-2.504.304-3.393.65-.92.357-1.698.836-2.476 1.613-.777.777-1.255 1.556-1.613 2.475-.345.889-.581 1.906-.649 3.393-.068 1.49-.084 1.967-.084 5.763 0 3.797.016 4.271.084 5.764.068 1.488.304 2.503.649 3.393.357.92.836 1.699 1.613 2.476s1.556 1.255 2.476 1.612c.889.346 1.905.583 3.393.649 1.491.068 1.967.085 5.764.085 3.796 0 4.271-.017 5.763-.085 1.488-.066 2.504-.304 3.394-.649.92-.357 1.699-.835 2.476-1.612.777-.776 1.254-1.556 1.612-2.476.346-.89.581-1.904.649-3.393.068-1.492.085-1.967.085-5.764-.001-3.796-.018-4.272-.086-5.763zm-2.516 11.413c-.062 1.362-.289 2.104-.48 2.596-.254.651-.558 1.118-1.046 1.606-.489.488-.955.792-1.607 1.046-.492.191-1.232.42-2.595.48-1.475.067-1.917.082-5.649.082-3.733 0-4.175-.015-5.648-.082-1.363-.061-2.104-.289-2.596-.48-.652-.254-1.118-.558-1.608-1.046-.489-.488-.792-.955-1.045-1.606-.191-.492-.419-1.233-.481-2.596-.067-1.475-.082-1.917-.082-5.648 0-3.733.014-4.175.082-5.649.063-1.363.29-2.104.481-2.596.253-.651.557-1.118 1.045-1.606.489-.49.955-.793 1.608-1.047.492-.192 1.232-.419 2.596-.481 1.473-.068 1.916-.082 5.648-.082s4.174.014 5.649.082c1.362.062 2.103.29 2.595.481.652.254 1.118.557 1.607 1.046.488.489.792.955 1.046 1.606.191.493.419 1.233.48 2.596.067 1.474.082 1.916.082 5.649 0 3.732-.014 4.174-.082 5.649z"/><circle cx="24.774" cy="6.517" r="1.677"/><path d="m17.313 6.8c-3.965 0-7.178 3.213-7.178 7.178s3.213 7.178 7.178 7.178c3.964 0 7.177-3.213 7.177-7.178s-3.213-7.178-7.177-7.178zm0 11.838c-2.573 0-4.66-2.086-4.66-4.659s2.086-4.659 4.66-4.659c2.573 0 4.659 2.085 4.659 4.659s-2.086 4.659-4.659 4.659z"/></g></svg>