<svg enable-background="new 0 0 36 28" height="28" viewBox="0 0 36 28" width="36" xmlns="http://www.w3.org/2000/svg"><g fill="#e8e8e8"><path d="m20.109 14.011h2.359c.294-.652.473-1.341.537-2.054h-2.688c-.026.71-.093 1.398-.208 2.054z"/><path d="m18.913 17.474c1.126-.461 2.102-1.222 2.83-2.212h-1.911c-.238.853-.547 1.602-.919 2.212z"/><path d="m20.317 10.697h2.688c-.064-.713-.243-1.401-.537-2.05h-2.359c.115.653.182 1.341.208 2.05z"/><path d="m13.732 11.957c.031.707.109 1.397.232 2.054h4.862c.126-.659.202-1.347.232-2.054z"/><path d="m11.049 15.264c.726.988 1.7 1.749 2.826 2.212-.372-.611-.68-1.358-.917-2.212z"/><path d="m21.745 7.393c-.73-.989-1.706-1.75-2.828-2.21.368.607.679 1.356.913 2.21z"/><path d="m16.396 17.979c.789 0 1.603-1.056 2.122-2.715h-4.245c.521 1.659 1.334 2.715 2.123 2.715z"/><path d="m27.825 23.053v-23.053s-15.882 0-19.321 0c-3.441 0-4.014 3.388-4.014 3.388v21.17s0 3.388 2.581 3.388h20.754v-2.442h-.659v-2.451zm-18.5-15.248.026-.057c1.368-2.669 4.064-4.323 7.043-4.323 2.976 0 5.672 1.654 7.034 4.312l.038.08c.546 1.069.829 2.266.829 3.512 0 1.245-.283 2.443-.848 3.56-1.382 2.692-4.076 4.343-7.052 4.343-2.979 0-5.677-1.652-7.039-4.313l-.036-.091c-.542-1.049-.829-2.246-.829-3.5.001-1.239.281-2.424.834-3.523zm15.303 17.697h-15.416s-1.804.205-1.804-1.247c0-1.227 1.804-1.202 1.804-1.202h15.416z"/><path d="m12.682 8.647h-2.362c-.29.651-.468 1.341-.538 2.05h2.691c.027-.703.095-1.389.209-2.05z"/><path d="m16.396 4.68c-.789 0-1.603 1.051-2.123 2.715h4.245c-.519-1.662-1.333-2.715-2.122-2.715z"/><path d="m12.682 14.009c-.113-.663-.182-1.351-.208-2.052h-2.692c.07.711.248 1.401.538 2.052z"/><path d="m13.875 5.183c-1.126.46-2.1 1.221-2.828 2.21h1.912c.238-.855.547-1.602.916-2.21z"/><path d="m19.06 10.697c-.03-.703-.106-1.391-.232-2.05h-4.862c-.124.655-.204 1.343-.232 2.05z"/></g></svg>