<svg enable-background="new 0 0 36 28" height="28" viewBox="0 0 36 28" width="36" xmlns="http://www.w3.org/2000/svg"><path d="m34.877 23.993c-1.235.772-6.257 1.005-7.474.119-.669-.482-3.544-3.717-3.842-4.073-.505-.591-1.284-1.097-1.897-.369-.928 1.091.142 3.465-1.094 4.277-.416.273-.833.354-1.35.314 0 0-2.886.073-3.652-.065-.854-.154-1.725-.456-2.686-1.033-1.375-.826-3.135-2.105-4.198-3.333-2.894-3.345-6.157-7.304-7.666-11.508-.311-.864-1.132-2.575-.353-3.315 1.057-.769 6.249-.986 7.058.203.329.483.889 2.022 1.121 2.569.291.683 2.268 4.296 2.692 4.903.287.412 1.124 1.126 1.603 1.186.44.057.59-.446.745-.961.257-.858.049-3.95.071-4.629.02-.579.071-1.396-.272-1.87-.559-.771-1.805-.193-1.902-1.23.206-.295.163-.555 1.537-1.009 1.083-.355 1.779-.28 2.496-.287 1.525-.014 2.998-.277 4.402.194 1.345.453 1.138 2.36 1.091 3.504-.058 1.56.006 3.083 0 4.667-.002.72-.009 1.616.872 1.557.823-.055 1.016-.87 1.41-1.442.548-.798 2.454-4.756 3.162-5.856.249-.394.467-1.232.857-1.544.294-.236.854-.112 1.211-.112 0 0 4.866-.169 5.819-.035 4.111.581-5.169 9.372-4.687 10.942.335 1.083 2.451 2.294 3.217 3.182 1.015 1.185 4.138 3.533 1.709 5.054z" fill="#e6e5e5"/></svg>