<svg enable-background="new 0 0 36 28" height="28" viewBox="0 0 36 28" width="36" xmlns="http://www.w3.org/2000/svg"><g fill="#edb056"><path d="m6.237 27.855 2.307-6.406c.039-.109.032-.18-.028-.276-1.181-1.877-1.888-3.853-2.102-5.873-.292-2.745.196-5.346 1.449-7.734 1.992-3.794 5.021-6.193 9.002-7.13 1.23-.289 2.442-.436 3.599-.436 3.794 0 7.173 1.554 10.045 4.618 1.94 2.072 3.103 4.605 3.456 7.53.438 3.635-.423 6.961-2.556 9.887-1.989 2.729-4.675 4.521-7.979 5.331-1.048.258-2.101.388-3.13.388-1.892 0-3.773-.439-5.591-1.309-.138-.064-.274-.135-.412-.203-.165-.084-.33-.167-.498-.245-.047-.021-.104-.035-.155-.035-2.285.631-4.514 1.259-6.743 1.888l-.32.09-.337.078zm7.474-4.317c.126 0 .248.038.379.116 1.978 1.189 4.023 1.794 6.08 1.794 1.48 0 2.995-.313 4.503-.933 2.956-1.215 5.058-3.352 6.246-6.353 1.295-3.267 1.147-6.467-.433-9.514-1.949-3.76-5.067-5.865-9.269-6.254-.409-.038-.812-.057-1.206-.057-3.187 0-5.94 1.214-8.186 3.61-2.773 2.957-3.731 6.525-2.849 10.604.324 1.493.989 2.899 2.034 4.3.104.138.123.265.064.422-.237.652-1.192 3.317-1.192 3.317l.924-.259c.893-.251 1.787-.502 2.676-.76.085-.021.158-.033.229-.033z"/><path d="m12.791 10.204c-.009-1.282.447-2.377 1.326-3.301.278-.292.612-.453 1.023-.439.212.008.427.02.639.011.318-.014.534.135.657.409.15.336.282.684.417 1.028.29.743.576 1.485.865 2.227.089.229.073.444-.023.673-.214.501-.563.903-.909 1.309-.278.327-.306.484-.095.863.97 1.749 2.262 3.187 4.038 4.155.316.176.647.328.978.482.312.146.502.102.708-.17.379-.492.755-.985 1.119-1.487.238-.331.402-.403.783-.239.396.174.781.373 1.166.57.58.297 1.15.611 1.734.9.301.148.422.363.405.688-.026.526-.106 1.039-.302 1.527-.215.55-.662.899-1.129 1.228-1.027.715-2.162.824-3.328.494-1.186-.334-2.322-.81-3.379-1.453-1.193-.729-2.227-1.65-3.156-2.688-1.094-1.219-2.056-2.533-2.807-3.993-.447-.873-.723-1.801-.73-2.794z"/></g></svg>