<svg enable-background="new 0 0 36 28" height="28" viewBox="0 0 36 28" width="36" xmlns="http://www.w3.org/2000/svg"><g clip-rule="evenodd" fill="#e6e5e5" fill-rule="evenodd"><path d="m6.237 27.856 2.307-6.407c.039-.109.032-.179-.028-.276-1.181-1.877-1.888-3.853-2.102-5.873-.292-2.745.196-5.346 1.449-7.734 1.992-3.794 5.021-6.193 9.002-7.13 1.23-.289 2.441-.436 3.599-.436 3.794 0 7.173 1.554 10.045 4.618 1.94 2.072 3.103 4.605 3.456 7.53.437 3.635-.423 6.961-2.556 9.887-1.989 2.728-4.674 4.521-7.979 5.331-1.048.258-2.101.388-3.13.388-1.892 0-3.773-.439-5.591-1.308-.138-.065-.274-.135-.412-.204-.165-.084-.33-.167-.498-.245-.047-.021-.104-.035-.155-.035-2.285.631-4.514 1.259-6.743 1.887l-.32.091-.337.078zm7.474-4.318c.126 0 .248.038.379.117 1.978 1.189 4.023 1.793 6.08 1.793 1.48 0 2.995-.313 4.503-.933 2.956-1.214 5.058-3.351 6.246-6.352 1.295-3.267 1.148-6.467-.433-9.514-1.949-3.76-5.067-5.865-9.268-6.254-.409-.038-.812-.057-1.207-.057-3.186 0-5.939 1.214-8.185 3.61-2.773 2.957-3.731 6.525-2.849 10.604.324 1.493.989 2.899 2.034 4.299.104.138.123.265.064.422-.237.653-1.192 3.318-1.192 3.318l.924-.259c.893-.251 1.787-.502 2.676-.76.084-.022.157-.034.228-.034z"/><path d="m12.791 10.204c-.009-1.282.447-2.377 1.326-3.301.278-.292.612-.453 1.023-.439.212.008.427.02.639.011.318-.014.534.135.657.409.15.336.282.684.417 1.028.29.743.576 1.485.865 2.227.089.229.073.444-.023.673-.214.501-.563.903-.909 1.309-.278.327-.306.484-.095.863.97 1.749 2.262 3.187 4.037 4.155.317.176.648.328.978.482.312.146.502.101.708-.17.379-.492.755-.985 1.119-1.487.239-.331.403-.404.783-.239.396.174.781.372 1.167.57.58.297 1.15.611 1.734.901.3.148.421.362.405.688-.026.526-.107 1.039-.301 1.527-.216.55-.663.9-1.13 1.227-1.027.715-2.161.825-3.328.495-1.186-.334-2.322-.81-3.378-1.453-1.194-.729-2.227-1.65-3.157-2.688-1.094-1.219-2.056-2.533-2.807-3.993-.447-.874-.723-1.802-.73-2.795z"/></g></svg>