<svg enable-background="new 0 0 36 28" height="28" viewBox="0 0 36 28" width="36" xmlns="http://www.w3.org/2000/svg"><g fill="#edb056"><path d="m18.223 28c-2.744-.063-5.47-.12-8.196-.189-1.442-.037-3.129-1.002-3.266-3.107-.175-2.672-.2-5.34.038-8.008.126-1.4 1.268-2.541 2.748-2.745.586-.083 1.182-.119 1.775-.121 4.595-.01 9.192-.013 13.788.004.701.002 1.416.042 2.096.192 1.443.321 2.326 1.438 2.441 2.909.203 2.594.205 5.185.004 7.777-.141 1.786-1.392 3.033-3.198 3.091-2.748.09-5.498.135-8.23.197zm1.849-3.212c.156.116.273.215.398.296 1.051.686 2.086.193 2.198-1.044.013-.13.013-.265.013-.396 0-1.056.002-2.11-.002-3.166-.002-.317-.008-.64-.046-.955-.124-1.022-1.048-1.514-1.97-1.045-.2.103-.377.25-.602.402 0-.986 0-1.945 0-2.92-.481 0-.926 0-1.391 0v9.314h1.374c.013-.154.019-.294.028-.486zm6.408-1.962c-.027.348-.039.676-.086 1-.049.337-.291.438-.603.423-.306-.013-.554-.192-.565-.488-.022-.577-.008-1.159-.008-1.765h1.307 1.297c0-.798.068-1.569-.018-2.324-.093-.783-.621-1.273-1.408-1.414-.299-.053-.617-.049-.92-.014-.968.113-1.701.883-1.72 1.828-.021 1.166-.024 2.332.002 3.494.025 1.084.694 1.779 1.769 1.904 1.619.191 2.771-1.143 2.283-2.646-.444.002-.89.002-1.33.002zm-9.241 2.457c0-2.301 0-4.57 0-6.861-.457 0-.891 0-1.371 0v.401c0 1.528.002 3.059-.001 4.587 0 .332-.479.742-.839.73-.272-.008-.363-.168-.363-.656 0-1.562 0-3.123 0-4.686 0-.126 0-.252 0-.382-.493 0-.93 0-1.405 0v.369c0 1.671-.001 3.344 0 5.015 0 .21-.007.42.008.627.048.696.454 1.028 1.144.953.445-.049.808-.268 1.14-.55.087-.074.176-.147.299-.252.015.269.027.481.04.703.454.002.882.002 1.348.002zm-3.975-9.31c-1.638 0-3.234 0-4.831 0v1.346h1.607v7.949h1.59c0-2.662 0-5.295 0-7.965h1.634c0-.461 0-.888 0-1.33z"/><path d="m15.078 7.924c0-.638 0-1.276 0-1.914 0-1.512.656-2.254 2.171-2.455.638-.084 1.25.004 1.813.331.685.396 1.047 1 1.054 1.787.013 1.528.021 3.059-.003 4.587-.016 1.221-.711 1.981-1.921 2.179-.633.103-1.253.073-1.839-.205-.743-.354-1.198-.945-1.241-1.771-.043-.845-.01-1.693-.01-2.54-.007.001-.015.001-.024.001zm1.805.08c0 .748-.004 1.495.003 2.242.002.526.21.738.704.739.516.001.754-.223.756-.735.003-1.505.002-3.01 0-4.516-.001-.437-.305-.725-.754-.728-.431-.002-.706.274-.709.724-.002.758 0 1.517 0 2.274z"/><path d="m12.902 12.259c-.665 0-1.313 0-1.968 0-.006-.125 0-.24 0-.356-.001-1.199.028-2.397 0-3.595-.011-.441-.08-.897-.218-1.316-.64-1.949-1.312-3.887-1.974-5.831-.04-.123-.077-.248-.134-.427.648 0 1.259-.01 1.866.013.07.002.163.178.194.288.365 1.321.722 2.646 1.082 3.97.029.108.072.213.108.319.032.001.064.001.097.001.037-.117.08-.233.111-.351.344-1.316.688-2.633 1.022-3.952.054-.216.133-.307.371-.298.547.021 1.097.007 1.688.007-.053.171-.09.305-.135.436-.641 1.868-1.292 3.732-1.917 5.604-.119.357-.18.75-.186 1.127-.022 1.318-.01 2.639-.01 3.957.003.129.003.257.003.404z"/><path d="m21.604 3.771h1.729v.399c0 1.979-.001 3.958.002 5.938 0 .259-.051.563.248.698.291.133.555-.008.796-.179.302-.212.462-.458.457-.871-.026-1.869-.013-3.738-.013-5.608 0-.118 0-.237 0-.394.559 0 1.084-.005 1.607.007.049.001.115.104.141.17.025.069.007.153.007.23v7.72.375c-.595 0-1.147 0-1.744 0 0-.282 0-.56 0-.9-.237.197-.414.355-.604.498-.439.331-.924.545-1.492.522-.575-.024-.953-.321-1.078-.881-.045-.202-.069-.413-.07-.62-.005-2.277-.002-4.553-.002-6.829-.002-.087.01-.171.016-.275z"/><path d="m20.063 21.834c0-.636.016-1.271-.006-1.908-.012-.342.197-.441.452-.496.272-.058.541-.017.657.286.053.14.07.302.07.451.006 1.151.016 2.306-.008 3.456-.004.203-.104.518-.248.578-.192.084-.481.005-.707-.07-.1-.033-.198-.229-.201-.354-.021-.648-.009-1.297-.009-1.943z"/><path d="m25.216 20.92c0-.32-.017-.617.005-.91.026-.369.25-.57.596-.578.35-.008.563.174.598.56.027.303.005.608.005.93-.402-.002-.781-.002-1.204-.002z"/></g></svg>