<svg enable-background="new 0 0 36 28" height="28" viewBox="0 0 36 28" width="36" xmlns="http://www.w3.org/2000/svg"><g clip-rule="evenodd" fill="#e6e5e5" fill-rule="evenodd"><path d="m18.223 28c-2.744-.063-5.47-.12-8.196-.189-1.442-.037-3.129-1.003-3.266-3.108-.175-2.672-.2-5.34.038-8.008.126-1.4 1.268-2.54 2.748-2.745.586-.083 1.182-.119 1.775-.121 4.595-.01 9.192-.013 13.788.004.7.002 1.415.042 2.095.192 1.443.321 2.326 1.438 2.441 2.908.204 2.594.206 5.185.004 7.778-.14 1.786-1.391 3.033-3.198 3.091-2.747.09-5.497.135-8.229.198zm1.85-3.212c.155.116.272.215.398.296 1.05.685 2.086.193 2.198-1.044.013-.13.012-.264.012-.395.001-1.056.003-2.111-.001-3.167-.002-.317-.008-.639-.046-.954-.124-1.023-1.048-1.514-1.97-1.046-.2.103-.377.25-.602.403 0-.987 0-1.946 0-2.92-.481 0-.926 0-1.39 0v9.314h1.374c.011-.155.017-.295.027-.487zm6.408-1.962c-.028.348-.039.676-.087 1-.048.337-.29.437-.602.423-.305-.013-.554-.193-.565-.488-.023-.578-.008-1.159-.008-1.765h1.307 1.297c0-.798.068-1.569-.019-2.324-.092-.784-.621-1.274-1.408-1.414-.298-.053-.617-.049-.919-.014-.968.114-1.702.883-1.72 1.828-.021 1.166-.024 2.332.002 3.495.025 1.084.694 1.778 1.769 1.904 1.618.191 2.771-1.143 2.282-2.646-.444.001-.89.001-1.329.001zm-9.242 2.457c0-2.3 0-4.57 0-6.861-.457 0-.891 0-1.371 0v.401c0 1.529.002 3.059-.001 4.587 0 .332-.479.742-.839.731-.272-.008-.363-.168-.363-.656 0-1.562 0-3.123 0-4.686 0-.126 0-.252 0-.382-.493 0-.93 0-1.405 0v.369c0 1.671-.001 3.344 0 5.015 0 .21-.007.42.008.627.048.696.454 1.028 1.144.953.445-.049.808-.268 1.14-.55.087-.074.176-.148.299-.252.015.269.027.482.04.703.454.001.882.001 1.348.001zm-3.975-9.311c-1.638 0-3.234 0-4.831 0v1.346h1.607v7.949h1.59c0-2.661 0-5.294 0-7.964h1.634c0-.461 0-.888 0-1.331z"/><path d="m15.078 7.924c0-.638 0-1.276 0-1.914 0-1.512.656-2.254 2.171-2.455.638-.084 1.25.004 1.814.331.684.396 1.047 1 1.053 1.787.013 1.528.021 3.059-.002 4.587-.017 1.221-.712 1.981-1.922 2.179-.633.103-1.253.073-1.839-.205-.743-.354-1.198-.945-1.241-1.771-.043-.845-.01-1.693-.01-2.54-.007.001-.015.001-.024.001zm1.805.08c0 .748-.004 1.495.003 2.242.002.526.21.738.704.739.516.001.754-.223.756-.735.003-1.505.002-3.01 0-4.516-.001-.437-.305-.725-.754-.728-.431-.002-.706.274-.709.724-.002.758 0 1.517 0 2.274z"/><path d="m12.902 12.259c-.665 0-1.313 0-1.968 0-.006-.125 0-.24 0-.356-.001-1.199.028-2.397 0-3.595-.011-.441-.08-.897-.218-1.316-.64-1.949-1.312-3.887-1.974-5.831-.04-.123-.077-.248-.134-.427.648 0 1.259-.01 1.866.013.07.002.163.178.194.288.365 1.321.722 2.646 1.082 3.97.029.108.072.213.108.319.032.001.064.001.097.001.037-.117.08-.233.111-.351.344-1.316.688-2.633 1.022-3.952.054-.216.133-.307.371-.298.547.021 1.097.007 1.688.007-.053.171-.09.305-.135.436-.641 1.868-1.292 3.732-1.917 5.604-.119.357-.18.75-.186 1.127-.022 1.318-.01 2.639-.01 3.957.003.129.003.257.003.404z"/><path d="m21.604 3.771h1.728v.399c0 1.979-.001 3.958.002 5.938 0 .259-.051.563.248.698.291.133.555-.008.796-.179.301-.212.462-.458.457-.871-.027-1.869-.013-3.738-.013-5.608 0-.118 0-.237 0-.394.559 0 1.084-.005 1.607.007.05.001.116.103.141.17.025.069.007.153.007.23v7.72.375c-.594 0-1.148 0-1.744 0 0-.282 0-.56 0-.9-.237.197-.414.355-.604.498-.44.331-.924.545-1.492.522-.576-.024-.954-.321-1.079-.881-.045-.202-.069-.413-.07-.62-.005-2.277-.002-4.553-.002-6.829 0-.087.011-.171.018-.275z"/><path d="m20.062 21.834c0-.636.016-1.272-.005-1.908-.012-.342.197-.441.452-.496.272-.058.541-.017.657.286.053.14.071.301.071.451.005 1.152.015 2.305-.009 3.456-.004.203-.104.517-.248.578-.192.084-.481.005-.706-.07-.1-.033-.199-.229-.202-.354-.021-.648-.01-1.296-.01-1.943z"/><path d="m25.216 20.92c0-.321-.017-.617.004-.91.027-.369.25-.57.596-.579.35-.007.564.174.598.56.027.303.005.609.005.93-.401-.001-.781-.001-1.203-.001z"/></g></svg>