<svg enable-background="new 0 0 54 56" viewBox="0 0 54 56" xmlns="http://www.w3.org/2000/svg"><path d="m0 18c0 20.99 17.01 38 38 38 5.72 0 11.14-1.27 16-3.53v-52.47h-49.47c-2.89 5.36-4.53 11.49-4.53 18z" fill="#edb056"/><g fill="#fff"><path d="m29.37 25.23c-.1-.39-.29-.88-.57-1.37l-.38-.68 2.11-2.15c.38.49.38.88.29 1.27 0 .27-.17.63-.42.99-.03.05-.03.12.01.16l.59.62c.05.05.13.05.17 0 .61-.66.87-1.41.78-2.16-.1-.59-.17-1.19-.65-1.68l.95-.97c.05-.05.05-.12 0-.17l-.5-.51c-.05-.05-.16-.09-.21-.04l-.97.99c-.57-.49-1.2-.74-1.78-.74-.77 0-1.44.29-2.01.88-.48.49-.72 1.19-.55 1.9.2.82.8 1.57.8 1.57l-2.3 2.34c-.38-.59-.53-1.03-.44-1.62.09-.37.27-.75.62-1.12.03-.03.03-.07 0-.1l-.67-.68c-.03-.03-.07-.03-.1 0-.64.67-1 1.43-.91 2.29 0 .66.24 1.29.78 1.95.03.04-.03.03-.07.07l-1.02 1.04c-.03.03.05.18.09.22l.56.57c.03.03.03-.03.06-.06l.99-1c.03-.03.03-.09.06-.06.55.45 1.17.79 1.81.98.77.2 1.53-.1 2.2-.78.58-.59.77-1.17.68-1.95zm-1.48-2.97c-.25-.25-.4-.63-.44-.93-.1-.39 0-.78.29-1.07s.67-.39 1.05-.39c.29 0 .63.15 1.01.45zm-1.78 4.43c-.29-.1-.48-.29-.67-.49l2.2-2.24c.38.59.57 1.07.57 1.37.1.39-.1.68-.38 1.07-.48.58-1.05.58-1.72.29z"/><path d="m40.25 9.77c.39.03.69.33.72.73l-.34 11.35c.01.24-.08.48-.25.66l-12.91 13.15c-.35.36-.81.54-1.26.54-.42 0-.84-.16-1.15-.48l-9.58-9.75c-.65-.66-.62-1.77.06-2.46l12.91-13.15c.16-.16.38-.26.6-.26h.05zm.02-1.5h-.07l-11.1.33c-.02 0-.04 0-.06 0-.62 0-1.23.26-1.67.7l-12.91 13.15c-1.25 1.28-1.28 3.32-.06 4.57l9.58 9.75c.59.6 1.38.93 2.23.93.88 0 1.71-.35 2.33-.99l12.91-13.15c.45-.46.7-1.08.68-1.72l.33-11.3v-.07-.07c-.07-1.14-.98-2.06-2.12-2.13z"/><path d="m35.96 13.19c.42 0 .83.16 1.15.49.64.65.64 1.7 0 2.35-.32.32-.73.49-1.15.49s-.83-.16-1.15-.49c-.64-.65-.64-1.7 0-2.35.32-.33.73-.49 1.15-.49m0-1.5c-.84 0-1.63.33-2.22.94-1.2 1.23-1.2 3.22 0 4.45.59.6 1.38.94 2.22.94s1.63-.33 2.22-.94c1.2-1.23 1.2-3.22 0-4.45-.59-.61-1.38-.94-2.22-.94z"/><g stroke="#fff" stroke-miterlimit="10" stroke-width=".25"><path d="m37.85 29.15-.81.82c.22.31.17.65.06 1.12-.2.73-.73.97-1.46.98-.22.02-.41-.02-.59-.09l-2.03 2.05c.04.04.1.08.13.09l.74.29c.04.02.01-.04.03-.08l.5-1.33c.02-.04-.01-.09.03-.08.68.19 1.38.24 2.05.14.78-.14 1.36-.72 1.7-1.63.29-.77.23-1.39-.17-2.06-.04-.07-.11-.14-.18-.22z"/><path d="m47.43 21.41-3.79-9.01-.11 2.34 2.99 7.09.02.04c.04.08.05.19.01.29l-6.54 17.37c-.25.66-.94 1-1.54.76l-8.31-3.25-.78.79 8.73 3.41c.25.1.5.14.75.14.89 0 1.74-.57 2.08-1.49l6.54-17.37c.14-.37.12-.77-.05-1.11z"/></g></g></svg>