<svg enable-background="new 0 0 18 18" height="18" viewBox="0 0 18 18" width="18" xmlns="http://www.w3.org/2000/svg"><path clip-rule="evenodd" d="m8.733 18c-.119 0-.237 0-.356 0-.019-.005-.039-.015-.06-.017-.341-.054-.638-.191-.884-.42-.296-.275-.591-.55-.883-.829-.284-.273-.443-.604-.458-.987-.018-.45.166-.821.503-1.137 1.141-1.065 2.277-2.135 3.416-3.203.023-.022.047-.049.083-.087-.042 0-.06 0-.077 0-2.798 0-5.596-.001-8.395.002-.9 0-1.596-.627-1.607-1.464-.007-.483-.007-.966 0-1.448.011-.829.705-1.463 1.589-1.462.77.001 1.539 0 2.308 0h6.045.115c.006-.012.012-.024.017-.036-.041-.03-.085-.058-.122-.093-1.137-1.064-2.273-2.129-3.406-3.195-.632-.595-.629-1.509.002-2.102.297-.279.598-.554.897-.83.202-.186.44-.312.714-.378.066-.017.135-.031.202-.045h.356c.023.006.045.014.069.019.319.054.596.183.826.399 2.63 2.465 5.263 4.931 7.893 7.396.637.599.641 1.514.005 2.111-2.623 2.457-5.249 4.915-7.871 7.374-.203.19-.442.319-.72.386-.066.017-.134.03-.201.046z" fill="#edb056" fill-rule="evenodd"/></svg>