<svg enable-background="new 0 0 86 98" height="98" viewBox="0 0 86 98" width="86" xmlns="http://www.w3.org/2000/svg"><g fill="none" stroke="#fff" stroke-miterlimit="10"><g stroke-width="1.4104"><path d="m25.001 43.507h5.188v17.315h-5.188z"/><path d="m32.546 63.678c0 .26-.211.471-.471.471h-8.803c-.26 0-.472-.211-.472-.471v-2.359c0-.26.211-.472.472-.472h8.803c.26 0 .471.212.471.472z"/><path d="m32.546 43.025c0 .26-.211.471-.471.471h-8.803c-.26 0-.472-.211-.472-.471v-2.359c0-.26.211-.471.472-.471h8.803c.26 0 .471.211.471.471z"/><path d="m40.329 43.507h5.187v17.315h-5.187z"/><path d="m47.873 63.678c0 .26-.211.471-.472.471h-8.803c-.261 0-.471-.211-.471-.471v-2.359c0-.26.21-.472.471-.472h8.803c.261 0 .472.212.472.472z"/><path d="m47.873 43.025c0 .26-.211.471-.472.471h-8.803c-.261 0-.471-.211-.471-.471v-2.359c0-.26.21-.471.471-.471h8.803c.261 0 .472.211.472.471z"/><path d="m55.654 43.507h5.188v17.315h-5.188z"/><path d="m63.201 63.678c0 .26-.213.471-.473.471h-8.804c-.26 0-.471-.211-.471-.471v-2.359c0-.26.211-.472.471-.472h8.804c.26 0 .473.212.473.472z"/><path d="m63.201 43.025c0 .26-.213.471-.473.471h-8.804c-.26 0-.471-.211-.471-.471v-2.359c0-.26.211-.471.471-.471h8.804c.26 0 .473.211.473.471z"/><path d="m67.13 67.333c0 .259-.211.471-.472.471h-47.317c-.26 0-.471-.212-.471-.471v-2.674c0-.261.211-.472.471-.472h47.317c.261 0 .472.211.472.472z"/><path d="m68.78 71.418c0 .262-.212.472-.471.472h-50.617c-.261 0-.472-.21-.472-.472v-3.143c0-.262.211-.472.472-.472h50.618c.259 0 .471.21.471.472v3.143z"/><path d="m67.366 39.586c0 .261-.212.472-.472.472h-47.788c-.261 0-.472-.211-.472-.472v-2.986c0-.26.211-.472.472-.472h47.788c.26 0 .472.212.472.472z"/></g><path d="m23.286 36.127 19.719-13.357 19.432 13.357z" stroke-width="1.2958"/><path d="m18.636 35.975 24.369-16.64 23.849 16.64" stroke-linecap="round" stroke-linejoin="round" stroke-width="1.3195"/></g></svg>