<svg enable-background="new 0 0 86 98" height="98" viewBox="0 0 86 98" width="86" xmlns="http://www.w3.org/2000/svg"><g stroke="#fff" stroke-miterlimit="10"><g fill="none"><path d="m45.327 25.158c2.126-2.068 1.127-4.174-.327-5.669-1.455-1.495-4.357-1.031-6.483 1.037s-2.864 6.248-1.41 7.743c1.455 1.495 6.094-1.044 8.22-3.111z" stroke-width="1.9335"/><path d="m45.938 19.944s12.81-1.3 18.126 8.313c5.317 9.612.725 25.459-20.543 26.757" stroke-linecap="round" stroke-width="2.0046"/><path d="m36.753 56.223c-8.217.725-9.667 5.559 1.595 8.666 3.02.833 6.864 1.727 8.798 2.692 3.377 1.689-1.208 4.352-3.384 5.076" stroke-linecap="round" stroke-width="1.9335"/><path d="m31.436 78.699s0-1.934 5.075-4.108" stroke-linecap="round" stroke-width="1.9335"/></g><path d="m33.169 33.518c1.333-.778 1.432-1.538 1.493-2.079.061-.532.136-1.192 1.245-1.626l.651.429-.552.192c-.566.222-.778.786-.831 1.245-.094.835-.518 1.229-1.692 1.807-.225.11-.314.032-.314.032z" fill="#fff" stroke-width=".4834"/><path d="m19.352 36.404s1.68 13.042 21.027 12.81c20.06-.242 20.543-12.81 20.543-12.81z" fill="none" stroke-width="1.9335"/><path d="m29.019 84.5h21.752c4.833 0-8.701-4.592-8.701-4.592v-30.211h-3.867v30.211c.001 0-12.809 4.592-9.184 4.592z" fill="none" stroke-width="1.9335"/></g></svg>