<svg enable-background="new 0 0 86 98" height="98" viewBox="0 0 86 98" width="86" xmlns="http://www.w3.org/2000/svg"><g fill="#fff"><path d="m20.679 55.052c0 .249-.19.451-.425.451h-3.284c-.238 0-.428-.202-.428-.451v-15.559c0-.25.19-.451.428-.451h3.284c.235 0 .425.201.425.451z"/><path d="m26.986 57.246c0 .32-.192.583-.426.583h-3.287c-.235 0-.428-.263-.428-.583v-19.949c0-.321.193-.58.428-.58h3.287c.234 0 .426.259.426.58z"/><path d="m65.426 55.052c0 .249.191.451.428.451h3.283c.236 0 .428-.202.428-.451v-15.559c0-.25-.191-.451-.428-.451h-3.283c-.236 0-.428.201-.428.451z"/><path d="m59.12 57.246c0 .32.194.583.427.583h3.284c.239 0 .429-.263.429-.583v-19.949c0-.321-.189-.58-.429-.58h-3.284c-.232 0-.427.259-.427.58z"/></g><path d="m28.802 47.044h28.387" fill="none" stroke="#fff" stroke-miterlimit="10" stroke-width="2"/><path d="m71.145 47.044h3.41" fill="none" stroke="#fff" stroke-miterlimit="10" stroke-width="2"/><path d="m11.695 47.044h3.409" fill="none" stroke="#fff" stroke-miterlimit="10" stroke-width="2"/></svg>