<svg enable-background="new 0 0 86 98" height="98" viewBox="0 0 86 98" width="86" xmlns="http://www.w3.org/2000/svg"><path d="m26.104 27.38-.175-1.69h-6.471l-.172 1.69z" fill="#fff"/><path d="m20.382 30.013-1.277 18.849h7.173l-1.269-18.849z" fill="none" stroke="#fff" stroke-miterlimit="10" stroke-width="2"/><path d="m22.852 23.235s-.508-5.714 4.139-6.305c4.716-.598 5.075-3.216 5.075-3.216s-.378 6.874-3.105 6.684c-1.991-.139-4.836.063-6.109 2.837z" fill="#fff"/><path d="m38.493 30.958-.154-1.408h-5.692l-.151 1.408z" fill="#fff"/><path d="m33.459 33.152-1.122 15.71h6.309l-1.117-15.71z" fill="none" stroke="#fff" stroke-miterlimit="10" stroke-width="2"/><path d="m35.611 27.338s-.445-4.764 3.641-5.255c4.149-.499 4.464-2.681 4.464-2.681s-.333 5.728-2.73 5.571c-1.752-.117-4.254.051-5.375 2.365z" fill="#fff"/><g fill="none" stroke="#fff" stroke-miterlimit="10"><path d="m19.105 49.047v25.831h47.79v-25.831z" stroke-width="2"/><path d="m24.651 64.033h9.122v10.89h-9.122z" stroke-width="1.9865"/><path d="m38.439 64.033h9.121v10.89h-9.121z" stroke-width="1.9865"/><path d="m52.228 64.033h9.121v10.89h-9.121z" stroke-width="1.9865"/></g></svg>